999
dxflib 3.17.0.0
  0
SECTION
  2
HEADER
  9
$ACADVER
  1
AC1015
  9
$HANDSEED
  5
FFFF
  9
$DIMADEC
 70
0
  9
$DIMASZ
 40
0.18
  9
$DIMAUNIT
 70
0
  9
$DIMAZIN
 70
0
  9
$DIMDEC
 70
4
  9
$DIMDSEP
 70
46
  9
$DIMEXE
 40
0.18
  9
$DIMEXO
 40
0.0625
  9
$DIMGAP
 40
0.09
  9
$DIMLUNIT
 70
2
  9
$DIMSCALE
 40
1.0
  9
$DIMTSZ
 40
0.0
  9
$DIMTXT
 40
0.18
  9
$DIMZIN
 70
0
  9
$DWGCODEPAGE
  3
ANSI_1252
  9
$EXTMAX
 10
0.0
 20
0.0
 30
0.0
  9
$EXTMIN
 10
0.0
 20
0.0
 30
0.0
  9
$INSBASE
 10
0.0
 20
0.0
 30
0.0
  9
$INSUNITS
 70
0
  9
$LTSCALE
 40
1.0
  9
$MAXACTVP
 70
64
  9
$MEASUREMENT
 70
1
  9
$PDMODE
 70
0
  9
$PDSIZE
 40
0.0
  0
ENDSEC
  0
SECTION
  2
TABLES
  0
TABLE
  2
VPORT
  5
8
100
AcDbSymbolTable
 70
1
  0
VPORT
  5
30
100
AcDbSymbolTableRecord
100
AcDbViewportTableRecord
  2
*Active
 70
0
 10
0.0
 20
0.0
 11
1.0
 21
1.0
 12
286.3055555555554861
 22
148.5
 13
0.0
 23
0.0
 14
10.0
 24
10.0
 15
10.0
 25
10.0
 16
0.0
 26
0.0
 36
1.0
 17
0.0
 27
0.0
 37
0.0
 40
297.0
 41
1.92798353909465
 42
50.0
 43
0.0
 44
0.0
 50
0.0
 51
0.0
 71
0
 72
100
 73
1
 74
3
 75
1
 76
1
 77
0
 78
0
281
0
 65
1
110
0.0
120
0.0
130
0.0
111
1.0
121
0.0
131
0.0
112
0.0
122
1.0
132
0.0
 79
0
146
0.0
  0
ENDTAB
  0
TABLE
  2
LTYPE
  5
5
100
AcDbSymbolTable
 70
41
  0
LTYPE
  5
16
100
AcDbSymbolTableRecord
100
AcDbLinetypeTableRecord
  2
CONTINUOUS
 70
0
  3
Solid line
 72
65
 73
0
 40
0.0
  0
LTYPE
  5
31
100
AcDbSymbolTableRecord
100
AcDbLinetypeTableRecord
  2
PHANTOM
 70
0
  3
Phantom ______  __  __  ______  __  __  ______ 
 72
65
 73
6
 40
63.5000000000000071
 49
31.75
 74
0
 49
-6.3499999999999996
 74
0
 49
6.3499999999999996
 74
0
 49
-6.3499999999999996
 74
0
 49
6.3499999999999996
 74
0
 49
-6.3499999999999996
 74
0
  0
LTYPE
  5
32
100
AcDbSymbolTableRecord
100
AcDbLinetypeTableRecord
  2
DOT
 70
0
  3
Dot . . . . . . . . . . . . . . . . . . . . . . . .
 72
65
 73
2
 40
6.3499999999999996
 49
0.0
 74
0
 49
-6.3499999999999996
 74
0
  0
LTYPE
  5
33
100
AcDbSymbolTableRecord
100
AcDbLinetypeTableRecord
  2
DASHDOT
 70
0
  3
Dash dot __ . __ . __ . __ . __ . __ . __ . __
 72
65
 73
4
 40
25.3999999999999986
 49
12.6999999999999993
 74
0
 49
-6.3499999999999996
 74
0
 49
0.0
 74
0
 49
-6.3499999999999996
 74
0
  0
LTYPE
  5
34
100
AcDbSymbolTableRecord
100
AcDbLinetypeTableRecord
  2
ACAD_ISO09W100
 70
0
  3
ISO long-dash double-short-dash ____ __ __ ____
 72
65
 73
6
 40
45.0
 49
24.0
 74
0
 49
-3.0
 74
0
 49
6.0
 74
0
 49
-3.0
 74
0
 49
6.0
 74
0
 49
-3.0
 74
0
  0
LTYPE
  5
35
100
AcDbSymbolTableRecord
100
AcDbLinetypeTableRecord
  2
HIDDEN2
 70
0
  3
Hidden (.5x) _ _ _ _ _ _ _ _ _ _ _ _ _ _ _ _ _ 
 72
65
 73
2
 40
4.7624999999999993
 49
3.1749999999999998
 74
0
 49
-1.5874999999999999
 74
0
  0
LTYPE
  5
36
100
AcDbSymbolTableRecord
100
AcDbLinetypeTableRecord
  2
ACAD_ISO04W100
 70
0
  3
ISO long-dash dot ____ . ____ . ____ . ____ . _
 72
65
 73
4
 40
30.0
 49
24.0
 74
0
 49
-3.0
 74
0
 49
0.0
 74
0
 49
-3.0
 74
0
  0
LTYPE
  5
37
100
AcDbSymbolTableRecord
100
AcDbLinetypeTableRecord
  2
DASHDOT2
 70
0
  3
Dash dot (.5x) _._._._._._._._._._._._._._._.
 72
65
 73
4
 40
12.6999999999999993
 49
6.3499999999999996
 74
0
 49
-3.1749999999999998
 74
0
 49
0.0
 74
0
 49
-3.1749999999999998
 74
0
  0
LTYPE
  5
38
100
AcDbSymbolTableRecord
100
AcDbLinetypeTableRecord
  2
PHANTOMX2
 70
0
  3
Phantom (2x) ____________    ____    ____   _
 72
65
 73
6
 40
127.0000000000000142
 49
63.5
 74
0
 49
-12.6999999999999993
 74
0
 49
12.6999999999999993
 74
0
 49
-12.6999999999999993
 74
0
 49
12.6999999999999993
 74
0
 49
-12.6999999999999993
 74
0
  0
LTYPE
  5
39
100
AcDbSymbolTableRecord
100
AcDbLinetypeTableRecord
  2
ACAD_ISO14W100
 70
0
  3
ISO dash triple-dot __ . . . __ . . . __ . . . _
 72
65
 73
8
 40
24.0
 49
12.0
 74
0
 49
-3.0
 74
0
 49
0.0
 74
0
 49
-3.0
 74
0
 49
0.0
 74
0
 49
-3.0
 74
0
 49
0.0
 74
0
 49
-3.0
 74
0
  0
LTYPE
  5
3A
100
AcDbSymbolTableRecord
100
AcDbLinetypeTableRecord
  2
PHANTOM2
 70
0
  3
Phantom (.5x) ___ _ _ ___ _ _ ___ _ _ ___ _ _
 72
65
 73
6
 40
31.7500000000000036
 49
15.875
 74
0
 49
-3.1749999999999998
 74
0
 49
3.1749999999999998
 74
0
 49
-3.1749999999999998
 74
0
 49
3.1749999999999998
 74
0
 49
-3.1749999999999998
 74
0
  0
LTYPE
  5
14
100
AcDbSymbolTableRecord
100
AcDbLinetypeTableRecord
  2
BYBLOCK
 70
0
  3

 72
65
 73
0
 40
0.0
  0
LTYPE
  5
3B
100
AcDbSymbolTableRecord
100
AcDbLinetypeTableRecord
  2
BORDERX2
 70
0
  3
Border (2x) ____  ____  .  ____  ____  .  ___
 72
65
 73
6
 40
88.8999999999999915
 49
25.3999999999999986
 74
0
 49
-12.6999999999999993
 74
0
 49
25.3999999999999986
 74
0
 49
-12.6999999999999993
 74
0
 49
0.0
 74
0
 49
-12.6999999999999993
 74
0
  0
LTYPE
  5
3C
100
AcDbSymbolTableRecord
100
AcDbLinetypeTableRecord
  2
ACAD_ISO07W100
 70
0
  3
ISO dot . . . . . . . . . . . . . . . . . . . . 
 72
65
 73
2
 40
3.0
 49
0.0
 74
0
 49
-3.0
 74
0
  0
LTYPE
  5
3D
100
AcDbSymbolTableRecord
100
AcDbLinetypeTableRecord
  2
ACAD_ISO11W100
 70
0
  3
ISO double-dash dot __ __ . __ __ . __ __ . __ _
 72
65
 73
6
 40
33.0
 49
12.0
 74
0
 49
-3.0
 74
0
 49
12.0
 74
0
 49
-3.0
 74
0
 49
0.0
 74
0
 49
-3.0
 74
0
  0
LTYPE
  5
3E
100
AcDbSymbolTableRecord
100
AcDbLinetypeTableRecord
  2
DASHEDX2
 70
0
  3
Dashed (2x) ____  ____  ____  ____  ____  ___
 72
65
 73
2
 40
38.0999999999999943
 49
25.3999999999999986
 74
0
 49
-12.6999999999999993
 74
0
  0
LTYPE
  5
3F
100
AcDbSymbolTableRecord
100
AcDbLinetypeTableRecord
  2
DIVIDEX2
 70
0
  3
Divide (2x) ________  .  .  ________  .  .  _
 72
65
 73
6
 40
63.5
 49
25.3999999999999986
 74
0
 49
-12.6999999999999993
 74
0
 49
0.0
 74
0
 49
-12.6999999999999993
 74
0
 49
0.0
 74
0
 49
-12.6999999999999993
 74
0
  0
LTYPE
  5
40
100
AcDbSymbolTableRecord
100
AcDbLinetypeTableRecord
  2
CENTER2
 70
0
  3
Center (.5x) ___ _ ___ _ ___ _ ___ _ ___ _ ___
 72
65
 73
4
 40
28.5750000000000028
 49
19.0500000000000007
 74
0
 49
-3.1749999999999998
 74
0
 49
3.1749999999999998
 74
0
 49
-3.1749999999999998
 74
0
  0
LTYPE
  5
41
100
AcDbSymbolTableRecord
100
AcDbLinetypeTableRecord
  2
ACAD_ISO08W100
 70
0
  3
ISO long-dash short-dash ____ __ ____ __ ____ _
 72
65
 73
4
 40
36.0
 49
24.0
 74
0
 49
-3.0
 74
0
 49
6.0
 74
0
 49
-3.0
 74
0
  0
LTYPE
  5
42
100
AcDbSymbolTableRecord
100
AcDbLinetypeTableRecord
  2
ACAD_ISO12W100
 70
0
  3
ISO dash double-dot __ . . __ . . __ . . __ . . 
 72
65
 73
6
 40
21.0
 49
12.0
 74
0
 49
-3.0
 74
0
 49
0.0
 74
0
 49
-3.0
 74
0
 49
0.0
 74
0
 49
-3.0
 74
0
  0
LTYPE
  5
43
100
AcDbSymbolTableRecord
100
AcDbLinetypeTableRecord
  2
ACAD_ISO05W100
 70
0
  3
ISO long-dash double-dot ____ .. ____ .. ____ . 
 72
65
 73
6
 40
33.0
 49
24.0
 74
0
 49
-3.0
 74
0
 49
0.0
 74
0
 49
-3.0
 74
0
 49
0.0
 74
0
 49
-3.0
 74
0
  0
LTYPE
  5
44
100
AcDbSymbolTableRecord
100
AcDbLinetypeTableRecord
  2
CENTER
 70
0
  3
Center ____ _ ____ _ ____ _ ____ _ ____ _ ____
 72
65
 73
4
 40
50.8000000000000043
 49
31.75
 74
0
 49
-6.3499999999999996
 74
0
 49
6.3499999999999996
 74
0
 49
-6.3499999999999996
 74
0
  0
LTYPE
  5
45
100
AcDbSymbolTableRecord
100
AcDbLinetypeTableRecord
  2
DIVIDE
 70
0
  3
Divide ____ . . ____ . . ____ . . ____ . . ____
 72
65
 73
6
 40
31.75
 49
12.6999999999999993
 74
0
 49
-6.3499999999999996
 74
0
 49
0.0
 74
0
 49
-6.3499999999999996
 74
0
 49
0.0
 74
0
 49
-6.3499999999999996
 74
0
  0
LTYPE
  5
46
100
AcDbSymbolTableRecord
100
AcDbLinetypeTableRecord
  2
HIDDEN
 70
0
  3
Hidden __ __ __ __ __ __ __ __ __ __ __ __ __ __
 72
65
 73
2
 40
9.5249999999999986
 49
6.3499999999999996
 74
0
 49
-3.1749999999999998
 74
0
  0
LTYPE
  5
47
100
AcDbSymbolTableRecord
100
AcDbLinetypeTableRecord
  2
DASHDOTX2
 70
0
  3
Dash dot (2x) ____  .  ____  .  ____  .  ___
 72
65
 73
4
 40
50.7999999999999972
 49
25.3999999999999986
 74
0
 49
-12.6999999999999993
 74
0
 49
0.0
 74
0
 49
-12.6999999999999993
 74
0
  0
LTYPE
  5
48
100
AcDbSymbolTableRecord
100
AcDbLinetypeTableRecord
  2
ACAD_ISO06W100
 70
0
  3
ISO long-dash triple-dot ____ ... ____ ... ____
 72
65
 73
8
 40
36.0
 49
24.0
 74
0
 49
-3.0
 74
0
 49
0.0
 74
0
 49
-3.0
 74
0
 49
0.0
 74
0
 49
-3.0
 74
0
 49
0.0
 74
0
 49
-3.0
 74
0
  0
LTYPE
  5
49
100
AcDbSymbolTableRecord
100
AcDbLinetypeTableRecord
  2
BORDER2
 70
0
  3
Border (.5x) __.__.__.__.__.__.__.__.__.__.__.
 72
65
 73
6
 40
22.2249999999999979
 49
6.3499999999999996
 74
0
 49
-3.1749999999999998
 74
0
 49
6.3499999999999996
 74
0
 49
-3.1749999999999998
 74
0
 49
0.0
 74
0
 49
-3.1749999999999998
 74
0
  0
LTYPE
  5
4A
100
AcDbSymbolTableRecord
100
AcDbLinetypeTableRecord
  2
DASHED
 70
0
  3
Dashed __ __ __ __ __ __ __ __ __ __ __ __ __ _
 72
65
 73
2
 40
19.0499999999999972
 49
12.6999999999999993
 74
0
 49
-6.3499999999999996
 74
0
  0
LTYPE
  5
15
100
AcDbSymbolTableRecord
100
AcDbLinetypeTableRecord
  2
BYLAYER
 70
0
  3

 72
65
 73
0
 40
0.0
  0
LTYPE
  5
4B
100
AcDbSymbolTableRecord
100
AcDbLinetypeTableRecord
  2
CENTERX2
 70
0
  3
Center (2x) ________  __  ________  __  _____
 72
65
 73
4
 40
101.6000000000000085
 49
63.5
 74
0
 49
-12.6999999999999993
 74
0
 49
12.6999999999999993
 74
0
 49
-12.6999999999999993
 74
0
  0
LTYPE
  5
4C
100
AcDbSymbolTableRecord
100
AcDbLinetypeTableRecord
  2
HIDDENX2
 70
0
  3
Hidden (2x) ____ ____ ____ ____ ____ ____ ____ 
 72
65
 73
2
 40
19.0499999999999972
 49
12.6999999999999993
 74
0
 49
-6.3499999999999996
 74
0
  0
LTYPE
  5
4D
100
AcDbSymbolTableRecord
100
AcDbLinetypeTableRecord
  2
ACAD_ISO15W100
 70
0
  3
ISO double-dash triple-dot __ __ . . . __ __ . .
 72
65
 73
10
 40
39.0
 49
12.0
 74
0
 49
-3.0
 74
0
 49
12.0
 74
0
 49
-3.0
 74
0
 49
0.0
 74
0
 49
-3.0
 74
0
 49
0.0
 74
0
 49
-3.0
 74
0
 49
0.0
 74
0
 49
-3.0
 74
0
  0
LTYPE
  5
4E
100
AcDbSymbolTableRecord
100
AcDbLinetypeTableRecord
  2
DASHED2
 70
0
  3
Dashed (.5x) _ _ _ _ _ _ _ _ _ _ _ _ _ _ _ _ _ 
 72
65
 73
2
 40
9.5249999999999986
 49
6.3499999999999996
 74
0
 49
-3.1749999999999998
 74
0
  0
LTYPE
  5
4F
100
AcDbSymbolTableRecord
100
AcDbLinetypeTableRecord
  2
DIVIDE2
 70
0
  3
Divide (.5x) __..__..__..__..__..__..__..__.._
 72
65
 73
6
 40
15.875
 49
6.3499999999999996
 74
0
 49
-3.1749999999999998
 74
0
 49
0.0
 74
0
 49
-3.1749999999999998
 74
0
 49
0.0
 74
0
 49
-3.1749999999999998
 74
0
  0
LTYPE
  5
50
100
AcDbSymbolTableRecord
100
AcDbLinetypeTableRecord
  2
DOTX2
 70
0
  3
Dot (2x) .  .  .  .  .  .  .  .  .  .  .  .  .  .
 72
65
 73
2
 40
12.6999999999999993
 49
0.0
 74
0
 49
-12.6999999999999993
 74
0
  0
LTYPE
  5
51
100
AcDbSymbolTableRecord
100
AcDbLinetypeTableRecord
  2
ACAD_ISO03W100
 70
0
  3
ISO dash space __    __    __    __    __    __
 72
65
 73
2
 40
30.0
 49
12.0
 74
0
 49
-18.0
 74
0
  0
LTYPE
  5
52
100
AcDbSymbolTableRecord
100
AcDbLinetypeTableRecord
  2
ACAD_ISO02W100
 70
0
  3
ISO dash __ __ __ __ __ __ __ __ __ __ __ __ __
 72
65
 73
2
 40
15.0
 49
12.0
 74
0
 49
-3.0
 74
0
  0
LTYPE
  5
53
100
AcDbSymbolTableRecord
100
AcDbLinetypeTableRecord
  2
ACAD_ISO10W100
 70
0
  3
ISO dash dot __ . __ . __ . __ . __ . __ . __ . 
 72
65
 73
4
 40
18.0
 49
12.0
 74
0
 49
-3.0
 74
0
 49
0.0
 74
0
 49
-3.0
 74
0
  0
LTYPE
  5
54
100
AcDbSymbolTableRecord
100
AcDbLinetypeTableRecord
  2
DOT2
 70
0
  3
Dot (.5x) ........................................
 72
65
 73
2
 40
3.1749999999999998
 49
0.0
 74
0
 49
-3.1749999999999998
 74
0
  0
LTYPE
  5
55
100
AcDbSymbolTableRecord
100
AcDbLinetypeTableRecord
  2
BORDER
 70
0
  3
Border __ __ . __ __ . __ __ . __ __ . __ __ .
 72
65
 73
6
 40
44.4499999999999957
 49
12.6999999999999993
 74
0
 49
-6.3499999999999996
 74
0
 49
12.6999999999999993
 74
0
 49
-6.3499999999999996
 74
0
 49
0.0
 74
0
 49
-6.3499999999999996
 74
0
  0
LTYPE
  5
56
100
AcDbSymbolTableRecord
100
AcDbLinetypeTableRecord
  2
ACAD_ISO13W100
 70
0
  3
ISO double-dash double-dot __ __ . . __ __ . . _
 72
65
 73
8
 40
36.0
 49
12.0
 74
0
 49
-3.0
 74
0
 49
12.0
 74
0
 49
-3.0
 74
0
 49
0.0
 74
0
 49
-3.0
 74
0
 49
0.0
 74
0
 49
-3.0
 74
0
  0
ENDTAB
  0
TABLE
  2
LAYER
  5
2
100
AcDbSymbolTable
 70
1
  0
LAYER
  5
10
100
AcDbSymbolTableRecord
100
AcDbLayerTableRecord
  2
0
 70
0
 62
7
420
16777215
  6
CONTINUOUS
370
5
390
F
  0
ENDTAB
  0
TABLE
  2
STYLE
  5
3
100
AcDbSymbolTable
 70
1
  0
STYLE
  5
57
100
AcDbSymbolTableRecord
100
AcDbTextStyleTableRecord
  2
Standard
 70
0
 40
0.0
 41
1.0
 50
0.0
 71
0
 42
2.5
  3

  4

1001
ACAD
1000
txt
1071
0
  0
ENDTAB
  0
TABLE
  2
VIEW
  5
6
100
AcDbSymbolTable
 70
0
  0
ENDTAB
  0
TABLE
  2
UCS
  5
7
100
AcDbSymbolTable
 70
0
  0
ENDTAB
  0
TABLE
  2
APPID
  5
9
100
AcDbSymbolTable
 70
1
  0
APPID
  5
12
100
AcDbSymbolTableRecord
100
AcDbRegAppTableRecord
  2
ACAD
 70
0
  0
APPID
  5
58
100
AcDbSymbolTableRecord
100
AcDbRegAppTableRecord
  2
QCAD
 70
0
  0
ENDTAB
  0
TABLE
  2
DIMSTYLE
  5
A
100
AcDbSymbolTable
 70
1
100
AcDbDimStyleTable
 71
0
  0
DIMSTYLE
105
27
100
AcDbSymbolTableRecord
100
AcDbDimStyleTableRecord
  2
Standard
 41
0.18
 42
0.0625
 43
3.75
 44
0.18
 70
0
 73
0
 74
0
 77
1
 78
8
140
0.18
141
2.5
143
0.03937007874016
147
0.09
171
3
172
1
271
2
272
2
274
3
278
44
283
0
284
8
340
57
  0
ENDTAB
  0
TABLE
  2
BLOCK_RECORD
  5
1
100
AcDbSymbolTable
 70
1
  0
BLOCK_RECORD
  5
1F
100
AcDbSymbolTableRecord
100
AcDbBlockTableRecord
  2
*Model_Space
340
22
  0
BLOCK_RECORD
  5
1B
100
AcDbSymbolTableRecord
100
AcDbBlockTableRecord
  2
*Paper_Space
340
1E
  0
BLOCK_RECORD
  5
23
100
AcDbSymbolTableRecord
100
AcDbBlockTableRecord
  2
*Paper_Space0
340
26
  0
BLOCK_RECORD
  5
59
100
AcDbSymbolTableRecord
100
AcDbBlockTableRecord
  2
SUBTRACTION044
340
0
  0
BLOCK_RECORD
  5
5A
100
AcDbSymbolTableRecord
100
AcDbBlockTableRecord
  2
SUBTRACTION042
340
0
  0
BLOCK_RECORD
  5
5B
100
AcDbSymbolTableRecord
100
AcDbBlockTableRecord
  2
SUBTRACTION038
340
0
  0
BLOCK_RECORD
  5
5C
100
AcDbSymbolTableRecord
100
AcDbBlockTableRecord
  2
SUBTRACTION048
340
0
  0
BLOCK_RECORD
  5
5D
100
AcDbSymbolTableRecord
100
AcDbBlockTableRecord
  2
SUBTRACTION040
340
0
  0
BLOCK_RECORD
  5
5E
100
AcDbSymbolTableRecord
100
AcDbBlockTableRecord
  2
SUBTRACTION050
340
0
  0
BLOCK_RECORD
  5
5F
100
AcDbSymbolTableRecord
100
AcDbBlockTableRecord
  2
SUBTRACTION039
340
0
  0
BLOCK_RECORD
  5
60
100
AcDbSymbolTableRecord
100
AcDbBlockTableRecord
  2
SUBTRACTION047
340
0
  0
ENDTAB
  0
ENDSEC
  0
SECTION
  2
BLOCKS
  0
BLOCK
  5
20
100
AcDbEntity
  8
0
100
AcDbBlockBegin
  2
*Model_Space
 70
0
 10
0.0
 20
0.0
 30
0.0
  3
*Model_Space
  1

  0
ENDBLK
  5
21
100
AcDbEntity
  8
0
100
AcDbBlockEnd
  0
BLOCK
  5
1C
100
AcDbEntity
 67
1
  8
0
100
AcDbBlockBegin
  2
*Paper_Space
 70
0
 10
0.0
 20
0.0
 30
0.0
  3
*Paper_Space
  1

  0
ENDBLK
  5
1D
100
AcDbEntity
 67
1
  8
0
100
AcDbBlockEnd
  0
BLOCK
  5
24
100
AcDbEntity
  8
0
100
AcDbBlockBegin
  2
*Paper_Space0
 70
0
 10
0.0
 20
0.0
 30
0.0
  3
*Paper_Space0
  1

  0
ENDBLK
  5
25
100
AcDbEntity
  8
0
100
AcDbBlockEnd
  0
BLOCK
  5
61
100
AcDbEntity
  8
0
100
AcDbBlockBegin
  2
SUBTRACTION044
 70
0
 10
0.0
 20
0.0
 30
0.0
  3
SUBTRACTION044
  1

  0
LWPOLYLINE
  5
62
100
AcDbEntity
  8
0
 62
256
370
-1
 48
1.0
  6
BYLAYER
100
AcDbPolyline
 90
112
 70
1
 10
608.9194985230000157
 20
445.232487089000017
 42
0.414213562373
 10
609.6194985229999475
 20
444.5324870890000284
 10
628.2194985229999702
 20
444.5324870890000284
 42
0.414213562373
 10
628.9194985230000157
 20
445.232487089000017
 10
628.9194985230000157
 20
463.8324870889999829
 42
-0.414213562373
 10
629.6194985229999475
 20
464.5324870890000284
 10
640.2194985229999702
 20
464.5324870890000284
 42
-0.414213562373
 10
640.9194985230000157
 20
463.8324870889999829
 10
640.9194985230000157
 20
430.232487089000017
 42
-0.414213562373
 10
640.2194985229999702
 20
429.5324870890000284
 10
594.6194985229999475
 20
429.5324870890000284
 42
0.414213562373
 10
593.9194985230000157
 20
428.8324870889999829
 10
593.9194985230000157
 20
423.7764870889999997
 42
1.0
 10
593.9194985230000157
 20
420.176487088999977
 10
593.9194985230000157
 20
418.676487088999977
 42
1.0
 10
593.9194985230000157
 20
415.0764870890000111
 10
593.9194985230000157
 20
413.5764870890000111
 42
1.0
 10
593.9194985230000157
 20
409.9764870889999884
 10
593.9194985230000157
 20
408.4764870889999884
 42
1.0
 10
593.9194985230000157
 20
404.8764870890000225
 10
593.9194985230000157
 20
403.3764870890000225
 42
1.0
 10
593.9194985230000157
 20
399.7764870889999997
 10
593.9194985230000157
 20
398.2764870889999997
 42
1.0
 10
593.9194985230000157
 20
394.676487088999977
 10
593.9194985230000157
 20
393.176487088999977
 42
1.0
 10
593.9194985230000157
 20
389.5764870890000111
 10
593.9194985230000157
 20
388.0764870890000111
 42
1.0
 10
593.9194985230000157
 20
384.4764870889999884
 10
593.9194985230000157
 20
382.9764870889999884
 42
1.0
 10
593.9194985230000157
 20
379.3764870890000225
 10
593.9194985230000157
 20
377.8764870890000225
 42
1.0
 10
593.9194985230000157
 20
374.2764870889999997
 10
593.9194985230000157
 20
372.7764870889999997
 42
1.0
 10
593.9194985230000157
 20
369.176487088999977
 10
593.9194985230000157
 20
367.676487088999977
 42
1.0
 10
593.9194985230000157
 20
364.0764870890000111
 10
593.9194985230000157
 20
362.5764870890000111
 42
1.0
 10
593.9194985230000157
 20
358.9764870889999884
 10
593.9194985230000157
 20
357.4764870889999884
 42
1.0
 10
593.9194985230000157
 20
353.8764870890000225
 10
593.9194985230000157
 20
352.3764870890000225
 42
1.0
 10
593.9194985230000157
 20
348.7764870889999997
 10
593.9194985230000157
 20
347.2764870889999997
 42
1.0
 10
593.9194985230000157
 20
343.676487088999977
 10
593.9194985230000157
 20
342.176487088999977
 42
1.0
 10
593.9194985230000157
 20
338.5764870890000111
 10
593.9194985230000157
 20
337.0764870890000111
 42
1.0
 10
593.9194985230000157
 20
333.4764870889999884
 10
593.9194985230000157
 20
331.9764870889999884
 42
1.0
 10
593.9194985230000157
 20
328.3764870890000225
 10
593.9194985230000157
 20
326.8764870890000225
 42
1.0
 10
593.9194985230000157
 20
323.2764870889999997
 10
593.9194985230000157
 20
321.7764870889999997
 42
1.0
 10
593.9194985230000157
 20
318.176487088999977
 10
593.9194985230000157
 20
316.676487088999977
 42
1.0
 10
593.9194985230000157
 20
313.0764870890000111
 10
593.9194985230000157
 20
311.5764870890000111
 42
1.0
 10
593.9194985230000157
 20
307.9764870889999884
 10
593.9194985230000157
 20
306.4764870889999884
 42
1.0
 10
593.9194985230000157
 20
302.8764870890000225
 10
593.9194985230000157
 20
299.232487089000017
 42
0.414213562373
 10
594.6194985229999475
 20
298.5324870890000284
 10
608.2194985229999702
 20
298.5324870890000284
 42
-0.414213562373
 10
608.9194985230000157
 20
297.8324870889999829
 10
608.9194985230000157
 20
171.2324870889999886
 42
-0.414213562373
 10
608.2194985229999702
 20
170.532487089
 10
569.6194985229999475
 20
170.532487089
 42
0.414213562373
 10
568.9194985230000157
 20
169.8324870890000113
 10
568.9194985230000157
 20
59.2324870890000028
 42
-0.414213562373
 10
568.2194985229999702
 20
58.532487089
 10
554.6194985229999475
 20
58.532487089
 42
0.414213562373
 10
553.9194985230000157
 20
57.8324870889999971
 10
553.9194985230000157
 20
55.2324870890000028
 42
-0.414213562373
 10
553.2194985229999702
 20
54.532487089
 10
494.6194985230000043
 20
54.532487089
 42
-0.414213562373
 10
493.9194985230000157
 20
55.2324870890000028
 10
493.9194985230000157
 20
57.8324870889999971
 42
0.414213562373
 10
493.219498523000027
 20
58.532487089
 10
470.2488763239999798
 20
58.532487089
 42
-0.60360054977
 10
469.6717169770000169
 20
59.6285768368000006
 10
503.7109326639999836
 20
109.2285768370000056
 42
-0.247193386338
 10
504.2880920110000034
 20
109.532487089
 10
523.2194985229999702
 20
109.532487089
 42
0.414213562373
 10
523.9194985230000157
 20
110.2324870890000028
 10
523.9194985230000157
 20
113.8324870889999971
 42
0.414213562373
 10
523.2194985229999702
 20
114.532487089
 10
504.6194985230000043
 20
114.532487089
 42
-0.414213562373
 10
503.9194985230000157
 20
115.2324870890000028
 10
503.9194985230000157
 20
184.1229942280000103
 42
-0.116021577738
 10
503.9928909879999992
 20
184.4350246710000079
 10
533.8461060580000321
 20
244.3851031629999966
 42
0.116021577738
 10
533.9194985230000157
 20
244.6971336059999942
 10
533.9194985230000157
 20
303.8324870889999829
 42
-0.414213562373
 10
534.6194985229999475
 20
304.5324870890000284
 10
553.2194985229999702
 20
304.5324870890000284
 42
0.414213562373
 10
553.9194985230000157
 20
305.232487089000017
 10
553.9194985230000157
 20
308.8324870889999829
 42
0.414213562373
 10
553.2194985229999702
 20
309.5324870890000284
 10
534.6194985229999475
 20
309.5324870890000284
 42
-0.414213562373
 10
533.9194985230000157
 20
310.232487089000017
 10
533.9194985230000157
 20
463.8324870889999829
 42
-0.414213562373
 10
534.6194985229999475
 20
464.5324870890000284
 10
563.2194985229999702
 20
464.5324870890000284
 42
-0.414213562373
 10
563.9194985230000157
 20
463.8324870889999829
 10
563.9194985230000157
 20
445.232487089000017
 42
0.414213562373
 10
564.6194985229999475
 20
444.5324870890000284
 10
583.2194985229999702
 20
444.5324870890000284
 42
0.414213562373
 10
583.9194985230000157
 20
445.232487089000017
 10
583.9194985230000157
 20
463.8324870889999829
 42
-0.414213562373
 10
584.6194985229999475
 20
464.5324870890000284
 10
608.2194985229999702
 20
464.5324870890000284
 42
-0.414213562373
 10
608.9194985230000157
 20
463.8324870889999829
  0
CIRCLE
  5
63
100
AcDbEntity
  8
0
 62
0
370
-1
 48
1.0
  6
BYLAYER
100
AcDbCircle
 10
578.6352272829999492
 20
419.6597453900000119
 30
0.0
 40
2.0
  0
CIRCLE
  5
64
100
AcDbEntity
  8
0
 62
0
370
-1
 48
1.0
  6
BYLAYER
100
AcDbCircle
 10
578.6352272829999492
 20
304.6597453900000119
 30
0.0
 40
2.0
  0
LWPOLYLINE
  5
65
100
AcDbEntity
  8
0
 62
256
370
-1
 48
1.0
  6
BYLAYER
100
AcDbPolyline
 90
8
 70
1
 10
589.1194985229999475
 20
182.532487089
 42
0.414213562373
 10
589.4194985230000157
 20
182.8324870890000113
 10
589.4194985230000157
 20
292.232487089000017
 42
0.414213562373
 10
589.1194985229999475
 20
292.5324870890000284
 10
588.7194985229999702
 20
292.5324870890000284
 42
0.414213562373
 10
588.4194985230000157
 20
292.232487089000017
 10
588.4194985230000157
 20
182.8324870890000113
 42
0.414213562373
 10
588.7194985229999702
 20
182.532487089
  0
LWPOLYLINE
  5
66
100
AcDbEntity
  8
0
 62
256
370
-1
 48
1.0
  6
BYLAYER
100
AcDbPolyline
 90
30
 70
1
 10
551.9794985229999611
 20
145.8924870890000136
 10
549.5994985229999656
 20
146.2724870890000091
 10
547.629498523000052
 20
147.1524870890000045
 10
546.3594985229999565
 20
148.1724870889999863
 10
545.8694985229999475
 20
148.9224870889999863
 10
546.0494985230000111
 20
149.3524870889999931
 10
546.4794985229999611
 20
149.5424870889999909
 10
547.3394985229999747
 20
148.9524870889999875
 10
549.1794985230000066
 20
147.7624870889999897
 10
551.9194985230000157
 20
147.1724870889999863
 10
555.5694985229999929
 20
148.7024870889999875
 10
556.989498522999952
 20
152.7024870889999875
 10
555.7694985230000384
 20
156.1024870889999931
 10
552.629498523000052
 20
157.4124870889999954
 10
550.4694985229999702
 20
157.2524870889999988
 10
548.9394985229999975
 20
156.9324870890000057
 10
548.0794985229999838
 20
156.7724870890000091
 10
547.4994985230000566
 20
157.4024870890000045
 10
547.4994985230000566
 20
165.0924870890000022
 10
556.1594985230000248
 20
165.0924870890000022
 10
557.0194985230000384
 20
164.4724870889999977
 10
556.1594985230000248
 20
163.8124870890000011
 10
548.7594985230000475
 20
163.8124870890000011
 10
548.7594985230000475
 20
157.7524870889999988
 10
552.809498523000002
 20
158.6924870889999966
 10
556.7094985229999793
 20
156.9724870889999977
 10
558.2494985230000566
 20
152.6324870889999943
 10
557.8069985229999475
 20
149.9574870890000113
 10
556.4794985229999611
 20
147.7924870889999909
 10
554.4744985229999656
 20
146.3674870890000079
  0
LWPOLYLINE
  5
67
100
AcDbEntity
  8
0
 62
256
370
-1
 48
1.0
  6
BYLAYER
100
AcDbPolyline
 90
8
 70
1
 10
599.1194985229999475
 20
292.5324870890000284
 42
-0.414213562373
 10
599.4194985230000157
 20
292.232487089000017
 10
599.4194985230000157
 20
182.8324870890000113
 42
-0.414213562373
 10
599.1194985229999475
 20
182.532487089
 10
598.7194985229999702
 20
182.532487089
 42
-0.414213562373
 10
598.4194985230000157
 20
182.8324870890000113
 10
598.4194985230000157
 20
292.232487089000017
 42
-0.414213562373
 10
598.7194985229999702
 20
292.5324870890000284
  0
ENDBLK
  5
68
100
AcDbEntity
  8
0
100
AcDbBlockEnd
  0
BLOCK
  5
69
100
AcDbEntity
  8
0
100
AcDbBlockBegin
  2
SUBTRACTION042
 70
0
 10
0.0
 20
0.0
 30
0.0
  3
SUBTRACTION042
  1

  0
LWPOLYLINE
  5
6A
100
AcDbEntity
  8
0
 62
256
370
-1
 48
1.0
  6
BYLAYER
100
AcDbPolyline
 90
112
 70
1
 10
493.670622198999979
 20
445.6999999999999886
 42
0.414213562373
 10
494.3706221990000245
 20
445.0
 10
512.9706221989999904
 20
445.0
 42
0.414213562373
 10
513.6706221990000358
 20
445.6999999999999886
 10
513.6706221990000358
 20
464.3000000000000114
 42
-0.414213562373
 10
514.3706221989999676
 20
465.0
 10
524.9706221989999904
 20
465.0
 42
-0.414213562373
 10
525.6706221990000358
 20
464.3000000000000114
 10
525.6706221990000358
 20
430.6999999999999886
 42
-0.414213562373
 10
524.9706221989999904
 20
430.0
 10
479.3706221990000245
 20
430.0
 42
0.414213562373
 10
478.670622198999979
 20
429.3000000000000114
 10
478.670622198999979
 20
423.6070000000000277
 42
1.0
 10
478.670622198999979
 20
420.007000000000005
 10
478.670622198999979
 20
418.507000000000005
 42
1.0
 10
478.670622198999979
 20
414.9069999999999823
 10
478.670622198999979
 20
413.4069999999999823
 42
1.0
 10
478.670622198999979
 20
409.8070000000000164
 10
478.670622198999979
 20
408.3070000000000164
 42
1.0
 10
478.670622198999979
 20
404.7069999999999936
 10
478.670622198999979
 20
403.2069999999999936
 42
1.0
 10
478.670622198999979
 20
399.6070000000000277
 10
478.670622198999979
 20
398.1070000000000277
 42
1.0
 10
478.670622198999979
 20
394.507000000000005
 10
478.670622198999979
 20
393.007000000000005
 42
1.0
 10
478.670622198999979
 20
389.4069999999999823
 10
478.670622198999979
 20
387.9069999999999823
 42
1.0
 10
478.670622198999979
 20
384.3070000000000164
 10
478.670622198999979
 20
382.8070000000000164
 42
1.0
 10
478.670622198999979
 20
379.2069999999999936
 10
478.670622198999979
 20
377.7069999999999936
 42
1.0
 10
478.670622198999979
 20
374.1070000000000277
 10
478.670622198999979
 20
372.6070000000000277
 42
1.0
 10
478.670622198999979
 20
369.007000000000005
 10
478.670622198999979
 20
367.507000000000005
 42
1.0
 10
478.670622198999979
 20
363.9069999999999823
 10
478.670622198999979
 20
362.4069999999999823
 42
1.0
 10
478.670622198999979
 20
358.8070000000000164
 10
478.670622198999979
 20
357.3070000000000164
 42
1.0
 10
478.670622198999979
 20
353.7069999999999936
 10
478.670622198999979
 20
352.2069999999999936
 42
1.0
 10
478.670622198999979
 20
348.6070000000000277
 10
478.670622198999979
 20
347.1070000000000277
 42
1.0
 10
478.670622198999979
 20
343.507000000000005
 10
478.670622198999979
 20
342.007000000000005
 42
1.0
 10
478.670622198999979
 20
338.4069999999999823
 10
478.670622198999979
 20
336.9069999999999823
 42
1.0
 10
478.670622198999979
 20
333.3070000000000164
 10
478.670622198999979
 20
331.8070000000000164
 42
1.0
 10
478.670622198999979
 20
328.2069999999999936
 10
478.670622198999979
 20
326.7069999999999936
 42
1.0
 10
478.670622198999979
 20
323.1070000000000277
 10
478.670622198999979
 20
321.6070000000000277
 42
1.0
 10
478.670622198999979
 20
318.007000000000005
 10
478.670622198999979
 20
316.507000000000005
 42
1.0
 10
478.670622198999979
 20
312.9069999999999823
 10
478.670622198999979
 20
311.4069999999999823
 42
1.0
 10
478.670622198999979
 20
307.8070000000000164
 10
478.670622198999979
 20
306.3070000000000164
 42
1.0
 10
478.670622198999979
 20
302.7069999999999936
 10
478.670622198999979
 20
299.6999999999999886
 42
0.414213562373
 10
479.3706221990000245
 20
299.0
 10
492.9706221989999904
 20
299.0
 42
-0.414213562373
 10
493.670622198999979
 20
298.3000000000000114
 10
493.670622198999979
 20
171.6999999999999886
 42
-0.414213562373
 10
492.9706221989999904
 20
171.0
 10
454.3706221990000245
 20
171.0
 42
0.414213562373
 10
453.670622198999979
 20
170.3000000000000114
 10
453.670622198999979
 20
59.7000000000000028
 42
-0.414213562373
 10
452.9706221989999904
 20
59.0
 10
439.3706221990000245
 20
59.0
 42
0.414213562373
 10
438.670622198999979
 20
58.2999999999999972
 10
438.670622198999979
 20
55.7000000000000028
 42
-0.414213562373
 10
437.9706221989999904
 20
55.0
 10
379.3706221990000245
 20
55.0
 42
-0.414213562373
 10
378.670622198999979
 20
55.7000000000000028
 10
378.670622198999979
 20
58.2999999999999972
 42
0.414213562373
 10
377.9706221989999904
 20
59.0
 10
355.0
 20
59.0
 42
-0.60360054977
 10
354.4228406529999802
 20
60.0960897478000007
 10
388.4620563400000037
 20
109.6960897480000057
 42
-0.247193386338
 10
389.0392156870000235
 20
110.0
 10
407.9706221989999904
 20
110.0
 42
0.414213562373
 10
408.670622198999979
 20
110.7000000000000028
 10
408.670622198999979
 20
114.2999999999999972
 42
0.414213562373
 10
407.9706221989999904
 20
115.0
 10
389.3706221990000245
 20
115.0
 42
-0.414213562373
 10
388.670622198999979
 20
115.7000000000000028
 10
388.670622198999979
 20
184.5905071390000103
 42
-0.116021577738
 10
388.7440146640000194
 20
184.9025375820000079
 10
418.5972297339999955
 20
244.8526160739999966
 42
0.116021577738
 10
418.670622198999979
 20
245.1646465169999942
 10
418.670622198999979
 20
304.3000000000000114
 42
-0.414213562373
 10
419.3706221990000245
 20
305.0
 10
437.9706221989999904
 20
305.0
 42
0.414213562373
 10
438.670622198999979
 20
305.6999999999999886
 10
438.670622198999979
 20
309.3000000000000114
 42
0.414213562373
 10
437.9706221989999904
 20
310.0
 10
419.3706221990000245
 20
310.0
 42
-0.414213562373
 10
418.670622198999979
 20
310.6999999999999886
 10
418.670622198999979
 20
464.3000000000000114
 42
-0.414213562373
 10
419.3706221990000245
 20
465.0
 10
447.9706221989999904
 20
465.0
 42
-0.414213562373
 10
448.670622198999979
 20
464.3000000000000114
 10
448.670622198999979
 20
445.6999999999999886
 42
0.414213562373
 10
449.3706221990000245
 20
445.0
 10
467.9706221989999904
 20
445.0
 42
0.414213562373
 10
468.670622198999979
 20
445.6999999999999886
 10
468.670622198999979
 20
464.3000000000000114
 42
-0.414213562373
 10
469.3706221990000245
 20
465.0
 10
492.9706221989999904
 20
465.0
 42
-0.414213562373
 10
493.670622198999979
 20
464.3000000000000114
  0
LWPOLYLINE
  5
6B
100
AcDbEntity
  8
0
 62
256
370
-1
 48
1.0
  6
BYLAYER
100
AcDbPolyline
 90
8
 70
1
 10
483.8706221990000245
 20
293.0
 42
-0.414213562373
 10
484.170622198999979
 20
292.6999999999999886
 10
484.170622198999979
 20
183.3000000000000114
 42
-0.414213562373
 10
483.8706221990000245
 20
183.0
 10
483.4706221989999904
 20
183.0
 42
-0.414213562373
 10
483.170622198999979
 20
183.3000000000000114
 10
483.170622198999979
 20
292.6999999999999886
 42
-0.414213562373
 10
483.4706221989999904
 20
293.0
  0
LWPOLYLINE
  5
6C
100
AcDbEntity
  8
0
 62
256
370
-1
 48
1.0
  6
BYLAYER
100
AcDbPolyline
 90
8
 70
1
 10
473.8706221990000245
 20
293.0
 10
473.4706221989999904
 20
293.0
 42
0.414213562373
 10
473.170622198999979
 20
292.6999999999999886
 10
473.170622198999979
 20
183.3000000000000114
 42
0.414213562373
 10
473.4706221989999904
 20
183.0
 10
473.8706221990000245
 20
183.0
 42
0.414213562373
 10
474.170622198999979
 20
183.3000000000000114
 10
474.170622198999979
 20
292.6999999999999886
 42
0.414213562373
  0
LWPOLYLINE
  5
6D
100
AcDbEntity
  8
0
 62
256
370
-1
 48
1.0
  6
BYLAYER
100
AcDbPolyline
 90
18
 70
1
 10
439.2206221989999904
 20
152.1200000000000045
 10
430.9006221989999972
 20
152.1200000000000045
 10
430.9006221989999972
 20
153.5800000000000125
 10
437.9006221989999972
 20
165.5600000000000023
 10
440.4806221989999813
 20
165.5600000000000023
 10
440.4806221989999813
 20
153.4000000000000057
 10
441.5206221990000017
 20
153.4000000000000057
 10
442.3506221989999858
 20
152.7400000000000091
 10
441.5206221990000017
 20
152.1200000000000045
 10
440.4806221989999813
 20
152.1200000000000045
 10
440.4806221989999813
 20
148.2800000000000011
 10
441.5206221990000017
 20
148.2800000000000011
 10
442.3506221989999858
 20
147.6599999999999966
 10
441.5206221990000017
 20
147.0
 10
436.8906221990000063
 20
147.0
 10
436.0606221990000222
 20
147.6599999999999966
 10
436.8906221990000063
 20
148.2800000000000011
 10
439.2206221989999904
 20
148.2800000000000011
  0
CIRCLE
  5
6E
100
AcDbEntity
  8
0
 62
0
370
-1
 48
1.0
  6
BYLAYER
100
AcDbCircle
 10
463.3863509590000263
 20
420.1272583009999835
 30
0.0
 40
2.0
  0
CIRCLE
  5
6F
100
AcDbEntity
  8
0
 62
0
370
-1
 48
1.0
  6
BYLAYER
100
AcDbCircle
 10
463.3863509590000263
 20
305.1272583009999835
 30
0.0
 40
2.0
  0
LWPOLYLINE
  5
70
100
AcDbEntity
  8
0
 62
256
370
-1
 48
1.0
  6
BYLAYER
100
AcDbPolyline
 90
4
 70
1
 10
439.2206221989999904
 20
153.4000000000000057
 10
439.2206221989999904
 20
164.2800000000000011
 10
438.4806221989999813
 20
164.2800000000000011
 10
432.0906221989999949
 20
153.4000000000000057
  0
ENDBLK
  5
71
100
AcDbEntity
  8
0
100
AcDbBlockEnd
  0
BLOCK
  5
72
100
AcDbEntity
  8
0
100
AcDbBlockBegin
  2
SUBTRACTION038
 70
0
 10
0.0
 20
0.0
 30
0.0
  3
SUBTRACTION038
  1

  0
LWPOLYLINE
  5
73
100
AcDbEntity
  8
0
 62
256
370
-1
 48
1.0
  6
BYLAYER
100
AcDbPolyline
 90
112
 70
1
 10
149.3596313559999942
 20
446.1675129110000171
 42
0.414213562373
 10
150.0596313560000112
 20
445.4675129109999716
 10
168.6596313560000056
 20
445.4675129109999716
 42
0.414213562373
 10
169.3596313559999942
 20
446.1675129110000171
 10
169.3596313559999942
 20
464.767512910999983
 42
-0.414213562373
 10
170.0596313560000112
 20
465.4675129109999716
 10
180.6596313560000056
 20
465.4675129109999716
 42
-0.414213562373
 10
181.3596313559999942
 20
464.767512910999983
 10
181.3596313559999942
 20
431.1675129110000171
 42
-0.414213562373
 10
180.6596313560000056
 20
430.4675129109999716
 10
135.0596313560000112
 20
430.4675129109999716
 42
0.414213562373
 10
134.3596313559999942
 20
429.767512910999983
 10
134.3596313559999942
 20
422.163512910999998
 42
1.0
 10
134.3596313559999942
 20
418.5635129109999752
 10
134.3596313559999942
 20
417.0635129109999752
 42
1.0
 10
134.3596313559999942
 20
413.4635129110000094
 10
134.3596313559999942
 20
411.9635129110000094
 42
1.0
 10
134.3596313559999942
 20
408.3635129109999866
 10
134.3596313559999942
 20
406.8635129109999866
 42
1.0
 10
134.3596313559999942
 20
403.2635129110000207
 10
134.3596313559999942
 20
401.7635129110000207
 42
1.0
 10
134.3596313559999942
 20
398.163512910999998
 10
134.3596313559999942
 20
396.663512910999998
 42
1.0
 10
134.3596313559999942
 20
393.0635129109999752
 10
134.3596313559999942
 20
391.5635129109999752
 42
1.0
 10
134.3596313559999942
 20
387.9635129110000094
 10
134.3596313559999942
 20
386.4635129110000094
 42
1.0
 10
134.3596313559999942
 20
382.8635129109999866
 10
134.3596313559999942
 20
381.3635129109999866
 42
1.0
 10
134.3596313559999942
 20
377.7635129110000207
 10
134.3596313559999942
 20
376.2635129110000207
 42
1.0
 10
134.3596313559999942
 20
372.663512910999998
 10
134.3596313559999942
 20
371.163512910999998
 42
1.0
 10
134.3596313559999942
 20
367.5635129109999752
 10
134.3596313559999942
 20
366.0635129109999752
 42
1.0
 10
134.3596313559999942
 20
362.4635129110000094
 10
134.3596313559999942
 20
360.9635129110000094
 42
1.0
 10
134.3596313559999942
 20
357.3635129109999866
 10
134.3596313559999942
 20
355.8635129109999866
 42
1.0
 10
134.3596313559999942
 20
352.2635129110000207
 10
134.3596313559999942
 20
350.7635129110000207
 42
1.0
 10
134.3596313559999942
 20
347.163512910999998
 10
134.3596313559999942
 20
345.663512910999998
 42
1.0
 10
134.3596313559999942
 20
342.0635129109999752
 10
134.3596313559999942
 20
340.5635129109999752
 42
1.0
 10
134.3596313559999942
 20
336.9635129110000094
 10
134.3596313559999942
 20
335.4635129110000094
 42
1.0
 10
134.3596313559999942
 20
331.8635129109999866
 10
134.3596313559999942
 20
330.3635129109999866
 42
1.0
 10
134.3596313559999942
 20
326.7635129110000207
 10
134.3596313559999942
 20
325.2635129110000207
 42
1.0
 10
134.3596313559999942
 20
321.663512910999998
 10
134.3596313559999942
 20
320.163512910999998
 42
1.0
 10
134.3596313559999942
 20
316.5635129109999752
 10
134.3596313559999942
 20
315.0635129109999752
 42
1.0
 10
134.3596313559999942
 20
311.4635129110000094
 10
134.3596313559999942
 20
309.9635129110000094
 42
1.0
 10
134.3596313559999942
 20
306.3635129109999866
 10
134.3596313559999942
 20
304.8635129109999866
 42
1.0
 10
134.3596313559999942
 20
301.2635129110000207
 10
134.3596313559999942
 20
300.1675129110000171
 42
0.414213562373
 10
135.0596313560000112
 20
299.4675129109999716
 10
148.6596313560000056
 20
299.4675129109999716
 42
-0.414213562373
 10
149.3596313559999942
 20
298.767512910999983
 10
149.3596313559999942
 20
172.1675129109999887
 42
-0.414213562373
 10
148.6596313560000056
 20
171.467512911
 10
110.059631355999997
 20
171.467512911
 42
0.414213562373
 10
109.3596313559999942
 20
170.7675129110000114
 10
109.3596313559999942
 20
60.1675129110000029
 42
-0.414213562373
 10
108.6596313560000056
 20
59.467512911
 10
95.0596313560999988
 20
59.467512911
 42
0.414213562373
 10
94.359631356099996
 20
58.7675129109999972
 10
94.359631356099996
 20
56.1675129110000029
 42
-0.414213562373
 10
93.6596313560999931
 20
55.467512911
 10
35.0596313560999988
 20
55.467512911
 42
-0.414213562373
 10
34.3596313561000031
 20
56.1675129110000029
 10
34.3596313561000031
 20
58.7675129109999972
 42
0.414213562373
 10
33.6596313561000002
 20
59.467512911
 10
10.6890091572999992
 20
59.467512911
 42
-0.60360054977
 10
10.1118498105000008
 20
60.5636026588000007
 10
44.1510654968000011
 20
110.1636026590000057
 42
-0.247193386338
 10
44.7282248436000032
 20
110.467512911
 10
63.6596313561000002
 20
110.467512911
 42
0.414213562373
 10
64.359631356099996
 20
111.1675129110000029
 10
64.359631356099996
 20
114.7675129109999972
 42
0.414213562373
 10
63.6596313561000002
 20
115.467512911
 10
45.0596313560999988
 20
115.467512911
 42
-0.414213562373
 10
44.3596313561000031
 20
116.1675129110000029
 10
44.3596313561000031
 20
185.0580200500000103
 42
-0.116021577738
 10
44.433023820999999
 20
185.3700504930000079
 10
74.2862388912
 20
245.3201289849999966
 42
0.116021577738
 10
74.359631356099996
 20
245.6321594279999943
 10
74.359631356099996
 20
304.767512910999983
 42
-0.414213562373
 10
75.0596313560999988
 20
305.4675129109999716
 10
93.6596313560999931
 20
305.4675129109999716
 42
0.414213562373
 10
94.359631356099996
 20
306.1675129110000171
 10
94.359631356099996
 20
309.767512910999983
 42
0.414213562373
 10
93.6596313560999931
 20
310.4675129109999716
 10
75.0596313560999988
 20
310.4675129109999716
 42
-0.414213562373
 10
74.359631356099996
 20
311.1675129110000171
 10
74.359631356099996
 20
464.767512910999983
 42
-0.414213562373
 10
75.0596313560999988
 20
465.4675129109999716
 10
103.6596313560000056
 20
465.4675129109999716
 42
-0.414213562373
 10
104.3596313559999942
 20
464.767512910999983
 10
104.3596313559999942
 20
446.1675129110000171
 42
0.414213562373
 10
105.059631355999997
 20
445.4675129109999716
 10
123.6596313560000056
 20
445.4675129109999716
 42
0.414213562373
 10
124.3596313559999942
 20
446.1675129110000171
 10
124.3596313559999942
 20
464.767512910999983
 42
-0.414213562373
 10
125.059631355999997
 20
465.4675129109999716
 10
148.6596313560000056
 20
465.4675129109999716
 42
-0.414213562373
 10
149.3596313559999942
 20
464.767512910999983
  0
LWPOLYLINE
  5
74
100
AcDbEntity
  8
0
 62
256
370
-1
 48
1.0
  6
BYLAYER
100
AcDbPolyline
 90
16
 70
1
 10
91.9596313561000045
 20
164.6275129109999966
 10
88.4896313561000056
 20
161.1575129109999978
 10
87.8396313560999999
 20
160.9075129109999978
 10
87.4296313561000034
 20
161.1075129109999864
 10
87.2596313561000017
 20
161.6175129110000057
 10
87.5996313561000051
 20
162.2375129110000103
 10
91.6496313561000022
 20
166.2875129109999932
 10
93.2196313560999954
 20
166.2875129109999932
 10
93.2196313560999954
 20
148.7475129110000012
 10
97.4896313561000056
 20
148.7475129110000012
 10
98.3196313561000039
 20
148.1275129109999966
 10
97.4896313561000056
 20
147.467512911
 10
87.6896313560999943
 20
147.467512911
 10
86.8296313560999948
 20
148.1275129109999966
 10
87.6896313560999943
 20
148.7475129110000012
 10
91.9596313561000045
 20
148.7475129110000012
  0
CIRCLE
  5
75
100
AcDbEntity
  8
0
 62
0
370
-1
 48
1.0
  6
BYLAYER
100
AcDbCircle
 10
119.0753601159999988
 20
420.5947712120000119
 30
0.0
 40
2.0
  0
CIRCLE
  5
76
100
AcDbEntity
  8
0
 62
0
370
-1
 48
1.0
  6
BYLAYER
100
AcDbCircle
 10
119.0753601159999988
 20
305.5947712120000119
 30
0.0
 40
2.0
  0
LWPOLYLINE
  5
77
100
AcDbEntity
  8
0
 62
256
370
-1
 48
1.0
  6
BYLAYER
100
AcDbPolyline
 90
8
 70
1
 10
139.5596313560000112
 20
293.4675129109999716
 42
-0.414213562373
 10
139.8596313559999942
 20
293.1675129110000171
 10
139.8596313559999942
 20
183.7675129110000114
 42
-0.414213562373
 10
139.5596313560000112
 20
183.467512911
 10
139.1596313560000056
 20
183.467512911
 42
-0.414213562373
 10
138.8596313559999942
 20
183.7675129110000114
 10
138.8596313559999942
 20
293.1675129110000171
 42
-0.414213562373
 10
139.1596313560000056
 20
293.4675129109999716
  0
LWPOLYLINE
  5
78
100
AcDbEntity
  8
0
 62
256
370
-1
 48
1.0
  6
BYLAYER
100
AcDbPolyline
 90
8
 70
1
 10
129.5596313560000112
 20
293.4675129109999716
 10
129.1596313560000056
 20
293.4675129109999716
 42
0.414213562373
 10
128.8596313559999942
 20
293.1675129110000171
 10
128.8596313559999942
 20
183.7675129110000114
 42
0.414213562373
 10
129.1596313560000056
 20
183.467512911
 10
129.5596313560000112
 20
183.467512911
 42
0.414213562373
 10
129.8596313559999942
 20
183.7675129110000114
 10
129.8596313559999942
 20
293.1675129110000171
 42
0.414213562373
  0
ENDBLK
  5
79
100
AcDbEntity
  8
0
100
AcDbBlockEnd
  0
BLOCK
  5
7A
100
AcDbEntity
  8
0
100
AcDbBlockBegin
  2
SUBTRACTION048
 70
0
 10
0.0
 20
0.0
 30
0.0
  3
SUBTRACTION048
  1

  0
LWPOLYLINE
  5
7B
100
AcDbEntity
  8
0
 62
256
370
-1
 48
1.0
  6
BYLAYER
100
AcDbPolyline
 90
112
 70
1
 10
838.6706221990000358
 20
445.6999999999999886
 42
0.414213562373
 10
839.3706221989999676
 20
445.0
 10
857.9706221989999904
 20
445.0
 42
0.414213562373
 10
858.6706221990000358
 20
445.6999999999999886
 10
858.6706221990000358
 20
464.3000000000000114
 42
-0.414213562373
 10
859.3706221989999676
 20
465.0
 10
869.9706221989999904
 20
465.0
 42
-0.414213562373
 10
870.6706221990000358
 20
464.3000000000000114
 10
870.6706221990000358
 20
430.6999999999999886
 42
-0.414213562373
 10
869.9706221989999904
 20
430.0
 10
824.3706221989999676
 20
430.0
 42
0.414213562373
 10
823.6706221990000358
 20
429.3000000000000114
 10
823.6706221990000358
 20
425.5179999999999723
 42
1.0
 10
823.6706221990000358
 20
421.9180000000000064
 10
823.6706221990000358
 20
420.4180000000000064
 42
1.0
 10
823.6706221990000358
 20
416.8179999999999836
 10
823.6706221990000358
 20
415.3179999999999836
 42
1.0
 10
823.6706221990000358
 20
411.7180000000000177
 10
823.6706221990000358
 20
410.2180000000000177
 42
1.0
 10
823.6706221990000358
 20
406.617999999999995
 10
823.6706221990000358
 20
405.117999999999995
 42
1.0
 10
823.6706221990000358
 20
401.5179999999999723
 10
823.6706221990000358
 20
400.0179999999999723
 42
1.0
 10
823.6706221990000358
 20
396.4180000000000064
 10
823.6706221990000358
 20
394.9180000000000064
 42
1.0
 10
823.6706221990000358
 20
391.3179999999999836
 10
823.6706221990000358
 20
389.8179999999999836
 42
1.0
 10
823.6706221990000358
 20
386.2180000000000177
 10
823.6706221990000358
 20
384.7180000000000177
 42
1.0
 10
823.6706221990000358
 20
381.117999999999995
 10
823.6706221990000358
 20
379.617999999999995
 42
1.0
 10
823.6706221990000358
 20
376.0179999999999723
 10
823.6706221990000358
 20
374.5179999999999723
 42
1.0
 10
823.6706221990000358
 20
370.9180000000000064
 10
823.6706221990000358
 20
369.4180000000000064
 42
1.0
 10
823.6706221990000358
 20
365.8179999999999836
 10
823.6706221990000358
 20
364.3179999999999836
 42
1.0
 10
823.6706221990000358
 20
360.7180000000000177
 10
823.6706221990000358
 20
359.2180000000000177
 42
1.0
 10
823.6706221990000358
 20
355.617999999999995
 10
823.6706221990000358
 20
354.117999999999995
 42
1.0
 10
823.6706221990000358
 20
350.5179999999999723
 10
823.6706221990000358
 20
349.0179999999999723
 42
1.0
 10
823.6706221990000358
 20
345.4180000000000064
 10
823.6706221990000358
 20
343.9180000000000064
 42
1.0
 10
823.6706221990000358
 20
340.3179999999999836
 10
823.6706221990000358
 20
338.8179999999999836
 42
1.0
 10
823.6706221990000358
 20
335.2180000000000177
 10
823.6706221990000358
 20
333.7180000000000177
 42
1.0
 10
823.6706221990000358
 20
330.117999999999995
 10
823.6706221990000358
 20
328.617999999999995
 42
1.0
 10
823.6706221990000358
 20
325.0179999999999723
 10
823.6706221990000358
 20
323.5179999999999723
 42
1.0
 10
823.6706221990000358
 20
319.9180000000000064
 10
823.6706221990000358
 20
318.4180000000000064
 42
1.0
 10
823.6706221990000358
 20
314.8179999999999836
 10
823.6706221990000358
 20
313.3179999999999836
 42
1.0
 10
823.6706221990000358
 20
309.7180000000000177
 10
823.6706221990000358
 20
308.2180000000000177
 42
1.0
 10
823.6706221990000358
 20
304.617999999999995
 10
823.6706221990000358
 20
299.6999999999999886
 42
0.414213562373
 10
824.3706221989999676
 20
299.0
 10
837.9706221989999904
 20
299.0
 42
-0.414213562373
 10
838.6706221990000358
 20
298.3000000000000114
 10
838.6706221990000358
 20
171.6999999999999886
 42
-0.414213562373
 10
837.9706221989999904
 20
171.0
 10
799.3706221989999676
 20
171.0
 42
0.414213562373
 10
798.6706221990000358
 20
170.3000000000000114
 10
798.6706221990000358
 20
59.7000000000000028
 42
-0.414213562373
 10
797.9706221989999904
 20
59.0
 10
784.3706221989999676
 20
59.0
 42
0.414213562373
 10
783.6706221990000358
 20
58.2999999999999972
 10
783.6706221990000358
 20
55.7000000000000028
 42
-0.414213562373
 10
782.9706221989999904
 20
55.0
 10
724.3706221989999676
 20
55.0
 42
-0.414213562373
 10
723.6706221990000358
 20
55.7000000000000028
 10
723.6706221990000358
 20
58.2999999999999972
 42
0.414213562373
 10
722.9706221989999904
 20
59.0
 10
700.0
 20
59.0
 42
-0.60360054977
 10
699.4228406529999802
 20
60.0960897478000007
 10
733.4620563400000037
 20
109.6960897480000057
 42
-0.247193386338
 10
734.0392156870000235
 20
110.0
 10
752.9706221989999904
 20
110.0
 42
0.414213562373
 10
753.6706221990000358
 20
110.7000000000000028
 10
753.6706221990000358
 20
114.2999999999999972
 42
0.414213562373
 10
752.9706221989999904
 20
115.0
 10
734.3706221989999676
 20
115.0
 42
-0.414213562373
 10
733.6706221990000358
 20
115.7000000000000028
 10
733.6706221990000358
 20
184.5905071390000103
 42
-0.116021577738
 10
733.7440146640000194
 20
184.9025375820000079
 10
763.5972297340000523
 20
244.8526160739999966
 42
0.116021577738
 10
763.6706221990000358
 20
245.1646465169999942
 10
763.6706221990000358
 20
304.3000000000000114
 42
-0.414213562373
 10
764.3706221989999676
 20
305.0
 10
782.9706221989999904
 20
305.0
 42
0.414213562373
 10
783.6706221990000358
 20
305.6999999999999886
 10
783.6706221990000358
 20
309.3000000000000114
 42
0.414213562373
 10
782.9706221989999904
 20
310.0
 10
764.3706221989999676
 20
310.0
 42
-0.414213562373
 10
763.6706221990000358
 20
310.6999999999999886
 10
763.6706221990000358
 20
464.3000000000000114
 42
-0.414213562373
 10
764.3706221989999676
 20
465.0
 10
792.9706221989999904
 20
465.0
 42
-0.414213562373
 10
793.6706221990000358
 20
464.3000000000000114
 10
793.6706221990000358
 20
445.6999999999999886
 42
0.414213562373
 10
794.3706221989999676
 20
445.0
 10
812.9706221989999904
 20
445.0
 42
0.414213562373
 10
813.6706221990000358
 20
445.6999999999999886
 10
813.6706221990000358
 20
464.3000000000000114
 42
-0.414213562373
 10
814.3706221989999676
 20
465.0
 10
837.9706221989999904
 20
465.0
 42
-0.414213562373
 10
838.6706221990000358
 20
464.3000000000000114
  0
LWPOLYLINE
  5
7C
100
AcDbEntity
  8
0
 62
256
370
-1
 48
1.0
  6
BYLAYER
100
AcDbPolyline
 90
8
 70
1
 10
818.8706221989999676
 20
293.0
 10
818.4706221989999904
 20
293.0
 42
0.414213562373
 10
818.1706221990000358
 20
292.6999999999999886
 10
818.1706221990000358
 20
183.3000000000000114
 42
0.414213562373
 10
818.4706221989999904
 20
183.0
 10
818.8706221989999676
 20
183.0
 42
0.414213562373
 10
819.1706221990000358
 20
183.3000000000000114
 10
819.1706221990000358
 20
292.6999999999999886
 42
0.414213562373
  0
LWPOLYLINE
  5
7D
100
AcDbEntity
  8
0
 62
256
370
-1
 48
1.0
  6
BYLAYER
100
AcDbPolyline
 90
14
 70
1
 10
786.0906221989999949
 20
163.7299999999999898
 10
786.0906221989999949
 20
164.2800000000000011
 10
777.1606221990000449
 20
164.2800000000000011
 10
777.1606221990000449
 20
163.210000000000008
 10
776.5506221990000313
 20
162.3600000000000136
 10
775.900622199000054
 20
163.2199999999999989
 10
775.900622199000054
 20
165.5600000000000023
 10
787.3506221989999858
 20
165.5600000000000023
 10
787.3506221989999858
 20
163.5500000000000114
 10
782.3406221989999949
 20
147.6399999999999864
 10
781.7306221989999813
 20
147.0
 10
781.3006221990000313
 20
147.1800000000000068
 10
781.1206221989999676
 20
147.6100000000000136
 10
781.1806221990000267
 20
148.0099999999999909
  0
LWPOLYLINE
  5
7E
100
AcDbEntity
  8
0
 62
256
370
-1
 48
1.0
  6
BYLAYER
100
AcDbPolyline
 90
8
 70
1
 10
828.8706221989999676
 20
293.0
 42
-0.414213562373
 10
829.1706221990000358
 20
292.6999999999999886
 10
829.1706221990000358
 20
183.3000000000000114
 42
-0.414213562373
 10
828.8706221989999676
 20
183.0
 10
828.4706221989999904
 20
183.0
 42
-0.414213562373
 10
828.1706221990000358
 20
183.3000000000000114
 10
828.1706221990000358
 20
292.6999999999999886
 42
-0.414213562373
 10
828.4706221989999904
 20
293.0
  0
CIRCLE
  5
7F
100
AcDbEntity
  8
0
 62
0
370
-1
 48
1.0
  6
BYLAYER
100
AcDbCircle
 10
808.3863509589999694
 20
420.1272583009999835
 30
0.0
 40
2.0
  0
CIRCLE
  5
80
100
AcDbEntity
  8
0
 62
0
370
-1
 48
1.0
  6
BYLAYER
100
AcDbCircle
 10
808.3863509589999694
 20
305.1272583009999835
 30
0.0
 40
2.0
  0
ENDBLK
  5
81
100
AcDbEntity
  8
0
100
AcDbBlockEnd
  0
BLOCK
  5
82
100
AcDbEntity
  8
0
100
AcDbBlockBegin
  2
SUBTRACTION040
 70
0
 10
0.0
 20
0.0
 30
0.0
  3
SUBTRACTION040
  1

  0
LWPOLYLINE
  5
83
100
AcDbEntity
  8
0
 62
256
370
-1
 48
1.0
  6
BYLAYER
100
AcDbPolyline
 90
112
 70
1
 10
378.670622198999979
 20
445.6999999999999886
 42
0.414213562373
 10
379.3706221990000245
 20
445.0
 10
397.9706221989999904
 20
445.0
 42
0.414213562373
 10
398.670622198999979
 20
445.6999999999999886
 10
398.670622198999979
 20
464.3000000000000114
 42
-0.414213562373
 10
399.3706221990000245
 20
465.0
 10
409.9706221989999904
 20
465.0
 42
-0.414213562373
 10
410.670622198999979
 20
464.3000000000000114
 10
410.670622198999979
 20
430.6999999999999886
 42
-0.414213562373
 10
409.9706221989999904
 20
430.0
 10
364.3706221990000245
 20
430.0
 42
0.414213562373
 10
363.670622198999979
 20
429.3000000000000114
 10
363.670622198999979
 20
422.9700000000000273
 42
1.0
 10
363.670622198999979
 20
419.3700000000000045
 10
363.670622198999979
 20
417.8700000000000045
 42
1.0
 10
363.670622198999979
 20
414.2699999999999818
 10
363.670622198999979
 20
412.7699999999999818
 42
1.0
 10
363.670622198999979
 20
409.1700000000000159
 10
363.670622198999979
 20
407.6700000000000159
 42
1.0
 10
363.670622198999979
 20
404.0699999999999932
 10
363.670622198999979
 20
402.5699999999999932
 42
1.0
 10
363.670622198999979
 20
398.9700000000000273
 10
363.670622198999979
 20
397.4700000000000273
 42
1.0
 10
363.670622198999979
 20
393.8700000000000045
 10
363.670622198999979
 20
392.3700000000000045
 42
1.0
 10
363.670622198999979
 20
388.7699999999999818
 10
363.670622198999979
 20
387.2699999999999818
 42
1.0
 10
363.670622198999979
 20
383.6700000000000159
 10
363.670622198999979
 20
382.1700000000000159
 42
1.0
 10
363.670622198999979
 20
378.5699999999999932
 10
363.670622198999979
 20
377.0699999999999932
 42
1.0
 10
363.670622198999979
 20
373.4700000000000273
 10
363.670622198999979
 20
371.9700000000000273
 42
1.0
 10
363.670622198999979
 20
368.3700000000000045
 10
363.670622198999979
 20
366.8700000000000045
 42
1.0
 10
363.670622198999979
 20
363.2699999999999818
 10
363.670622198999979
 20
361.7699999999999818
 42
1.0
 10
363.670622198999979
 20
358.1700000000000159
 10
363.670622198999979
 20
356.6700000000000159
 42
1.0
 10
363.670622198999979
 20
353.0699999999999932
 10
363.670622198999979
 20
351.5699999999999932
 42
1.0
 10
363.670622198999979
 20
347.9700000000000273
 10
363.670622198999979
 20
346.4700000000000273
 42
1.0
 10
363.670622198999979
 20
342.8700000000000045
 10
363.670622198999979
 20
341.3700000000000045
 42
1.0
 10
363.670622198999979
 20
337.7699999999999818
 10
363.670622198999979
 20
336.2699999999999818
 42
1.0
 10
363.670622198999979
 20
332.6700000000000159
 10
363.670622198999979
 20
331.1700000000000159
 42
1.0
 10
363.670622198999979
 20
327.5699999999999932
 10
363.670622198999979
 20
326.0699999999999932
 42
1.0
 10
363.670622198999979
 20
322.4700000000000273
 10
363.670622198999979
 20
320.9700000000000273
 42
1.0
 10
363.670622198999979
 20
317.3700000000000045
 10
363.670622198999979
 20
315.8700000000000045
 42
1.0
 10
363.670622198999979
 20
312.2699999999999818
 10
363.670622198999979
 20
310.7699999999999818
 42
1.0
 10
363.670622198999979
 20
307.1700000000000159
 10
363.670622198999979
 20
305.6700000000000159
 42
1.0
 10
363.670622198999979
 20
302.0699999999999932
 10
363.670622198999979
 20
299.6999999999999886
 42
0.414213562373
 10
364.3706221990000245
 20
299.0
 10
377.9706221989999904
 20
299.0
 42
-0.414213562373
 10
378.670622198999979
 20
298.3000000000000114
 10
378.670622198999979
 20
171.6999999999999886
 42
-0.414213562373
 10
377.9706221989999904
 20
171.0
 10
339.3706221990000245
 20
171.0
 42
0.414213562373
 10
338.670622198999979
 20
170.3000000000000114
 10
338.670622198999979
 20
59.7000000000000028
 42
-0.414213562373
 10
337.9706221989999904
 20
59.0
 10
324.3706221990000245
 20
59.0
 42
0.414213562373
 10
323.670622198999979
 20
58.2999999999999972
 10
323.670622198999979
 20
55.7000000000000028
 42
-0.414213562373
 10
322.9706221989999904
 20
55.0
 10
264.3706221990000245
 20
55.0
 42
-0.414213562373
 10
263.670622198999979
 20
55.7000000000000028
 10
263.670622198999979
 20
58.2999999999999972
 42
0.414213562373
 10
262.9706221989999904
 20
59.0
 10
240.0
 20
59.0
 42
-0.60360054977
 10
239.4228406530000086
 20
60.0960897478000007
 10
273.4620563400000037
 20
109.6960897480000057
 42
-0.247193386338
 10
274.0392156870000235
 20
110.0
 10
292.9706221989999904
 20
110.0
 42
0.414213562373
 10
293.670622198999979
 20
110.7000000000000028
 10
293.670622198999979
 20
114.2999999999999972
 42
0.414213562373
 10
292.9706221989999904
 20
115.0
 10
274.3706221990000245
 20
115.0
 42
-0.414213562373
 10
273.670622198999979
 20
115.7000000000000028
 10
273.670622198999979
 20
184.5905071390000103
 42
-0.116021577738
 10
273.7440146640000194
 20
184.9025375820000079
 10
303.5972297339999955
 20
244.8526160739999966
 42
0.116021577738
 10
303.670622198999979
 20
245.1646465169999942
 10
303.670622198999979
 20
304.3000000000000114
 42
-0.414213562373
 10
304.3706221990000245
 20
305.0
 10
322.9706221989999904
 20
305.0
 42
0.414213562373
 10
323.670622198999979
 20
305.6999999999999886
 10
323.670622198999979
 20
309.3000000000000114
 42
0.414213562373
 10
322.9706221989999904
 20
310.0
 10
304.3706221990000245
 20
310.0
 42
-0.414213562373
 10
303.670622198999979
 20
310.6999999999999886
 10
303.670622198999979
 20
464.3000000000000114
 42
-0.414213562373
 10
304.3706221990000245
 20
465.0
 10
332.9706221989999904
 20
465.0
 42
-0.414213562373
 10
333.670622198999979
 20
464.3000000000000114
 10
333.670622198999979
 20
445.6999999999999886
 42
0.414213562373
 10
334.3706221990000245
 20
445.0
 10
352.9706221989999904
 20
445.0
 42
0.414213562373
 10
353.670622198999979
 20
445.6999999999999886
 10
353.670622198999979
 20
464.3000000000000114
 42
-0.414213562373
 10
354.3706221990000245
 20
465.0
 10
377.9706221989999904
 20
465.0
 42
-0.414213562373
 10
378.670622198999979
 20
464.3000000000000114
  0
LWPOLYLINE
  5
84
100
AcDbEntity
  8
0
 62
256
370
-1
 48
1.0
  6
BYLAYER
100
AcDbPolyline
 90
34
 70
1
 10
318.9006221989999972
 20
148.1200000000000045
 10
321.6106221989999767
 20
147.6399999999999864
 10
325.2206221989999904
 20
148.9499999999999886
 10
326.7406221989999722
 20
152.0900000000000034
 10
325.1106221989999767
 20
155.2700000000000102
 10
321.2406221989999722
 20
156.5999999999999943
 10
320.4106221989999881
 20
157.2599999999999909
 10
321.2406221989999722
 20
157.8799999999999955
 10
324.8556221989999813
 20
158.7450000000000045
 10
326.0606221990000222
 20
161.3400000000000034
 10
324.8606221989999767
 20
163.9000000000000057
 10
321.8906221990000063
 20
164.9199999999999875
 10
319.6906221990000176
 20
164.6200000000000045
 10
318.4306221990000267
 20
163.960000000000008
 10
317.7406221989999722
 20
163.289999999999992
 10
317.1206221990000245
 20
163.0
 10
316.6906221990000176
 20
163.1599999999999966
 10
316.5106221990000108
 20
163.5600000000000023
 10
317.1106221989999767
 20
164.4699999999999989
 10
319.0306221989999926
 20
165.6299999999999955
 10
321.920622198999979
 20
166.1999999999999886
 10
325.7706221990000017
 20
164.8000000000000114
 10
327.3206221990000131
 20
161.3700000000000045
 10
326.3206221990000131
 20
158.4799999999999898
 10
324.1606221989999881
 20
157.0999999999999943
 10
326.9806221989999813
 20
155.0200000000000102
 10
328.0006221990000199
 20
152.0900000000000034
 10
326.1106221989999767
 20
148.0300000000000011
 10
321.580622199000004
 20
146.3600000000000136
 10
317.6906221990000176
 20
147.2800000000000011
 10
315.6206221990000245
 20
148.9900000000000091
 10
315.8006221989999744
 20
149.3899999999999864
 10
316.2006221990000085
 20
149.5800000000000125
 10
317.0606221990000222
 20
149.0900000000000034
  0
CIRCLE
  5
85
100
AcDbEntity
  8
0
 62
0
370
-1
 48
1.0
  6
BYLAYER
100
AcDbCircle
 10
348.3863509590000263
 20
420.1272583009999835
 30
0.0
 40
2.0
  0
CIRCLE
  5
86
100
AcDbEntity
  8
0
 62
0
370
-1
 48
1.0
  6
BYLAYER
100
AcDbCircle
 10
348.3863509590000263
 20
305.1272583009999835
 30
0.0
 40
2.0
  0
LWPOLYLINE
  5
87
100
AcDbEntity
  8
0
 62
256
370
-1
 48
1.0
  6
BYLAYER
100
AcDbPolyline
 90
8
 70
1
 10
368.8706221990000245
 20
293.0
 42
-0.414213562373
 10
369.170622198999979
 20
292.6999999999999886
 10
369.170622198999979
 20
183.3000000000000114
 42
-0.414213562373
 10
368.8706221990000245
 20
183.0
 10
368.4706221989999904
 20
183.0
 42
-0.414213562373
 10
368.170622198999979
 20
183.3000000000000114
 10
368.170622198999979
 20
292.6999999999999886
 42
-0.414213562373
 10
368.4706221989999904
 20
293.0
  0
LWPOLYLINE
  5
88
100
AcDbEntity
  8
0
 62
256
370
-1
 48
1.0
  6
BYLAYER
100
AcDbPolyline
 90
8
 70
1
 10
358.8706221990000245
 20
293.0
 10
358.4706221989999904
 20
293.0
 42
0.414213562373
 10
358.170622198999979
 20
292.6999999999999886
 10
358.170622198999979
 20
183.3000000000000114
 42
0.414213562373
 10
358.4706221989999904
 20
183.0
 10
358.8706221990000245
 20
183.0
 42
0.414213562373
 10
359.170622198999979
 20
183.3000000000000114
 10
359.170622198999979
 20
292.6999999999999886
 42
0.414213562373
  0
ENDBLK
  5
89
100
AcDbEntity
  8
0
100
AcDbBlockEnd
  0
BLOCK
  5
8A
100
AcDbEntity
  8
0
100
AcDbBlockBegin
  2
SUBTRACTION050
 70
0
 10
0.0
 20
0.0
 30
0.0
  3
SUBTRACTION050
  1

  0
LWPOLYLINE
  5
8B
100
AcDbEntity
  8
0
 62
256
370
-1
 48
1.0
  6
BYLAYER
100
AcDbPolyline
 90
112
 70
1
 10
939.4125764679999975
 20
309.258910252000021
 10
939.4125764679999975
 20
307.758910252000021
 42
1.0
 10
939.4125764679999975
 20
304.1589102519999983
 10
939.4125764679999975
 20
298.6039102519999915
 42
0.414213562373
 10
940.112576468000043
 20
297.9039102520000029
 10
953.712576467999952
 20
297.9039102520000029
 42
-0.414213562373
 10
954.4125764679999975
 20
297.2039102520000142
 10
954.4125764679999975
 20
170.6039102519999915
 42
-0.414213562373
 10
953.712576467999952
 20
169.9039102520000029
 10
915.112576468000043
 20
169.9039102520000029
 42
0.414213562373
 10
914.4125764679999975
 20
169.2039102519999858
 10
914.4125764679999975
 20
58.6039102519999986
 42
-0.414213562373
 10
913.712576467999952
 20
57.9039102520000029
 10
900.112576468000043
 20
57.9039102520000029
 42
0.414213562373
 10
899.4125764679999975
 20
57.203910252
 10
899.4125764679999975
 20
54.6039102519999986
 42
-0.414213562373
 10
898.712576467999952
 20
53.9039102520000029
 10
840.112576468000043
 20
53.9039102520000029
 42
-0.414213562373
 10
839.4125764679999975
 20
54.6039102519999986
 10
839.4125764679999975
 20
57.203910252
 42
0.414213562373
 10
838.712576467999952
 20
57.9039102520000029
 10
815.7419542689999616
 20
57.9039102520000029
 42
-0.60360054977
 10
815.1647949220000555
 20
58.9999999998000035
 10
849.2040106089999654
 20
108.5999999999999943
 42
-0.247193386338
 10
849.7811699559999852
 20
108.9039102520000029
 10
868.712576467999952
 20
108.9039102520000029
 42
0.414213562373
 10
869.4125764679999975
 20
109.6039102520000057
 10
869.4125764679999975
 20
113.203910252
 42
0.414213562373
 10
868.712576467999952
 20
113.9039102520000029
 10
850.112576468000043
 20
113.9039102520000029
 42
-0.414213562373
 10
849.4125764679999975
 20
114.6039102520000057
 10
849.4125764679999975
 20
183.4944173910000131
 42
-0.116021577738
 10
849.485968932999981
 20
183.8064478340000107
 10
879.3391840030000139
 20
243.7565263259999995
 42
0.116021577738
 10
879.4125764679999975
 20
244.0685567689999971
 10
879.4125764679999975
 20
303.2039102520000142
 42
-0.414213562373
 10
880.112576468000043
 20
303.9039102520000029
 10
898.712576467999952
 20
303.9039102520000029
 42
0.414213562373
 10
899.4125764679999975
 20
304.6039102519999915
 10
899.4125764679999975
 20
308.2039102520000142
 42
0.414213562373
 10
898.712576467999952
 20
308.9039102520000029
 10
880.112576468000043
 20
308.9039102520000029
 42
-0.414213562373
 10
879.4125764679999975
 20
309.6039102519999915
 10
879.4125764679999975
 20
463.2039102520000142
 42
-0.414213562373
 10
880.112576468000043
 20
463.9039102520000029
 10
908.712576467999952
 20
463.9039102520000029
 42
-0.414213562373
 10
909.4125764679999975
 20
463.2039102520000142
 10
909.4125764679999975
 20
444.6039102519999915
 42
0.414213562373
 10
910.112576468000043
 20
443.9039102520000029
 10
928.712576467999952
 20
443.9039102520000029
 42
0.414213562373
 10
929.4125764679999975
 20
444.6039102519999915
 10
929.4125764679999975
 20
463.2039102520000142
 42
-0.414213562373
 10
930.112576468000043
 20
463.9039102520000029
 10
953.712576467999952
 20
463.9039102520000029
 42
-0.414213562373
 10
954.4125764679999975
 20
463.2039102520000142
 10
954.4125764679999975
 20
444.6039102519999915
 42
0.414213562373
 10
955.112576468000043
 20
443.9039102520000029
 10
973.712576467999952
 20
443.9039102520000029
 42
0.414213562373
 10
974.4125764679999975
 20
444.6039102519999915
 10
974.4125764679999975
 20
463.2039102520000142
 42
-0.414213562373
 10
975.112576468000043
 20
463.9039102520000029
 10
985.712576467999952
 20
463.9039102520000029
 42
-0.414213562373
 10
986.4125764679999975
 20
463.2039102520000142
 10
986.4125764679999975
 20
429.6039102519999915
 42
-0.414213562373
 10
985.712576467999952
 20
428.9039102520000029
 10
940.112576468000043
 20
428.9039102520000029
 42
0.414213562373
 10
939.4125764679999975
 20
428.2039102520000142
 10
939.4125764679999975
 20
425.0589102519999756
 42
1.0
 10
939.4125764679999975
 20
421.4589102520000097
 10
939.4125764679999975
 20
419.9589102520000097
 42
1.0
 10
939.4125764679999975
 20
416.3589102519999869
 10
939.4125764679999975
 20
414.8589102519999869
 42
1.0
 10
939.4125764679999975
 20
411.258910252000021
 10
939.4125764679999975
 20
409.758910252000021
 42
1.0
 10
939.4125764679999975
 20
406.1589102519999983
 10
939.4125764679999975
 20
404.6589102519999983
 42
1.0
 10
939.4125764679999975
 20
401.0589102519999756
 10
939.4125764679999975
 20
399.5589102519999756
 42
1.0
 10
939.4125764679999975
 20
395.9589102520000097
 10
939.4125764679999975
 20
394.4589102520000097
 42
1.0
 10
939.4125764679999975
 20
390.8589102519999869
 10
939.4125764679999975
 20
389.3589102519999869
 42
1.0
 10
939.4125764679999975
 20
385.758910252000021
 10
939.4125764679999975
 20
384.258910252000021
 42
1.0
 10
939.4125764679999975
 20
380.6589102519999983
 10
939.4125764679999975
 20
379.1589102519999983
 42
1.0
 10
939.4125764679999975
 20
375.5589102519999756
 10
939.4125764679999975
 20
374.0589102519999756
 42
1.0
 10
939.4125764679999975
 20
370.4589102520000097
 10
939.4125764679999975
 20
368.9589102520000097
 42
1.0
 10
939.4125764679999975
 20
365.3589102519999869
 10
939.4125764679999975
 20
363.8589102519999869
 42
1.0
 10
939.4125764679999975
 20
360.258910252000021
 10
939.4125764679999975
 20
358.758910252000021
 42
1.0
 10
939.4125764679999975
 20
355.1589102519999983
 10
939.4125764679999975
 20
353.6589102519999983
 42
1.0
 10
939.4125764679999975
 20
350.0589102519999756
 10
939.4125764679999975
 20
348.5589102519999756
 42
1.0
 10
939.4125764679999975
 20
344.9589102520000097
 10
939.4125764679999975
 20
343.4589102520000097
 42
1.0
 10
939.4125764679999975
 20
339.8589102519999869
 10
939.4125764679999975
 20
338.3589102519999869
 42
1.0
 10
939.4125764679999975
 20
334.758910252000021
 10
939.4125764679999975
 20
333.258910252000021
 42
1.0
 10
939.4125764679999975
 20
329.6589102519999983
 10
939.4125764679999975
 20
328.1589102519999983
 42
1.0
 10
939.4125764679999975
 20
324.5589102519999756
 10
939.4125764679999975
 20
323.0589102519999756
 42
1.0
 10
939.4125764679999975
 20
319.4589102520000097
 10
939.4125764679999975
 20
317.9589102520000097
 42
1.0
 10
939.4125764679999975
 20
314.3589102519999869
 10
939.4125764679999975
 20
312.8589102519999869
 42
1.0
  0
CIRCLE
  5
8C
100
AcDbEntity
  8
0
 62
0
370
-1
 48
1.0
  6
BYLAYER
100
AcDbCircle
 10
924.1283052280000447
 20
304.0311685529999863
 30
0.0
 40
2.0
  0
LWPOLYLINE
  5
8D
100
AcDbEntity
  8
0
 62
256
370
-1
 48
1.0
  6
BYLAYER
100
AcDbPolyline
 90
16
 70
1
 10
892.1925764679999702
 20
159.9239102520000131
 10
893.8025764679999838
 20
163.5639102519999994
 10
897.6225764680000339
 20
165.1039102519999915
 10
901.4525764679999611
 20
163.5639102519999994
 10
903.0625764679999747
 20
159.9239102520000131
 10
902.2800764679999475
 20
157.4289102520000085
 10
899.9325764679999793
 20
155.5039102519999972
 10
902.5125764680000202
 20
153.5214102520000097
 10
903.3725764680000339
 20
150.7539102519999972
 10
901.6825764679999793
 20
146.8639102520000108
 10
897.6225764680000339
 20
145.2639102519999881
 10
893.5725764679999656
 20
146.8639102520000108
 10
891.8825764680000248
 20
150.7539102519999972
 10
892.7425764680000384
 20
153.5064102519999949
 10
895.3225764679999656
 20
155.5039102519999972
 10
892.9750764679999975
 20
157.4289102520000085
  0
LWPOLYLINE
  5
8E
100
AcDbEntity
  8
0
 62
256
370
-1
 48
1.0
  6
BYLAYER
100
AcDbPolyline
 90
8
 70
1
 10
944.612576468000043
 20
291.9039102520000029
 42
-0.414213562373
 10
944.9125764679999975
 20
291.6039102519999915
 10
944.9125764679999975
 20
182.2039102519999858
 42
-0.414213562373
 10
944.612576468000043
 20
181.9039102520000029
 10
944.212576467999952
 20
181.9039102520000029
 42
-0.414213562373
 10
943.9125764679999975
 20
182.2039102519999858
 10
943.9125764679999975
 20
291.6039102519999915
 42
-0.414213562373
 10
944.212576467999952
 20
291.9039102520000029
  0
LWPOLYLINE
  5
8F
100
AcDbEntity
  8
0
 62
256
370
-1
 48
1.0
  6
BYLAYER
100
AcDbPolyline
 90
8
 70
1
 10
934.612576468000043
 20
291.9039102520000029
 10
934.212576467999952
 20
291.9039102520000029
 42
0.414213562373
 10
933.9125764679999975
 20
291.6039102519999915
 10
933.9125764679999975
 20
182.2039102519999858
 42
0.414213562373
 10
934.212576467999952
 20
181.9039102520000029
 10
934.612576468000043
 20
181.9039102520000029
 42
0.414213562373
 10
934.9125764679999975
 20
182.2039102519999858
 10
934.9125764679999975
 20
291.6039102519999915
 42
0.414213562373
  0
CIRCLE
  5
90
100
AcDbEntity
  8
0
 62
0
370
-1
 48
1.0
  6
BYLAYER
100
AcDbCircle
 10
924.1283052280000447
 20
419.0311685529999863
 30
0.0
 40
2.0
  0
LWPOLYLINE
  5
91
100
AcDbEntity
  8
0
 62
256
370
-1
 48
1.0
  6
BYLAYER
100
AcDbPolyline
 90
8
 70
1
 10
897.6325764680000248
 20
154.8639102520000108
 10
894.4425764679999702
 20
153.6739102520000131
 10
893.1425764680000157
 20
150.7439102520000063
 10
894.4425764679999702
 20
147.7739102520000074
 10
897.6325764680000248
 20
146.5439102519999892
 10
900.7925764679999929
 20
147.7739102520000074
 10
902.112576468000043
 20
150.723910251999996
 10
900.8225764679999656
 20
153.6739102520000131
  0
LWPOLYLINE
  5
92
100
AcDbEntity
  8
0
 62
256
370
-1
 48
1.0
  6
BYLAYER
100
AcDbPolyline
 90
8
 70
1
 10
900.5825764679999565
 20
162.6539102520000029
 10
897.6225764680000339
 20
163.8239102519999904
 10
894.6625764679999975
 20
162.6739102520000131
 10
893.4525764679999611
 20
159.8539102519999915
 10
894.6625764679999975
 20
157.223910251999996
 10
897.6325764680000248
 20
156.143910252000012
 10
900.5725764679999656
 20
157.2139102520000051
 10
901.8025764679999838
 20
159.8239102519999904
  0
ENDBLK
  5
93
100
AcDbEntity
  8
0
100
AcDbBlockEnd
  0
BLOCK
  5
94
100
AcDbEntity
  8
0
100
AcDbBlockBegin
  2
SUBTRACTION039
 70
0
 10
0.0
 20
0.0
 30
0.0
  3
SUBTRACTION039
  1

  0
LWPOLYLINE
  5
95
100
AcDbEntity
  8
0
 62
256
370
-1
 48
1.0
  6
BYLAYER
100
AcDbPolyline
 90
112
 70
1
 10
262.397940009000024
 20
445.6999999999999886
 42
0.414213562373
 10
263.0979400090000127
 20
445.0
 10
281.6979400089999785
 20
445.0
 42
0.414213562373
 10
282.397940009000024
 20
445.6999999999999886
 10
282.397940009000024
 20
464.3000000000000114
 42
-0.414213562373
 10
283.0979400090000127
 20
465.0
 10
293.6979400089999785
 20
465.0
 42
-0.414213562373
 10
294.397940009000024
 20
464.3000000000000114
 10
294.397940009000024
 20
430.6999999999999886
 42
-0.414213562373
 10
293.6979400089999785
 20
430.0
 10
248.0979400090000127
 20
430.0
 42
0.414213562373
 10
247.3979400089999956
 20
429.3000000000000114
 10
247.3979400089999956
 20
422.3330000000000268
 42
1.0
 10
247.3979400089999956
 20
418.7330000000000041
 10
247.3979400089999956
 20
417.2330000000000041
 42
1.0
 10
247.3979400089999956
 20
413.6329999999999814
 10
247.3979400089999956
 20
412.1329999999999814
 42
1.0
 10
247.3979400089999956
 20
408.5330000000000155
 10
247.3979400089999956
 20
407.0330000000000155
 42
1.0
 10
247.3979400089999956
 20
403.4329999999999927
 10
247.3979400089999956
 20
401.9329999999999927
 42
1.0
 10
247.3979400089999956
 20
398.3330000000000268
 10
247.3979400089999956
 20
396.8330000000000268
 42
1.0
 10
247.3979400089999956
 20
393.2330000000000041
 10
247.3979400089999956
 20
391.7330000000000041
 42
1.0
 10
247.3979400089999956
 20
388.1329999999999814
 10
247.3979400089999956
 20
386.6329999999999814
 42
1.0
 10
247.3979400089999956
 20
383.0330000000000155
 10
247.3979400089999956
 20
381.5330000000000155
 42
1.0
 10
247.3979400089999956
 20
377.9329999999999927
 10
247.3979400089999956
 20
376.4329999999999927
 42
1.0
 10
247.3979400089999956
 20
372.8330000000000268
 10
247.3979400089999956
 20
371.3330000000000268
 42
1.0
 10
247.3979400089999956
 20
367.7330000000000041
 10
247.3979400089999956
 20
366.2330000000000041
 42
1.0
 10
247.3979400089999956
 20
362.6329999999999814
 10
247.3979400089999956
 20
361.1329999999999814
 42
1.0
 10
247.3979400089999956
 20
357.5330000000000155
 10
247.3979400089999956
 20
356.0330000000000155
 42
1.0
 10
247.3979400089999956
 20
352.4329999999999927
 10
247.3979400089999956
 20
350.9329999999999927
 42
1.0
 10
247.3979400089999956
 20
347.3330000000000268
 10
247.3979400089999956
 20
345.8330000000000268
 42
1.0
 10
247.3979400089999956
 20
342.2330000000000041
 10
247.3979400089999956
 20
340.7330000000000041
 42
1.0
 10
247.3979400089999956
 20
337.1329999999999814
 10
247.3979400089999956
 20
335.6329999999999814
 42
1.0
 10
247.3979400089999956
 20
332.0330000000000155
 10
247.3979400089999956
 20
330.5330000000000155
 42
1.0
 10
247.3979400089999956
 20
326.9329999999999927
 10
247.3979400089999956
 20
325.4329999999999927
 42
1.0
 10
247.3979400089999956
 20
321.8330000000000268
 10
247.3979400089999956
 20
320.3330000000000268
 42
1.0
 10
247.3979400089999956
 20
316.7330000000000041
 10
247.3979400089999956
 20
315.2330000000000041
 42
1.0
 10
247.3979400089999956
 20
311.6329999999999814
 10
247.3979400089999956
 20
310.1329999999999814
 42
1.0
 10
247.3979400089999956
 20
306.5330000000000155
 10
247.3979400089999956
 20
305.0330000000000155
 42
1.0
 10
247.3979400089999956
 20
301.4329999999999927
 10
247.3979400089999956
 20
299.6999999999999886
 42
0.414213562373
 10
248.0979400090000127
 20
299.0
 10
261.6979400089999785
 20
299.0
 42
-0.414213562373
 10
262.397940009000024
 20
298.3000000000000114
 10
262.397940009000024
 20
171.6999999999999886
 42
-0.414213562373
 10
261.6979400089999785
 20
171.0
 10
223.0979400090000127
 20
171.0
 42
0.414213562373
 10
222.3979400089999956
 20
170.3000000000000114
 10
222.3979400089999956
 20
59.7000000000000028
 42
-0.414213562373
 10
221.697940009000007
 20
59.0
 10
208.0979400090000127
 20
59.0
 42
0.414213562373
 10
207.3979400089999956
 20
58.2999999999999972
 10
207.3979400089999956
 20
55.7000000000000028
 42
-0.414213562373
 10
206.697940009000007
 20
55.0
 10
148.0979400090000127
 20
55.0
 42
-0.414213562373
 10
147.3979400089999956
 20
55.7000000000000028
 10
147.3979400089999956
 20
58.2999999999999972
 42
0.414213562373
 10
146.697940009000007
 20
59.0
 10
123.7273178100000024
 20
59.0
 42
-0.60360054977
 10
123.1501584629999968
 20
60.0960897478000007
 10
157.1893741499999919
 20
109.6960897480000057
 42
-0.247193386338
 10
157.7665334959999939
 20
110.0
 10
176.697940009000007
 20
110.0
 42
0.414213562373
 10
177.3979400089999956
 20
110.7000000000000028
 10
177.3979400089999956
 20
114.2999999999999972
 42
0.414213562373
 10
176.697940009000007
 20
115.0
 10
158.0979400090000127
 20
115.0
 42
-0.414213562373
 10
157.3979400089999956
 20
115.7000000000000028
 10
157.3979400089999956
 20
184.5905071390000103
 42
-0.116021577738
 10
157.4713324740000076
 20
184.9025375820000079
 10
187.3245475440000121
 20
244.8526160739999966
 42
0.116021577738
 10
187.3979400089999956
 20
245.1646465169999942
 10
187.3979400089999956
 20
304.3000000000000114
 42
-0.414213562373
 10
188.0979400090000127
 20
305.0
 10
206.697940009000007
 20
305.0
 42
0.414213562373
 10
207.3979400089999956
 20
305.6999999999999886
 10
207.3979400089999956
 20
309.3000000000000114
 42
0.414213562373
 10
206.697940009000007
 20
310.0
 10
188.0979400090000127
 20
310.0
 42
-0.414213562373
 10
187.3979400089999956
 20
310.6999999999999886
 10
187.3979400089999956
 20
464.3000000000000114
 42
-0.414213562373
 10
188.0979400090000127
 20
465.0
 10
216.697940009000007
 20
465.0
 42
-0.414213562373
 10
217.3979400089999956
 20
464.3000000000000114
 10
217.3979400089999956
 20
445.6999999999999886
 42
0.414213562373
 10
218.0979400090000127
 20
445.0
 10
236.697940009000007
 20
445.0
 42
0.414213562373
 10
237.3979400089999956
 20
445.6999999999999886
 10
237.3979400089999956
 20
464.3000000000000114
 42
-0.414213562373
 10
238.0979400090000127
 20
465.0
 10
261.6979400089999785
 20
465.0
 42
-0.414213562373
 10
262.397940009000024
 20
464.3000000000000114
  0
CIRCLE
  5
96
100
AcDbEntity
  8
0
 62
0
370
-1
 48
1.0
  6
BYLAYER
100
AcDbCircle
 10
232.113668768999986
 20
305.1272583009999835
 30
0.0
 40
2.0
  0
LWPOLYLINE
  5
97
100
AcDbEntity
  8
0
 62
256
370
-1
 48
1.0
  6
BYLAYER
100
AcDbPolyline
 90
8
 70
1
 10
242.5979400090000127
 20
293.0
 10
242.197940009000007
 20
293.0
 42
0.414213562373
 10
241.8979400089999956
 20
292.6999999999999886
 10
241.8979400089999956
 20
183.3000000000000114
 42
0.414213562373
 10
242.197940009000007
 20
183.0
 10
242.5979400090000127
 20
183.0
 42
0.414213562373
 10
242.8979400089999956
 20
183.3000000000000114
 10
242.8979400089999956
 20
292.6999999999999886
 42
0.414213562373
  0
LWPOLYLINE
  5
98
100
AcDbEntity
  8
0
 62
256
370
-1
 48
1.0
  6
BYLAYER
100
AcDbPolyline
 90
8
 70
1
 10
252.5979400090000127
 20
293.0
 42
-0.414213562373
 10
252.8979400089999956
 20
292.6999999999999886
 10
252.8979400089999956
 20
183.3000000000000114
 42
-0.414213562373
 10
252.5979400090000127
 20
183.0
 10
252.197940009000007
 20
183.0
 42
-0.414213562373
 10
251.8979400089999956
 20
183.3000000000000114
 10
251.8979400089999956
 20
292.6999999999999886
 42
-0.414213562373
 10
252.197940009000007
 20
293.0
  0
CIRCLE
  5
99
100
AcDbEntity
  8
0
 62
0
370
-1
 48
1.0
  6
BYLAYER
100
AcDbCircle
 10
232.113668768999986
 20
420.1272583009999835
 30
0.0
 40
2.0
  0
LWPOLYLINE
  5
9A
100
AcDbEntity
  8
0
 62
256
370
-1
 48
1.0
  6
BYLAYER
100
AcDbPolyline
 90
26
 70
1
 10
211.0779400090000024
 20
147.0
 10
198.9779400090000081
 20
147.0
 10
198.9779400090000081
 20
148.8600000000000136
 10
206.2279400090000081
 20
155.75
 10
209.0379400090000104
 20
158.8499999999999943
 10
209.697940009000007
 20
160.8700000000000045
 10
208.3779400090000138
 20
163.6999999999999886
 10
205.3079400089999922
 20
164.9199999999999875
 10
202.4579400089999979
 20
163.9799999999999898
 10
200.8179400090000115
 20
161.6500000000000057
 10
200.1679400090000058
 20
161.0300000000000011
 10
199.7679400090000001
 20
161.1999999999999886
 10
199.5879400089999933
 20
161.5900000000000034
 10
201.2579400090000092
 20
164.5900000000000034
 10
205.3079400089999922
 20
166.1999999999999886
 10
209.2479400089999899
 20
164.5800000000000125
 10
210.9579400089999979
 20
160.8400000000000034
 10
210.1379400090000047
 20
158.210000000000008
 10
208.8329400089999979
 20
156.6374999999999886
 10
206.5379400090000104
 20
154.3600000000000136
 10
200.1779400089999967
 20
148.3700000000000045
 10
200.1779400089999967
 20
148.2800000000000011
 10
209.8179400090000115
 20
148.2800000000000011
 10
209.8179400090000115
 20
149.3799999999999955
 10
210.4679400089999888
 20
150.1999999999999886
 10
211.0779400090000024
 20
149.3700000000000045
  0
ENDBLK
  5
9B
100
AcDbEntity
  8
0
100
AcDbBlockEnd
  0
BLOCK
  5
9C
100
AcDbEntity
  8
0
100
AcDbBlockBegin
  2
SUBTRACTION047
 70
0
 10
0.0
 20
0.0
 30
0.0
  3
SUBTRACTION047
  1

  0
LWPOLYLINE
  5
9D
100
AcDbEntity
  8
0
 62
256
370
-1
 48
1.0
  6
BYLAYER
100
AcDbPolyline
 90
112
 70
1
 10
723.6706221990000358
 20
445.6999999999999886
 42
0.414213562373
 10
724.3706221989999676
 20
445.0
 10
742.9706221989999904
 20
445.0
 42
0.414213562373
 10
743.6706221990000358
 20
445.6999999999999886
 10
743.6706221990000358
 20
464.3000000000000114
 42
-0.414213562373
 10
744.3706221989999676
 20
465.0
 10
754.9706221989999904
 20
465.0
 42
-0.414213562373
 10
755.6706221990000358
 20
464.3000000000000114
 10
755.6706221990000358
 20
430.6999999999999886
 42
-0.414213562373
 10
754.9706221989999904
 20
430.0
 10
709.3706221989999676
 20
430.0
 42
0.414213562373
 10
708.6706221990000358
 20
429.3000000000000114
 10
708.6706221990000358
 20
424.8809999999999718
 42
1.0
 10
708.6706221990000358
 20
421.2810000000000059
 10
708.6706221990000358
 20
419.7810000000000059
 42
1.0
 10
708.6706221990000358
 20
416.1809999999999832
 10
708.6706221990000358
 20
414.6809999999999832
 42
1.0
 10
708.6706221990000358
 20
411.0810000000000173
 10
708.6706221990000358
 20
409.5810000000000173
 42
1.0
 10
708.6706221990000358
 20
405.9809999999999945
 10
708.6706221990000358
 20
404.4809999999999945
 42
1.0
 10
708.6706221990000358
 20
400.8809999999999718
 10
708.6706221990000358
 20
399.3809999999999718
 42
1.0
 10
708.6706221990000358
 20
395.7810000000000059
 10
708.6706221990000358
 20
394.2810000000000059
 42
1.0
 10
708.6706221990000358
 20
390.6809999999999832
 10
708.6706221990000358
 20
389.1809999999999832
 42
1.0
 10
708.6706221990000358
 20
385.5810000000000173
 10
708.6706221990000358
 20
384.0810000000000173
 42
1.0
 10
708.6706221990000358
 20
380.4809999999999945
 10
708.6706221990000358
 20
378.9809999999999945
 42
1.0
 10
708.6706221990000358
 20
375.3809999999999718
 10
708.6706221990000358
 20
373.8809999999999718
 42
1.0
 10
708.6706221990000358
 20
370.2810000000000059
 10
708.6706221990000358
 20
368.7810000000000059
 42
1.0
 10
708.6706221990000358
 20
365.1809999999999832
 10
708.6706221990000358
 20
363.6809999999999832
 42
1.0
 10
708.6706221990000358
 20
360.0810000000000173
 10
708.6706221990000358
 20
358.5810000000000173
 42
1.0
 10
708.6706221990000358
 20
354.9809999999999945
 10
708.6706221990000358
 20
353.4809999999999945
 42
1.0
 10
708.6706221990000358
 20
349.8809999999999718
 10
708.6706221990000358
 20
348.3809999999999718
 42
1.0
 10
708.6706221990000358
 20
344.7810000000000059
 10
708.6706221990000358
 20
343.2810000000000059
 42
1.0
 10
708.6706221990000358
 20
339.6809999999999832
 10
708.6706221990000358
 20
338.1809999999999832
 42
1.0
 10
708.6706221990000358
 20
334.5810000000000173
 10
708.6706221990000358
 20
333.0810000000000173
 42
1.0
 10
708.6706221990000358
 20
329.4809999999999945
 10
708.6706221990000358
 20
327.9809999999999945
 42
1.0
 10
708.6706221990000358
 20
324.3809999999999718
 10
708.6706221990000358
 20
322.8809999999999718
 42
1.0
 10
708.6706221990000358
 20
319.2810000000000059
 10
708.6706221990000358
 20
317.7810000000000059
 42
1.0
 10
708.6706221990000358
 20
314.1809999999999832
 10
708.6706221990000358
 20
312.6809999999999832
 42
1.0
 10
708.6706221990000358
 20
309.0810000000000173
 10
708.6706221990000358
 20
307.5810000000000173
 42
1.0
 10
708.6706221990000358
 20
303.9809999999999945
 10
708.6706221990000358
 20
299.6999999999999886
 42
0.414213562373
 10
709.3706221989999676
 20
299.0
 10
722.9706221989999904
 20
299.0
 42
-0.414213562373
 10
723.6706221990000358
 20
298.3000000000000114
 10
723.6706221990000358
 20
171.6999999999999886
 42
-0.414213562373
 10
722.9706221989999904
 20
171.0
 10
684.3706221989999676
 20
171.0
 42
0.414213562373
 10
683.6706221990000358
 20
170.3000000000000114
 10
683.6706221990000358
 20
59.7000000000000028
 42
-0.414213562373
 10
682.9706221989999904
 20
59.0
 10
669.3706221989999676
 20
59.0
 42
0.414213562373
 10
668.6706221990000358
 20
58.2999999999999972
 10
668.6706221990000358
 20
55.7000000000000028
 42
-0.414213562373
 10
667.9706221989999904
 20
55.0
 10
609.3706221989999676
 20
55.0
 42
-0.414213562373
 10
608.6706221990000358
 20
55.7000000000000028
 10
608.6706221990000358
 20
58.2999999999999972
 42
0.414213562373
 10
607.9706221989999904
 20
59.0
 10
585.0
 20
59.0
 42
-0.60360054977
 10
584.4228406529999802
 20
60.0960897478000007
 10
618.4620563400000037
 20
109.6960897480000057
 42
-0.247193386338
 10
619.0392156870000235
 20
110.0
 10
637.9706221989999904
 20
110.0
 42
0.414213562373
 10
638.6706221990000358
 20
110.7000000000000028
 10
638.6706221990000358
 20
114.2999999999999972
 42
0.414213562373
 10
637.9706221989999904
 20
115.0
 10
619.3706221989999676
 20
115.0
 42
-0.414213562373
 10
618.6706221990000358
 20
115.7000000000000028
 10
618.6706221990000358
 20
184.5905071390000103
 42
-0.116021577738
 10
618.7440146640000194
 20
184.9025375820000079
 10
648.5972297340000523
 20
244.8526160739999966
 42
0.116021577738
 10
648.6706221990000358
 20
245.1646465169999942
 10
648.6706221990000358
 20
304.3000000000000114
 42
-0.414213562373
 10
649.3706221989999676
 20
305.0
 10
667.9706221989999904
 20
305.0
 42
0.414213562373
 10
668.6706221990000358
 20
305.6999999999999886
 10
668.6706221990000358
 20
309.3000000000000114
 42
0.414213562373
 10
667.9706221989999904
 20
310.0
 10
649.3706221989999676
 20
310.0
 42
-0.414213562373
 10
648.6706221990000358
 20
310.6999999999999886
 10
648.6706221990000358
 20
464.3000000000000114
 42
-0.414213562373
 10
649.3706221989999676
 20
465.0
 10
677.9706221989999904
 20
465.0
 42
-0.414213562373
 10
678.6706221990000358
 20
464.3000000000000114
 10
678.6706221990000358
 20
445.6999999999999886
 42
0.414213562373
 10
679.3706221989999676
 20
445.0
 10
697.9706221989999904
 20
445.0
 42
0.414213562373
 10
698.6706221990000358
 20
445.6999999999999886
 10
698.6706221990000358
 20
464.3000000000000114
 42
-0.414213562373
 10
699.3706221989999676
 20
465.0
 10
722.9706221989999904
 20
465.0
 42
-0.414213562373
 10
723.6706221990000358
 20
464.3000000000000114
  0
LWPOLYLINE
  5
9E
100
AcDbEntity
  8
0
 62
256
370
-1
 48
1.0
  6
BYLAYER
100
AcDbPolyline
 90
8
 70
1
 10
703.8706221989999676
 20
293.0
 10
703.4706221989999904
 20
293.0
 42
0.414213562373
 10
703.1706221990000358
 20
292.6999999999999886
 10
703.1706221990000358
 20
183.3000000000000114
 42
0.414213562373
 10
703.4706221989999904
 20
183.0
 10
703.8706221989999676
 20
183.0
 42
0.414213562373
 10
704.1706221990000358
 20
183.3000000000000114
 10
704.1706221990000358
 20
292.6999999999999886
 42
0.414213562373
  0
LWPOLYLINE
  5
9F
100
AcDbEntity
  8
0
 62
256
370
-1
 48
1.0
  6
BYLAYER
100
AcDbPolyline
 90
8
 70
1
 10
713.8706221989999676
 20
183.0
 10
713.4706221989999904
 20
183.0
 42
-0.414213562373
 10
713.1706221990000358
 20
183.3000000000000114
 10
713.1706221990000358
 20
292.6999999999999886
 42
-0.414213562373
 10
713.4706221989999904
 20
293.0
 10
713.8706221989999676
 20
293.0
 42
-0.414213562373
 10
714.1706221990000358
 20
292.6999999999999886
 10
714.1706221990000358
 20
183.3000000000000114
 42
-0.414213562373
  0
LWPOLYLINE
  5
A0
100
AcDbEntity
  8
0
 62
256
370
-1
 48
1.0
  6
BYLAYER
100
AcDbPolyline
 90
25
 70
1
 10
671.8006221990000313
 20
148.1500000000000057
 10
668.0206221989999449
 20
146.3600000000000136
 10
665.5431221989999813
 20
147.0275000000000034
 10
663.5706221990000131
 20
149.0300000000000011
 10
662.2806221990000495
 20
152.085000000000008
 10
661.8506221989999858
 20
155.9099999999999966
 10
662.4981221990000222
 20
160.0449999999999875
 10
664.4406221990000176
 20
163.3300000000000125
 10
667.3356221989999995
 20
165.4824999999999875
 10
670.8206221990000131
 20
166.1999999999999886
 10
672.5206221989999449
 20
165.9499999999999886
 10
673.2506221989999631
 20
165.3899999999999864
 10
673.080622199000004
 20
165.0600000000000023
 10
672.6606221990000449
 20
164.9199999999999875
 10
672.0606221990000222
 20
164.9199999999999875
 10
670.7006221990000085
 20
164.9199999999999875
 10
668.1806221990000267
 20
164.3499999999999943
 10
665.7206221989999904
 20
162.75
 10
663.8006221990000313
 20
159.9499999999999886
 10
663.0506221990000313
 20
156.0099999999999909
 10
663.1106221989999767
 20
154.6200000000000045
 10
665.3206221990000131
 20
157.5449999999999875
 10
668.2106221989999995
 20
158.5200000000000102
 10
671.8206221990000131
 20
156.75
 10
673.3406221989999949
 20
152.5500000000000114
  0
CIRCLE
  5
A1
100
AcDbEntity
  8
0
 62
0
370
-1
 48
1.0
  6
BYLAYER
100
AcDbCircle
 10
693.3863509589999694
 20
305.1272583009999835
 30
0.0
 40
2.0
  0
CIRCLE
  5
A2
100
AcDbEntity
  8
0
 62
0
370
-1
 48
1.0
  6
BYLAYER
100
AcDbCircle
 10
693.3863509589999694
 20
420.1272583009999835
 30
0.0
 40
2.0
  0
LWPOLYLINE
  5
A3
100
AcDbEntity
  8
0
 62
256
370
-1
 48
1.0
  6
BYLAYER
100
AcDbPolyline
 90
11
 70
1
 10
663.2906221990000404
 20
152.8799999999999955
 10
665.0706221990000131
 20
148.9499999999999886
 10
668.0506221990000313
 20
147.6399999999999864
 10
670.9206221990000358
 20
149.0600000000000023
 10
672.080622199000004
 20
152.5500000000000114
 10
670.9206221990000358
 20
155.8499999999999943
 10
668.1806221990000267
 20
157.2400000000000091
 10
666.650622199000054
 20
156.8499999999999943
 10
665.4406221990000176
 20
156.0600000000000023
 10
664.4406221990000176
 20
154.8600000000000136
 10
663.760622198999954
 20
153.8100000000000023
  0
ENDBLK
  5
A4
100
AcDbEntity
  8
0
100
AcDbBlockEnd
  0
ENDSEC
  0
SECTION
  2
ENTITIES
  0
INSERT
  5
A5
100
AcDbEntity
  8
0
 62
0
370
-1
 48
1.0
  6
BYLAYER
100
AcDbBlockReference
  2
SUBTRACTION044
 10
0.0
 20
0.0
 30
0.0
  0
INSERT
  5
A6
100
AcDbEntity
  8
0
 62
0
370
-1
 48
1.0
  6
BYLAYER
100
AcDbBlockReference
  2
SUBTRACTION047
 10
0.0
 20
0.0
 30
0.0
  0
INSERT
  5
A7
100
AcDbEntity
  8
0
 62
0
370
-1
 48
1.0
  6
BYLAYER
100
AcDbBlockReference
  2
SUBTRACTION048
 10
0.0
 20
0.0
 30
0.0
  0
INSERT
  5
A8
100
AcDbEntity
  8
0
 62
0
370
-1
 48
1.0
  6
BYLAYER
100
AcDbBlockReference
  2
SUBTRACTION050
 10
0.0
 20
0.0
 30
0.0
  0
INSERT
  5
A9
100
AcDbEntity
  8
0
 62
0
370
-1
 48
1.0
  6
BYLAYER
100
AcDbBlockReference
  2
SUBTRACTION038
 10
0.0
 20
0.0
 30
0.0
  0
INSERT
  5
AA
100
AcDbEntity
  8
0
 62
0
370
-1
 48
1.0
  6
BYLAYER
100
AcDbBlockReference
  2
SUBTRACTION039
 10
0.0
 20
0.0
 30
0.0
  0
INSERT
  5
AB
100
AcDbEntity
  8
0
 62
0
370
-1
 48
1.0
  6
BYLAYER
100
AcDbBlockReference
  2
SUBTRACTION042
 10
0.0
 20
0.0
 30
0.0
  0
INSERT
  5
AC
100
AcDbEntity
  8
0
 62
0
370
-1
 48
1.0
  6
BYLAYER
100
AcDbBlockReference
  2
SUBTRACTION040
 10
0.0
 20
0.0
 30
0.0
  0
ENDSEC
  0
SECTION
  2
OBJECTS
  0
DICTIONARY
  5
C
100
AcDbDictionary
280
0
281
1
  3
ACAD_GROUP
350
D
  3
ACAD_LAYOUT
350
1A
  3
ACAD_MLINESTYLE
350
17
  3
ACAD_PLOTSETTINGS
350
19
  3
ACAD_PLOTSTYLENAME
350
E
  3
AcDbVariableDictionary
350
AD
  3
QCAD_OBJECTS
350
AE
  0
DICTIONARY
  5
D
100
AcDbDictionary
280
0
281
1
  0
ACDBDICTIONARYWDFLT
  5
E
100
AcDbDictionary
281
1
  3
Normal
350
F
100
AcDbDictionaryWithDefault
340
F
  0
ACDBPLACEHOLDER
  5
F
  0
DICTIONARY
  5
17
100
AcDbDictionary
280
0
281
1
  3
Standard
350
18
  0
MLINESTYLE
  5
18
100
AcDbMlineStyle
  2
STANDARD
 70
0
  3

 62
256
 51
90.0
 52
90.0
 71
2
 49
0.5
 62
256
  6
BYLAYER
 49
-0.5
 62
256
  6
BYLAYER
  0
DICTIONARY
  5
19
100
AcDbDictionary
280
0
281
1
  0
DICTIONARY
  5
1A
100
AcDbDictionary
281
1
  3
Layout1
350
1E
  3
Layout2
350
26
  3
Model
350
22
  0
LAYOUT
  5
1E
100
AcDbPlotSettings
  1

  2
none_device
  4

  6

 40
0.0
 41
0.0
 42
0.0
 43
0.0
 44
0.0
 45
0.0
 46
0.0
 47
0.0
 48
0.0
 49
0.0
140
0.0
141
0.0
142
1.0
143
1.0
 70
688
 72
0
 73
0
 74
5
  7

 75
16
147
1.0
148
0.0
149
0.0
100
AcDbLayout
  1
Layout1
 70
1
 71
1
 10
0.0
 20
0.0
 11
420.0
 21
297.0
 12
0.0
 22
0.0
 32
0.0
 14
100000000000000000000.0
 24
100000000000000000000.0
 34
100000000000000000000.0
 15
-100000000000000000000.0
 25
-100000000000000000000.0
 35
-100000000000000000000.0
146
0.0
 13
0.0
 23
0.0
 33
0.0
 16
1.0
 26
0.0
 36
0.0
 17
0.0
 27
1.0
 37
0.0
 76
0
330
1B
  0
LAYOUT
  5
22
100
AcDbPlotSettings
  1

  2
none_device
  4

  6

 40
0.0
 41
0.0
 42
0.0
 43
0.0
 44
0.0
 45
0.0
 46
0.0
 47
0.0
 48
0.0
 49
0.0
140
0.0
141
0.0
142
1.0
143
1.0
 70
1712
 72
0
 73
0
 74
0
  7

 75
0
147
1.0
148
0.0
149
0.0
100
AcDbLayout
  1
Model
 70
1
 71
0
 10
0.0
 20
0.0
 11
12.0
 21
9.0
 12
0.0
 22
0.0
 32
0.0
 14
0.0
 24
0.0
 34
0.0
 15
0.0
 25
0.0
 35
0.0
146
0.0
 13
0.0
 23
0.0
 33
0.0
 16
1.0
 26
0.0
 36
0.0
 17
0.0
 27
1.0
 37
0.0
 76
0
330
1F
  0
LAYOUT
  5
26
100
AcDbPlotSettings
  1

  2
none_device
  4

  6

 40
0.0
 41
0.0
 42
0.0
 43
0.0
 44
0.0
 45
0.0
 46
0.0
 47
0.0
 48
0.0
 49
0.0
140
0.0
141
0.0
142
1.0
143
1.0
 70
688
 72
0
 73
0
 74
5
  7

 75
16
147
1.0
148
0.0
149
0.0
100
AcDbLayout
  1
Layout2
 70
1
 71
2
 10
0.0
 20
0.0
 11
12.0
 21
9.0
 12
0.0
 22
0.0
 32
0.0
 14
0.0
 24
0.0
 34
0.0
 15
0.0
 25
0.0
 35
0.0
146
0.0
 13
0.0
 23
0.0
 33
0.0
 16
1.0
 26
0.0
 36
0.0
 17
0.0
 27
1.0
 37
0.0
 76
0
330
23
  0
DICTIONARY
  5
AD
100
AcDbDictionary
281
1
  3
DIMASSOC
350
B0
  3
HIDETEXT
350
AF
  0
DICTIONARYVAR
  5
AF
100
DictionaryVariables
280
0
  1
2
  0
DICTIONARYVAR
  5
B0
100
DictionaryVariables
280
0
  1
1
  0
DICTIONARY
  5
AE
100
AcDbDictionary
281
1
  3
ColorSettings/BackgroundColor
350
B1
  3
ColorSettings/ColorMode
350
B2
  3
Grid/DisplayGrid00
350
B3
  3
Grid/DisplayGrid01
350
B4
  3
Grid/DisplayGrid02
350
B5
  3
Grid/DisplayGrid03
350
B6
  3
Grid/GridSpacingX00
350
B7
  3
Grid/GridSpacingX01
350
B8
  3
Grid/GridSpacingX02
350
B9
  3
Grid/GridSpacingX03
350
BA
  3
Grid/GridSpacingY00
350
BB
  3
Grid/GridSpacingY01
350
BC
  3
Grid/GridSpacingY02
350
BD
  3
Grid/GridSpacingY03
350
BE
  3
Grid/IsometricGrid00
350
BF
  3
Grid/IsometricGrid01
350
C0
  3
Grid/IsometricGrid02
350
C1
  3
Grid/IsometricGrid03
350
C2
  3
Grid/IsometricProjection00
350
C3
  3
Grid/IsometricProjection01
350
C4
  3
Grid/IsometricProjection02
350
C5
  3
Grid/IsometricProjection03
350
C6
  3
Grid/MetaGridSpacingX00
350
C7
  3
Grid/MetaGridSpacingX01
350
C8
  3
Grid/MetaGridSpacingX02
350
C9
  3
Grid/MetaGridSpacingX03
350
CA
  3
Grid/MetaGridSpacingY00
350
CB
  3
Grid/MetaGridSpacingY01
350
CC
  3
Grid/MetaGridSpacingY02
350
CD
  3
Grid/MetaGridSpacingY03
350
CE
  3
MultiPageSettings/Columns
350
CF
  3
MultiPageSettings/GlueMarginsBottom
350
D0
  3
MultiPageSettings/GlueMarginsLeft
350
D1
  3
MultiPageSettings/GlueMarginsRight
350
D2
  3
MultiPageSettings/GlueMarginsTop
350
D3
  3
MultiPageSettings/PrintCropMarks
350
D4
  3
MultiPageSettings/Rows
350
D5
  3
PageSettings/OffsetX
350
D6
  3
PageSettings/OffsetY
350
D7
  3
PageSettings/PageOrientation
350
D8
  3
PageSettings/PaperHeight
350
D9
  3
PageSettings/PaperWidth
350
DA
  3
PageSettings/Scale
350
DB
  3
PageSettings/ShowPaperBorders
350
DC
  3
UnitSettings/PaperUnit
350
DD
  3
ViewportCenter
350
DE
  3
ViewportHeight
350
DF
  3
ViewportWidth
350
E0
  0
XRECORD
  5
B1
330
AE
100
AcDbXrecord
280
1
1000
White
  0
XRECORD
  5
B2
330
AE
100
AcDbXrecord
280
1
1000
FullColor
  0
XRECORD
  5
B3
330
AE
100
AcDbXrecord
280
1
290
1
  0
XRECORD
  5
B4
330
AE
100
AcDbXrecord
280
1
290
1
  0
XRECORD
  5
B5
330
AE
100
AcDbXrecord
280
1
290
1
  0
XRECORD
  5
B6
330
AE
100
AcDbXrecord
280
1
290
1
  0
XRECORD
  5
B7
330
AE
100
AcDbXrecord
280
1
1000
auto
  0
XRECORD
  5
B8
330
AE
100
AcDbXrecord
280
1
1000
auto
  0
XRECORD
  5
B9
330
AE
100
AcDbXrecord
280
1
1000
auto
  0
XRECORD
  5
BA
330
AE
100
AcDbXrecord
280
1
1000
auto
  0
XRECORD
  5
BB
330
AE
100
AcDbXrecord
280
1
1000
auto
  0
XRECORD
  5
BC
330
AE
100
AcDbXrecord
280
1
1000
auto
  0
XRECORD
  5
BD
330
AE
100
AcDbXrecord
280
1
1000
auto
  0
XRECORD
  5
BE
330
AE
100
AcDbXrecord
280
1
1000
auto
  0
XRECORD
  5
BF
330
AE
100
AcDbXrecord
280
1
290
0
  0
XRECORD
  5
C0
330
AE
100
AcDbXrecord
280
1
290
0
  0
XRECORD
  5
C1
330
AE
100
AcDbXrecord
280
1
290
0
  0
XRECORD
  5
C2
330
AE
100
AcDbXrecord
280
1
290
0
  0
XRECORD
  5
C3
330
AE
100
AcDbXrecord
280
1
 90
65537
  0
XRECORD
  5
C4
330
AE
100
AcDbXrecord
280
1
 90
65537
  0
XRECORD
  5
C5
330
AE
100
AcDbXrecord
280
1
 90
65537
  0
XRECORD
  5
C6
330
AE
100
AcDbXrecord
280
1
 90
65537
  0
XRECORD
  5
C7
330
AE
100
AcDbXrecord
280
1
1000
auto
  0
XRECORD
  5
C8
330
AE
100
AcDbXrecord
280
1
1000
auto
  0
XRECORD
  5
C9
330
AE
100
AcDbXrecord
280
1
1000
auto
  0
XRECORD
  5
CA
330
AE
100
AcDbXrecord
280
1
1000
auto
  0
XRECORD
  5
CB
330
AE
100
AcDbXrecord
280
1
1000
auto
  0
XRECORD
  5
CC
330
AE
100
AcDbXrecord
280
1
1000
auto
  0
XRECORD
  5
CD
330
AE
100
AcDbXrecord
280
1
1000
auto
  0
XRECORD
  5
CE
330
AE
100
AcDbXrecord
280
1
1000
auto
  0
XRECORD
  5
CF
330
AE
100
AcDbXrecord
280
1
 90
1
  0
XRECORD
  5
D0
330
AE
100
AcDbXrecord
280
1
 40
10.0
  0
XRECORD
  5
D1
330
AE
100
AcDbXrecord
280
1
 40
10.0
  0
XRECORD
  5
D2
330
AE
100
AcDbXrecord
280
1
 40
10.0
  0
XRECORD
  5
D3
330
AE
100
AcDbXrecord
280
1
 40
10.0
  0
XRECORD
  5
D4
330
AE
100
AcDbXrecord
280
1
290
0
  0
XRECORD
  5
D5
330
AE
100
AcDbXrecord
280
1
 90
1
  0
XRECORD
  5
D6
330
AE
100
AcDbXrecord
280
1
 40
0.0
  0
XRECORD
  5
D7
330
AE
100
AcDbXrecord
280
1
 40
0.0
  0
XRECORD
  5
D8
330
AE
100
AcDbXrecord
280
1
1000
Portrait
  0
XRECORD
  5
D9
330
AE
100
AcDbXrecord
280
1
 40
297.0
  0
XRECORD
  5
DA
330
AE
100
AcDbXrecord
280
1
 40
210.0
  0
XRECORD
  5
DB
330
AE
100
AcDbXrecord
280
1
1000
1:1
  0
XRECORD
  5
DC
330
AE
100
AcDbXrecord
280
1
290
1
  0
XRECORD
  5
DD
330
AE
100
AcDbXrecord
280
1
 90
4
  0
XRECORD
  5
DF
330
AE
100
AcDbXrecord
280
1
 40
738.2274392039295208
  0
XRECORD
  5
E0
330
AE
100
AcDbXrecord
280
1
 40
1032.3998884624650145
  0
ENDSEC
  0
EOF
