999
dxflib 3.17.0.0
  0
SECTION
  2
HEADER
  9
$ACADVER
  1
AC1015
  9
$HANDSEED
  5
FFFF
  9
$DIMADEC
 70
0
  9
$DIMASZ
 40
0.18
  9
$DIMAUNIT
 70
0
  9
$DIMAZIN
 70
0
  9
$DIMDEC
 70
4
  9
$DIMDSEP
 70
46
  9
$DIMEXE
 40
0.18
  9
$DIMEXO
 40
0.0625
  9
$DIMGAP
 40
0.09
  9
$DIMLUNIT
 70
2
  9
$DIMSCALE
 40
1.0
  9
$DIMTSZ
 40
0.0
  9
$DIMTXT
 40
0.18
  9
$DIMZIN
 70
0
  9
$DWGCODEPAGE
  3
ANSI_1252
  9
$EXTMAX
 10
0.0
 20
0.0
 30
0.0
  9
$EXTMIN
 10
0.0
 20
0.0
 30
0.0
  9
$INSBASE
 10
0.0
 20
0.0
 30
0.0
  9
$INSUNITS
 70
0
  9
$LTSCALE
 40
1.0
  9
$MAXACTVP
 70
64
  9
$MEASUREMENT
 70
1
  9
$PDMODE
 70
0
  9
$PDSIZE
 40
0.0
  0
ENDSEC
  0
SECTION
  2
TABLES
  0
TABLE
  2
VPORT
  5
8
100
AcDbSymbolTable
 70
1
  0
VPORT
  5
30
100
AcDbSymbolTableRecord
100
AcDbViewportTableRecord
  2
*Active
 70
0
 10
0.0
 20
0.0
 11
1.0
 21
1.0
 12
286.3055555555554861
 22
148.5
 13
0.0
 23
0.0
 14
10.0
 24
10.0
 15
10.0
 25
10.0
 16
0.0
 26
0.0
 36
1.0
 17
0.0
 27
0.0
 37
0.0
 40
297.0
 41
1.92798353909465
 42
50.0
 43
0.0
 44
0.0
 50
0.0
 51
0.0
 71
0
 72
100
 73
1
 74
3
 75
1
 76
1
 77
0
 78
0
281
0
 65
1
110
0.0
120
0.0
130
0.0
111
1.0
121
0.0
131
0.0
112
0.0
122
1.0
132
0.0
 79
0
146
0.0
  0
ENDTAB
  0
TABLE
  2
LTYPE
  5
5
100
AcDbSymbolTable
 70
41
  0
LTYPE
  5
16
100
AcDbSymbolTableRecord
100
AcDbLinetypeTableRecord
  2
CONTINUOUS
 70
0
  3
Solid line
 72
65
 73
0
 40
0.0
  0
LTYPE
  5
31
100
AcDbSymbolTableRecord
100
AcDbLinetypeTableRecord
  2
PHANTOM
 70
0
  3
Phantom ______  __  __  ______  __  __  ______ 
 72
65
 73
6
 40
63.5000000000000071
 49
31.75
 74
0
 49
-6.3499999999999996
 74
0
 49
6.3499999999999996
 74
0
 49
-6.3499999999999996
 74
0
 49
6.3499999999999996
 74
0
 49
-6.3499999999999996
 74
0
  0
LTYPE
  5
32
100
AcDbSymbolTableRecord
100
AcDbLinetypeTableRecord
  2
DOT
 70
0
  3
Dot . . . . . . . . . . . . . . . . . . . . . . . .
 72
65
 73
2
 40
6.3499999999999996
 49
0.0
 74
0
 49
-6.3499999999999996
 74
0
  0
LTYPE
  5
33
100
AcDbSymbolTableRecord
100
AcDbLinetypeTableRecord
  2
DASHDOT
 70
0
  3
Dash dot __ . __ . __ . __ . __ . __ . __ . __
 72
65
 73
4
 40
25.3999999999999986
 49
12.6999999999999993
 74
0
 49
-6.3499999999999996
 74
0
 49
0.0
 74
0
 49
-6.3499999999999996
 74
0
  0
LTYPE
  5
34
100
AcDbSymbolTableRecord
100
AcDbLinetypeTableRecord
  2
ACAD_ISO09W100
 70
0
  3
ISO long-dash double-short-dash ____ __ __ ____
 72
65
 73
6
 40
45.0
 49
24.0
 74
0
 49
-3.0
 74
0
 49
6.0
 74
0
 49
-3.0
 74
0
 49
6.0
 74
0
 49
-3.0
 74
0
  0
LTYPE
  5
35
100
AcDbSymbolTableRecord
100
AcDbLinetypeTableRecord
  2
HIDDEN2
 70
0
  3
Hidden (.5x) _ _ _ _ _ _ _ _ _ _ _ _ _ _ _ _ _ 
 72
65
 73
2
 40
4.7624999999999993
 49
3.1749999999999998
 74
0
 49
-1.5874999999999999
 74
0
  0
LTYPE
  5
36
100
AcDbSymbolTableRecord
100
AcDbLinetypeTableRecord
  2
ACAD_ISO04W100
 70
0
  3
ISO long-dash dot ____ . ____ . ____ . ____ . _
 72
65
 73
4
 40
30.0
 49
24.0
 74
0
 49
-3.0
 74
0
 49
0.0
 74
0
 49
-3.0
 74
0
  0
LTYPE
  5
37
100
AcDbSymbolTableRecord
100
AcDbLinetypeTableRecord
  2
DASHDOT2
 70
0
  3
Dash dot (.5x) _._._._._._._._._._._._._._._.
 72
65
 73
4
 40
12.6999999999999993
 49
6.3499999999999996
 74
0
 49
-3.1749999999999998
 74
0
 49
0.0
 74
0
 49
-3.1749999999999998
 74
0
  0
LTYPE
  5
38
100
AcDbSymbolTableRecord
100
AcDbLinetypeTableRecord
  2
PHANTOMX2
 70
0
  3
Phantom (2x) ____________    ____    ____   _
 72
65
 73
6
 40
127.0000000000000142
 49
63.5
 74
0
 49
-12.6999999999999993
 74
0
 49
12.6999999999999993
 74
0
 49
-12.6999999999999993
 74
0
 49
12.6999999999999993
 74
0
 49
-12.6999999999999993
 74
0
  0
LTYPE
  5
39
100
AcDbSymbolTableRecord
100
AcDbLinetypeTableRecord
  2
ACAD_ISO14W100
 70
0
  3
ISO dash triple-dot __ . . . __ . . . __ . . . _
 72
65
 73
8
 40
24.0
 49
12.0
 74
0
 49
-3.0
 74
0
 49
0.0
 74
0
 49
-3.0
 74
0
 49
0.0
 74
0
 49
-3.0
 74
0
 49
0.0
 74
0
 49
-3.0
 74
0
  0
LTYPE
  5
3A
100
AcDbSymbolTableRecord
100
AcDbLinetypeTableRecord
  2
PHANTOM2
 70
0
  3
Phantom (.5x) ___ _ _ ___ _ _ ___ _ _ ___ _ _
 72
65
 73
6
 40
31.7500000000000036
 49
15.875
 74
0
 49
-3.1749999999999998
 74
0
 49
3.1749999999999998
 74
0
 49
-3.1749999999999998
 74
0
 49
3.1749999999999998
 74
0
 49
-3.1749999999999998
 74
0
  0
LTYPE
  5
14
100
AcDbSymbolTableRecord
100
AcDbLinetypeTableRecord
  2
BYBLOCK
 70
0
  3

 72
65
 73
0
 40
0.0
  0
LTYPE
  5
3B
100
AcDbSymbolTableRecord
100
AcDbLinetypeTableRecord
  2
BORDERX2
 70
0
  3
Border (2x) ____  ____  .  ____  ____  .  ___
 72
65
 73
6
 40
88.8999999999999915
 49
25.3999999999999986
 74
0
 49
-12.6999999999999993
 74
0
 49
25.3999999999999986
 74
0
 49
-12.6999999999999993
 74
0
 49
0.0
 74
0
 49
-12.6999999999999993
 74
0
  0
LTYPE
  5
3C
100
AcDbSymbolTableRecord
100
AcDbLinetypeTableRecord
  2
ACAD_ISO07W100
 70
0
  3
ISO dot . . . . . . . . . . . . . . . . . . . . 
 72
65
 73
2
 40
3.0
 49
0.0
 74
0
 49
-3.0
 74
0
  0
LTYPE
  5
3D
100
AcDbSymbolTableRecord
100
AcDbLinetypeTableRecord
  2
ACAD_ISO11W100
 70
0
  3
ISO double-dash dot __ __ . __ __ . __ __ . __ _
 72
65
 73
6
 40
33.0
 49
12.0
 74
0
 49
-3.0
 74
0
 49
12.0
 74
0
 49
-3.0
 74
0
 49
0.0
 74
0
 49
-3.0
 74
0
  0
LTYPE
  5
3E
100
AcDbSymbolTableRecord
100
AcDbLinetypeTableRecord
  2
DASHEDX2
 70
0
  3
Dashed (2x) ____  ____  ____  ____  ____  ___
 72
65
 73
2
 40
38.0999999999999943
 49
25.3999999999999986
 74
0
 49
-12.6999999999999993
 74
0
  0
LTYPE
  5
3F
100
AcDbSymbolTableRecord
100
AcDbLinetypeTableRecord
  2
DIVIDEX2
 70
0
  3
Divide (2x) ________  .  .  ________  .  .  _
 72
65
 73
6
 40
63.5
 49
25.3999999999999986
 74
0
 49
-12.6999999999999993
 74
0
 49
0.0
 74
0
 49
-12.6999999999999993
 74
0
 49
0.0
 74
0
 49
-12.6999999999999993
 74
0
  0
LTYPE
  5
40
100
AcDbSymbolTableRecord
100
AcDbLinetypeTableRecord
  2
CENTER2
 70
0
  3
Center (.5x) ___ _ ___ _ ___ _ ___ _ ___ _ ___
 72
65
 73
4
 40
28.5750000000000028
 49
19.0500000000000007
 74
0
 49
-3.1749999999999998
 74
0
 49
3.1749999999999998
 74
0
 49
-3.1749999999999998
 74
0
  0
LTYPE
  5
41
100
AcDbSymbolTableRecord
100
AcDbLinetypeTableRecord
  2
ACAD_ISO08W100
 70
0
  3
ISO long-dash short-dash ____ __ ____ __ ____ _
 72
65
 73
4
 40
36.0
 49
24.0
 74
0
 49
-3.0
 74
0
 49
6.0
 74
0
 49
-3.0
 74
0
  0
LTYPE
  5
42
100
AcDbSymbolTableRecord
100
AcDbLinetypeTableRecord
  2
ACAD_ISO12W100
 70
0
  3
ISO dash double-dot __ . . __ . . __ . . __ . . 
 72
65
 73
6
 40
21.0
 49
12.0
 74
0
 49
-3.0
 74
0
 49
0.0
 74
0
 49
-3.0
 74
0
 49
0.0
 74
0
 49
-3.0
 74
0
  0
LTYPE
  5
43
100
AcDbSymbolTableRecord
100
AcDbLinetypeTableRecord
  2
ACAD_ISO05W100
 70
0
  3
ISO long-dash double-dot ____ .. ____ .. ____ . 
 72
65
 73
6
 40
33.0
 49
24.0
 74
0
 49
-3.0
 74
0
 49
0.0
 74
0
 49
-3.0
 74
0
 49
0.0
 74
0
 49
-3.0
 74
0
  0
LTYPE
  5
44
100
AcDbSymbolTableRecord
100
AcDbLinetypeTableRecord
  2
CENTER
 70
0
  3
Center ____ _ ____ _ ____ _ ____ _ ____ _ ____
 72
65
 73
4
 40
50.8000000000000043
 49
31.75
 74
0
 49
-6.3499999999999996
 74
0
 49
6.3499999999999996
 74
0
 49
-6.3499999999999996
 74
0
  0
LTYPE
  5
45
100
AcDbSymbolTableRecord
100
AcDbLinetypeTableRecord
  2
DIVIDE
 70
0
  3
Divide ____ . . ____ . . ____ . . ____ . . ____
 72
65
 73
6
 40
31.75
 49
12.6999999999999993
 74
0
 49
-6.3499999999999996
 74
0
 49
0.0
 74
0
 49
-6.3499999999999996
 74
0
 49
0.0
 74
0
 49
-6.3499999999999996
 74
0
  0
LTYPE
  5
46
100
AcDbSymbolTableRecord
100
AcDbLinetypeTableRecord
  2
HIDDEN
 70
0
  3
Hidden __ __ __ __ __ __ __ __ __ __ __ __ __ __
 72
65
 73
2
 40
9.5249999999999986
 49
6.3499999999999996
 74
0
 49
-3.1749999999999998
 74
0
  0
LTYPE
  5
47
100
AcDbSymbolTableRecord
100
AcDbLinetypeTableRecord
  2
DASHDOTX2
 70
0
  3
Dash dot (2x) ____  .  ____  .  ____  .  ___
 72
65
 73
4
 40
50.7999999999999972
 49
25.3999999999999986
 74
0
 49
-12.6999999999999993
 74
0
 49
0.0
 74
0
 49
-12.6999999999999993
 74
0
  0
LTYPE
  5
48
100
AcDbSymbolTableRecord
100
AcDbLinetypeTableRecord
  2
ACAD_ISO06W100
 70
0
  3
ISO long-dash triple-dot ____ ... ____ ... ____
 72
65
 73
8
 40
36.0
 49
24.0
 74
0
 49
-3.0
 74
0
 49
0.0
 74
0
 49
-3.0
 74
0
 49
0.0
 74
0
 49
-3.0
 74
0
 49
0.0
 74
0
 49
-3.0
 74
0
  0
LTYPE
  5
49
100
AcDbSymbolTableRecord
100
AcDbLinetypeTableRecord
  2
BORDER2
 70
0
  3
Border (.5x) __.__.__.__.__.__.__.__.__.__.__.
 72
65
 73
6
 40
22.2249999999999979
 49
6.3499999999999996
 74
0
 49
-3.1749999999999998
 74
0
 49
6.3499999999999996
 74
0
 49
-3.1749999999999998
 74
0
 49
0.0
 74
0
 49
-3.1749999999999998
 74
0
  0
LTYPE
  5
4A
100
AcDbSymbolTableRecord
100
AcDbLinetypeTableRecord
  2
DASHED
 70
0
  3
Dashed __ __ __ __ __ __ __ __ __ __ __ __ __ _
 72
65
 73
2
 40
19.0499999999999972
 49
12.6999999999999993
 74
0
 49
-6.3499999999999996
 74
0
  0
LTYPE
  5
15
100
AcDbSymbolTableRecord
100
AcDbLinetypeTableRecord
  2
BYLAYER
 70
0
  3

 72
65
 73
0
 40
0.0
  0
LTYPE
  5
4B
100
AcDbSymbolTableRecord
100
AcDbLinetypeTableRecord
  2
CENTERX2
 70
0
  3
Center (2x) ________  __  ________  __  _____
 72
65
 73
4
 40
101.6000000000000085
 49
63.5
 74
0
 49
-12.6999999999999993
 74
0
 49
12.6999999999999993
 74
0
 49
-12.6999999999999993
 74
0
  0
LTYPE
  5
4C
100
AcDbSymbolTableRecord
100
AcDbLinetypeTableRecord
  2
HIDDENX2
 70
0
  3
Hidden (2x) ____ ____ ____ ____ ____ ____ ____ 
 72
65
 73
2
 40
19.0499999999999972
 49
12.6999999999999993
 74
0
 49
-6.3499999999999996
 74
0
  0
LTYPE
  5
4D
100
AcDbSymbolTableRecord
100
AcDbLinetypeTableRecord
  2
ACAD_ISO15W100
 70
0
  3
ISO double-dash triple-dot __ __ . . . __ __ . .
 72
65
 73
10
 40
39.0
 49
12.0
 74
0
 49
-3.0
 74
0
 49
12.0
 74
0
 49
-3.0
 74
0
 49
0.0
 74
0
 49
-3.0
 74
0
 49
0.0
 74
0
 49
-3.0
 74
0
 49
0.0
 74
0
 49
-3.0
 74
0
  0
LTYPE
  5
4E
100
AcDbSymbolTableRecord
100
AcDbLinetypeTableRecord
  2
DASHED2
 70
0
  3
Dashed (.5x) _ _ _ _ _ _ _ _ _ _ _ _ _ _ _ _ _ 
 72
65
 73
2
 40
9.5249999999999986
 49
6.3499999999999996
 74
0
 49
-3.1749999999999998
 74
0
  0
LTYPE
  5
4F
100
AcDbSymbolTableRecord
100
AcDbLinetypeTableRecord
  2
DIVIDE2
 70
0
  3
Divide (.5x) __..__..__..__..__..__..__..__.._
 72
65
 73
6
 40
15.875
 49
6.3499999999999996
 74
0
 49
-3.1749999999999998
 74
0
 49
0.0
 74
0
 49
-3.1749999999999998
 74
0
 49
0.0
 74
0
 49
-3.1749999999999998
 74
0
  0
LTYPE
  5
50
100
AcDbSymbolTableRecord
100
AcDbLinetypeTableRecord
  2
DOTX2
 70
0
  3
Dot (2x) .  .  .  .  .  .  .  .  .  .  .  .  .  .
 72
65
 73
2
 40
12.6999999999999993
 49
0.0
 74
0
 49
-12.6999999999999993
 74
0
  0
LTYPE
  5
51
100
AcDbSymbolTableRecord
100
AcDbLinetypeTableRecord
  2
ACAD_ISO03W100
 70
0
  3
ISO dash space __    __    __    __    __    __
 72
65
 73
2
 40
30.0
 49
12.0
 74
0
 49
-18.0
 74
0
  0
LTYPE
  5
52
100
AcDbSymbolTableRecord
100
AcDbLinetypeTableRecord
  2
ACAD_ISO02W100
 70
0
  3
ISO dash __ __ __ __ __ __ __ __ __ __ __ __ __
 72
65
 73
2
 40
15.0
 49
12.0
 74
0
 49
-3.0
 74
0
  0
LTYPE
  5
53
100
AcDbSymbolTableRecord
100
AcDbLinetypeTableRecord
  2
ACAD_ISO10W100
 70
0
  3
ISO dash dot __ . __ . __ . __ . __ . __ . __ . 
 72
65
 73
4
 40
18.0
 49
12.0
 74
0
 49
-3.0
 74
0
 49
0.0
 74
0
 49
-3.0
 74
0
  0
LTYPE
  5
54
100
AcDbSymbolTableRecord
100
AcDbLinetypeTableRecord
  2
DOT2
 70
0
  3
Dot (.5x) ........................................
 72
65
 73
2
 40
3.1749999999999998
 49
0.0
 74
0
 49
-3.1749999999999998
 74
0
  0
LTYPE
  5
55
100
AcDbSymbolTableRecord
100
AcDbLinetypeTableRecord
  2
BORDER
 70
0
  3
Border __ __ . __ __ . __ __ . __ __ . __ __ .
 72
65
 73
6
 40
44.4499999999999957
 49
12.6999999999999993
 74
0
 49
-6.3499999999999996
 74
0
 49
12.6999999999999993
 74
0
 49
-6.3499999999999996
 74
0
 49
0.0
 74
0
 49
-6.3499999999999996
 74
0
  0
LTYPE
  5
56
100
AcDbSymbolTableRecord
100
AcDbLinetypeTableRecord
  2
ACAD_ISO13W100
 70
0
  3
ISO double-dash double-dot __ __ . . __ __ . . _
 72
65
 73
8
 40
36.0
 49
12.0
 74
0
 49
-3.0
 74
0
 49
12.0
 74
0
 49
-3.0
 74
0
 49
0.0
 74
0
 49
-3.0
 74
0
 49
0.0
 74
0
 49
-3.0
 74
0
  0
ENDTAB
  0
TABLE
  2
LAYER
  5
2
100
AcDbSymbolTable
 70
1
  0
LAYER
  5
10
100
AcDbSymbolTableRecord
100
AcDbLayerTableRecord
  2
0
 70
0
 62
7
420
16777215
  6
CONTINUOUS
370
5
390
F
  0
ENDTAB
  0
TABLE
  2
STYLE
  5
3
100
AcDbSymbolTable
 70
1
  0
STYLE
  5
57
100
AcDbSymbolTableRecord
100
AcDbTextStyleTableRecord
  2
Standard
 70
0
 40
0.0
 41
1.0
 50
0.0
 71
0
 42
2.5
  3

  4

1001
ACAD
1000
txt
1071
0
  0
ENDTAB
  0
TABLE
  2
VIEW
  5
6
100
AcDbSymbolTable
 70
0
  0
ENDTAB
  0
TABLE
  2
UCS
  5
7
100
AcDbSymbolTable
 70
0
  0
ENDTAB
  0
TABLE
  2
APPID
  5
9
100
AcDbSymbolTable
 70
1
  0
APPID
  5
12
100
AcDbSymbolTableRecord
100
AcDbRegAppTableRecord
  2
ACAD
 70
0
  0
APPID
  5
58
100
AcDbSymbolTableRecord
100
AcDbRegAppTableRecord
  2
QCAD
 70
0
  0
ENDTAB
  0
TABLE
  2
DIMSTYLE
  5
A
100
AcDbSymbolTable
 70
1
100
AcDbDimStyleTable
 71
0
  0
DIMSTYLE
105
27
100
AcDbSymbolTableRecord
100
AcDbDimStyleTableRecord
  2
Standard
 41
0.18
 42
0.0625
 43
3.75
 44
0.18
 70
0
 73
0
 74
0
 77
1
 78
8
140
0.18
141
2.5
143
0.03937007874016
147
0.09
171
3
172
1
271
2
272
2
274
3
278
44
283
0
284
8
340
57
  0
ENDTAB
  0
TABLE
  2
BLOCK_RECORD
  5
1
100
AcDbSymbolTable
 70
1
  0
BLOCK_RECORD
  5
1F
100
AcDbSymbolTableRecord
100
AcDbBlockTableRecord
  2
*Model_Space
340
22
  0
BLOCK_RECORD
  5
1B
100
AcDbSymbolTableRecord
100
AcDbBlockTableRecord
  2
*Paper_Space
340
1E
  0
BLOCK_RECORD
  5
23
100
AcDbSymbolTableRecord
100
AcDbBlockTableRecord
  2
*Paper_Space0
340
26
  0
BLOCK_RECORD
  5
59
100
AcDbSymbolTableRecord
100
AcDbBlockTableRecord
  2
ARRAY
340
0
  0
BLOCK_RECORD
  5
5A
100
AcDbSymbolTableRecord
100
AcDbBlockTableRecord
  2
SUBTRACTION
340
0
  0
BLOCK_RECORD
  5
5B
100
AcDbSymbolTableRecord
100
AcDbBlockTableRecord
  2
CUT002
340
0
  0
ENDTAB
  0
ENDSEC
  0
SECTION
  2
BLOCKS
  0
BLOCK
  5
20
100
AcDbEntity
  8
0
100
AcDbBlockBegin
  2
*Model_Space
 70
0
 10
0.0
 20
0.0
 30
0.0
  3
*Model_Space
  1

  0
ENDBLK
  5
21
100
AcDbEntity
  8
0
100
AcDbBlockEnd
  0
BLOCK
  5
1C
100
AcDbEntity
 67
1
  8
0
100
AcDbBlockBegin
  2
*Paper_Space
 70
0
 10
0.0
 20
0.0
 30
0.0
  3
*Paper_Space
  1

  0
ENDBLK
  5
1D
100
AcDbEntity
 67
1
  8
0
100
AcDbBlockEnd
  0
BLOCK
  5
24
100
AcDbEntity
  8
0
100
AcDbBlockBegin
  2
*Paper_Space0
 70
0
 10
0.0
 20
0.0
 30
0.0
  3
*Paper_Space0
  1

  0
ENDBLK
  5
25
100
AcDbEntity
  8
0
100
AcDbBlockEnd
  0
BLOCK
  5
5C
100
AcDbEntity
  8
0
100
AcDbBlockBegin
  2
ARRAY
 70
0
 10
0.0
 20
0.0
 30
0.0
  3
ARRAY
  1

  0
LWPOLYLINE
  5
5D
100
AcDbEntity
  8
0
 62
256
370
-1
 48
1.0
  6
BYLAYER
100
AcDbPolyline
 90
8
 70
1
 10
609.5412597649999498
 20
171.5774185180000018
 42
0.414213562373
 10
610.2412597649999952
 20
170.8774185180000131
 10
728.841259765000018
 20
170.8774185180000131
 42
0.414213562373
 10
729.5412597649999498
 20
171.5774185180000018
 10
729.5412597649999498
 20
191.1774185179999961
 42
0.414213562373
 10
728.841259765000018
 20
191.8774185180000131
 10
610.2412597649999952
 20
191.8774185180000131
 42
0.414213562373
 10
609.5412597649999498
 20
191.1774185179999961
  0
LWPOLYLINE
  5
5E
100
AcDbEntity
  8
0
 62
256
370
-1
 48
1.0
  6
BYLAYER
100
AcDbPolyline
 90
6
 70
1
 10
618.0412597649999498
 20
185.8774185180000131
 42
-0.414213562373
 10
617.5412597649999498
 20
186.3774185180000131
 10
617.5412597649999498
 20
186.8774185180000131
 10
720.5412597649999498
 20
186.8774185180000131
 10
720.5412597649999498
 20
186.3774185180000131
 42
-0.414213562373
 10
720.0412597649999498
 20
185.8774185180000131
  0
LWPOLYLINE
  5
5F
100
AcDbEntity
  8
0
 62
256
370
-1
 48
1.0
  6
BYLAYER
100
AcDbPolyline
 90
6
 70
1
 10
720.5412597649999498
 20
175.8774185180000131
 10
720.5412597649999498
 20
176.3774185180000131
 42
0.414213562373
 10
720.0412597649999498
 20
176.8774185180000131
 10
618.0412597649999498
 20
176.8774185180000131
 42
0.414213562373
 10
617.5412597649999498
 20
176.3774185180000131
 10
617.5412597649999498
 20
175.8774185180000131
  0
LWPOLYLINE
  5
60
100
AcDbEntity
  8
0
 62
256
370
-1
 48
1.0
  6
BYLAYER
100
AcDbPolyline
 90
8
 70
1
 10
609.5412597649999498
 20
145.5774185180000018
 42
0.414213562373
 10
610.2412597649999952
 20
144.8774185180000131
 10
728.841259765000018
 20
144.8774185180000131
 42
0.414213562373
 10
729.5412597649999498
 20
145.5774185180000018
 10
729.5412597649999498
 20
165.1774185179999961
 42
0.414213562373
 10
728.841259765000018
 20
165.8774185180000131
 10
610.2412597649999952
 20
165.8774185180000131
 42
0.414213562373
 10
609.5412597649999498
 20
165.1774185179999961
  0
LWPOLYLINE
  5
61
100
AcDbEntity
  8
0
 62
256
370
-1
 48
1.0
  6
BYLAYER
100
AcDbPolyline
 90
6
 70
1
 10
618.0412597649999498
 20
159.8774185180000131
 42
-0.414213562373
 10
617.5412597649999498
 20
160.3774185180000131
 10
617.5412597649999498
 20
160.8774185180000131
 10
720.5412597649999498
 20
160.8774185180000131
 10
720.5412597649999498
 20
160.3774185180000131
 42
-0.414213562373
 10
720.0412597649999498
 20
159.8774185180000131
  0
LWPOLYLINE
  5
62
100
AcDbEntity
  8
0
 62
256
370
-1
 48
1.0
  6
BYLAYER
100
AcDbPolyline
 90
6
 70
1
 10
720.5412597649999498
 20
149.8774185180000131
 10
720.5412597649999498
 20
150.3774185180000131
 42
0.414213562373
 10
720.0412597649999498
 20
150.8774185180000131
 10
618.0412597649999498
 20
150.8774185180000131
 42
0.414213562373
 10
617.5412597649999498
 20
150.3774185180000131
 10
617.5412597649999498
 20
149.8774185180000131
  0
LWPOLYLINE
  5
63
100
AcDbEntity
  8
0
 62
256
370
-1
 48
1.0
  6
BYLAYER
100
AcDbPolyline
 90
8
 70
1
 10
609.5412597649999498
 20
119.5774185180000018
 42
0.414213562373
 10
610.2412597649999952
 20
118.8774185179999989
 10
728.841259765000018
 20
118.8774185179999989
 42
0.414213562373
 10
729.5412597649999498
 20
119.5774185180000018
 10
729.5412597649999498
 20
139.1774185179999961
 42
0.414213562373
 10
728.841259765000018
 20
139.8774185180000131
 10
610.2412597649999952
 20
139.8774185180000131
 42
0.414213562373
 10
609.5412597649999498
 20
139.1774185179999961
  0
LWPOLYLINE
  5
64
100
AcDbEntity
  8
0
 62
256
370
-1
 48
1.0
  6
BYLAYER
100
AcDbPolyline
 90
6
 70
1
 10
618.0412597649999498
 20
133.8774185180000131
 42
-0.414213562373
 10
617.5412597649999498
 20
134.3774185180000131
 10
617.5412597649999498
 20
134.8774185180000131
 10
720.5412597649999498
 20
134.8774185180000131
 10
720.5412597649999498
 20
134.3774185180000131
 42
-0.414213562373
 10
720.0412597649999498
 20
133.8774185180000131
  0
LWPOLYLINE
  5
65
100
AcDbEntity
  8
0
 62
256
370
-1
 48
1.0
  6
BYLAYER
100
AcDbPolyline
 90
6
 70
1
 10
720.5412597649999498
 20
123.8774185179999989
 10
720.5412597649999498
 20
124.3774185179999989
 42
0.414213562373
 10
720.0412597649999498
 20
124.8774185179999989
 10
618.0412597649999498
 20
124.8774185179999989
 42
0.414213562373
 10
617.5412597649999498
 20
124.3774185179999989
 10
617.5412597649999498
 20
123.8774185179999989
  0
LWPOLYLINE
  5
66
100
AcDbEntity
  8
0
 62
256
370
-1
 48
1.0
  6
BYLAYER
100
AcDbPolyline
 90
8
 70
1
 10
609.5412597649999498
 20
93.5774185182000053
 42
0.414213562373
 10
610.2412597649999952
 20
92.8774185182000025
 10
728.841259765000018
 20
92.8774185182000025
 42
0.414213562373
 10
729.5412597649999498
 20
93.5774185182000053
 10
729.5412597649999498
 20
113.1774185179999961
 42
0.414213562373
 10
728.841259765000018
 20
113.8774185179999989
 10
610.2412597649999952
 20
113.8774185179999989
 42
0.414213562373
 10
609.5412597649999498
 20
113.1774185179999961
  0
LWPOLYLINE
  5
67
100
AcDbEntity
  8
0
 62
256
370
-1
 48
1.0
  6
BYLAYER
100
AcDbPolyline
 90
6
 70
1
 10
618.0412597649999498
 20
107.8774185179999989
 42
-0.414213562373
 10
617.5412597649999498
 20
108.3774185179999989
 10
617.5412597649999498
 20
108.8774185179999989
 10
720.5412597649999498
 20
108.8774185179999989
 10
720.5412597649999498
 20
108.3774185179999989
 42
-0.414213562373
 10
720.0412597649999498
 20
107.8774185179999989
  0
LWPOLYLINE
  5
68
100
AcDbEntity
  8
0
 62
256
370
-1
 48
1.0
  6
BYLAYER
100
AcDbPolyline
 90
6
 70
1
 10
720.5412597649999498
 20
97.8774185182000025
 10
720.5412597649999498
 20
98.3774185182000025
 42
0.414213562373
 10
720.0412597649999498
 20
98.8774185182000025
 10
618.0412597649999498
 20
98.8774185182000025
 42
0.414213562373
 10
617.5412597649999498
 20
98.3774185182000025
 10
617.5412597649999498
 20
97.8774185182000025
  0
LWPOLYLINE
  5
69
100
AcDbEntity
  8
0
 62
256
370
-1
 48
1.0
  6
BYLAYER
100
AcDbPolyline
 90
8
 70
1
 10
609.5412597649999498
 20
67.5774185182000053
 42
0.414213562373
 10
610.2412597649999952
 20
66.8774185182000025
 10
728.841259765000018
 20
66.8774185182000025
 42
0.414213562373
 10
729.5412597649999498
 20
67.5774185182000053
 10
729.5412597649999498
 20
87.1774185181999997
 42
0.414213562373
 10
728.841259765000018
 20
87.8774185182000025
 10
610.2412597649999952
 20
87.8774185182000025
 42
0.414213562373
 10
609.5412597649999498
 20
87.1774185181999997
  0
LWPOLYLINE
  5
6A
100
AcDbEntity
  8
0
 62
256
370
-1
 48
1.0
  6
BYLAYER
100
AcDbPolyline
 90
6
 70
1
 10
618.0412597649999498
 20
81.8774185182000025
 42
-0.414213562373
 10
617.5412597649999498
 20
82.3774185182000025
 10
617.5412597649999498
 20
82.8774185182000025
 10
720.5412597649999498
 20
82.8774185182000025
 10
720.5412597649999498
 20
82.3774185182000025
 42
-0.414213562373
 10
720.0412597649999498
 20
81.8774185182000025
  0
LWPOLYLINE
  5
6B
100
AcDbEntity
  8
0
 62
256
370
-1
 48
1.0
  6
BYLAYER
100
AcDbPolyline
 90
6
 70
1
 10
720.5412597649999498
 20
71.8774185182000025
 10
720.5412597649999498
 20
72.3774185182000025
 42
0.414213562373
 10
720.0412597649999498
 20
72.8774185182000025
 10
618.0412597649999498
 20
72.8774185182000025
 42
0.414213562373
 10
617.5412597649999498
 20
72.3774185182000025
 10
617.5412597649999498
 20
71.8774185182000025
  0
LWPOLYLINE
  5
6C
100
AcDbEntity
  8
0
 62
256
370
-1
 48
1.0
  6
BYLAYER
100
AcDbPolyline
 90
8
 70
1
 10
609.5412597649999498
 20
41.5774185181999982
 42
0.414213562373
 10
610.2412597649999952
 20
40.8774185182000025
 10
728.841259765000018
 20
40.8774185182000025
 42
0.414213562373
 10
729.5412597649999498
 20
41.5774185181999982
 10
729.5412597649999498
 20
61.1774185181999997
 42
0.414213562373
 10
728.841259765000018
 20
61.8774185182000025
 10
610.2412597649999952
 20
61.8774185182000025
 42
0.414213562373
 10
609.5412597649999498
 20
61.1774185181999997
  0
LWPOLYLINE
  5
6D
100
AcDbEntity
  8
0
 62
256
370
-1
 48
1.0
  6
BYLAYER
100
AcDbPolyline
 90
6
 70
1
 10
618.0412597649999498
 20
55.8774185182000025
 42
-0.414213562373
 10
617.5412597649999498
 20
56.3774185182000025
 10
617.5412597649999498
 20
56.8774185182000025
 10
720.5412597649999498
 20
56.8774185182000025
 10
720.5412597649999498
 20
56.3774185182000025
 42
-0.414213562373
 10
720.0412597649999498
 20
55.8774185182000025
  0
LWPOLYLINE
  5
6E
100
AcDbEntity
  8
0
 62
256
370
-1
 48
1.0
  6
BYLAYER
100
AcDbPolyline
 90
6
 70
1
 10
720.5412597649999498
 20
45.8774185182000025
 10
720.5412597649999498
 20
46.3774185182000025
 42
0.414213562373
 10
720.0412597649999498
 20
46.8774185182000025
 10
618.0412597649999498
 20
46.8774185182000025
 42
0.414213562373
 10
617.5412597649999498
 20
46.3774185182000025
 10
617.5412597649999498
 20
45.8774185182000025
  0
LWPOLYLINE
  5
6F
100
AcDbEntity
  8
0
 62
256
370
-1
 48
1.0
  6
BYLAYER
100
AcDbPolyline
 90
8
 70
1
 10
739.5412597649999498
 20
171.5774185180000018
 42
0.414213562373
 10
740.2412597649999952
 20
170.8774185180000131
 10
858.841259765000018
 20
170.8774185180000131
 42
0.414213562373
 10
859.5412597649999498
 20
171.5774185180000018
 10
859.5412597649999498
 20
191.1774185179999961
 42
0.414213562373
 10
858.841259765000018
 20
191.8774185180000131
 10
740.2412597649999952
 20
191.8774185180000131
 42
0.414213562373
 10
739.5412597649999498
 20
191.1774185179999961
  0
LWPOLYLINE
  5
70
100
AcDbEntity
  8
0
 62
256
370
-1
 48
1.0
  6
BYLAYER
100
AcDbPolyline
 90
6
 70
1
 10
748.0412597649999498
 20
185.8774185180000131
 42
-0.414213562373
 10
747.5412597649999498
 20
186.3774185180000131
 10
747.5412597649999498
 20
186.8774185180000131
 10
850.5412597649999498
 20
186.8774185180000131
 10
850.5412597649999498
 20
186.3774185180000131
 42
-0.414213562373
 10
850.0412597649999498
 20
185.8774185180000131
  0
LWPOLYLINE
  5
71
100
AcDbEntity
  8
0
 62
256
370
-1
 48
1.0
  6
BYLAYER
100
AcDbPolyline
 90
6
 70
1
 10
850.5412597649999498
 20
175.8774185180000131
 10
850.5412597649999498
 20
176.3774185180000131
 42
0.414213562373
 10
850.0412597649999498
 20
176.8774185180000131
 10
748.0412597649999498
 20
176.8774185180000131
 42
0.414213562373
 10
747.5412597649999498
 20
176.3774185180000131
 10
747.5412597649999498
 20
175.8774185180000131
  0
LWPOLYLINE
  5
72
100
AcDbEntity
  8
0
 62
256
370
-1
 48
1.0
  6
BYLAYER
100
AcDbPolyline
 90
8
 70
1
 10
739.5412597649999498
 20
145.5774185180000018
 42
0.414213562373
 10
740.2412597649999952
 20
144.8774185180000131
 10
858.841259765000018
 20
144.8774185180000131
 42
0.414213562373
 10
859.5412597649999498
 20
145.5774185180000018
 10
859.5412597649999498
 20
165.1774185179999961
 42
0.414213562373
 10
858.841259765000018
 20
165.8774185180000131
 10
740.2412597649999952
 20
165.8774185180000131
 42
0.414213562373
 10
739.5412597649999498
 20
165.1774185179999961
  0
LWPOLYLINE
  5
73
100
AcDbEntity
  8
0
 62
256
370
-1
 48
1.0
  6
BYLAYER
100
AcDbPolyline
 90
6
 70
1
 10
748.0412597649999498
 20
159.8774185180000131
 42
-0.414213562373
 10
747.5412597649999498
 20
160.3774185180000131
 10
747.5412597649999498
 20
160.8774185180000131
 10
850.5412597649999498
 20
160.8774185180000131
 10
850.5412597649999498
 20
160.3774185180000131
 42
-0.414213562373
 10
850.0412597649999498
 20
159.8774185180000131
  0
LWPOLYLINE
  5
74
100
AcDbEntity
  8
0
 62
256
370
-1
 48
1.0
  6
BYLAYER
100
AcDbPolyline
 90
6
 70
1
 10
850.5412597649999498
 20
149.8774185180000131
 10
850.5412597649999498
 20
150.3774185180000131
 42
0.414213562373
 10
850.0412597649999498
 20
150.8774185180000131
 10
748.0412597649999498
 20
150.8774185180000131
 42
0.414213562373
 10
747.5412597649999498
 20
150.3774185180000131
 10
747.5412597649999498
 20
149.8774185180000131
  0
LWPOLYLINE
  5
75
100
AcDbEntity
  8
0
 62
256
370
-1
 48
1.0
  6
BYLAYER
100
AcDbPolyline
 90
8
 70
1
 10
739.5412597649999498
 20
119.5774185180000018
 42
0.414213562373
 10
740.2412597649999952
 20
118.8774185179999989
 10
858.841259765000018
 20
118.8774185179999989
 42
0.414213562373
 10
859.5412597649999498
 20
119.5774185180000018
 10
859.5412597649999498
 20
139.1774185179999961
 42
0.414213562373
 10
858.841259765000018
 20
139.8774185180000131
 10
740.2412597649999952
 20
139.8774185180000131
 42
0.414213562373
 10
739.5412597649999498
 20
139.1774185179999961
  0
LWPOLYLINE
  5
76
100
AcDbEntity
  8
0
 62
256
370
-1
 48
1.0
  6
BYLAYER
100
AcDbPolyline
 90
6
 70
1
 10
748.0412597649999498
 20
133.8774185180000131
 42
-0.414213562373
 10
747.5412597649999498
 20
134.3774185180000131
 10
747.5412597649999498
 20
134.8774185180000131
 10
850.5412597649999498
 20
134.8774185180000131
 10
850.5412597649999498
 20
134.3774185180000131
 42
-0.414213562373
 10
850.0412597649999498
 20
133.8774185180000131
  0
LWPOLYLINE
  5
77
100
AcDbEntity
  8
0
 62
256
370
-1
 48
1.0
  6
BYLAYER
100
AcDbPolyline
 90
6
 70
1
 10
850.5412597649999498
 20
123.8774185179999989
 10
850.5412597649999498
 20
124.3774185179999989
 42
0.414213562373
 10
850.0412597649999498
 20
124.8774185179999989
 10
748.0412597649999498
 20
124.8774185179999989
 42
0.414213562373
 10
747.5412597649999498
 20
124.3774185179999989
 10
747.5412597649999498
 20
123.8774185179999989
  0
LWPOLYLINE
  5
78
100
AcDbEntity
  8
0
 62
256
370
-1
 48
1.0
  6
BYLAYER
100
AcDbPolyline
 90
8
 70
1
 10
739.5412597649999498
 20
93.5774185182000053
 42
0.414213562373
 10
740.2412597649999952
 20
92.8774185182000025
 10
858.841259765000018
 20
92.8774185182000025
 42
0.414213562373
 10
859.5412597649999498
 20
93.5774185182000053
 10
859.5412597649999498
 20
113.1774185179999961
 42
0.414213562373
 10
858.841259765000018
 20
113.8774185179999989
 10
740.2412597649999952
 20
113.8774185179999989
 42
0.414213562373
 10
739.5412597649999498
 20
113.1774185179999961
  0
LWPOLYLINE
  5
79
100
AcDbEntity
  8
0
 62
256
370
-1
 48
1.0
  6
BYLAYER
100
AcDbPolyline
 90
6
 70
1
 10
748.0412597649999498
 20
107.8774185179999989
 42
-0.414213562373
 10
747.5412597649999498
 20
108.3774185179999989
 10
747.5412597649999498
 20
108.8774185179999989
 10
850.5412597649999498
 20
108.8774185179999989
 10
850.5412597649999498
 20
108.3774185179999989
 42
-0.414213562373
 10
850.0412597649999498
 20
107.8774185179999989
  0
LWPOLYLINE
  5
7A
100
AcDbEntity
  8
0
 62
256
370
-1
 48
1.0
  6
BYLAYER
100
AcDbPolyline
 90
6
 70
1
 10
850.5412597649999498
 20
97.8774185182000025
 10
850.5412597649999498
 20
98.3774185182000025
 42
0.414213562373
 10
850.0412597649999498
 20
98.8774185182000025
 10
748.0412597649999498
 20
98.8774185182000025
 42
0.414213562373
 10
747.5412597649999498
 20
98.3774185182000025
 10
747.5412597649999498
 20
97.8774185182000025
  0
LWPOLYLINE
  5
7B
100
AcDbEntity
  8
0
 62
256
370
-1
 48
1.0
  6
BYLAYER
100
AcDbPolyline
 90
8
 70
1
 10
739.5412597649999498
 20
67.5774185182000053
 42
0.414213562373
 10
740.2412597649999952
 20
66.8774185182000025
 10
858.841259765000018
 20
66.8774185182000025
 42
0.414213562373
 10
859.5412597649999498
 20
67.5774185182000053
 10
859.5412597649999498
 20
87.1774185181999997
 42
0.414213562373
 10
858.841259765000018
 20
87.8774185182000025
 10
740.2412597649999952
 20
87.8774185182000025
 42
0.414213562373
 10
739.5412597649999498
 20
87.1774185181999997
  0
LWPOLYLINE
  5
7C
100
AcDbEntity
  8
0
 62
256
370
-1
 48
1.0
  6
BYLAYER
100
AcDbPolyline
 90
6
 70
1
 10
748.0412597649999498
 20
81.8774185182000025
 42
-0.414213562373
 10
747.5412597649999498
 20
82.3774185182000025
 10
747.5412597649999498
 20
82.8774185182000025
 10
850.5412597649999498
 20
82.8774185182000025
 10
850.5412597649999498
 20
82.3774185182000025
 42
-0.414213562373
 10
850.0412597649999498
 20
81.8774185182000025
  0
LWPOLYLINE
  5
7D
100
AcDbEntity
  8
0
 62
256
370
-1
 48
1.0
  6
BYLAYER
100
AcDbPolyline
 90
6
 70
1
 10
850.5412597649999498
 20
71.8774185182000025
 10
850.5412597649999498
 20
72.3774185182000025
 42
0.414213562373
 10
850.0412597649999498
 20
72.8774185182000025
 10
748.0412597649999498
 20
72.8774185182000025
 42
0.414213562373
 10
747.5412597649999498
 20
72.3774185182000025
 10
747.5412597649999498
 20
71.8774185182000025
  0
LWPOLYLINE
  5
7E
100
AcDbEntity
  8
0
 62
256
370
-1
 48
1.0
  6
BYLAYER
100
AcDbPolyline
 90
8
 70
1
 10
739.5412597649999498
 20
41.5774185181999982
 42
0.414213562373
 10
740.2412597649999952
 20
40.8774185182000025
 10
858.841259765000018
 20
40.8774185182000025
 42
0.414213562373
 10
859.5412597649999498
 20
41.5774185181999982
 10
859.5412597649999498
 20
61.1774185181999997
 42
0.414213562373
 10
858.841259765000018
 20
61.8774185182000025
 10
740.2412597649999952
 20
61.8774185182000025
 42
0.414213562373
 10
739.5412597649999498
 20
61.1774185181999997
  0
LWPOLYLINE
  5
7F
100
AcDbEntity
  8
0
 62
256
370
-1
 48
1.0
  6
BYLAYER
100
AcDbPolyline
 90
6
 70
1
 10
748.0412597649999498
 20
55.8774185182000025
 42
-0.414213562373
 10
747.5412597649999498
 20
56.3774185182000025
 10
747.5412597649999498
 20
56.8774185182000025
 10
850.5412597649999498
 20
56.8774185182000025
 10
850.5412597649999498
 20
56.3774185182000025
 42
-0.414213562373
 10
850.0412597649999498
 20
55.8774185182000025
  0
LWPOLYLINE
  5
80
100
AcDbEntity
  8
0
 62
256
370
-1
 48
1.0
  6
BYLAYER
100
AcDbPolyline
 90
6
 70
1
 10
850.5412597649999498
 20
45.8774185182000025
 10
850.5412597649999498
 20
46.3774185182000025
 42
0.414213562373
 10
850.0412597649999498
 20
46.8774185182000025
 10
748.0412597649999498
 20
46.8774185182000025
 42
0.414213562373
 10
747.5412597649999498
 20
46.3774185182000025
 10
747.5412597649999498
 20
45.8774185182000025
  0
LWPOLYLINE
  5
81
100
AcDbEntity
  8
0
 62
256
370
-1
 48
1.0
  6
BYLAYER
100
AcDbPolyline
 90
8
 70
1
 10
869.5412597649999498
 20
171.5774185180000018
 42
0.414213562373
 10
870.2412597649999952
 20
170.8774185180000131
 10
988.841259765000018
 20
170.8774185180000131
 42
0.414213562373
 10
989.5412597649999498
 20
171.5774185180000018
 10
989.5412597649999498
 20
191.1774185179999961
 42
0.414213562373
 10
988.841259765000018
 20
191.8774185180000131
 10
870.2412597649999952
 20
191.8774185180000131
 42
0.414213562373
 10
869.5412597649999498
 20
191.1774185179999961
  0
LWPOLYLINE
  5
82
100
AcDbEntity
  8
0
 62
256
370
-1
 48
1.0
  6
BYLAYER
100
AcDbPolyline
 90
6
 70
1
 10
878.0412597649999498
 20
185.8774185180000131
 42
-0.414213562373
 10
877.5412597649999498
 20
186.3774185180000131
 10
877.5412597649999498
 20
186.8774185180000131
 10
980.5412597649999498
 20
186.8774185180000131
 10
980.5412597649999498
 20
186.3774185180000131
 42
-0.414213562373
 10
980.0412597649999498
 20
185.8774185180000131
  0
LWPOLYLINE
  5
83
100
AcDbEntity
  8
0
 62
256
370
-1
 48
1.0
  6
BYLAYER
100
AcDbPolyline
 90
6
 70
1
 10
980.5412597649999498
 20
175.8774185180000131
 10
980.5412597649999498
 20
176.3774185180000131
 42
0.414213562373
 10
980.0412597649999498
 20
176.8774185180000131
 10
878.0412597649999498
 20
176.8774185180000131
 42
0.414213562373
 10
877.5412597649999498
 20
176.3774185180000131
 10
877.5412597649999498
 20
175.8774185180000131
  0
LWPOLYLINE
  5
84
100
AcDbEntity
  8
0
 62
256
370
-1
 48
1.0
  6
BYLAYER
100
AcDbPolyline
 90
8
 70
1
 10
869.5412597649999498
 20
145.5774185180000018
 42
0.414213562373
 10
870.2412597649999952
 20
144.8774185180000131
 10
988.841259765000018
 20
144.8774185180000131
 42
0.414213562373
 10
989.5412597649999498
 20
145.5774185180000018
 10
989.5412597649999498
 20
165.1774185179999961
 42
0.414213562373
 10
988.841259765000018
 20
165.8774185180000131
 10
870.2412597649999952
 20
165.8774185180000131
 42
0.414213562373
 10
869.5412597649999498
 20
165.1774185179999961
  0
LWPOLYLINE
  5
85
100
AcDbEntity
  8
0
 62
256
370
-1
 48
1.0
  6
BYLAYER
100
AcDbPolyline
 90
6
 70
1
 10
878.0412597649999498
 20
159.8774185180000131
 42
-0.414213562373
 10
877.5412597649999498
 20
160.3774185180000131
 10
877.5412597649999498
 20
160.8774185180000131
 10
980.5412597649999498
 20
160.8774185180000131
 10
980.5412597649999498
 20
160.3774185180000131
 42
-0.414213562373
 10
980.0412597649999498
 20
159.8774185180000131
  0
LWPOLYLINE
  5
86
100
AcDbEntity
  8
0
 62
256
370
-1
 48
1.0
  6
BYLAYER
100
AcDbPolyline
 90
6
 70
1
 10
980.5412597649999498
 20
149.8774185180000131
 10
980.5412597649999498
 20
150.3774185180000131
 42
0.414213562373
 10
980.0412597649999498
 20
150.8774185180000131
 10
878.0412597649999498
 20
150.8774185180000131
 42
0.414213562373
 10
877.5412597649999498
 20
150.3774185180000131
 10
877.5412597649999498
 20
149.8774185180000131
  0
LWPOLYLINE
  5
87
100
AcDbEntity
  8
0
 62
256
370
-1
 48
1.0
  6
BYLAYER
100
AcDbPolyline
 90
8
 70
1
 10
869.5412597649999498
 20
119.5774185180000018
 42
0.414213562373
 10
870.2412597649999952
 20
118.8774185179999989
 10
988.841259765000018
 20
118.8774185179999989
 42
0.414213562373
 10
989.5412597649999498
 20
119.5774185180000018
 10
989.5412597649999498
 20
139.1774185179999961
 42
0.414213562373
 10
988.841259765000018
 20
139.8774185180000131
 10
870.2412597649999952
 20
139.8774185180000131
 42
0.414213562373
 10
869.5412597649999498
 20
139.1774185179999961
  0
LWPOLYLINE
  5
88
100
AcDbEntity
  8
0
 62
256
370
-1
 48
1.0
  6
BYLAYER
100
AcDbPolyline
 90
6
 70
1
 10
878.0412597649999498
 20
133.8774185180000131
 42
-0.414213562373
 10
877.5412597649999498
 20
134.3774185180000131
 10
877.5412597649999498
 20
134.8774185180000131
 10
980.5412597649999498
 20
134.8774185180000131
 10
980.5412597649999498
 20
134.3774185180000131
 42
-0.414213562373
 10
980.0412597649999498
 20
133.8774185180000131
  0
LWPOLYLINE
  5
89
100
AcDbEntity
  8
0
 62
256
370
-1
 48
1.0
  6
BYLAYER
100
AcDbPolyline
 90
6
 70
1
 10
980.5412597649999498
 20
123.8774185179999989
 10
980.5412597649999498
 20
124.3774185179999989
 42
0.414213562373
 10
980.0412597649999498
 20
124.8774185179999989
 10
878.0412597649999498
 20
124.8774185179999989
 42
0.414213562373
 10
877.5412597649999498
 20
124.3774185179999989
 10
877.5412597649999498
 20
123.8774185179999989
  0
LWPOLYLINE
  5
8A
100
AcDbEntity
  8
0
 62
256
370
-1
 48
1.0
  6
BYLAYER
100
AcDbPolyline
 90
8
 70
1
 10
869.5412597649999498
 20
93.5774185182000053
 42
0.414213562373
 10
870.2412597649999952
 20
92.8774185182000025
 10
988.841259765000018
 20
92.8774185182000025
 42
0.414213562373
 10
989.5412597649999498
 20
93.5774185182000053
 10
989.5412597649999498
 20
113.1774185179999961
 42
0.414213562373
 10
988.841259765000018
 20
113.8774185179999989
 10
870.2412597649999952
 20
113.8774185179999989
 42
0.414213562373
 10
869.5412597649999498
 20
113.1774185179999961
  0
LWPOLYLINE
  5
8B
100
AcDbEntity
  8
0
 62
256
370
-1
 48
1.0
  6
BYLAYER
100
AcDbPolyline
 90
6
 70
1
 10
878.0412597649999498
 20
107.8774185179999989
 42
-0.414213562373
 10
877.5412597649999498
 20
108.3774185179999989
 10
877.5412597649999498
 20
108.8774185179999989
 10
980.5412597649999498
 20
108.8774185179999989
 10
980.5412597649999498
 20
108.3774185179999989
 42
-0.414213562373
 10
980.0412597649999498
 20
107.8774185179999989
  0
LWPOLYLINE
  5
8C
100
AcDbEntity
  8
0
 62
256
370
-1
 48
1.0
  6
BYLAYER
100
AcDbPolyline
 90
6
 70
1
 10
980.5412597649999498
 20
97.8774185182000025
 10
980.5412597649999498
 20
98.3774185182000025
 42
0.414213562373
 10
980.0412597649999498
 20
98.8774185182000025
 10
878.0412597649999498
 20
98.8774185182000025
 42
0.414213562373
 10
877.5412597649999498
 20
98.3774185182000025
 10
877.5412597649999498
 20
97.8774185182000025
  0
LWPOLYLINE
  5
8D
100
AcDbEntity
  8
0
 62
256
370
-1
 48
1.0
  6
BYLAYER
100
AcDbPolyline
 90
8
 70
1
 10
869.5412597649999498
 20
67.5774185182000053
 42
0.414213562373
 10
870.2412597649999952
 20
66.8774185182000025
 10
988.841259765000018
 20
66.8774185182000025
 42
0.414213562373
 10
989.5412597649999498
 20
67.5774185182000053
 10
989.5412597649999498
 20
87.1774185181999997
 42
0.414213562373
 10
988.841259765000018
 20
87.8774185182000025
 10
870.2412597649999952
 20
87.8774185182000025
 42
0.414213562373
 10
869.5412597649999498
 20
87.1774185181999997
  0
LWPOLYLINE
  5
8E
100
AcDbEntity
  8
0
 62
256
370
-1
 48
1.0
  6
BYLAYER
100
AcDbPolyline
 90
6
 70
1
 10
878.0412597649999498
 20
81.8774185182000025
 42
-0.414213562373
 10
877.5412597649999498
 20
82.3774185182000025
 10
877.5412597649999498
 20
82.8774185182000025
 10
980.5412597649999498
 20
82.8774185182000025
 10
980.5412597649999498
 20
82.3774185182000025
 42
-0.414213562373
 10
980.0412597649999498
 20
81.8774185182000025
  0
LWPOLYLINE
  5
8F
100
AcDbEntity
  8
0
 62
256
370
-1
 48
1.0
  6
BYLAYER
100
AcDbPolyline
 90
6
 70
1
 10
980.5412597649999498
 20
71.8774185182000025
 10
980.5412597649999498
 20
72.3774185182000025
 42
0.414213562373
 10
980.0412597649999498
 20
72.8774185182000025
 10
878.0412597649999498
 20
72.8774185182000025
 42
0.414213562373
 10
877.5412597649999498
 20
72.3774185182000025
 10
877.5412597649999498
 20
71.8774185182000025
  0
LWPOLYLINE
  5
90
100
AcDbEntity
  8
0
 62
256
370
-1
 48
1.0
  6
BYLAYER
100
AcDbPolyline
 90
8
 70
1
 10
869.5412597649999498
 20
41.5774185181999982
 42
0.414213562373
 10
870.2412597649999952
 20
40.8774185182000025
 10
988.841259765000018
 20
40.8774185182000025
 42
0.414213562373
 10
989.5412597649999498
 20
41.5774185181999982
 10
989.5412597649999498
 20
61.1774185181999997
 42
0.414213562373
 10
988.841259765000018
 20
61.8774185182000025
 10
870.2412597649999952
 20
61.8774185182000025
 42
0.414213562373
 10
869.5412597649999498
 20
61.1774185181999997
  0
LWPOLYLINE
  5
91
100
AcDbEntity
  8
0
 62
256
370
-1
 48
1.0
  6
BYLAYER
100
AcDbPolyline
 90
6
 70
1
 10
878.0412597649999498
 20
55.8774185182000025
 42
-0.414213562373
 10
877.5412597649999498
 20
56.3774185182000025
 10
877.5412597649999498
 20
56.8774185182000025
 10
980.5412597649999498
 20
56.8774185182000025
 10
980.5412597649999498
 20
56.3774185182000025
 42
-0.414213562373
 10
980.0412597649999498
 20
55.8774185182000025
  0
LWPOLYLINE
  5
92
100
AcDbEntity
  8
0
 62
256
370
-1
 48
1.0
  6
BYLAYER
100
AcDbPolyline
 90
6
 70
1
 10
980.5412597649999498
 20
45.8774185182000025
 10
980.5412597649999498
 20
46.3774185182000025
 42
0.414213562373
 10
980.0412597649999498
 20
46.8774185182000025
 10
878.0412597649999498
 20
46.8774185182000025
 42
0.414213562373
 10
877.5412597649999498
 20
46.3774185182000025
 10
877.5412597649999498
 20
45.8774185182000025
  0
ENDBLK
  5
93
100
AcDbEntity
  8
0
100
AcDbBlockEnd
  0
BLOCK
  5
94
100
AcDbEntity
  8
0
100
AcDbBlockBegin
  2
SUBTRACTION
 70
0
 10
0.0
 20
0.0
 30
0.0
  3
SUBTRACTION
  1

  0
LWPOLYLINE
  5
95
100
AcDbEntity
  8
0
 62
256
370
-1
 48
1.0
  6
BYLAYER
100
AcDbPolyline
 90
5
 70
1
 10
498.1517932840000071
 20
219.6571674010000095
 42
0.0304272122981
 10
500.0
 20
250.0
 42
5.7751736003899996
 10
443.4750617849999799
 20
91.6731214631000029
 10
540.3251367130000062
 20
44.4361837156000021
 10
601.2587261170000374
 20
169.368556151000007
  0
LWPOLYLINE
  5
96
100
AcDbEntity
  8
0
 62
256
370
-1
 48
1.0
  6
BYLAYER
100
AcDbPolyline
 90
12
 70
1
 10
423.5058307979999768
 20
140.3393391360000066
 42
0.414213562373
 10
423.1999195810000174
 20
141.2808370520000096
 10
419.9922960939999825
 20
142.9152028510000036
 42
-0.414213562373
 10
419.6863848770000232
 20
143.8567007679999961
 10
408.1096271330000036
 20
121.1360344010000034
 42
0.414213562373
 10
408.4155383510000092
 20
120.1945364850000004
 10
435.5912373379999849
 20
106.3478262430000001
 42
-0.414213562373
 10
435.2853261210000255
 20
107.2893241590000031
 10
436.9196919199999911
 20
110.4969476459999953
 42
0.414213562373
 10
436.6137807029999749
 20
111.4384455630000019
 10
415.1405234700000051
 20
122.3796166070000027
 42
-0.414213562373
 10
414.8346122529999889
 20
123.3211145239999951
  0
LWPOLYLINE
  5
97
100
AcDbEntity
  8
0
 62
256
370
-1
 48
1.0
  6
BYLAYER
100
AcDbPolyline
 90
8
 70
1
 10
400.1187696459999756
 20
103.1339215480000036
 10
397.5731852339999932
 20
100.5883371350000033
 42
-0.414213562373
 10
396.5832357400000205
 20
100.5883371350000033
 10
355.1467783620000205
 20
142.0247945129999891
 42
-0.414213562373
 10
355.1467783620000205
 20
143.0147440060000008
 10
357.6923627749999923
 20
145.5603284190000011
 42
-0.414213562373
 10
358.6823122679999756
 20
145.5603284190000011
 10
400.1187696459999756
 20
104.123871041000001
 42
-0.414213562373
  0
LWPOLYLINE
  5
98
100
AcDbEntity
  8
0
 62
256
370
-1
 48
1.0
  6
BYLAYER
100
AcDbPolyline
 90
8
 70
1
 10
103.1339215480000036
 20
99.8812303540999977
 10
100.5883371350000033
 20
102.4268147660000068
 42
-0.414213562373
 10
100.5883371350000033
 20
103.4167642599999937
 10
142.0247945129999891
 20
144.8532216380000079
 42
-0.414213562373
 10
143.0147440060000008
 20
144.8532216380000079
 10
145.5603284190000011
 20
142.3076372250000077
 42
-0.414213562373
 10
145.5603284190000011
 20
141.317687731999996
 10
104.123871041000001
 20
99.8812303540999977
 42
-0.414213562373
  0
LWPOLYLINE
  5
99
100
AcDbEntity
  8
0
 62
256
370
-1
 48
1.0
  6
BYLAYER
100
AcDbPolyline
 90
8
 70
1
 10
252.3000000000000114
 20
40.0
 10
248.6999999999999886
 20
40.0
 42
-0.414213562373
 10
248.0
 20
40.7000000000000028
 10
248.0
 20
99.2999999999999972
 42
-0.414213562373
 10
248.6999999999999886
 20
100.0
 10
252.3000000000000114
 20
100.0
 42
-0.414213562373
 10
253.0
 20
99.2999999999999972
 10
253.0
 20
40.7000000000000028
 42
-0.414213562373
  0
LWPOLYLINE
  5
9A
100
AcDbEntity
  8
0
 62
256
370
-1
 48
1.0
  6
BYLAYER
100
AcDbPolyline
 90
8
 70
1
 10
460.0
 20
252.3000000000000114
 10
460.0
 20
248.6999999999999886
 42
-0.414213562373
 10
459.3000000000000114
 20
248.0
 10
400.6999999999999886
 20
248.0
 42
-0.414213562373
 10
400.0
 20
248.6999999999999886
 10
400.0
 20
252.3000000000000114
 42
-0.414213562373
 10
400.6999999999999886
 20
253.0
 10
459.3000000000000114
 20
253.0
 42
-0.414213562373
  0
LWPOLYLINE
  5
9B
100
AcDbEntity
  8
0
 62
256
370
-1
 48
1.0
  6
BYLAYER
100
AcDbPolyline
 90
8
 70
1
 10
444.162398536000012
 20
180.8801359859999991
 42
0.414213562373
 10
443.8564873189999958
 20
181.8216339029999915
 10
440.6488638320000177
 20
183.4559997020000139
 42
-0.414213562373
 10
440.3429526150000015
 20
184.3974976190000064
 10
430.6275559210000097
 20
165.3299580009999943
 42
-0.414213562373
 10
431.5690538370000127
 20
165.6358692180000105
 10
434.7766773239999907
 20
164.0015034189999881
 42
0.414213562373
 10
435.7181752409999831
 20
164.3074146360000043
  0
LWPOLYLINE
  5
9C
100
AcDbEntity
  8
0
 62
256
370
-1
 48
1.0
  6
BYLAYER
100
AcDbPolyline
 90
8
 70
1
 10
247.6999999999999886
 20
460.0
 10
251.3000000000000114
 20
460.0
 42
-0.414213562373
 10
252.0
 20
459.3000000000000114
 10
252.0
 20
400.6999999999999886
 42
-0.414213562373
 10
251.3000000000000114
 20
400.0
 10
247.6999999999999886
 20
400.0
 42
-0.414213562373
 10
247.0
 20
400.6999999999999886
 10
247.0
 20
459.3000000000000114
 42
-0.414213562373
  0
LWPOLYLINE
  5
9D
100
AcDbEntity
  8
0
 62
256
370
-1
 48
1.0
  6
BYLAYER
100
AcDbPolyline
 90
8
 70
1
 10
99.8812303540999977
 20
396.8660784520000107
 10
102.4268147660000068
 20
399.4116628649999825
 42
-0.414213562373
 10
103.4167642599999937
 20
399.4116628649999825
 10
144.8532216380000079
 20
357.9752054869999824
 42
-0.414213562373
 10
144.8532216380000079
 20
356.9852559939999992
 10
142.3076372250000077
 20
354.4396715810000273
 42
-0.414213562373
 10
141.317687731999996
 20
354.4396715810000273
 10
99.8812303540999977
 20
395.8761289590000274
 42
-0.414213562373
  0
LWPOLYLINE
  5
9E
100
AcDbEntity
  8
0
 62
256
370
-1
 48
1.0
  6
BYLAYER
100
AcDbPolyline
 90
8
 70
1
 10
40.0
 20
247.6999999999999886
 10
40.0
 20
251.3000000000000114
 42
-0.414213562373
 10
40.7000000000000028
 20
252.0
 10
99.2999999999999972
 20
252.0
 42
-0.414213562373
 10
100.0
 20
251.3000000000000114
 10
100.0
 20
247.6999999999999886
 42
-0.414213562373
 10
99.2999999999999972
 20
247.0
 10
40.7000000000000028
 20
247.0
 42
-0.414213562373
  0
CIRCLE
  5
9F
100
AcDbEntity
  8
0
 62
0
370
-1
 48
1.0
  6
BYLAYER
100
AcDbCircle
 10
250.0
 20
250.0
 30
0.0
 40
100.0
  0
LWPOLYLINE
  5
A0
100
AcDbEntity
  8
0
 62
256
370
-1
 48
1.0
  6
BYLAYER
100
AcDbPolyline
 90
8
 70
1
 10
396.8660784520000107
 20
400.1187696459999756
 10
399.4116628649999825
 20
397.5731852339999932
 42
-0.414213562373
 10
399.4116628649999825
 20
396.5832357400000205
 10
357.9752054869999824
 20
355.1467783620000205
 42
-0.414213562373
 10
356.9852559939999992
 20
355.1467783620000205
 10
354.4396715810000273
 20
357.6923627749999923
 42
-0.414213562373
 10
354.4396715810000273
 20
358.6823122679999756
 10
395.8761289590000274
 20
400.1187696459999756
 42
-0.414213562373
  0
LWPOLYLINE
  5
A1
100
AcDbEntity
  8
0
 62
256
370
-1
 48
1.0
  6
BYLAYER
100
AcDbPolyline
 90
8
 70
1
 10
561.7752597290000267
 20
120.9533900210000041
 10
553.3310364339999978
 20
104.3806686709999951
 42
0.414213562373
 10
553.636947651000014
 20
103.4391707540000027
 10
556.8445711379999921
 20
101.8048049549999945
 42
-0.414213562373
 10
557.1504823550000083
 20
100.8633070380000021
 10
566.8658790499999895
 20
119.9308466559999999
 42
-0.414213562373
 10
565.9243811329999971
 20
119.6249354389999979
 10
562.7167576460000191
 20
121.2593012380000062
 42
0.414213562373
  0
LWPOLYLINE
  5
A2
100
AcDbEntity
  8
0
 62
256
370
-1
 48
1.0
  6
BYLAYER
100
AcDbPolyline
 90
12
 70
1
 10
560.8796542669999781
 20
173.8223590940000065
 10
582.3529115000000047
 20
162.8811880499999916
 42
-0.414213562373
 10
582.6588227170000209
 20
161.9396901329999992
 10
573.987604172000033
 20
144.9214655209999876
 42
0.414213562373
 10
574.2935153890000493
 20
143.9799676039999952
 10
577.5011388760000273
 20
142.3456018050000011
 42
-0.414213562373
 10
577.8070500930000435
 20
141.4041038889999982
 10
589.3838078369999494
 20
164.1247702549999872
 42
0.414213562373
 10
589.0778966200000468
 20
165.066268172000008
 10
561.9021976320000249
 20
178.9129784140000083
 42
-0.414213562373
 10
562.2081088490000411
 20
177.9714804969999875
 10
560.5737430499999618
 20
174.7638570100000095
 42
0.414213562373
  0
LWPOLYLINE
  5
A3
100
AcDbEntity
  8
0
 62
256
370
-1
 48
1.0
  6
BYLAYER
100
AcDbPolyline
 90
8
 70
1
 10
465.0368888250000055
 20
96.9561486214000041
 42
0.414213562373
 10
464.095390908000013
 20
96.6502374043000003
 10
462.4610251089999906
 20
93.4426139172000063
 42
-0.414213562373
 10
461.5195271919999982
 20
93.1367027001000025
 10
480.5870668100000103
 20
83.4213060057000035
 42
-0.414213562373
 10
480.281155592999994
 20
84.3628039224000048
 10
481.9155213920000165
 20
87.5704274094999988
 42
0.414213562373
 10
481.6096101750000003
 20
88.5119253262000001
  0
LWPOLYLINE
  5
A4
100
AcDbEntity
  8
0
 62
256
370
-1
 48
1.0
  6
BYLAYER
100
AcDbPolyline
 90
12
 70
1
 10
531.5059755290000112
 20
63.088457340799998
 10
510.0327182959999845
 20
74.0296283845000005
 42
0.414213562373
 10
509.0912203789999921
 20
73.7237171673999967
 10
507.4568545800000265
 20
70.5160936803000027
 42
-0.414213562373
 10
506.5153566640000236
 20
70.2101824631999989
 10
533.6910556510000561
 20
56.3634722211999986
 42
0.414213562373
 10
534.6325535680000485
 20
56.6693834383000024
 10
546.2093113119999543
 20
79.3900498051000056
 42
-0.414213562373
 10
545.2678133949999619
 20
79.0841385880000018
 10
542.0601899079999839
 20
80.7185043869999959
 42
0.414213562373
 10
541.1186919909999915
 20
80.4125931699000063
 10
532.4474734460000036
 20
63.3943685579000018
 42
-0.414213562373
  0
LWPOLYLINE
  5
A5
100
AcDbEntity
  8
0
 62
256
370
-1
 48
1.0
  6
BYLAYER
100
AcDbPolyline
 90
12
 70
1
 10
490.0365803899999833
 20
214.7447109759999933
 42
-0.414213562373
 10
490.9780783069999757
 20
215.0506221930000095
 10
463.8023793190000106
 20
228.8973324359999992
 42
0.414213562373
 10
462.8608814020000182
 20
228.5914212179999936
 10
451.284123658999988
 20
205.8707548520000046
 42
-0.414213562373
 10
452.225621574999991
 20
206.1766660689999924
 10
455.4332450620000259
 20
204.5423002699999984
 42
0.414213562373
 10
456.3747429790000183
 20
204.8482114869999862
 10
465.0459615240000062
 20
221.8664360989999977
 42
-0.414213562373
 10
465.9874594409999986
 20
222.172347316000014
 10
487.4607166740000253
 20
211.231176271999999
 42
0.414213562373
 10
488.4022145910000177
 20
211.5370874889999868
  0
LWPOLYLINE
  5
A6
100
AcDbEntity
  8
0
 62
256
370
-1
 48
1.0
  6
BYLAYER
100
AcDbPolyline
 90
8
 70
1
 10
515.883824795999999
 20
196.7488793299999941
 10
532.4565461449999475
 20
188.3046560349999936
 42
0.414213562373
 10
533.3980440620000536
 20
188.6105672520000098
 10
535.0324098610000192
 20
191.8181907400000057
 42
-0.414213562373
 10
535.9739077780000116
 20
192.1241019569999935
 10
516.9063681600000564
 20
201.8394986510000138
 42
-0.414213562373
 10
517.2122793779999483
 20
200.8980007339999929
 10
515.5779135779999933
 20
197.6903772469999865
 42
0.414213562373
  0
ENDBLK
  5
A7
100
AcDbEntity
  8
0
100
AcDbBlockEnd
  0
BLOCK
  5
A8
100
AcDbEntity
  8
0
100
AcDbBlockBegin
  2
CUT002
 70
0
 10
0.0
 20
0.0
 30
0.0
  3
CUT002
  1

  0
LWPOLYLINE
  5
A9
100
AcDbEntity
  8
0
 62
256
370
-1
 48
1.0
  6
BYLAYER
100
AcDbPolyline
 90
72
 70
1
 10
647.7337158200000431
 20
323.730181884999979
 42
0.414213562373
 10
648.4337158199999749
 20
323.0301818849999904
 10
652.0337158199999976
 20
323.0301818849999904
 42
-0.414213562373
 10
652.7337158200000431
 20
322.3301818850000018
 10
652.7337158200000431
 20
293.230181884999979
 42
-0.414213562373
 10
652.0337158199999976
 20
292.5301818849999904
 10
648.4337158199999749
 20
292.5301818849999904
 42
0.414213562373
 10
647.7337158200000431
 20
291.8301818850000018
 10
647.7337158200000431
 20
273.230181884999979
 42
0.414213562373
 10
648.4337158199999749
 20
272.5301818849999904
 10
652.0337158199999976
 20
272.5301818849999904
 42
-0.414213562373
 10
652.7337158200000431
 20
271.8301818850000018
 10
652.7337158200000431
 20
242.7301818850000075
 42
-0.414213562373
 10
652.0337158199999976
 20
242.0301818849999904
 10
648.4337158199999749
 20
242.0301818849999904
 42
0.414213562373
 10
647.7337158200000431
 20
241.3301818850000018
 10
647.7337158200000431
 20
217.2301818850000075
 42
-0.414213562373
 10
647.0337158199999976
 20
216.5301818849999904
 10
627.9337158199999749
 20
216.5301818849999904
 42
0.414213562373
 10
627.2337158200000431
 20
215.8301818850000018
 10
627.2337158200000431
 20
212.2301818850000075
 42
-0.414213562373
 10
626.5337158199999976
 20
211.5301818849999904
 10
602.4337158199999749
 20
211.5301818849999904
 42
-0.414213562373
 10
601.7337158200000431
 20
212.2301818850000075
 10
601.7337158200000431
 20
215.8301818850000018
 42
0.414213562373
 10
601.0337158199999976
 20
216.5301818849999904
 10
582.4337158199999749
 20
216.5301818849999904
 42
0.414213562373
 10
581.7337158200000431
 20
215.8301818850000018
 10
581.7337158200000431
 20
212.2301818850000075
 42
-0.414213562373
 10
581.0337158199999976
 20
211.5301818849999904
 10
556.9337158199999749
 20
211.5301818849999904
 42
-0.414213562373
 10
556.2337158200000431
 20
212.2301818850000075
 10
556.2337158200000431
 20
215.8301818850000018
 42
0.414213562373
 10
555.5337158199999976
 20
216.5301818849999904
 10
536.4337158199999749
 20
216.5301818849999904
 42
-0.414213562373
 10
535.7337158200000431
 20
217.2301818850000075
 10
535.7337158200000431
 20
241.3301818850000018
 42
0.414213562373
 10
535.0337158199999976
 20
242.0301818849999904
 10
531.4337158199999749
 20
242.0301818849999904
 42
-0.414213562373
 10
530.7337158200000431
 20
242.7301818850000075
 10
530.7337158200000431
 20
271.8301818850000018
 42
-0.414213562373
 10
531.4337158199999749
 20
272.5301818849999904
 10
535.0337158199999976
 20
272.5301818849999904
 42
0.414213562373
 10
535.7337158200000431
 20
273.230181884999979
 10
535.7337158200000431
 20
291.8301818850000018
 42
0.414213562373
 10
535.0337158199999976
 20
292.5301818849999904
 10
531.4337158199999749
 20
292.5301818849999904
 42
-0.414213562373
 10
530.7337158200000431
 20
293.230181884999979
 10
530.7337158200000431
 20
322.3301818850000018
 42
-0.414213562373
 10
531.4337158199999749
 20
323.0301818849999904
 10
535.0337158199999976
 20
323.0301818849999904
 42
0.414213562373
 10
535.7337158200000431
 20
323.730181884999979
 10
535.7337158200000431
 20
347.8301818850000018
 42
-0.414213562373
 10
536.4337158199999749
 20
348.5301818849999904
 10
555.5337158199999976
 20
348.5301818849999904
 42
0.414213562373
 10
556.2337158200000431
 20
349.230181884999979
 10
556.2337158200000431
 20
352.8301818850000018
 42
-0.414213562373
 10
556.9337158199999749
 20
353.5301818849999904
 10
581.0337158199999976
 20
353.5301818849999904
 42
-0.414213562373
 10
581.7337158200000431
 20
352.8301818850000018
 10
581.7337158200000431
 20
349.230181884999979
 42
0.414213562373
 10
582.4337158199999749
 20
348.5301818849999904
 10
601.0337158199999976
 20
348.5301818849999904
 42
0.414213562373
 10
601.7337158200000431
 20
349.230181884999979
 10
601.7337158200000431
 20
352.8301818850000018
 42
-0.414213562373
 10
602.4337158199999749
 20
353.5301818849999904
 10
626.5337158199999976
 20
353.5301818849999904
 42
-0.414213562373
 10
627.2337158200000431
 20
352.8301818850000018
 10
627.2337158200000431
 20
349.230181884999979
 42
0.414213562373
 10
627.9337158199999749
 20
348.5301818849999904
 10
647.0337158199999976
 20
348.5301818849999904
 42
-0.414213562373
 10
647.7337158200000431
 20
347.8301818850000018
  0
LWPOLYLINE
  5
AA
100
AcDbEntity
  8
0
 62
256
370
-1
 48
1.0
  6
BYLAYER
100
AcDbPolyline
 90
6
 70
1
 10
543.5837158199999521
 20
308.480181884999979
 42
-0.414213562373
 10
542.8837158200000204
 20
309.1801818850000245
 10
542.8837158200000204
 20
309.480181884999979
 10
644.1837158199999749
 20
309.480181884999979
 42
-0.414213562373
 10
644.8837158200000204
 20
308.7801818849999904
 10
644.8837158200000204
 20
308.480181884999979
  0
LWPOLYLINE
  5
AB
100
AcDbEntity
  8
0
 62
256
370
-1
 48
1.0
  6
BYLAYER
100
AcDbPolyline
 90
6
 70
1
 10
644.8837158200000204
 20
297.7801818849999904
 42
0.414213562373
 10
644.1837158199999749
 20
298.480181884999979
 10
543.5837158199999521
 20
298.480181884999979
 42
0.414213562373
 10
542.8837158200000204
 20
297.7801818849999904
 10
542.8837158200000204
 20
297.480181884999979
 10
644.8837158200000204
 20
297.480181884999979
  0
ENDBLK
  5
AC
100
AcDbEntity
  8
0
100
AcDbBlockEnd
  0
ENDSEC
  0
SECTION
  2
ENTITIES
  0
INSERT
  5
AD
100
AcDbEntity
  8
0
 62
0
370
-1
 48
1.0
  6
BYLAYER
100
AcDbBlockReference
  2
ARRAY
 10
0.0
 20
0.0
 30
0.0
  0
INSERT
  5
AE
100
AcDbEntity
  8
0
 62
0
370
-1
 48
1.0
  6
BYLAYER
100
AcDbBlockReference
  2
CUT002
 10
0.0
 20
0.0
 30
0.0
  0
INSERT
  5
AF
100
AcDbEntity
  8
0
 62
0
370
-1
 48
1.0
  6
BYLAYER
100
AcDbBlockReference
  2
SUBTRACTION
 10
0.0
 20
0.0
 30
0.0
  0
LWPOLYLINE
  5
B0
100
AcDbEntity
  8
0
 62
256
370
-1
 48
1.0
  6
BYLAYER
100
AcDbPolyline
 90
72
 70
1
 10
652.7337158200000431
 20
354.230181884999979
 10
652.7337158200000431
 20
379.8301818850000018
 42
-0.414213562373
 10
653.4337158199999749
 20
380.5301818849999904
 10
657.0337158199999976
 20
380.5301818849999904
 42
0.414213562373
 10
657.7337158200000431
 20
381.230181884999979
 10
657.7337158200000431
 20
406.8301818850000018
 42
0.414213562373
 10
657.0337158199999976
 20
407.5301818849999904
 10
653.4337158199999749
 20
407.5301818849999904
 42
-0.414213562373
 10
652.7337158200000431
 20
408.230181884999979
 10
652.7337158200000431
 20
426.8301818850000018
 42
-0.414213562373
 10
653.4337158199999749
 20
427.5301818849999904
 10
657.0337158199999976
 20
427.5301818849999904
 42
0.414213562373
 10
657.7337158200000431
 20
428.230181884999979
 10
657.7337158200000431
 20
453.8301818850000018
 42
0.414213562373
 10
657.0337158199999976
 20
454.5301818849999904
 10
653.4337158199999749
 20
454.5301818849999904
 42
-0.414213562373
 10
652.7337158200000431
 20
455.230181884999979
 10
652.7337158200000431
 20
480.8301818850000018
 42
-0.414213562373
 10
653.4337158199999749
 20
481.5301818849999904
 10
677.5337158199999976
 20
481.5301818849999904
 42
-0.414213562373
 10
678.2337158200000431
 20
480.8301818850000018
 10
678.2337158200000431
 20
477.230181884999979
 42
0.414213562373
 10
678.9337158199999749
 20
476.5301818849999904
 10
703.0337158199999976
 20
476.5301818849999904
 42
0.414213562373
 10
703.7337158200000431
 20
477.230181884999979
 10
703.7337158200000431
 20
480.8301818850000018
 42
-0.414213562373
 10
704.4337158199999749
 20
481.5301818849999904
 10
723.0337158199999976
 20
481.5301818849999904
 42
-0.414213562373
 10
723.7337158200000431
 20
480.8301818850000018
 10
723.7337158200000431
 20
477.230181884999979
 42
0.414213562373
 10
724.4337158199999749
 20
476.5301818849999904
 10
748.5337158199999976
 20
476.5301818849999904
 42
0.414213562373
 10
749.2337158200000431
 20
477.230181884999979
 10
749.2337158200000431
 20
480.8301818850000018
 42
-0.414213562373
 10
749.9337158199999749
 20
481.5301818849999904
 10
774.0337158199999976
 20
481.5301818849999904
 42
-0.414213562373
 10
774.7337158200000431
 20
480.8301818850000018
 10
774.7337158200000431
 20
455.230181884999979
 42
-0.414213562373
 10
774.0337158199999976
 20
454.5301818849999904
 10
770.4337158199999749
 20
454.5301818849999904
 42
0.414213562373
 10
769.7337158200000431
 20
453.8301818850000018
 10
769.7337158200000431
 20
428.230181884999979
 42
0.414213562373
 10
770.4337158199999749
 20
427.5301818849999904
 10
774.0337158199999976
 20
427.5301818849999904
 42
-0.414213562373
 10
774.7337158200000431
 20
426.8301818850000018
 10
774.7337158200000431
 20
408.230181884999979
 42
-0.414213562373
 10
774.0337158199999976
 20
407.5301818849999904
 10
770.4337158199999749
 20
407.5301818849999904
 42
0.414213562373
 10
769.7337158200000431
 20
406.8301818850000018
 10
769.7337158200000431
 20
381.230181884999979
 42
0.414213562373
 10
770.4337158199999749
 20
380.5301818849999904
 10
774.0337158199999976
 20
380.5301818849999904
 42
-0.414213562373
 10
774.7337158200000431
 20
379.8301818850000018
 10
774.7337158200000431
 20
354.230181884999979
 42
-0.414213562373
 10
774.0337158199999976
 20
353.5301818849999904
 10
749.9337158199999749
 20
353.5301818849999904
 42
-0.414213562373
 10
749.2337158200000431
 20
354.230181884999979
 10
749.2337158200000431
 20
357.8301818850000018
 42
0.414213562373
 10
748.5337158199999976
 20
358.5301818849999904
 10
724.4337158199999749
 20
358.5301818849999904
 42
0.414213562373
 10
723.7337158200000431
 20
357.8301818850000018
 10
723.7337158200000431
 20
354.230181884999979
 42
-0.414213562373
 10
723.0337158199999976
 20
353.5301818849999904
 10
704.4337158199999749
 20
353.5301818849999904
 42
-0.414213562373
 10
703.7337158200000431
 20
354.230181884999979
 10
703.7337158200000431
 20
357.8301818850000018
 42
0.414213562373
 10
703.0337158199999976
 20
358.5301818849999904
 10
678.9337158199999749
 20
358.5301818849999904
 42
0.414213562373
 10
678.2337158200000431
 20
357.8301818850000018
 10
678.2337158200000431
 20
354.230181884999979
 42
-0.414213562373
 10
677.5337158199999976
 20
353.5301818849999904
 10
653.4337158199999749
 20
353.5301818849999904
 42
-0.414213562373
  0
LWPOLYLINE
  5
B1
100
AcDbEntity
  8
0
 62
256
370
-1
 48
1.0
  6
BYLAYER
100
AcDbPolyline
 90
72
 70
1
 10
530.7337158200000431
 20
354.230181884999979
 10
530.7337158200000431
 20
379.8301818850000018
 42
-0.414213562373
 10
531.4337158199999749
 20
380.5301818849999904
 10
535.0337158199999976
 20
380.5301818849999904
 42
0.414213562373
 10
535.7337158200000431
 20
381.230181884999979
 10
535.7337158200000431
 20
406.8301818850000018
 42
0.414213562373
 10
535.0337158199999976
 20
407.5301818849999904
 10
531.4337158199999749
 20
407.5301818849999904
 42
-0.414213562373
 10
530.7337158200000431
 20
408.230181884999979
 10
530.7337158200000431
 20
426.8301818850000018
 42
-0.414213562373
 10
531.4337158199999749
 20
427.5301818849999904
 10
535.0337158199999976
 20
427.5301818849999904
 42
0.414213562373
 10
535.7337158200000431
 20
428.230181884999979
 10
535.7337158200000431
 20
453.8301818850000018
 42
0.414213562373
 10
535.0337158199999976
 20
454.5301818849999904
 10
531.4337158199999749
 20
454.5301818849999904
 42
-0.414213562373
 10
530.7337158200000431
 20
455.230181884999979
 10
530.7337158200000431
 20
480.8301818850000018
 42
-0.414213562373
 10
531.4337158199999749
 20
481.5301818849999904
 10
555.5337158199999976
 20
481.5301818849999904
 42
-0.414213562373
 10
556.2337158200000431
 20
480.8301818850000018
 10
556.2337158200000431
 20
477.230181884999979
 42
0.414213562373
 10
556.9337158199999749
 20
476.5301818849999904
 10
581.0337158199999976
 20
476.5301818849999904
 42
0.414213562373
 10
581.7337158200000431
 20
477.230181884999979
 10
581.7337158200000431
 20
480.8301818850000018
 42
-0.414213562373
 10
582.4337158199999749
 20
481.5301818849999904
 10
601.0337158199999976
 20
481.5301818849999904
 42
-0.414213562373
 10
601.7337158200000431
 20
480.8301818850000018
 10
601.7337158200000431
 20
477.230181884999979
 42
0.414213562373
 10
602.4337158199999749
 20
476.5301818849999904
 10
626.5337158199999976
 20
476.5301818849999904
 42
0.414213562373
 10
627.2337158200000431
 20
477.230181884999979
 10
627.2337158200000431
 20
480.8301818850000018
 42
-0.414213562373
 10
627.9337158199999749
 20
481.5301818849999904
 10
652.0337158199999976
 20
481.5301818849999904
 42
-0.414213562373
 10
652.7337158200000431
 20
480.8301818850000018
 10
652.7337158200000431
 20
455.230181884999979
 42
-0.414213562373
 10
652.0337158199999976
 20
454.5301818849999904
 10
648.4337158199999749
 20
454.5301818849999904
 42
0.414213562373
 10
647.7337158200000431
 20
453.8301818850000018
 10
647.7337158200000431
 20
428.230181884999979
 42
0.414213562373
 10
648.4337158199999749
 20
427.5301818849999904
 10
652.0337158199999976
 20
427.5301818849999904
 42
-0.414213562373
 10
652.7337158200000431
 20
426.8301818850000018
 10
652.7337158200000431
 20
408.230181884999979
 42
-0.414213562373
 10
652.0337158199999976
 20
407.5301818849999904
 10
648.4337158199999749
 20
407.5301818849999904
 42
0.414213562373
 10
647.7337158200000431
 20
406.8301818850000018
 10
647.7337158200000431
 20
381.230181884999979
 42
0.414213562373
 10
648.4337158199999749
 20
380.5301818849999904
 10
652.0337158199999976
 20
380.5301818849999904
 42
-0.414213562373
 10
652.7337158200000431
 20
379.8301818850000018
 10
652.7337158200000431
 20
354.230181884999979
 42
-0.414213562373
 10
652.0337158199999976
 20
353.5301818849999904
 10
627.9337158199999749
 20
353.5301818849999904
 42
-0.414213562373
 10
627.2337158200000431
 20
354.230181884999979
 10
627.2337158200000431
 20
357.8301818850000018
 42
0.414213562373
 10
626.5337158199999976
 20
358.5301818849999904
 10
602.4337158199999749
 20
358.5301818849999904
 42
0.414213562373
 10
601.7337158200000431
 20
357.8301818850000018
 10
601.7337158200000431
 20
354.230181884999979
 42
-0.414213562373
 10
601.0337158199999976
 20
353.5301818849999904
 10
582.4337158199999749
 20
353.5301818849999904
 42
-0.414213562373
 10
581.7337158200000431
 20
354.230181884999979
 10
581.7337158200000431
 20
357.8301818850000018
 42
0.414213562373
 10
581.0337158199999976
 20
358.5301818849999904
 10
556.9337158199999749
 20
358.5301818849999904
 42
0.414213562373
 10
556.2337158200000431
 20
357.8301818850000018
 10
556.2337158200000431
 20
354.230181884999979
 42
-0.414213562373
 10
555.5337158199999976
 20
353.5301818849999904
 10
531.4337158199999749
 20
353.5301818849999904
 42
-0.414213562373
  0
LWPOLYLINE
  5
B2
100
AcDbEntity
  8
0
 62
256
370
-1
 48
1.0
  6
BYLAYER
100
AcDbPolyline
 90
72
 70
1
 10
779.7337158200000431
 20
354.230181884999979
 10
779.7337158200000431
 20
379.8301818850000018
 42
0.414213562373
 10
779.0337158199999976
 20
380.5301818849999904
 10
775.4337158199999749
 20
380.5301818849999904
 42
-0.414213562373
 10
774.7337158200000431
 20
381.230181884999979
 10
774.7337158200000431
 20
406.8301818850000018
 42
-0.414213562373
 10
775.4337158199999749
 20
407.5301818849999904
 10
779.0337158199999976
 20
407.5301818849999904
 42
0.414213562373
 10
779.7337158200000431
 20
408.230181884999979
 10
779.7337158200000431
 20
426.8301818850000018
 42
0.414213562373
 10
779.0337158199999976
 20
427.5301818849999904
 10
775.4337158199999749
 20
427.5301818849999904
 42
-0.414213562373
 10
774.7337158200000431
 20
428.230181884999979
 10
774.7337158200000431
 20
453.8301818850000018
 42
-0.414213562373
 10
775.4337158199999749
 20
454.5301818849999904
 10
779.0337158199999976
 20
454.5301818849999904
 42
0.414213562373
 10
779.7337158200000431
 20
455.230181884999979
 10
779.7337158200000431
 20
480.8301818850000018
 42
-0.414213562373
 10
780.4337158199999749
 20
481.5301818849999904
 10
804.5337158199999976
 20
481.5301818849999904
 42
-0.414213562373
 10
805.2337158200000431
 20
480.8301818850000018
 10
805.2337158200000431
 20
477.230181884999979
 42
0.414213562373
 10
805.9337158199999749
 20
476.5301818849999904
 10
835.0337158199999976
 20
476.5301818849999904
 42
0.414213562373
 10
835.7337158200000431
 20
477.230181884999979
 10
835.7337158200000431
 20
480.8301818850000018
 42
-0.414213562373
 10
836.4337158199999749
 20
481.5301818849999904
 10
855.0337158199999976
 20
481.5301818849999904
 42
-0.414213562373
 10
855.7337158200000431
 20
480.8301818850000018
 10
855.7337158200000431
 20
477.230181884999979
 42
0.414213562373
 10
856.4337158199999749
 20
476.5301818849999904
 10
885.5337158199999976
 20
476.5301818849999904
 42
0.414213562373
 10
886.2337158200000431
 20
477.230181884999979
 10
886.2337158200000431
 20
480.8301818850000018
 42
-0.414213562373
 10
886.9337158199999749
 20
481.5301818849999904
 10
911.0337158199999976
 20
481.5301818849999904
 42
-0.414213562373
 10
911.7337158200000431
 20
480.8301818850000018
 10
911.7337158200000431
 20
455.230181884999979
 42
0.414213562373
 10
912.4337158199999749
 20
454.5301818849999904
 10
916.0337158199999976
 20
454.5301818849999904
 42
-0.414213562373
 10
916.7337158200000431
 20
453.8301818850000018
 10
916.7337158200000431
 20
428.230181884999979
 42
-0.414213562373
 10
916.0337158199999976
 20
427.5301818849999904
 10
912.4337158199999749
 20
427.5301818849999904
 42
0.414213562373
 10
911.7337158200000431
 20
426.8301818850000018
 10
911.7337158200000431
 20
408.230181884999979
 42
0.414213562373
 10
912.4337158199999749
 20
407.5301818849999904
 10
916.0337158199999976
 20
407.5301818849999904
 42
-0.414213562373
 10
916.7337158200000431
 20
406.8301818850000018
 10
916.7337158200000431
 20
381.230181884999979
 42
-0.414213562373
 10
916.0337158199999976
 20
380.5301818849999904
 10
912.4337158199999749
 20
380.5301818849999904
 42
0.414213562373
 10
911.7337158200000431
 20
379.8301818850000018
 10
911.7337158200000431
 20
354.230181884999979
 42
-0.414213562373
 10
911.0337158199999976
 20
353.5301818849999904
 10
886.9337158199999749
 20
353.5301818849999904
 42
-0.414213562373
 10
886.2337158200000431
 20
354.230181884999979
 10
886.2337158200000431
 20
357.8301818850000018
 42
0.414213562373
 10
885.5337158199999976
 20
358.5301818849999904
 10
856.4337158199999749
 20
358.5301818849999904
 42
0.414213562373
 10
855.7337158200000431
 20
357.8301818850000018
 10
855.7337158200000431
 20
354.230181884999979
 42
-0.414213562373
 10
855.0337158199999976
 20
353.5301818849999904
 10
836.4337158199999749
 20
353.5301818849999904
 42
-0.414213562373
 10
835.7337158200000431
 20
354.230181884999979
 10
835.7337158200000431
 20
357.8301818850000018
 42
0.414213562373
 10
835.0337158199999976
 20
358.5301818849999904
 10
805.9337158199999749
 20
358.5301818849999904
 42
0.414213562373
 10
805.2337158200000431
 20
357.8301818850000018
 10
805.2337158200000431
 20
354.230181884999979
 42
-0.414213562373
 10
804.5337158199999976
 20
353.5301818849999904
 10
780.4337158199999749
 20
353.5301818849999904
 42
-0.414213562373
  0
LWPOLYLINE
  5
B3
100
AcDbEntity
  8
0
 62
256
370
-1
 48
1.0
  6
BYLAYER
100
AcDbPolyline
 90
72
 70
1
 10
779.7337158200000431
 20
226.2301818850000075
 10
779.7337158200000431
 20
251.8301818850000018
 42
0.414213562373
 10
779.0337158199999976
 20
252.5301818849999904
 10
775.4337158199999749
 20
252.5301818849999904
 42
-0.414213562373
 10
774.7337158200000431
 20
253.2301818850000075
 10
774.7337158200000431
 20
278.8301818850000018
 42
-0.414213562373
 10
775.4337158199999749
 20
279.5301818849999904
 10
779.0337158199999976
 20
279.5301818849999904
 42
0.414213562373
 10
779.7337158200000431
 20
280.230181884999979
 10
779.7337158200000431
 20
298.8301818850000018
 42
0.414213562373
 10
779.0337158199999976
 20
299.5301818849999904
 10
775.4337158199999749
 20
299.5301818849999904
 42
-0.414213562373
 10
774.7337158200000431
 20
300.230181884999979
 10
774.7337158200000431
 20
325.8301818850000018
 42
-0.414213562373
 10
775.4337158199999749
 20
326.5301818849999904
 10
779.0337158199999976
 20
326.5301818849999904
 42
0.414213562373
 10
779.7337158200000431
 20
327.230181884999979
 10
779.7337158200000431
 20
352.8301818850000018
 42
-0.414213562373
 10
780.4337158199999749
 20
353.5301818849999904
 10
804.5337158199999976
 20
353.5301818849999904
 42
-0.414213562373
 10
805.2337158200000431
 20
352.8301818850000018
 10
805.2337158200000431
 20
349.230181884999979
 42
0.414213562373
 10
805.9337158199999749
 20
348.5301818849999904
 10
835.0337158199999976
 20
348.5301818849999904
 42
0.414213562373
 10
835.7337158200000431
 20
349.230181884999979
 10
835.7337158200000431
 20
352.8301818850000018
 42
-0.414213562373
 10
836.4337158199999749
 20
353.5301818849999904
 10
855.0337158199999976
 20
353.5301818849999904
 42
-0.414213562373
 10
855.7337158200000431
 20
352.8301818850000018
 10
855.7337158200000431
 20
349.230181884999979
 42
0.414213562373
 10
856.4337158199999749
 20
348.5301818849999904
 10
885.5337158199999976
 20
348.5301818849999904
 42
0.414213562373
 10
886.2337158200000431
 20
349.230181884999979
 10
886.2337158200000431
 20
352.8301818850000018
 42
-0.414213562373
 10
886.9337158199999749
 20
353.5301818849999904
 10
911.0337158199999976
 20
353.5301818849999904
 42
-0.414213562373
 10
911.7337158200000431
 20
352.8301818850000018
 10
911.7337158200000431
 20
327.230181884999979
 42
0.414213562373
 10
912.4337158199999749
 20
326.5301818849999904
 10
916.0337158199999976
 20
326.5301818849999904
 42
-0.414213562373
 10
916.7337158200000431
 20
325.8301818850000018
 10
916.7337158200000431
 20
300.230181884999979
 42
-0.414213562373
 10
916.0337158199999976
 20
299.5301818849999904
 10
912.4337158199999749
 20
299.5301818849999904
 42
0.414213562373
 10
911.7337158200000431
 20
298.8301818850000018
 10
911.7337158200000431
 20
280.230181884999979
 42
0.414213562373
 10
912.4337158199999749
 20
279.5301818849999904
 10
916.0337158199999976
 20
279.5301818849999904
 42
-0.414213562373
 10
916.7337158200000431
 20
278.8301818850000018
 10
916.7337158200000431
 20
253.2301818850000075
 42
-0.414213562373
 10
916.0337158199999976
 20
252.5301818849999904
 10
912.4337158199999749
 20
252.5301818849999904
 42
0.414213562373
 10
911.7337158200000431
 20
251.8301818850000018
 10
911.7337158200000431
 20
226.2301818850000075
 42
-0.414213562373
 10
911.0337158199999976
 20
225.5301818849999904
 10
886.9337158199999749
 20
225.5301818849999904
 42
-0.414213562373
 10
886.2337158200000431
 20
226.2301818850000075
 10
886.2337158200000431
 20
229.8301818850000018
 42
0.414213562373
 10
885.5337158199999976
 20
230.5301818849999904
 10
856.4337158199999749
 20
230.5301818849999904
 42
0.414213562373
 10
855.7337158200000431
 20
229.8301818850000018
 10
855.7337158200000431
 20
226.2301818850000075
 42
-0.414213562373
 10
855.0337158199999976
 20
225.5301818849999904
 10
836.4337158199999749
 20
225.5301818849999904
 42
-0.414213562373
 10
835.7337158200000431
 20
226.2301818850000075
 10
835.7337158200000431
 20
229.8301818850000018
 42
0.414213562373
 10
835.0337158199999976
 20
230.5301818849999904
 10
805.9337158199999749
 20
230.5301818849999904
 42
0.414213562373
 10
805.2337158200000431
 20
229.8301818850000018
 10
805.2337158200000431
 20
226.2301818850000075
 42
-0.414213562373
 10
804.5337158199999976
 20
225.5301818849999904
 10
780.4337158199999749
 20
225.5301818849999904
 42
-0.414213562373
  0
ENDSEC
  0
SECTION
  2
OBJECTS
  0
DICTIONARY
  5
C
100
AcDbDictionary
280
0
281
1
  3
ACAD_GROUP
350
D
  3
ACAD_LAYOUT
350
1A
  3
ACAD_MLINESTYLE
350
17
  3
ACAD_PLOTSETTINGS
350
19
  3
ACAD_PLOTSTYLENAME
350
E
  3
AcDbVariableDictionary
350
B4
  3
QCAD_OBJECTS
350
B5
  0
DICTIONARY
  5
D
100
AcDbDictionary
280
0
281
1
  0
ACDBDICTIONARYWDFLT
  5
E
100
AcDbDictionary
281
1
  3
Normal
350
F
100
AcDbDictionaryWithDefault
340
F
  0
ACDBPLACEHOLDER
  5
F
  0
DICTIONARY
  5
17
100
AcDbDictionary
280
0
281
1
  3
Standard
350
18
  0
MLINESTYLE
  5
18
100
AcDbMlineStyle
  2
STANDARD
 70
0
  3

 62
256
 51
90.0
 52
90.0
 71
2
 49
0.5
 62
256
  6
BYLAYER
 49
-0.5
 62
256
  6
BYLAYER
  0
DICTIONARY
  5
19
100
AcDbDictionary
280
0
281
1
  0
DICTIONARY
  5
1A
100
AcDbDictionary
281
1
  3
Layout1
350
1E
  3
Layout2
350
26
  3
Model
350
22
  0
LAYOUT
  5
1E
100
AcDbPlotSettings
  1

  2
none_device
  4

  6

 40
0.0
 41
0.0
 42
0.0
 43
0.0
 44
0.0
 45
0.0
 46
0.0
 47
0.0
 48
0.0
 49
0.0
140
0.0
141
0.0
142
1.0
143
1.0
 70
688
 72
0
 73
0
 74
5
  7

 75
16
147
1.0
148
0.0
149
0.0
100
AcDbLayout
  1
Layout1
 70
1
 71
1
 10
0.0
 20
0.0
 11
420.0
 21
297.0
 12
0.0
 22
0.0
 32
0.0
 14
100000000000000000000.0
 24
100000000000000000000.0
 34
100000000000000000000.0
 15
-100000000000000000000.0
 25
-100000000000000000000.0
 35
-100000000000000000000.0
146
0.0
 13
0.0
 23
0.0
 33
0.0
 16
1.0
 26
0.0
 36
0.0
 17
0.0
 27
1.0
 37
0.0
 76
0
330
1B
  0
LAYOUT
  5
22
100
AcDbPlotSettings
  1

  2
none_device
  4

  6

 40
0.0
 41
0.0
 42
0.0
 43
0.0
 44
0.0
 45
0.0
 46
0.0
 47
0.0
 48
0.0
 49
0.0
140
0.0
141
0.0
142
1.0
143
1.0
 70
1712
 72
0
 73
0
 74
0
  7

 75
0
147
1.0
148
0.0
149
0.0
100
AcDbLayout
  1
Model
 70
1
 71
0
 10
0.0
 20
0.0
 11
12.0
 21
9.0
 12
0.0
 22
0.0
 32
0.0
 14
0.0
 24
0.0
 34
0.0
 15
0.0
 25
0.0
 35
0.0
146
0.0
 13
0.0
 23
0.0
 33
0.0
 16
1.0
 26
0.0
 36
0.0
 17
0.0
 27
1.0
 37
0.0
 76
0
330
1F
  0
LAYOUT
  5
26
100
AcDbPlotSettings
  1

  2
none_device
  4

  6

 40
0.0
 41
0.0
 42
0.0
 43
0.0
 44
0.0
 45
0.0
 46
0.0
 47
0.0
 48
0.0
 49
0.0
140
0.0
141
0.0
142
1.0
143
1.0
 70
688
 72
0
 73
0
 74
5
  7

 75
16
147
1.0
148
0.0
149
0.0
100
AcDbLayout
  1
Layout2
 70
1
 71
2
 10
0.0
 20
0.0
 11
12.0
 21
9.0
 12
0.0
 22
0.0
 32
0.0
 14
0.0
 24
0.0
 34
0.0
 15
0.0
 25
0.0
 35
0.0
146
0.0
 13
0.0
 23
0.0
 33
0.0
 16
1.0
 26
0.0
 36
0.0
 17
0.0
 27
1.0
 37
0.0
 76
0
330
23
  0
DICTIONARY
  5
B4
100
AcDbDictionary
281
1
  3
DIMASSOC
350
B7
  3
HIDETEXT
350
B6
  0
DICTIONARYVAR
  5
B6
100
DictionaryVariables
280
0
  1
2
  0
DICTIONARYVAR
  5
B7
100
DictionaryVariables
280
0
  1
1
  0
DICTIONARY
  5
B5
100
AcDbDictionary
281
1
  3
ColorSettings/BackgroundColor
350
B8
  3
ColorSettings/ColorMode
350
B9
  3
Grid/DisplayGrid00
350
BA
  3
Grid/DisplayGrid01
350
BB
  3
Grid/DisplayGrid02
350
BC
  3
Grid/DisplayGrid03
350
BD
  3
Grid/GridSpacingX00
350
BE
  3
Grid/GridSpacingX01
350
BF
  3
Grid/GridSpacingX02
350
C0
  3
Grid/GridSpacingX03
350
C1
  3
Grid/GridSpacingY00
350
C2
  3
Grid/GridSpacingY01
350
C3
  3
Grid/GridSpacingY02
350
C4
  3
Grid/GridSpacingY03
350
C5
  3
Grid/IsometricGrid00
350
C6
  3
Grid/IsometricGrid01
350
C7
  3
Grid/IsometricGrid02
350
C8
  3
Grid/IsometricGrid03
350
C9
  3
Grid/IsometricProjection00
350
CA
  3
Grid/IsometricProjection01
350
CB
  3
Grid/IsometricProjection02
350
CC
  3
Grid/IsometricProjection03
350
CD
  3
Grid/MetaGridSpacingX00
350
CE
  3
Grid/MetaGridSpacingX01
350
CF
  3
Grid/MetaGridSpacingX02
350
D0
  3
Grid/MetaGridSpacingX03
350
D1
  3
Grid/MetaGridSpacingY00
350
D2
  3
Grid/MetaGridSpacingY01
350
D3
  3
Grid/MetaGridSpacingY02
350
D4
  3
Grid/MetaGridSpacingY03
350
D5
  3
MultiPageSettings/Columns
350
D6
  3
MultiPageSettings/GlueMarginsBottom
350
D7
  3
MultiPageSettings/GlueMarginsLeft
350
D8
  3
MultiPageSettings/GlueMarginsRight
350
D9
  3
MultiPageSettings/GlueMarginsTop
350
DA
  3
MultiPageSettings/PrintCropMarks
350
DB
  3
MultiPageSettings/Rows
350
DC
  3
PageSettings/OffsetX
350
DD
  3
PageSettings/OffsetY
350
DE
  3
PageSettings/PageOrientation
350
DF
  3
PageSettings/PaperHeight
350
E0
  3
PageSettings/PaperWidth
350
E1
  3
PageSettings/Scale
350
E2
  3
PageSettings/ShowPaperBorders
350
E3
  3
UnitSettings/PaperUnit
350
E4
  3
ViewportCenter
350
E5
  3
ViewportHeight
350
E6
  3
ViewportWidth
350
E7
  0
XRECORD
  5
B8
330
B5
100
AcDbXrecord
280
1
1000
White
  0
XRECORD
  5
B9
330
B5
100
AcDbXrecord
280
1
1000
FullColor
  0
XRECORD
  5
BA
330
B5
100
AcDbXrecord
280
1
290
1
  0
XRECORD
  5
BB
330
B5
100
AcDbXrecord
280
1
290
1
  0
XRECORD
  5
BC
330
B5
100
AcDbXrecord
280
1
290
1
  0
XRECORD
  5
BD
330
B5
100
AcDbXrecord
280
1
290
1
  0
XRECORD
  5
BE
330
B5
100
AcDbXrecord
280
1
1000
auto
  0
XRECORD
  5
BF
330
B5
100
AcDbXrecord
280
1
1000
auto
  0
XRECORD
  5
C0
330
B5
100
AcDbXrecord
280
1
1000
auto
  0
XRECORD
  5
C1
330
B5
100
AcDbXrecord
280
1
1000
auto
  0
XRECORD
  5
C2
330
B5
100
AcDbXrecord
280
1
1000
auto
  0
XRECORD
  5
C3
330
B5
100
AcDbXrecord
280
1
1000
auto
  0
XRECORD
  5
C4
330
B5
100
AcDbXrecord
280
1
1000
auto
  0
XRECORD
  5
C5
330
B5
100
AcDbXrecord
280
1
1000
auto
  0
XRECORD
  5
C6
330
B5
100
AcDbXrecord
280
1
290
0
  0
XRECORD
  5
C7
330
B5
100
AcDbXrecord
280
1
290
0
  0
XRECORD
  5
C8
330
B5
100
AcDbXrecord
280
1
290
0
  0
XRECORD
  5
C9
330
B5
100
AcDbXrecord
280
1
290
0
  0
XRECORD
  5
CA
330
B5
100
AcDbXrecord
280
1
 90
65537
  0
XRECORD
  5
CB
330
B5
100
AcDbXrecord
280
1
 90
65537
  0
XRECORD
  5
CC
330
B5
100
AcDbXrecord
280
1
 90
65537
  0
XRECORD
  5
CD
330
B5
100
AcDbXrecord
280
1
 90
65537
  0
XRECORD
  5
CE
330
B5
100
AcDbXrecord
280
1
1000
auto
  0
XRECORD
  5
CF
330
B5
100
AcDbXrecord
280
1
1000
auto
  0
XRECORD
  5
D0
330
B5
100
AcDbXrecord
280
1
1000
auto
  0
XRECORD
  5
D1
330
B5
100
AcDbXrecord
280
1
1000
auto
  0
XRECORD
  5
D2
330
B5
100
AcDbXrecord
280
1
1000
auto
  0
XRECORD
  5
D3
330
B5
100
AcDbXrecord
280
1
1000
auto
  0
XRECORD
  5
D4
330
B5
100
AcDbXrecord
280
1
1000
auto
  0
XRECORD
  5
D5
330
B5
100
AcDbXrecord
280
1
1000
auto
  0
XRECORD
  5
D6
330
B5
100
AcDbXrecord
280
1
 90
1
  0
XRECORD
  5
D7
330
B5
100
AcDbXrecord
280
1
 40
10.0
  0
XRECORD
  5
D8
330
B5
100
AcDbXrecord
280
1
 40
10.0
  0
XRECORD
  5
D9
330
B5
100
AcDbXrecord
280
1
 40
10.0
  0
XRECORD
  5
DA
330
B5
100
AcDbXrecord
280
1
 40
10.0
  0
XRECORD
  5
DB
330
B5
100
AcDbXrecord
280
1
290
0
  0
XRECORD
  5
DC
330
B5
100
AcDbXrecord
280
1
 90
1
  0
XRECORD
  5
DD
330
B5
100
AcDbXrecord
280
1
 40
0.0
  0
XRECORD
  5
DE
330
B5
100
AcDbXrecord
280
1
 40
0.0
  0
XRECORD
  5
DF
330
B5
100
AcDbXrecord
280
1
1000
Portrait
  0
XRECORD
  5
E0
330
B5
100
AcDbXrecord
280
1
 40
297.0
  0
XRECORD
  5
E1
330
B5
100
AcDbXrecord
280
1
 40
210.0
  0
XRECORD
  5
E2
330
B5
100
AcDbXrecord
280
1
1000
1:1
  0
XRECORD
  5
E3
330
B5
100
AcDbXrecord
280
1
290
1
  0
XRECORD
  5
E4
330
B5
100
AcDbXrecord
280
1
 90
4
  0
XRECORD
  5
E6
330
B5
100
AcDbXrecord
280
1
 40
897.7735140140789554
  0
XRECORD
  5
E7
330
B5
100
AcDbXrecord
280
1
 40
1255.5226567196891665
  0
ENDSEC
  0
EOF
