999
dxflib 3.17.0.0
  0
SECTION
  2
HEADER
  9
$ACADVER
  1
AC1015
  9
$HANDSEED
  5
FFFF
  9
$DIMADEC
 70
0
  9
$DIMASZ
 40
0.18
  9
$DIMAUNIT
 70
0
  9
$DIMAZIN
 70
0
  9
$DIMDEC
 70
4
  9
$DIMDSEP
 70
46
  9
$DIMEXE
 40
0.18
  9
$DIMEXO
 40
0.0625
  9
$DIMGAP
 40
0.09
  9
$DIMLUNIT
 70
2
  9
$DIMSCALE
 40
1.0
  9
$DIMTSZ
 40
0.0
  9
$DIMTXT
 40
0.18
  9
$DIMZIN
 70
0
  9
$DWGCODEPAGE
  3
ANSI_1252
  9
$EXTMAX
 10
0.0
 20
0.0
 30
0.0
  9
$EXTMIN
 10
0.0
 20
0.0
 30
0.0
  9
$INSBASE
 10
0.0
 20
0.0
 30
0.0
  9
$INSUNITS
 70
0
  9
$LTSCALE
 40
1.0
  9
$MAXACTVP
 70
64
  9
$MEASUREMENT
 70
1
  9
$PDMODE
 70
0
  9
$PDSIZE
 40
0.0
  0
ENDSEC
  0
SECTION
  2
TABLES
  0
TABLE
  2
VPORT
  5
8
100
AcDbSymbolTable
 70
1
  0
VPORT
  5
30
100
AcDbSymbolTableRecord
100
AcDbViewportTableRecord
  2
*Active
 70
0
 10
0.0
 20
0.0
 11
1.0
 21
1.0
 12
286.3055555555554861
 22
148.5
 13
0.0
 23
0.0
 14
10.0
 24
10.0
 15
10.0
 25
10.0
 16
0.0
 26
0.0
 36
1.0
 17
0.0
 27
0.0
 37
0.0
 40
297.0
 41
1.92798353909465
 42
50.0
 43
0.0
 44
0.0
 50
0.0
 51
0.0
 71
0
 72
100
 73
1
 74
3
 75
1
 76
1
 77
0
 78
0
281
0
 65
1
110
0.0
120
0.0
130
0.0
111
1.0
121
0.0
131
0.0
112
0.0
122
1.0
132
0.0
 79
0
146
0.0
  0
ENDTAB
  0
TABLE
  2
LTYPE
  5
5
100
AcDbSymbolTable
 70
41
  0
LTYPE
  5
16
100
AcDbSymbolTableRecord
100
AcDbLinetypeTableRecord
  2
CONTINUOUS
 70
0
  3
Solid line
 72
65
 73
0
 40
0.0
  0
LTYPE
  5
31
100
AcDbSymbolTableRecord
100
AcDbLinetypeTableRecord
  2
ACAD_ISO14W100
 70
0
  3
ISO dash triple-dot __ . . . __ . . . __ . . . _
 72
65
 73
8
 40
24.0000000000000036
 49
12.0
 74
0
 49
-2.9500000000000002
 74
0
 49
0.1
 74
0
 49
-2.9000000000000004
 74
0
 49
0.1
 74
0
 49
-2.9000000000000004
 74
0
 49
0.1
 74
0
 49
-2.9500000000000002
 74
0
  0
LTYPE
  5
32
100
AcDbSymbolTableRecord
100
AcDbLinetypeTableRecord
  2
CENTER2
 70
0
  3
Center (.5x) ___ _ ___ _ ___ _ ___ _ ___ _ ___
 72
65
 73
4
 40
28.5750000000000028
 49
19.0500000000000007
 74
0
 49
-3.1749999999999998
 74
0
 49
3.1749999999999998
 74
0
 49
-3.1749999999999998
 74
0
  0
LTYPE
  5
33
100
AcDbSymbolTableRecord
100
AcDbLinetypeTableRecord
  2
DOTX2
 70
0
  3
Dot (2x) .  .  .  .  .  .  .  .  .  .  .  .  .  .
 72
65
 73
2
 40
12.6999999999999993
 49
0.1
 74
0
 49
-12.5999999999999996
 74
0
  0
LTYPE
  5
34
100
AcDbSymbolTableRecord
100
AcDbLinetypeTableRecord
  2
ACAD_ISO07W100
 70
0
  3
ISO dot . . . . . . . . . . . . . . . . . . . . 
 72
65
 73
2
 40
3.0
 49
0.1
 74
0
 49
-2.8999999999999999
 74
0
  0
LTYPE
  5
35
100
AcDbSymbolTableRecord
100
AcDbLinetypeTableRecord
  2
PHANTOMX2
 70
0
  3
Phantom (2x) ____________    ____    ____   _
 72
65
 73
6
 40
127.0000000000000142
 49
63.5
 74
0
 49
-12.6999999999999993
 74
0
 49
12.6999999999999993
 74
0
 49
-12.6999999999999993
 74
0
 49
12.6999999999999993
 74
0
 49
-12.6999999999999993
 74
0
  0
LTYPE
  5
36
100
AcDbSymbolTableRecord
100
AcDbLinetypeTableRecord
  2
PHANTOM2
 70
0
  3
Phantom (.5x) ___ _ _ ___ _ _ ___ _ _ ___ _ _
 72
65
 73
6
 40
31.7500000000000036
 49
15.875
 74
0
 49
-3.1749999999999998
 74
0
 49
3.1749999999999998
 74
0
 49
-3.1749999999999998
 74
0
 49
3.1749999999999998
 74
0
 49
-3.1749999999999998
 74
0
  0
LTYPE
  5
37
100
AcDbSymbolTableRecord
100
AcDbLinetypeTableRecord
  2
ACAD_ISO09W100
 70
0
  3
ISO long-dash double-short-dash ____ __ __ ____
 72
65
 73
6
 40
45.0
 49
24.0
 74
0
 49
-3.0
 74
0
 49
6.0
 74
0
 49
-3.0
 74
0
 49
6.0
 74
0
 49
-3.0
 74
0
  0
LTYPE
  5
38
100
AcDbSymbolTableRecord
100
AcDbLinetypeTableRecord
  2
DIVIDE
 70
0
  3
Divide ____ . . ____ . . ____ . . ____ . . ____
 72
65
 73
6
 40
31.7500000000000036
 49
12.6999999999999993
 74
0
 49
-6.2999999999999998
 74
0
 49
0.1
 74
0
 49
-6.25
 74
0
 49
0.1
 74
0
 49
-6.2999999999999998
 74
0
  0
LTYPE
  5
39
100
AcDbSymbolTableRecord
100
AcDbLinetypeTableRecord
  2
DOT2
 70
0
  3
Dot (.5x) ........................................
 72
65
 73
2
 40
3.1749999999999998
 49
0.1
 74
0
 49
-3.0749999999999997
 74
0
  0
LTYPE
  5
3A
100
AcDbSymbolTableRecord
100
AcDbLinetypeTableRecord
  2
ACAD_ISO15W100
 70
0
  3
ISO double-dash triple-dot __ __ . . . __ __ . .
 72
65
 73
10
 40
39.0000000000000071
 49
12.0
 74
0
 49
-3.0
 74
0
 49
12.0
 74
0
 49
-2.9500000000000002
 74
0
 49
0.1
 74
0
 49
-2.9000000000000004
 74
0
 49
0.1
 74
0
 49
-2.9000000000000004
 74
0
 49
0.1
 74
0
 49
-2.9500000000000002
 74
0
  0
LTYPE
  5
3B
100
AcDbSymbolTableRecord
100
AcDbLinetypeTableRecord
  2
ACAD_ISO12W100
 70
0
  3
ISO dash double-dot __ . . __ . . __ . . __ . . 
 72
65
 73
6
 40
21.0
 49
12.0
 74
0
 49
-2.9500000000000002
 74
0
 49
0.1
 74
0
 49
-2.9000000000000004
 74
0
 49
0.1
 74
0
 49
-2.9500000000000002
 74
0
  0
LTYPE
  5
3C
100
AcDbSymbolTableRecord
100
AcDbLinetypeTableRecord
  2
DIVIDEX2
 70
0
  3
Divide (2x) ________  .  .  ________  .  .  _
 72
65
 73
6
 40
63.5
 49
25.3999999999999986
 74
0
 49
-12.6499999999999986
 74
0
 49
0.1
 74
0
 49
-12.5999999999999979
 74
0
 49
0.1
 74
0
 49
-12.6499999999999986
 74
0
  0
LTYPE
  5
3D
100
AcDbSymbolTableRecord
100
AcDbLinetypeTableRecord
  2
ACAD_ISO06W100
 70
0
  3
ISO long-dash triple-dot ____ ... ____ ... ____
 72
65
 73
8
 40
36.0000000000000071
 49
24.0
 74
0
 49
-2.9500000000000002
 74
0
 49
0.1
 74
0
 49
-2.9000000000000004
 74
0
 49
0.1
 74
0
 49
-2.9000000000000004
 74
0
 49
0.1
 74
0
 49
-2.9500000000000002
 74
0
  0
LTYPE
  5
3E
100
AcDbSymbolTableRecord
100
AcDbLinetypeTableRecord
  2
PHANTOM
 70
0
  3
Phantom ______  __  __  ______  __  __  ______ 
 72
65
 73
6
 40
63.5000000000000071
 49
31.75
 74
0
 49
-6.3499999999999996
 74
0
 49
6.3499999999999996
 74
0
 49
-6.3499999999999996
 74
0
 49
6.3499999999999996
 74
0
 49
-6.3499999999999996
 74
0
  0
LTYPE
  5
3F
100
AcDbSymbolTableRecord
100
AcDbLinetypeTableRecord
  2
ACAD_ISO08W100
 70
0
  3
ISO long-dash short-dash ____ __ ____ __ ____ _
 72
65
 73
4
 40
36.0
 49
24.0
 74
0
 49
-3.0
 74
0
 49
6.0
 74
0
 49
-3.0
 74
0
  0
LTYPE
  5
40
100
AcDbSymbolTableRecord
100
AcDbLinetypeTableRecord
  2
ACAD_ISO04W100
 70
0
  3
ISO long-dash dot ____ . ____ . ____ . ____ . _
 72
65
 73
4
 40
30.0
 49
24.0
 74
0
 49
-2.9500000000000002
 74
0
 49
0.1
 74
0
 49
-2.9500000000000002
 74
0
  0
LTYPE
  5
14
100
AcDbSymbolTableRecord
100
AcDbLinetypeTableRecord
  2
BYBLOCK
 70
0
  3

 72
65
 73
0
 40
0.0
  0
LTYPE
  5
41
100
AcDbSymbolTableRecord
100
AcDbLinetypeTableRecord
  2
DASHDOT2
 70
0
  3
Dash dot (.5x) _._._._._._._._._._._._._._._.
 72
65
 73
4
 40
12.6999999999999993
 49
6.3499999999999996
 74
0
 49
-3.125
 74
0
 49
0.1
 74
0
 49
-3.125
 74
0
  0
LTYPE
  5
42
100
AcDbSymbolTableRecord
100
AcDbLinetypeTableRecord
  2
ACAD_ISO03W100
 70
0
  3
ISO dash space __    __    __    __    __    __
 72
65
 73
2
 40
30.0
 49
12.0
 74
0
 49
-18.0
 74
0
  0
LTYPE
  5
43
100
AcDbSymbolTableRecord
100
AcDbLinetypeTableRecord
  2
ACAD_ISO13W100
 70
0
  3
ISO double-dash double-dot __ __ . . __ __ . . _
 72
65
 73
8
 40
36.0000000000000071
 49
12.0
 74
0
 49
-3.0
 74
0
 49
12.0
 74
0
 49
-2.9500000000000002
 74
0
 49
0.1
 74
0
 49
-2.9000000000000004
 74
0
 49
0.1
 74
0
 49
-2.9500000000000002
 74
0
  0
LTYPE
  5
44
100
AcDbSymbolTableRecord
100
AcDbLinetypeTableRecord
  2
ACAD_ISO05W100
 70
0
  3
ISO long-dash double-dot ____ .. ____ .. ____ . 
 72
65
 73
6
 40
33.0000000000000071
 49
24.0
 74
0
 49
-2.9500000000000002
 74
0
 49
0.1
 74
0
 49
-2.9000000000000004
 74
0
 49
0.1
 74
0
 49
-2.9500000000000002
 74
0
  0
LTYPE
  5
45
100
AcDbSymbolTableRecord
100
AcDbLinetypeTableRecord
  2
DASHED2
 70
0
  3
Dashed (.5x) _ _ _ _ _ _ _ _ _ _ _ _ _ _ _ _ _ 
 72
65
 73
2
 40
9.5249999999999986
 49
6.3499999999999996
 74
0
 49
-3.1749999999999998
 74
0
  0
LTYPE
  5
46
100
AcDbSymbolTableRecord
100
AcDbLinetypeTableRecord
  2
DASHEDX2
 70
0
  3
Dashed (2x) ____  ____  ____  ____  ____  ___
 72
65
 73
2
 40
38.0999999999999943
 49
25.3999999999999986
 74
0
 49
-12.6999999999999993
 74
0
  0
LTYPE
  5
47
100
AcDbSymbolTableRecord
100
AcDbLinetypeTableRecord
  2
DASHDOT
 70
0
  3
Dash dot __ . __ . __ . __ . __ . __ . __ . __
 72
65
 73
4
 40
25.4000000000000021
 49
12.6999999999999993
 74
0
 49
-6.2999999999999998
 74
0
 49
0.1
 74
0
 49
-6.2999999999999998
 74
0
  0
LTYPE
  5
48
100
AcDbSymbolTableRecord
100
AcDbLinetypeTableRecord
  2
HIDDENX2
 70
0
  3
Hidden (2x) ____ ____ ____ ____ ____ ____ ____ 
 72
65
 73
2
 40
19.0499999999999972
 49
12.6999999999999993
 74
0
 49
-6.3499999999999996
 74
0
  0
LTYPE
  5
49
100
AcDbSymbolTableRecord
100
AcDbLinetypeTableRecord
  2
DASHED
 70
0
  3
Dashed __ __ __ __ __ __ __ __ __ __ __ __ __ _
 72
65
 73
2
 40
19.0499999999999972
 49
12.6999999999999993
 74
0
 49
-6.3499999999999996
 74
0
  0
LTYPE
  5
4A
100
AcDbSymbolTableRecord
100
AcDbLinetypeTableRecord
  2
CENTERX2
 70
0
  3
Center (2x) ________  __  ________  __  _____
 72
65
 73
4
 40
101.6000000000000085
 49
63.5
 74
0
 49
-12.6999999999999993
 74
0
 49
12.6999999999999993
 74
0
 49
-12.6999999999999993
 74
0
  0
LTYPE
  5
4B
100
AcDbSymbolTableRecord
100
AcDbLinetypeTableRecord
  2
ACAD_ISO02W100
 70
0
  3
ISO dash __ __ __ __ __ __ __ __ __ __ __ __ __
 72
65
 73
2
 40
15.0
 49
12.0
 74
0
 49
-3.0
 74
0
  0
LTYPE
  5
4C
100
AcDbSymbolTableRecord
100
AcDbLinetypeTableRecord
  2
DIVIDE2
 70
0
  3
Divide (.5x) __..__..__..__..__..__..__..__.._
 72
65
 73
6
 40
15.8749999999999982
 49
6.3499999999999996
 74
0
 49
-3.125
 74
0
 49
0.1
 74
0
 49
-3.0750000000000002
 74
0
 49
0.1
 74
0
 49
-3.125
 74
0
  0
LTYPE
  5
4D
100
AcDbSymbolTableRecord
100
AcDbLinetypeTableRecord
  2
BORDER
 70
0
  3
Border __ __ . __ __ . __ __ . __ __ . __ __ .
 72
65
 73
6
 40
44.4499999999999957
 49
12.6999999999999993
 74
0
 49
-6.3499999999999996
 74
0
 49
12.6999999999999993
 74
0
 49
-6.2999999999999998
 74
0
 49
0.1
 74
0
 49
-6.2999999999999998
 74
0
  0
LTYPE
  5
4E
100
AcDbSymbolTableRecord
100
AcDbLinetypeTableRecord
  2
BORDER2
 70
0
  3
Border (.5x) __.__.__.__.__.__.__.__.__.__.__.
 72
65
 73
6
 40
22.2250000000000014
 49
6.3499999999999996
 74
0
 49
-3.1749999999999998
 74
0
 49
6.3499999999999996
 74
0
 49
-3.125
 74
0
 49
0.1
 74
0
 49
-3.125
 74
0
  0
LTYPE
  5
4F
100
AcDbSymbolTableRecord
100
AcDbLinetypeTableRecord
  2
DASHDOTX2
 70
0
  3
Dash dot (2x) ____  .  ____  .  ____  .  ___
 72
65
 73
4
 40
50.7999999999999972
 49
25.3999999999999986
 74
0
 49
-12.6499999999999986
 74
0
 49
0.1
 74
0
 49
-12.6499999999999986
 74
0
  0
LTYPE
  5
50
100
AcDbSymbolTableRecord
100
AcDbLinetypeTableRecord
  2
BORDERX2
 70
0
  3
Border (2x) ____  ____  .  ____  ____  .  ___
 72
65
 73
6
 40
88.8999999999999773
 49
25.3999999999999986
 74
0
 49
-12.6999999999999993
 74
0
 49
25.3999999999999986
 74
0
 49
-12.6499999999999986
 74
0
 49
0.1
 74
0
 49
-12.6499999999999986
 74
0
  0
LTYPE
  5
51
100
AcDbSymbolTableRecord
100
AcDbLinetypeTableRecord
  2
HIDDEN2
 70
0
  3
Hidden (.5x) _ _ _ _ _ _ _ _ _ _ _ _ _ _ _ _ _ 
 72
65
 73
2
 40
4.7624999999999993
 49
3.1749999999999998
 74
0
 49
-1.5874999999999999
 74
0
  0
LTYPE
  5
52
100
AcDbSymbolTableRecord
100
AcDbLinetypeTableRecord
  2
HIDDEN
 70
0
  3
Hidden __ __ __ __ __ __ __ __ __ __ __ __ __ __
 72
65
 73
2
 40
9.5249999999999986
 49
6.3499999999999996
 74
0
 49
-3.1749999999999998
 74
0
  0
LTYPE
  5
53
100
AcDbSymbolTableRecord
100
AcDbLinetypeTableRecord
  2
DOT
 70
0
  3
Dot . . . . . . . . . . . . . . . . . . . . . . . .
 72
65
 73
2
 40
6.3499999999999996
 49
0.1
 74
0
 49
-6.25
 74
0
  0
LTYPE
  5
54
100
AcDbSymbolTableRecord
100
AcDbLinetypeTableRecord
  2
ACAD_ISO11W100
 70
0
  3
ISO double-dash dot __ __ . __ __ . __ __ . __ _
 72
65
 73
6
 40
33.0
 49
12.0
 74
0
 49
-3.0
 74
0
 49
12.0
 74
0
 49
-2.9500000000000002
 74
0
 49
0.1
 74
0
 49
-2.9500000000000002
 74
0
  0
LTYPE
  5
55
100
AcDbSymbolTableRecord
100
AcDbLinetypeTableRecord
  2
CENTER
 70
0
  3
Center ____ _ ____ _ ____ _ ____ _ ____ _ ____
 72
65
 73
4
 40
50.8000000000000043
 49
31.75
 74
0
 49
-6.3499999999999996
 74
0
 49
6.3499999999999996
 74
0
 49
-6.3499999999999996
 74
0
  0
LTYPE
  5
15
100
AcDbSymbolTableRecord
100
AcDbLinetypeTableRecord
  2
BYLAYER
 70
0
  3

 72
65
 73
0
 40
0.0
  0
LTYPE
  5
56
100
AcDbSymbolTableRecord
100
AcDbLinetypeTableRecord
  2
ACAD_ISO10W100
 70
0
  3
ISO dash dot __ . __ . __ . __ . __ . __ . __ . 
 72
65
 73
4
 40
18.0
 49
12.0
 74
0
 49
-2.9500000000000002
 74
0
 49
0.1
 74
0
 49
-2.9500000000000002
 74
0
  0
ENDTAB
  0
TABLE
  2
LAYER
  5
2
100
AcDbSymbolTable
 70
1
  0
LAYER
  5
10
100
AcDbSymbolTableRecord
100
AcDbLayerTableRecord
  2
0
 70
0
 62
7
420
16777215
  6
CONTINUOUS
370
5
390
F
  0
ENDTAB
  0
TABLE
  2
STYLE
  5
3
100
AcDbSymbolTable
 70
1
  0
STYLE
  5
57
100
AcDbSymbolTableRecord
100
AcDbTextStyleTableRecord
  2
Standard
 70
0
 40
0.0
 41
1.0
 50
0.0
 71
0
 42
2.5
  3

  4

1001
ACAD
1000
txt
1071
0
  0
ENDTAB
  0
TABLE
  2
VIEW
  5
6
100
AcDbSymbolTable
 70
0
  0
ENDTAB
  0
TABLE
  2
UCS
  5
7
100
AcDbSymbolTable
 70
0
  0
ENDTAB
  0
TABLE
  2
APPID
  5
9
100
AcDbSymbolTable
 70
1
  0
APPID
  5
12
100
AcDbSymbolTableRecord
100
AcDbRegAppTableRecord
  2
ACAD
 70
0
  0
APPID
  5
58
100
AcDbSymbolTableRecord
100
AcDbRegAppTableRecord
  2
QCAD
 70
0
  0
ENDTAB
  0
TABLE
  2
DIMSTYLE
  5
A
100
AcDbSymbolTable
 70
1
100
AcDbDimStyleTable
 71
0
  0
DIMSTYLE
105
27
100
AcDbSymbolTableRecord
100
AcDbDimStyleTableRecord
  2
Standard
 41
0.18
 42
0.0625
 43
3.75
 44
0.18
 70
0
 73
0
 74
0
 77
1
 78
8
140
0.18
141
2.5
143
0.03937007874016
147
0.09
171
3
172
1
271
2
272
2
274
3
278
44
283
0
284
8
340
57
  0
ENDTAB
  0
TABLE
  2
BLOCK_RECORD
  5
1
100
AcDbSymbolTable
 70
1
  0
BLOCK_RECORD
  5
1F
100
AcDbSymbolTableRecord
100
AcDbBlockTableRecord
  2
*Model_Space
340
22
  0
BLOCK_RECORD
  5
1B
100
AcDbSymbolTableRecord
100
AcDbBlockTableRecord
  2
*Paper_Space
340
1E
  0
BLOCK_RECORD
  5
23
100
AcDbSymbolTableRecord
100
AcDbBlockTableRecord
  2
*Paper_Space0
340
26
  0
BLOCK_RECORD
  5
59
100
AcDbSymbolTableRecord
100
AcDbBlockTableRecord
  2
CUT003
340
0
  0
BLOCK_RECORD
  5
5A
100
AcDbSymbolTableRecord
100
AcDbBlockTableRecord
  2
ARRAY001
340
0
  0
BLOCK_RECORD
  5
5B
100
AcDbSymbolTableRecord
100
AcDbBlockTableRecord
  2
CUT004
340
0
  0
BLOCK_RECORD
  5
5C
100
AcDbSymbolTableRecord
100
AcDbBlockTableRecord
  2
ARRAY008
340
0
  0
BLOCK_RECORD
  5
5D
100
AcDbSymbolTableRecord
100
AcDbBlockTableRecord
  2
CUT005
340
0
  0
ENDTAB
  0
ENDSEC
  0
SECTION
  2
BLOCKS
  0
BLOCK
  5
20
100
AcDbEntity
  8
0
100
AcDbBlockBegin
  2
*Model_Space
 70
0
 10
0.0
 20
0.0
 30
0.0
  3
*Model_Space
  1

  0
ENDBLK
  5
21
100
AcDbEntity
  8
0
100
AcDbBlockEnd
  0
BLOCK
  5
1C
100
AcDbEntity
 67
1
  8
0
100
AcDbBlockBegin
  2
*Paper_Space
 70
0
 10
0.0
 20
0.0
 30
0.0
  3
*Paper_Space
  1

  0
ENDBLK
  5
1D
100
AcDbEntity
 67
1
  8
0
100
AcDbBlockEnd
  0
BLOCK
  5
24
100
AcDbEntity
  8
0
100
AcDbBlockBegin
  2
*Paper_Space0
 70
0
 10
0.0
 20
0.0
 30
0.0
  3
*Paper_Space0
  1

  0
ENDBLK
  5
25
100
AcDbEntity
  8
0
100
AcDbBlockEnd
  0
BLOCK
  5
5E
100
AcDbEntity
  8
0
100
AcDbBlockBegin
  2
CUT003
 70
0
 10
0.0
 20
0.0
 30
0.0
  3
CUT003
  1

  0
LWPOLYLINE
  5
5F
100
AcDbEntity
  8
0
 62
256
370
-1
 48
1.0
  6
BYLAYER
100
AcDbPolyline
 90
64
 70
1
 10
439.9792241029999786
 20
252.8096991349999882
 42
0.30836421534
 10
439.6999999999999886
 20
253.0
 10
430.3000000000000114
 20
253.0
 42
0.414213562373
 10
430.0
 20
252.6999999999999886
 10
430.0
 20
248.3000000000000114
 42
0.414213562373
 10
430.3000000000000114
 20
248.0
 10
439.6999999999999886
 20
248.0
 42
0.346953346208
 10
439.9917568160000201
 20
248.2301576019999914
 42
-0.192655489513
 10
386.3223549599999842
 20
117.651159664000005
 42
0.308364215333
 10
386.2594767350000211
 20
117.9831639519999982
 10
379.6126729910000108
 20
124.6299676959999942
 42
0.414213562373
 10
379.1884089229999972
 20
124.6299676959999942
 10
376.0771390859999883
 20
121.5186978579999959
 42
0.414213562373
 10
376.0771390859999883
 20
121.0944337899999965
 10
382.7239428290000092
 20
114.4476300470000041
 42
0.346953346202
 10
383.092992052999989
 20
114.4040728250000001
 42
-0.192655489513
 10
252.8096991349999882
 20
60.020775897
 42
0.30836421534
 10
253.0
 20
60.2999999999999972
 10
253.0
 20
69.7000000000000028
 42
0.414213562373
 10
252.6999999999999886
 20
70.0
 10
248.3000000000000114
 20
70.0
 42
0.414213562373
 10
248.0
 20
69.7000000000000028
 10
248.0
 20
60.2999999999999972
 42
0.346953346208
 10
248.2301576019999914
 20
60.0082431844000013
 42
-0.192655489513
 10
117.651159664000005
 20
113.6776450400000016
 42
0.308364215333
 10
117.9831639519999982
 20
113.7405232649999931
 10
124.6299676959999942
 20
120.3873270090000034
 42
0.414213562373
 10
124.6299676959999942
 20
120.8115910770000028
 10
121.5186978579999959
 20
123.9228609139999975
 42
0.414213562373
 10
121.0944337899999965
 20
123.9228609139999975
 10
114.4476300470000041
 20
117.276057171000005
 42
0.346953346202
 10
114.4040728250000001
 20
116.9070079469999968
 42
-0.192655489513
 10
60.020775897
 20
247.1903008650000118
 42
0.30836421534
 10
60.2999999999999972
 20
247.0
 10
69.7000000000000028
 20
247.0
 42
0.414213562373
 10
70.0
 20
247.3000000000000114
 10
70.0
 20
251.6999999999999886
 42
0.414213562373
 10
69.7000000000000028
 20
252.0
 10
60.2999999999999972
 20
252.0
 42
0.346953346207
 10
60.0082431844000013
 20
251.7698423980000086
 42
-0.192655489513
 10
113.6776450400000016
 20
382.3488403360000234
 42
0.308364215334
 10
113.7405232649999931
 20
382.016836048000016
 10
120.3873270090000034
 20
375.3700323040000058
 42
0.414213562373
 10
120.8115910770000028
 20
375.3700323040000058
 10
123.9228609139999975
 20
378.4813021420000041
 42
0.414213562373
 10
123.9228609139999975
 20
378.9055662100000177
 10
117.276057171000005
 20
385.5523699529999817
 42
0.346953346202
 10
116.9070079469999968
 20
385.5959271749999857
 42
-0.192655489513
 10
247.1903008650000118
 20
439.9792241029999786
 42
0.30836421534
 10
247.0
 20
439.6999999999999886
 10
247.0
 20
430.3000000000000114
 42
0.414213562373
 10
247.3000000000000114
 20
430.0
 10
251.6999999999999886
 20
430.0
 42
0.414213562373
 10
252.0
 20
430.3000000000000114
 10
252.0
 20
439.6999999999999886
 42
0.346953346207
 10
251.7698423980000086
 20
439.9917568160000201
 42
-0.192655489513
 10
382.3488403360000234
 20
386.3223549599999842
 42
0.308364215333
 10
382.016836048000016
 20
386.2594767350000211
 10
375.3700323040000058
 20
379.6126729910000108
 42
0.414213562373
 10
375.3700323040000058
 20
379.1884089229999972
 10
378.4813021420000041
 20
376.0771390859999883
 42
0.414213562373
 10
378.9055662100000177
 20
376.0771390859999883
 10
385.5523699529999817
 20
382.7239428290000092
 42
0.346953346202
 10
385.5959271749999857
 20
383.092992052999989
 42
-0.192655489513
  0
CIRCLE
  5
60
100
AcDbEntity
  8
0
 62
0
370
-1
 48
1.0
  6
BYLAYER
100
AcDbCircle
 10
250.0
 20
250.0
 30
0.0
 40
165.0
  0
ENDBLK
  5
61
100
AcDbEntity
  8
0
100
AcDbBlockEnd
  0
BLOCK
  5
62
100
AcDbEntity
  8
0
100
AcDbBlockBegin
  2
ARRAY001
 70
0
 10
0.0
 20
0.0
 30
0.0
  3
ARRAY001
  1

  0
LWPOLYLINE
  5
63
100
AcDbEntity
  8
0
 62
256
370
-1
 48
1.0
  6
BYLAYER
100
AcDbPolyline
 90
8
 70
1
 10
523.5962402339999926
 20
139.4990844730000106
 42
0.414213562373
 10
523.2962402340000381
 20
139.1990844729999992
 10
523.2962402340000381
 20
21.7990844730000006
 42
0.414213562373
 10
523.5962402339999926
 20
21.4990844729999999
 10
632.9962402339999699
 20
21.4990844729999999
 42
0.414213562373
 10
633.2962402340000381
 20
21.7990844730000006
 10
633.2962402340000381
 20
139.1990844729999992
 42
0.414213562373
 10
632.9962402339999699
 20
139.4990844730000106
  0
CIRCLE
  5
64
100
AcDbEntity
  8
0
 62
0
370
-1
 48
1.0
  6
BYLAYER
100
AcDbCircle
 10
598.2962402340000381
 20
119.4990844729999964
 30
0.0
 40
2.0
  0
CIRCLE
  5
65
100
AcDbEntity
  8
0
 62
0
370
-1
 48
1.0
  6
BYLAYER
100
AcDbCircle
 10
598.2962402340000381
 20
105.4990844729999964
 30
0.0
 40
2.0
  0
CIRCLE
  5
66
100
AcDbEntity
  8
0
 62
0
370
-1
 48
1.0
  6
BYLAYER
100
AcDbCircle
 10
598.2962402340000381
 20
91.4990844729999964
 30
0.0
 40
2.0
  0
CIRCLE
  5
67
100
AcDbEntity
  8
0
 62
0
370
-1
 48
1.0
  6
BYLAYER
100
AcDbCircle
 10
558.2962402340000381
 20
105.4990844729999964
 30
0.0
 40
2.0
  0
CIRCLE
  5
68
100
AcDbEntity
  8
0
 62
0
370
-1
 48
1.0
  6
BYLAYER
100
AcDbCircle
 10
558.2962402340000381
 20
119.4990844729999964
 30
0.0
 40
2.0
  0
CIRCLE
  5
69
100
AcDbEntity
  8
0
 62
0
370
-1
 48
1.0
  6
BYLAYER
100
AcDbCircle
 10
558.2962402340000381
 20
49.4990844730000035
 30
0.0
 40
2.0
  0
CIRCLE
  5
6A
100
AcDbEntity
  8
0
 62
0
370
-1
 48
1.0
  6
BYLAYER
100
AcDbCircle
 10
558.2962402340000381
 20
63.4990844730000035
 30
0.0
 40
2.0
  0
CIRCLE
  5
6B
100
AcDbEntity
  8
0
 62
0
370
-1
 48
1.0
  6
BYLAYER
100
AcDbCircle
 10
558.2962402340000381
 20
91.4990844729999964
 30
0.0
 40
2.0
  0
CIRCLE
  5
6C
100
AcDbEntity
  8
0
 62
0
370
-1
 48
1.0
  6
BYLAYER
100
AcDbCircle
 10
558.2962402340000381
 20
77.4990844729999964
 30
0.0
 40
2.0
  0
CIRCLE
  5
6D
100
AcDbEntity
  8
0
 62
0
370
-1
 48
1.0
  6
BYLAYER
100
AcDbCircle
 10
598.2962402340000381
 20
49.4990844730000035
 30
0.0
 40
2.0
  0
CIRCLE
  5
6E
100
AcDbEntity
  8
0
 62
0
370
-1
 48
1.0
  6
BYLAYER
100
AcDbCircle
 10
598.2962402340000381
 20
77.4990844729999964
 30
0.0
 40
2.0
  0
CIRCLE
  5
6F
100
AcDbEntity
  8
0
 62
0
370
-1
 48
1.0
  6
BYLAYER
100
AcDbCircle
 10
534.2962402340000381
 20
56.4990844730000035
 30
0.0
 40
2.0
  0
CIRCLE
  5
70
100
AcDbEntity
  8
0
 62
0
370
-1
 48
1.0
  6
BYLAYER
100
AcDbCircle
 10
534.2962402340000381
 20
70.4990844729999964
 30
0.0
 40
2.0
  0
CIRCLE
  5
71
100
AcDbEntity
  8
0
 62
0
370
-1
 48
1.0
  6
BYLAYER
100
AcDbCircle
 10
534.2962402340000381
 20
98.4990844729999964
 30
0.0
 40
2.0
  0
CIRCLE
  5
72
100
AcDbEntity
  8
0
 62
0
370
-1
 48
1.0
  6
BYLAYER
100
AcDbCircle
 10
534.2962402340000381
 20
112.4990844729999964
 30
0.0
 40
2.0
  0
CIRCLE
  5
73
100
AcDbEntity
  8
0
 62
0
370
-1
 48
1.0
  6
BYLAYER
100
AcDbCircle
 10
622.2962402340000381
 20
112.4990844729999964
 30
0.0
 40
2.0
  0
CIRCLE
  5
74
100
AcDbEntity
  8
0
 62
0
370
-1
 48
1.0
  6
BYLAYER
100
AcDbCircle
 10
622.2962402340000381
 20
98.4990844729999964
 30
0.0
 40
2.0
  0
CIRCLE
  5
75
100
AcDbEntity
  8
0
 62
0
370
-1
 48
1.0
  6
BYLAYER
100
AcDbCircle
 10
622.2962402340000381
 20
42.4990844730000035
 30
0.0
 40
2.0
  0
CIRCLE
  5
76
100
AcDbEntity
  8
0
 62
0
370
-1
 48
1.0
  6
BYLAYER
100
AcDbCircle
 10
622.2962402340000381
 20
56.4990844730000035
 30
0.0
 40
2.0
  0
CIRCLE
  5
77
100
AcDbEntity
  8
0
 62
0
370
-1
 48
1.0
  6
BYLAYER
100
AcDbCircle
 10
622.2962402340000381
 20
84.4990844729999964
 30
0.0
 40
2.0
  0
CIRCLE
  5
78
100
AcDbEntity
  8
0
 62
0
370
-1
 48
1.0
  6
BYLAYER
100
AcDbCircle
 10
622.2962402340000381
 20
70.4990844729999964
 30
0.0
 40
2.0
  0
CIRCLE
  5
79
100
AcDbEntity
  8
0
 62
0
370
-1
 48
1.0
  6
BYLAYER
100
AcDbCircle
 10
598.2962402340000381
 20
63.4990844730000035
 30
0.0
 40
2.0
  0
CIRCLE
  5
7A
100
AcDbEntity
  8
0
 62
0
370
-1
 48
1.0
  6
BYLAYER
100
AcDbCircle
 10
534.2962402340000381
 20
42.4990844730000035
 30
0.0
 40
2.0
  0
CIRCLE
  5
7B
100
AcDbEntity
  8
0
 62
0
370
-1
 48
1.0
  6
BYLAYER
100
AcDbCircle
 10
534.2962402340000381
 20
84.4990844729999964
 30
0.0
 40
2.0
  0
CIRCLE
  5
7C
100
AcDbEntity
  8
0
 62
0
370
-1
 48
1.0
  6
BYLAYER
100
AcDbCircle
 10
558.2962402340000381
 20
35.4990844730000035
 30
0.0
 40
2.0
  0
CIRCLE
  5
7D
100
AcDbEntity
  8
0
 62
0
370
-1
 48
1.0
  6
BYLAYER
100
AcDbCircle
 10
598.2962402340000381
 20
35.4990844730000035
 30
0.0
 40
2.0
  0
CIRCLE
  5
7E
100
AcDbEntity
  8
0
 62
0
370
-1
 48
1.0
  6
BYLAYER
100
AcDbCircle
 10
622.2962402340000381
 20
28.4990844729999999
 30
0.0
 40
2.0
  0
CIRCLE
  5
7F
100
AcDbEntity
  8
0
 62
0
370
-1
 48
1.0
  6
BYLAYER
100
AcDbCircle
 10
534.2962402340000381
 20
28.4990844729999999
 30
0.0
 40
2.0
  0
CIRCLE
  5
80
100
AcDbEntity
  8
0
 62
0
370
-1
 48
1.0
  6
BYLAYER
100
AcDbCircle
 10
598.2962402340000381
 20
133.4990844730000106
 30
0.0
 40
2.0
  0
CIRCLE
  5
81
100
AcDbEntity
  8
0
 62
0
370
-1
 48
1.0
  6
BYLAYER
100
AcDbCircle
 10
534.2962402340000381
 20
126.4990844729999964
 30
0.0
 40
2.0
  0
CIRCLE
  5
82
100
AcDbEntity
  8
0
 62
0
370
-1
 48
1.0
  6
BYLAYER
100
AcDbCircle
 10
558.2962402340000381
 20
133.4990844730000106
 30
0.0
 40
2.0
  0
CIRCLE
  5
83
100
AcDbEntity
  8
0
 62
0
370
-1
 48
1.0
  6
BYLAYER
100
AcDbCircle
 10
622.2962402340000381
 20
126.4990844729999964
 30
0.0
 40
2.0
  0
LWPOLYLINE
  5
84
100
AcDbEntity
  8
0
 62
256
370
-1
 48
1.0
  6
BYLAYER
100
AcDbPolyline
 90
8
 70
1
 10
638.5962402339999926
 20
139.4990844730000106
 42
0.414213562373
 10
638.2962402340000381
 20
139.1990844729999992
 10
638.2962402340000381
 20
21.7990844730000006
 42
0.414213562373
 10
638.5962402339999926
 20
21.4990844729999999
 10
747.9962402339999699
 20
21.4990844729999999
 42
0.414213562373
 10
748.2962402340000381
 20
21.7990844730000006
 10
748.2962402340000381
 20
139.1990844729999992
 42
0.414213562373
 10
747.9962402339999699
 20
139.4990844730000106
  0
CIRCLE
  5
85
100
AcDbEntity
  8
0
 62
0
370
-1
 48
1.0
  6
BYLAYER
100
AcDbCircle
 10
713.2962402340000381
 20
119.4990844729999964
 30
0.0
 40
2.0
  0
CIRCLE
  5
86
100
AcDbEntity
  8
0
 62
0
370
-1
 48
1.0
  6
BYLAYER
100
AcDbCircle
 10
713.2962402340000381
 20
105.4990844729999964
 30
0.0
 40
2.0
  0
CIRCLE
  5
87
100
AcDbEntity
  8
0
 62
0
370
-1
 48
1.0
  6
BYLAYER
100
AcDbCircle
 10
713.2962402340000381
 20
91.4990844729999964
 30
0.0
 40
2.0
  0
CIRCLE
  5
88
100
AcDbEntity
  8
0
 62
0
370
-1
 48
1.0
  6
BYLAYER
100
AcDbCircle
 10
673.2962402340000381
 20
105.4990844729999964
 30
0.0
 40
2.0
  0
CIRCLE
  5
89
100
AcDbEntity
  8
0
 62
0
370
-1
 48
1.0
  6
BYLAYER
100
AcDbCircle
 10
673.2962402340000381
 20
119.4990844729999964
 30
0.0
 40
2.0
  0
CIRCLE
  5
8A
100
AcDbEntity
  8
0
 62
0
370
-1
 48
1.0
  6
BYLAYER
100
AcDbCircle
 10
673.2962402340000381
 20
49.4990844730000035
 30
0.0
 40
2.0
  0
CIRCLE
  5
8B
100
AcDbEntity
  8
0
 62
0
370
-1
 48
1.0
  6
BYLAYER
100
AcDbCircle
 10
673.2962402340000381
 20
63.4990844730000035
 30
0.0
 40
2.0
  0
CIRCLE
  5
8C
100
AcDbEntity
  8
0
 62
0
370
-1
 48
1.0
  6
BYLAYER
100
AcDbCircle
 10
673.2962402340000381
 20
91.4990844729999964
 30
0.0
 40
2.0
  0
CIRCLE
  5
8D
100
AcDbEntity
  8
0
 62
0
370
-1
 48
1.0
  6
BYLAYER
100
AcDbCircle
 10
673.2962402340000381
 20
77.4990844729999964
 30
0.0
 40
2.0
  0
CIRCLE
  5
8E
100
AcDbEntity
  8
0
 62
0
370
-1
 48
1.0
  6
BYLAYER
100
AcDbCircle
 10
713.2962402340000381
 20
49.4990844730000035
 30
0.0
 40
2.0
  0
CIRCLE
  5
8F
100
AcDbEntity
  8
0
 62
0
370
-1
 48
1.0
  6
BYLAYER
100
AcDbCircle
 10
713.2962402340000381
 20
77.4990844729999964
 30
0.0
 40
2.0
  0
CIRCLE
  5
90
100
AcDbEntity
  8
0
 62
0
370
-1
 48
1.0
  6
BYLAYER
100
AcDbCircle
 10
649.2962402340000381
 20
56.4990844730000035
 30
0.0
 40
2.0
  0
CIRCLE
  5
91
100
AcDbEntity
  8
0
 62
0
370
-1
 48
1.0
  6
BYLAYER
100
AcDbCircle
 10
649.2962402340000381
 20
70.4990844729999964
 30
0.0
 40
2.0
  0
CIRCLE
  5
92
100
AcDbEntity
  8
0
 62
0
370
-1
 48
1.0
  6
BYLAYER
100
AcDbCircle
 10
649.2962402340000381
 20
98.4990844729999964
 30
0.0
 40
2.0
  0
CIRCLE
  5
93
100
AcDbEntity
  8
0
 62
0
370
-1
 48
1.0
  6
BYLAYER
100
AcDbCircle
 10
649.2962402340000381
 20
112.4990844729999964
 30
0.0
 40
2.0
  0
CIRCLE
  5
94
100
AcDbEntity
  8
0
 62
0
370
-1
 48
1.0
  6
BYLAYER
100
AcDbCircle
 10
737.2962402340000381
 20
112.4990844729999964
 30
0.0
 40
2.0
  0
CIRCLE
  5
95
100
AcDbEntity
  8
0
 62
0
370
-1
 48
1.0
  6
BYLAYER
100
AcDbCircle
 10
737.2962402340000381
 20
98.4990844729999964
 30
0.0
 40
2.0
  0
CIRCLE
  5
96
100
AcDbEntity
  8
0
 62
0
370
-1
 48
1.0
  6
BYLAYER
100
AcDbCircle
 10
737.2962402340000381
 20
42.4990844730000035
 30
0.0
 40
2.0
  0
CIRCLE
  5
97
100
AcDbEntity
  8
0
 62
0
370
-1
 48
1.0
  6
BYLAYER
100
AcDbCircle
 10
737.2962402340000381
 20
56.4990844730000035
 30
0.0
 40
2.0
  0
CIRCLE
  5
98
100
AcDbEntity
  8
0
 62
0
370
-1
 48
1.0
  6
BYLAYER
100
AcDbCircle
 10
737.2962402340000381
 20
84.4990844729999964
 30
0.0
 40
2.0
  0
CIRCLE
  5
99
100
AcDbEntity
  8
0
 62
0
370
-1
 48
1.0
  6
BYLAYER
100
AcDbCircle
 10
737.2962402340000381
 20
70.4990844729999964
 30
0.0
 40
2.0
  0
CIRCLE
  5
9A
100
AcDbEntity
  8
0
 62
0
370
-1
 48
1.0
  6
BYLAYER
100
AcDbCircle
 10
713.2962402340000381
 20
63.4990844730000035
 30
0.0
 40
2.0
  0
CIRCLE
  5
9B
100
AcDbEntity
  8
0
 62
0
370
-1
 48
1.0
  6
BYLAYER
100
AcDbCircle
 10
649.2962402340000381
 20
42.4990844730000035
 30
0.0
 40
2.0
  0
CIRCLE
  5
9C
100
AcDbEntity
  8
0
 62
0
370
-1
 48
1.0
  6
BYLAYER
100
AcDbCircle
 10
649.2962402340000381
 20
84.4990844729999964
 30
0.0
 40
2.0
  0
CIRCLE
  5
9D
100
AcDbEntity
  8
0
 62
0
370
-1
 48
1.0
  6
BYLAYER
100
AcDbCircle
 10
673.2962402340000381
 20
35.4990844730000035
 30
0.0
 40
2.0
  0
CIRCLE
  5
9E
100
AcDbEntity
  8
0
 62
0
370
-1
 48
1.0
  6
BYLAYER
100
AcDbCircle
 10
713.2962402340000381
 20
35.4990844730000035
 30
0.0
 40
2.0
  0
CIRCLE
  5
9F
100
AcDbEntity
  8
0
 62
0
370
-1
 48
1.0
  6
BYLAYER
100
AcDbCircle
 10
737.2962402340000381
 20
28.4990844729999999
 30
0.0
 40
2.0
  0
CIRCLE
  5
A0
100
AcDbEntity
  8
0
 62
0
370
-1
 48
1.0
  6
BYLAYER
100
AcDbCircle
 10
649.2962402340000381
 20
28.4990844729999999
 30
0.0
 40
2.0
  0
CIRCLE
  5
A1
100
AcDbEntity
  8
0
 62
0
370
-1
 48
1.0
  6
BYLAYER
100
AcDbCircle
 10
713.2962402340000381
 20
133.4990844730000106
 30
0.0
 40
2.0
  0
CIRCLE
  5
A2
100
AcDbEntity
  8
0
 62
0
370
-1
 48
1.0
  6
BYLAYER
100
AcDbCircle
 10
649.2962402340000381
 20
126.4990844729999964
 30
0.0
 40
2.0
  0
CIRCLE
  5
A3
100
AcDbEntity
  8
0
 62
0
370
-1
 48
1.0
  6
BYLAYER
100
AcDbCircle
 10
673.2962402340000381
 20
133.4990844730000106
 30
0.0
 40
2.0
  0
CIRCLE
  5
A4
100
AcDbEntity
  8
0
 62
0
370
-1
 48
1.0
  6
BYLAYER
100
AcDbCircle
 10
737.2962402340000381
 20
126.4990844729999964
 30
0.0
 40
2.0
  0
LWPOLYLINE
  5
A5
100
AcDbEntity
  8
0
 62
256
370
-1
 48
1.0
  6
BYLAYER
100
AcDbPolyline
 90
8
 70
1
 10
753.5962402339999926
 20
139.4990844730000106
 42
0.414213562373
 10
753.2962402340000381
 20
139.1990844729999992
 10
753.2962402340000381
 20
21.7990844730000006
 42
0.414213562373
 10
753.5962402339999926
 20
21.4990844729999999
 10
862.9962402339999699
 20
21.4990844729999999
 42
0.414213562373
 10
863.2962402340000381
 20
21.7990844730000006
 10
863.2962402340000381
 20
139.1990844729999992
 42
0.414213562373
 10
862.9962402339999699
 20
139.4990844730000106
  0
CIRCLE
  5
A6
100
AcDbEntity
  8
0
 62
0
370
-1
 48
1.0
  6
BYLAYER
100
AcDbCircle
 10
828.2962402340000381
 20
119.4990844729999964
 30
0.0
 40
2.0
  0
CIRCLE
  5
A7
100
AcDbEntity
  8
0
 62
0
370
-1
 48
1.0
  6
BYLAYER
100
AcDbCircle
 10
828.2962402340000381
 20
105.4990844729999964
 30
0.0
 40
2.0
  0
CIRCLE
  5
A8
100
AcDbEntity
  8
0
 62
0
370
-1
 48
1.0
  6
BYLAYER
100
AcDbCircle
 10
828.2962402340000381
 20
91.4990844729999964
 30
0.0
 40
2.0
  0
CIRCLE
  5
A9
100
AcDbEntity
  8
0
 62
0
370
-1
 48
1.0
  6
BYLAYER
100
AcDbCircle
 10
788.2962402340000381
 20
105.4990844729999964
 30
0.0
 40
2.0
  0
CIRCLE
  5
AA
100
AcDbEntity
  8
0
 62
0
370
-1
 48
1.0
  6
BYLAYER
100
AcDbCircle
 10
788.2962402340000381
 20
119.4990844729999964
 30
0.0
 40
2.0
  0
CIRCLE
  5
AB
100
AcDbEntity
  8
0
 62
0
370
-1
 48
1.0
  6
BYLAYER
100
AcDbCircle
 10
788.2962402340000381
 20
49.4990844730000035
 30
0.0
 40
2.0
  0
CIRCLE
  5
AC
100
AcDbEntity
  8
0
 62
0
370
-1
 48
1.0
  6
BYLAYER
100
AcDbCircle
 10
788.2962402340000381
 20
63.4990844730000035
 30
0.0
 40
2.0
  0
CIRCLE
  5
AD
100
AcDbEntity
  8
0
 62
0
370
-1
 48
1.0
  6
BYLAYER
100
AcDbCircle
 10
788.2962402340000381
 20
91.4990844729999964
 30
0.0
 40
2.0
  0
CIRCLE
  5
AE
100
AcDbEntity
  8
0
 62
0
370
-1
 48
1.0
  6
BYLAYER
100
AcDbCircle
 10
788.2962402340000381
 20
77.4990844729999964
 30
0.0
 40
2.0
  0
CIRCLE
  5
AF
100
AcDbEntity
  8
0
 62
0
370
-1
 48
1.0
  6
BYLAYER
100
AcDbCircle
 10
828.2962402340000381
 20
49.4990844730000035
 30
0.0
 40
2.0
  0
CIRCLE
  5
B0
100
AcDbEntity
  8
0
 62
0
370
-1
 48
1.0
  6
BYLAYER
100
AcDbCircle
 10
828.2962402340000381
 20
77.4990844729999964
 30
0.0
 40
2.0
  0
CIRCLE
  5
B1
100
AcDbEntity
  8
0
 62
0
370
-1
 48
1.0
  6
BYLAYER
100
AcDbCircle
 10
764.2962402340000381
 20
56.4990844730000035
 30
0.0
 40
2.0
  0
CIRCLE
  5
B2
100
AcDbEntity
  8
0
 62
0
370
-1
 48
1.0
  6
BYLAYER
100
AcDbCircle
 10
764.2962402340000381
 20
70.4990844729999964
 30
0.0
 40
2.0
  0
CIRCLE
  5
B3
100
AcDbEntity
  8
0
 62
0
370
-1
 48
1.0
  6
BYLAYER
100
AcDbCircle
 10
764.2962402340000381
 20
98.4990844729999964
 30
0.0
 40
2.0
  0
CIRCLE
  5
B4
100
AcDbEntity
  8
0
 62
0
370
-1
 48
1.0
  6
BYLAYER
100
AcDbCircle
 10
764.2962402340000381
 20
112.4990844729999964
 30
0.0
 40
2.0
  0
CIRCLE
  5
B5
100
AcDbEntity
  8
0
 62
0
370
-1
 48
1.0
  6
BYLAYER
100
AcDbCircle
 10
852.2962402340000381
 20
112.4990844729999964
 30
0.0
 40
2.0
  0
CIRCLE
  5
B6
100
AcDbEntity
  8
0
 62
0
370
-1
 48
1.0
  6
BYLAYER
100
AcDbCircle
 10
852.2962402340000381
 20
98.4990844729999964
 30
0.0
 40
2.0
  0
CIRCLE
  5
B7
100
AcDbEntity
  8
0
 62
0
370
-1
 48
1.0
  6
BYLAYER
100
AcDbCircle
 10
852.2962402340000381
 20
42.4990844730000035
 30
0.0
 40
2.0
  0
CIRCLE
  5
B8
100
AcDbEntity
  8
0
 62
0
370
-1
 48
1.0
  6
BYLAYER
100
AcDbCircle
 10
852.2962402340000381
 20
56.4990844730000035
 30
0.0
 40
2.0
  0
CIRCLE
  5
B9
100
AcDbEntity
  8
0
 62
0
370
-1
 48
1.0
  6
BYLAYER
100
AcDbCircle
 10
852.2962402340000381
 20
84.4990844729999964
 30
0.0
 40
2.0
  0
CIRCLE
  5
BA
100
AcDbEntity
  8
0
 62
0
370
-1
 48
1.0
  6
BYLAYER
100
AcDbCircle
 10
852.2962402340000381
 20
70.4990844729999964
 30
0.0
 40
2.0
  0
CIRCLE
  5
BB
100
AcDbEntity
  8
0
 62
0
370
-1
 48
1.0
  6
BYLAYER
100
AcDbCircle
 10
828.2962402340000381
 20
63.4990844730000035
 30
0.0
 40
2.0
  0
CIRCLE
  5
BC
100
AcDbEntity
  8
0
 62
0
370
-1
 48
1.0
  6
BYLAYER
100
AcDbCircle
 10
764.2962402340000381
 20
42.4990844730000035
 30
0.0
 40
2.0
  0
CIRCLE
  5
BD
100
AcDbEntity
  8
0
 62
0
370
-1
 48
1.0
  6
BYLAYER
100
AcDbCircle
 10
764.2962402340000381
 20
84.4990844729999964
 30
0.0
 40
2.0
  0
CIRCLE
  5
BE
100
AcDbEntity
  8
0
 62
0
370
-1
 48
1.0
  6
BYLAYER
100
AcDbCircle
 10
788.2962402340000381
 20
35.4990844730000035
 30
0.0
 40
2.0
  0
CIRCLE
  5
BF
100
AcDbEntity
  8
0
 62
0
370
-1
 48
1.0
  6
BYLAYER
100
AcDbCircle
 10
828.2962402340000381
 20
35.4990844730000035
 30
0.0
 40
2.0
  0
CIRCLE
  5
C0
100
AcDbEntity
  8
0
 62
0
370
-1
 48
1.0
  6
BYLAYER
100
AcDbCircle
 10
852.2962402340000381
 20
28.4990844729999999
 30
0.0
 40
2.0
  0
CIRCLE
  5
C1
100
AcDbEntity
  8
0
 62
0
370
-1
 48
1.0
  6
BYLAYER
100
AcDbCircle
 10
764.2962402340000381
 20
28.4990844729999999
 30
0.0
 40
2.0
  0
CIRCLE
  5
C2
100
AcDbEntity
  8
0
 62
0
370
-1
 48
1.0
  6
BYLAYER
100
AcDbCircle
 10
828.2962402340000381
 20
133.4990844730000106
 30
0.0
 40
2.0
  0
CIRCLE
  5
C3
100
AcDbEntity
  8
0
 62
0
370
-1
 48
1.0
  6
BYLAYER
100
AcDbCircle
 10
764.2962402340000381
 20
126.4990844729999964
 30
0.0
 40
2.0
  0
CIRCLE
  5
C4
100
AcDbEntity
  8
0
 62
0
370
-1
 48
1.0
  6
BYLAYER
100
AcDbCircle
 10
788.2962402340000381
 20
133.4990844730000106
 30
0.0
 40
2.0
  0
CIRCLE
  5
C5
100
AcDbEntity
  8
0
 62
0
370
-1
 48
1.0
  6
BYLAYER
100
AcDbCircle
 10
852.2962402340000381
 20
126.4990844729999964
 30
0.0
 40
2.0
  0
LWPOLYLINE
  5
C6
100
AcDbEntity
  8
0
 62
256
370
-1
 48
1.0
  6
BYLAYER
100
AcDbPolyline
 90
8
 70
1
 10
868.5962402339999926
 20
139.4990844730000106
 42
0.414213562373
 10
868.2962402340000381
 20
139.1990844729999992
 10
868.2962402340000381
 20
21.7990844730000006
 42
0.414213562373
 10
868.5962402339999926
 20
21.4990844729999999
 10
977.9962402339999699
 20
21.4990844729999999
 42
0.414213562373
 10
978.2962402340000381
 20
21.7990844730000006
 10
978.2962402340000381
 20
139.1990844729999992
 42
0.414213562373
 10
977.9962402339999699
 20
139.4990844730000106
  0
CIRCLE
  5
C7
100
AcDbEntity
  8
0
 62
0
370
-1
 48
1.0
  6
BYLAYER
100
AcDbCircle
 10
943.2962402340000381
 20
119.4990844729999964
 30
0.0
 40
2.0
  0
CIRCLE
  5
C8
100
AcDbEntity
  8
0
 62
0
370
-1
 48
1.0
  6
BYLAYER
100
AcDbCircle
 10
943.2962402340000381
 20
105.4990844729999964
 30
0.0
 40
2.0
  0
CIRCLE
  5
C9
100
AcDbEntity
  8
0
 62
0
370
-1
 48
1.0
  6
BYLAYER
100
AcDbCircle
 10
943.2962402340000381
 20
91.4990844729999964
 30
0.0
 40
2.0
  0
CIRCLE
  5
CA
100
AcDbEntity
  8
0
 62
0
370
-1
 48
1.0
  6
BYLAYER
100
AcDbCircle
 10
903.2962402340000381
 20
105.4990844729999964
 30
0.0
 40
2.0
  0
CIRCLE
  5
CB
100
AcDbEntity
  8
0
 62
0
370
-1
 48
1.0
  6
BYLAYER
100
AcDbCircle
 10
903.2962402340000381
 20
119.4990844729999964
 30
0.0
 40
2.0
  0
CIRCLE
  5
CC
100
AcDbEntity
  8
0
 62
0
370
-1
 48
1.0
  6
BYLAYER
100
AcDbCircle
 10
903.2962402340000381
 20
49.4990844730000035
 30
0.0
 40
2.0
  0
CIRCLE
  5
CD
100
AcDbEntity
  8
0
 62
0
370
-1
 48
1.0
  6
BYLAYER
100
AcDbCircle
 10
903.2962402340000381
 20
63.4990844730000035
 30
0.0
 40
2.0
  0
CIRCLE
  5
CE
100
AcDbEntity
  8
0
 62
0
370
-1
 48
1.0
  6
BYLAYER
100
AcDbCircle
 10
903.2962402340000381
 20
91.4990844729999964
 30
0.0
 40
2.0
  0
CIRCLE
  5
CF
100
AcDbEntity
  8
0
 62
0
370
-1
 48
1.0
  6
BYLAYER
100
AcDbCircle
 10
903.2962402340000381
 20
77.4990844729999964
 30
0.0
 40
2.0
  0
CIRCLE
  5
D0
100
AcDbEntity
  8
0
 62
0
370
-1
 48
1.0
  6
BYLAYER
100
AcDbCircle
 10
943.2962402340000381
 20
49.4990844730000035
 30
0.0
 40
2.0
  0
CIRCLE
  5
D1
100
AcDbEntity
  8
0
 62
0
370
-1
 48
1.0
  6
BYLAYER
100
AcDbCircle
 10
943.2962402340000381
 20
77.4990844729999964
 30
0.0
 40
2.0
  0
CIRCLE
  5
D2
100
AcDbEntity
  8
0
 62
0
370
-1
 48
1.0
  6
BYLAYER
100
AcDbCircle
 10
879.2962402340000381
 20
56.4990844730000035
 30
0.0
 40
2.0
  0
CIRCLE
  5
D3
100
AcDbEntity
  8
0
 62
0
370
-1
 48
1.0
  6
BYLAYER
100
AcDbCircle
 10
879.2962402340000381
 20
70.4990844729999964
 30
0.0
 40
2.0
  0
CIRCLE
  5
D4
100
AcDbEntity
  8
0
 62
0
370
-1
 48
1.0
  6
BYLAYER
100
AcDbCircle
 10
879.2962402340000381
 20
98.4990844729999964
 30
0.0
 40
2.0
  0
CIRCLE
  5
D5
100
AcDbEntity
  8
0
 62
0
370
-1
 48
1.0
  6
BYLAYER
100
AcDbCircle
 10
879.2962402340000381
 20
112.4990844729999964
 30
0.0
 40
2.0
  0
CIRCLE
  5
D6
100
AcDbEntity
  8
0
 62
0
370
-1
 48
1.0
  6
BYLAYER
100
AcDbCircle
 10
967.2962402340000381
 20
112.4990844729999964
 30
0.0
 40
2.0
  0
CIRCLE
  5
D7
100
AcDbEntity
  8
0
 62
0
370
-1
 48
1.0
  6
BYLAYER
100
AcDbCircle
 10
967.2962402340000381
 20
98.4990844729999964
 30
0.0
 40
2.0
  0
CIRCLE
  5
D8
100
AcDbEntity
  8
0
 62
0
370
-1
 48
1.0
  6
BYLAYER
100
AcDbCircle
 10
967.2962402340000381
 20
42.4990844730000035
 30
0.0
 40
2.0
  0
CIRCLE
  5
D9
100
AcDbEntity
  8
0
 62
0
370
-1
 48
1.0
  6
BYLAYER
100
AcDbCircle
 10
967.2962402340000381
 20
56.4990844730000035
 30
0.0
 40
2.0
  0
CIRCLE
  5
DA
100
AcDbEntity
  8
0
 62
0
370
-1
 48
1.0
  6
BYLAYER
100
AcDbCircle
 10
967.2962402340000381
 20
84.4990844729999964
 30
0.0
 40
2.0
  0
CIRCLE
  5
DB
100
AcDbEntity
  8
0
 62
0
370
-1
 48
1.0
  6
BYLAYER
100
AcDbCircle
 10
967.2962402340000381
 20
70.4990844729999964
 30
0.0
 40
2.0
  0
CIRCLE
  5
DC
100
AcDbEntity
  8
0
 62
0
370
-1
 48
1.0
  6
BYLAYER
100
AcDbCircle
 10
943.2962402340000381
 20
63.4990844730000035
 30
0.0
 40
2.0
  0
CIRCLE
  5
DD
100
AcDbEntity
  8
0
 62
0
370
-1
 48
1.0
  6
BYLAYER
100
AcDbCircle
 10
879.2962402340000381
 20
42.4990844730000035
 30
0.0
 40
2.0
  0
CIRCLE
  5
DE
100
AcDbEntity
  8
0
 62
0
370
-1
 48
1.0
  6
BYLAYER
100
AcDbCircle
 10
879.2962402340000381
 20
84.4990844729999964
 30
0.0
 40
2.0
  0
CIRCLE
  5
DF
100
AcDbEntity
  8
0
 62
0
370
-1
 48
1.0
  6
BYLAYER
100
AcDbCircle
 10
903.2962402340000381
 20
35.4990844730000035
 30
0.0
 40
2.0
  0
CIRCLE
  5
E0
100
AcDbEntity
  8
0
 62
0
370
-1
 48
1.0
  6
BYLAYER
100
AcDbCircle
 10
943.2962402340000381
 20
35.4990844730000035
 30
0.0
 40
2.0
  0
CIRCLE
  5
E1
100
AcDbEntity
  8
0
 62
0
370
-1
 48
1.0
  6
BYLAYER
100
AcDbCircle
 10
967.2962402340000381
 20
28.4990844729999999
 30
0.0
 40
2.0
  0
CIRCLE
  5
E2
100
AcDbEntity
  8
0
 62
0
370
-1
 48
1.0
  6
BYLAYER
100
AcDbCircle
 10
879.2962402340000381
 20
28.4990844729999999
 30
0.0
 40
2.0
  0
CIRCLE
  5
E3
100
AcDbEntity
  8
0
 62
0
370
-1
 48
1.0
  6
BYLAYER
100
AcDbCircle
 10
943.2962402340000381
 20
133.4990844730000106
 30
0.0
 40
2.0
  0
CIRCLE
  5
E4
100
AcDbEntity
  8
0
 62
0
370
-1
 48
1.0
  6
BYLAYER
100
AcDbCircle
 10
879.2962402340000381
 20
126.4990844729999964
 30
0.0
 40
2.0
  0
CIRCLE
  5
E5
100
AcDbEntity
  8
0
 62
0
370
-1
 48
1.0
  6
BYLAYER
100
AcDbCircle
 10
903.2962402340000381
 20
133.4990844730000106
 30
0.0
 40
2.0
  0
CIRCLE
  5
E6
100
AcDbEntity
  8
0
 62
0
370
-1
 48
1.0
  6
BYLAYER
100
AcDbCircle
 10
967.2962402340000381
 20
126.4990844729999964
 30
0.0
 40
2.0
  0
ENDBLK
  5
E7
100
AcDbEntity
  8
0
100
AcDbBlockEnd
  0
BLOCK
  5
E8
100
AcDbEntity
  8
0
100
AcDbBlockBegin
  2
CUT004
 70
0
 10
0.0
 20
0.0
 30
0.0
  3
CUT004
  1

  0
LWPOLYLINE
  5
E9
100
AcDbEntity
  8
0
 62
256
370
-1
 48
1.0
  6
BYLAYER
100
AcDbPolyline
 90
64
 70
1
 10
499.9843690519999768
 20
252.7955732300000022
 42
0.322138939143
 10
499.6999999999999886
 20
253.0
 10
490.3000000000000114
 20
253.0
 42
0.414213562373
 10
490.0
 20
252.6999999999999886
 10
490.0
 20
248.3000000000000114
 42
0.414213562373
 10
490.3000000000000114
 20
248.0
 10
499.6999999999999886
 20
248.0
 42
0.355745922649
 10
499.9937999630000149
 20
248.2393239600000072
 42
-0.194180025474
 10
428.7424113349999857
 20
75.2111262409000005
 42
0.322138939137
 10
428.6858836060000044
 20
75.556757081300006
 10
422.0390798629999836
 20
82.2035608244000002
 42
0.414213562373
 10
421.6148157939999805
 20
82.2035608244000002
 10
418.5035459569999716
 20
79.092290987200002
 42
0.414213562373
 10
418.5035459569999716
 20
78.6680269185000043
 10
425.1503496999999925
 20
72.0212231752999941
 42
0.355745922667
 10
425.5273252410000282
 20
71.9827028243999933
 42
-0.194180025474
 10
252.7955732300000022
 20
0.0156309480194
 42
0.322138939143
 10
253.0
 20
0.3
 10
253.0
 20
9.6999999999999993
 42
0.414213562373
 10
252.6999999999999886
 20
10.0
 10
248.3000000000000114
 20
10.0
 42
0.414213562373
 10
248.0
 20
9.6999999999999993
 10
248.0
 20
0.3
 42
0.355745922649
 10
248.2393239600000072
 20
0.00620003711541
 42
-0.194180025474
 10
75.2111262409000005
 20
71.2575886645000054
 42
0.322138939137
 10
75.556757081300006
 20
71.3141163941999991
 10
82.2035608244000002
 20
77.9609201372999934
 42
0.414213562373
 10
82.2035608244000002
 20
78.3851842060000052
 10
79.092290987200002
 20
81.4964540432000035
 42
0.414213562373
 10
78.6680269185000043
 20
81.4964540432000035
 10
72.0212231752999941
 20
74.8496503000999951
 42
0.355745922666
 10
71.9827028243999933
 20
74.4726747588999984
 42
-0.194180025474
 10
0.0156309480194
 20
247.2044267699999978
 42
0.322138939143
 10
0.3
 20
247.0
 10
9.6999999999999993
 20
247.0
 42
0.414213562373
 10
10.0
 20
247.3000000000000114
 10
10.0
 20
251.6999999999999886
 42
0.414213562373
 10
9.6999999999999993
 20
252.0
 10
0.3
 20
252.0
 42
0.355745922649
 10
0.00620003711541
 20
251.7606760399999928
 42
-0.194180025474
 10
71.2575886645000054
 20
424.7888737590000119
 42
0.322138939137
 10
71.3141163941999991
 20
424.4432429189999993
 10
77.9609201372999934
 20
417.7964391759999785
 42
0.414213562373
 10
78.3851842060000052
 20
417.7964391759999785
 10
81.4964540432000035
 20
420.9077090129999874
 42
0.414213562373
 10
81.4964540432000035
 20
421.3319730819999904
 10
74.8496503000999951
 20
427.9787768250000113
 42
0.355745922666
 10
74.4726747588999984
 20
428.0172971759999996
 42
-0.194180025474
 10
247.2044267699999978
 20
499.9843690519999768
 42
0.322138939143
 10
247.0
 20
499.6999999999999886
 10
247.0
 20
490.3000000000000114
 42
0.414213562373
 10
247.3000000000000114
 20
490.0
 10
251.6999999999999886
 20
490.0
 42
0.414213562373
 10
252.0
 20
490.3000000000000114
 10
252.0
 20
499.6999999999999886
 42
0.355745922649
 10
251.7606760399999928
 20
499.9937999630000149
 42
-0.194180025474
 10
424.7888737590000119
 20
428.7424113349999857
 42
0.322138939137
 10
424.4432429189999993
 20
428.6858836060000044
 10
417.7964391759999785
 20
422.0390798629999836
 42
0.414213562373
 10
417.7964391759999785
 20
421.6148157939999805
 10
420.9077090129999874
 20
418.5035459569999716
 42
0.414213562373
 10
421.3319730819999904
 20
418.5035459569999716
 10
427.9787768250000113
 20
425.1503496999999925
 42
0.355745922666
 10
428.0172971759999996
 20
425.5273252410000282
 42
-0.194180025474
  0
CIRCLE
  5
EA
100
AcDbEntity
  8
0
 62
0
370
-1
 48
1.0
  6
BYLAYER
100
AcDbCircle
 10
250.0
 20
250.0
 30
0.0
 40
220.0
  0
ENDBLK
  5
EB
100
AcDbEntity
  8
0
100
AcDbBlockEnd
  0
BLOCK
  5
EC
100
AcDbEntity
  8
0
100
AcDbBlockBegin
  2
ARRAY008
 70
0
 10
0.0
 20
0.0
 30
0.0
  3
ARRAY008
  1

  0
LWPOLYLINE
  5
ED
100
AcDbEntity
  8
0
 62
256
370
-1
 48
1.0
  6
BYLAYER
100
AcDbPolyline
 90
6
 70
1
 10
633.5275756839999985
 20
184.0198822019999909
 42
0.414213562373
 10
633.8275756839999531
 20
184.3198822020000023
 10
633.8275756839999531
 20
194.219882202000008
 10
523.8275756839999531
 20
194.219882202000008
 10
523.8275756839999531
 20
184.3198822020000023
 42
0.414213562373
 10
524.1275756840000213
 20
184.0198822019999909
  0
CIRCLE
  5
EE
100
AcDbEntity
  8
0
 62
0
370
-1
 48
1.0
  6
BYLAYER
100
AcDbCircle
 10
622.8275756839999531
 20
191.0198822019999909
 30
0.0
 40
2.0
  0
CIRCLE
  5
EF
100
AcDbEntity
  8
0
 62
0
370
-1
 48
1.0
  6
BYLAYER
100
AcDbCircle
 10
534.8275756839999531
 20
191.0198822019999909
 30
0.0
 40
2.0
  0
LWPOLYLINE
  5
F0
100
AcDbEntity
  8
0
 62
256
370
-1
 48
1.0
  6
BYLAYER
100
AcDbPolyline
 90
4
 70
1
 10
633.8275756839999531
 20
194.719882202000008
 10
633.8275756839999531
 20
201.219882202000008
 10
523.8275756839999531
 20
201.219882202000008
 10
523.8275756839999531
 20
194.719882202000008
  0
CIRCLE
  5
F1
100
AcDbEntity
  8
0
 62
0
370
-1
 48
1.0
  6
BYLAYER
100
AcDbCircle
 10
598.8275756839999531
 20
198.0198822019999909
 30
0.0
 40
2.0
  0
CIRCLE
  5
F2
100
AcDbEntity
  8
0
 62
0
370
-1
 48
1.0
  6
BYLAYER
100
AcDbCircle
 10
558.8275756839999531
 20
198.0198822019999909
 30
0.0
 40
2.0
  0
LWPOLYLINE
  5
F3
100
AcDbEntity
  8
0
 62
256
370
-1
 48
1.0
  6
BYLAYER
100
AcDbPolyline
 90
4
 70
1
 10
633.8275756839999531
 20
201.719882202000008
 10
633.8275756839999531
 20
208.219882202000008
 10
523.8275756839999531
 20
208.219882202000008
 10
523.8275756839999531
 20
201.719882202000008
  0
CIRCLE
  5
F4
100
AcDbEntity
  8
0
 62
0
370
-1
 48
1.0
  6
BYLAYER
100
AcDbCircle
 10
622.8275756839999531
 20
205.0198822019999909
 30
0.0
 40
2.0
  0
CIRCLE
  5
F5
100
AcDbEntity
  8
0
 62
0
370
-1
 48
1.0
  6
BYLAYER
100
AcDbCircle
 10
534.8275756839999531
 20
205.0198822019999909
 30
0.0
 40
2.0
  0
LWPOLYLINE
  5
F6
100
AcDbEntity
  8
0
 62
256
370
-1
 48
1.0
  6
BYLAYER
100
AcDbPolyline
 90
4
 70
1
 10
633.8275756839999531
 20
208.719882202000008
 10
633.8275756839999531
 20
215.219882202000008
 10
523.8275756839999531
 20
215.219882202000008
 10
523.8275756839999531
 20
208.719882202000008
  0
CIRCLE
  5
F7
100
AcDbEntity
  8
0
 62
0
370
-1
 48
1.0
  6
BYLAYER
100
AcDbCircle
 10
598.8275756839999531
 20
212.0198822019999909
 30
0.0
 40
2.0
  0
CIRCLE
  5
F8
100
AcDbEntity
  8
0
 62
0
370
-1
 48
1.0
  6
BYLAYER
100
AcDbCircle
 10
558.8275756839999531
 20
212.0198822019999909
 30
0.0
 40
2.0
  0
LWPOLYLINE
  5
F9
100
AcDbEntity
  8
0
 62
256
370
-1
 48
1.0
  6
BYLAYER
100
AcDbPolyline
 90
4
 70
1
 10
633.8275756839999531
 20
215.719882202000008
 10
633.8275756839999531
 20
222.219882202000008
 10
523.8275756839999531
 20
222.219882202000008
 10
523.8275756839999531
 20
215.719882202000008
  0
CIRCLE
  5
FA
100
AcDbEntity
  8
0
 62
0
370
-1
 48
1.0
  6
BYLAYER
100
AcDbCircle
 10
622.8275756839999531
 20
219.0198822019999909
 30
0.0
 40
2.0
  0
CIRCLE
  5
FB
100
AcDbEntity
  8
0
 62
0
370
-1
 48
1.0
  6
BYLAYER
100
AcDbCircle
 10
534.8275756839999531
 20
219.0198822019999909
 30
0.0
 40
2.0
  0
LWPOLYLINE
  5
FC
100
AcDbEntity
  8
0
 62
256
370
-1
 48
1.0
  6
BYLAYER
100
AcDbPolyline
 90
4
 70
1
 10
633.8275756839999531
 20
222.719882202000008
 10
633.8275756839999531
 20
229.219882202000008
 10
523.8275756839999531
 20
229.219882202000008
 10
523.8275756839999531
 20
222.719882202000008
  0
CIRCLE
  5
FD
100
AcDbEntity
  8
0
 62
0
370
-1
 48
1.0
  6
BYLAYER
100
AcDbCircle
 10
598.8275756839999531
 20
226.0198822019999909
 30
0.0
 40
2.0
  0
CIRCLE
  5
FE
100
AcDbEntity
  8
0
 62
0
370
-1
 48
1.0
  6
BYLAYER
100
AcDbCircle
 10
558.8275756839999531
 20
226.0198822019999909
 30
0.0
 40
2.0
  0
LWPOLYLINE
  5
FF
100
AcDbEntity
  8
0
 62
256
370
-1
 48
1.0
  6
BYLAYER
100
AcDbPolyline
 90
4
 70
1
 10
633.8275756839999531
 20
229.719882202000008
 10
633.8275756839999531
 20
236.219882202000008
 10
523.8275756839999531
 20
236.219882202000008
 10
523.8275756839999531
 20
229.719882202000008
  0
CIRCLE
  5
100
100
AcDbEntity
  8
0
 62
0
370
-1
 48
1.0
  6
BYLAYER
100
AcDbCircle
 10
534.8275756839999531
 20
233.0198822019999909
 30
0.0
 40
2.0
  0
CIRCLE
  5
101
100
AcDbEntity
  8
0
 62
0
370
-1
 48
1.0
  6
BYLAYER
100
AcDbCircle
 10
622.8275756839999531
 20
233.0198822019999909
 30
0.0
 40
2.0
  0
LWPOLYLINE
  5
102
100
AcDbEntity
  8
0
 62
256
370
-1
 48
1.0
  6
BYLAYER
100
AcDbPolyline
 90
4
 70
1
 10
633.8275756839999531
 20
236.719882202000008
 10
633.8275756839999531
 20
243.219882202000008
 10
523.8275756839999531
 20
243.219882202000008
 10
523.8275756839999531
 20
236.719882202000008
  0
CIRCLE
  5
103
100
AcDbEntity
  8
0
 62
0
370
-1
 48
1.0
  6
BYLAYER
100
AcDbCircle
 10
558.8275756839999531
 20
240.0198822019999909
 30
0.0
 40
2.0
  0
CIRCLE
  5
104
100
AcDbEntity
  8
0
 62
0
370
-1
 48
1.0
  6
BYLAYER
100
AcDbCircle
 10
598.8275756839999531
 20
240.0198822019999909
 30
0.0
 40
2.0
  0
LWPOLYLINE
  5
105
100
AcDbEntity
  8
0
 62
256
370
-1
 48
1.0
  6
BYLAYER
100
AcDbPolyline
 90
4
 70
1
 10
633.8275756839999531
 20
243.719882202000008
 10
633.8275756839999531
 20
250.219882202000008
 10
523.8275756839999531
 20
250.219882202000008
 10
523.8275756839999531
 20
243.719882202000008
  0
CIRCLE
  5
106
100
AcDbEntity
  8
0
 62
0
370
-1
 48
1.0
  6
BYLAYER
100
AcDbCircle
 10
534.8275756839999531
 20
247.0198822019999909
 30
0.0
 40
2.0
  0
CIRCLE
  5
107
100
AcDbEntity
  8
0
 62
0
370
-1
 48
1.0
  6
BYLAYER
100
AcDbCircle
 10
622.8275756839999531
 20
247.0198822019999909
 30
0.0
 40
2.0
  0
LWPOLYLINE
  5
108
100
AcDbEntity
  8
0
 62
256
370
-1
 48
1.0
  6
BYLAYER
100
AcDbPolyline
 90
4
 70
1
 10
633.8275756839999531
 20
250.719882202000008
 10
633.8275756839999531
 20
257.219882202000008
 10
523.8275756839999531
 20
257.219882202000008
 10
523.8275756839999531
 20
250.719882202000008
  0
CIRCLE
  5
109
100
AcDbEntity
  8
0
 62
0
370
-1
 48
1.0
  6
BYLAYER
100
AcDbCircle
 10
558.8275756839999531
 20
254.0198822019999909
 30
0.0
 40
2.0
  0
CIRCLE
  5
10A
100
AcDbEntity
  8
0
 62
0
370
-1
 48
1.0
  6
BYLAYER
100
AcDbCircle
 10
598.8275756839999531
 20
254.0198822019999909
 30
0.0
 40
2.0
  0
LWPOLYLINE
  5
10B
100
AcDbEntity
  8
0
 62
256
370
-1
 48
1.0
  6
BYLAYER
100
AcDbPolyline
 90
4
 70
1
 10
633.8275756839999531
 20
257.719882202000008
 10
633.8275756839999531
 20
264.219882202000008
 10
523.8275756839999531
 20
264.219882202000008
 10
523.8275756839999531
 20
257.719882202000008
  0
CIRCLE
  5
10C
100
AcDbEntity
  8
0
 62
0
370
-1
 48
1.0
  6
BYLAYER
100
AcDbCircle
 10
534.8275756839999531
 20
261.0198822020000193
 30
0.0
 40
2.0
  0
CIRCLE
  5
10D
100
AcDbEntity
  8
0
 62
0
370
-1
 48
1.0
  6
BYLAYER
100
AcDbCircle
 10
622.8275756839999531
 20
261.0198822020000193
 30
0.0
 40
2.0
  0
LWPOLYLINE
  5
10E
100
AcDbEntity
  8
0
 62
256
370
-1
 48
1.0
  6
BYLAYER
100
AcDbPolyline
 90
4
 70
1
 10
633.8275756839999531
 20
264.719882202000008
 10
633.8275756839999531
 20
271.219882202000008
 10
523.8275756839999531
 20
271.219882202000008
 10
523.8275756839999531
 20
264.719882202000008
  0
CIRCLE
  5
10F
100
AcDbEntity
  8
0
 62
0
370
-1
 48
1.0
  6
BYLAYER
100
AcDbCircle
 10
558.8275756839999531
 20
268.0198822020000193
 30
0.0
 40
2.0
  0
CIRCLE
  5
110
100
AcDbEntity
  8
0
 62
0
370
-1
 48
1.0
  6
BYLAYER
100
AcDbCircle
 10
598.8275756839999531
 20
268.0198822020000193
 30
0.0
 40
2.0
  0
LWPOLYLINE
  5
111
100
AcDbEntity
  8
0
 62
256
370
-1
 48
1.0
  6
BYLAYER
100
AcDbPolyline
 90
4
 70
1
 10
633.8275756839999531
 20
271.719882202000008
 10
633.8275756839999531
 20
278.219882202000008
 10
523.8275756839999531
 20
278.219882202000008
 10
523.8275756839999531
 20
271.719882202000008
  0
CIRCLE
  5
112
100
AcDbEntity
  8
0
 62
0
370
-1
 48
1.0
  6
BYLAYER
100
AcDbCircle
 10
534.8275756839999531
 20
275.0198822020000193
 30
0.0
 40
2.0
  0
CIRCLE
  5
113
100
AcDbEntity
  8
0
 62
0
370
-1
 48
1.0
  6
BYLAYER
100
AcDbCircle
 10
622.8275756839999531
 20
275.0198822020000193
 30
0.0
 40
2.0
  0
LWPOLYLINE
  5
114
100
AcDbEntity
  8
0
 62
256
370
-1
 48
1.0
  6
BYLAYER
100
AcDbPolyline
 90
4
 70
1
 10
633.8275756839999531
 20
278.719882202000008
 10
633.8275756839999531
 20
285.219882202000008
 10
523.8275756839999531
 20
285.219882202000008
 10
523.8275756839999531
 20
278.719882202000008
  0
CIRCLE
  5
115
100
AcDbEntity
  8
0
 62
0
370
-1
 48
1.0
  6
BYLAYER
100
AcDbCircle
 10
558.8275756839999531
 20
282.0198822020000193
 30
0.0
 40
2.0
  0
CIRCLE
  5
116
100
AcDbEntity
  8
0
 62
0
370
-1
 48
1.0
  6
BYLAYER
100
AcDbCircle
 10
598.8275756839999531
 20
282.0198822020000193
 30
0.0
 40
2.0
  0
LWPOLYLINE
  5
117
100
AcDbEntity
  8
0
 62
256
370
-1
 48
1.0
  6
BYLAYER
100
AcDbPolyline
 90
4
 70
1
 10
633.8275756839999531
 20
285.719882202000008
 10
633.8275756839999531
 20
292.219882202000008
 10
523.8275756839999531
 20
292.219882202000008
 10
523.8275756839999531
 20
285.719882202000008
  0
CIRCLE
  5
118
100
AcDbEntity
  8
0
 62
0
370
-1
 48
1.0
  6
BYLAYER
100
AcDbCircle
 10
534.8275756839999531
 20
289.0198822020000193
 30
0.0
 40
2.0
  0
CIRCLE
  5
119
100
AcDbEntity
  8
0
 62
0
370
-1
 48
1.0
  6
BYLAYER
100
AcDbCircle
 10
622.8275756839999531
 20
289.0198822020000193
 30
0.0
 40
2.0
  0
LWPOLYLINE
  5
11A
100
AcDbEntity
  8
0
 62
256
370
-1
 48
1.0
  6
BYLAYER
100
AcDbPolyline
 90
6
 70
1
 10
633.8275756839999531
 20
292.719882202000008
 10
633.8275756839999531
 20
301.719882202000008
 42
0.414213562373
 10
633.5275756839999985
 20
302.0198822020000193
 10
524.1275756840000213
 20
302.0198822020000193
 42
0.414213562373
 10
523.8275756839999531
 20
301.719882202000008
 10
523.8275756839999531
 20
292.719882202000008
  0
CIRCLE
  5
11B
100
AcDbEntity
  8
0
 62
0
370
-1
 48
1.0
  6
BYLAYER
100
AcDbCircle
 10
558.8275756839999531
 20
296.0198822020000193
 30
0.0
 40
2.0
  0
CIRCLE
  5
11C
100
AcDbEntity
  8
0
 62
0
370
-1
 48
1.0
  6
BYLAYER
100
AcDbCircle
 10
598.8275756839999531
 20
296.0198822020000193
 30
0.0
 40
2.0
  0
LWPOLYLINE
  5
11D
100
AcDbEntity
  8
0
 62
256
370
-1
 48
1.0
  6
BYLAYER
100
AcDbPolyline
 90
6
 70
1
 10
748.5275756839999985
 20
184.0198822019999909
 42
0.414213562373
 10
748.8275756839999531
 20
184.3198822020000023
 10
748.8275756839999531
 20
194.219882202000008
 10
638.8275756839999531
 20
194.219882202000008
 10
638.8275756839999531
 20
184.3198822020000023
 42
0.414213562373
 10
639.1275756840000213
 20
184.0198822019999909
  0
CIRCLE
  5
11E
100
AcDbEntity
  8
0
 62
0
370
-1
 48
1.0
  6
BYLAYER
100
AcDbCircle
 10
737.8275756839999531
 20
191.0198822019999909
 30
0.0
 40
2.0
  0
CIRCLE
  5
11F
100
AcDbEntity
  8
0
 62
0
370
-1
 48
1.0
  6
BYLAYER
100
AcDbCircle
 10
649.8275756839999531
 20
191.0198822019999909
 30
0.0
 40
2.0
  0
LWPOLYLINE
  5
120
100
AcDbEntity
  8
0
 62
256
370
-1
 48
1.0
  6
BYLAYER
100
AcDbPolyline
 90
4
 70
1
 10
748.8275756839999531
 20
194.719882202000008
 10
748.8275756839999531
 20
201.219882202000008
 10
638.8275756839999531
 20
201.219882202000008
 10
638.8275756839999531
 20
194.719882202000008
  0
CIRCLE
  5
121
100
AcDbEntity
  8
0
 62
0
370
-1
 48
1.0
  6
BYLAYER
100
AcDbCircle
 10
713.8275756839999531
 20
198.0198822019999909
 30
0.0
 40
2.0
  0
CIRCLE
  5
122
100
AcDbEntity
  8
0
 62
0
370
-1
 48
1.0
  6
BYLAYER
100
AcDbCircle
 10
673.8275756839999531
 20
198.0198822019999909
 30
0.0
 40
2.0
  0
LWPOLYLINE
  5
123
100
AcDbEntity
  8
0
 62
256
370
-1
 48
1.0
  6
BYLAYER
100
AcDbPolyline
 90
4
 70
1
 10
748.8275756839999531
 20
201.719882202000008
 10
748.8275756839999531
 20
208.219882202000008
 10
638.8275756839999531
 20
208.219882202000008
 10
638.8275756839999531
 20
201.719882202000008
  0
CIRCLE
  5
124
100
AcDbEntity
  8
0
 62
0
370
-1
 48
1.0
  6
BYLAYER
100
AcDbCircle
 10
737.8275756839999531
 20
205.0198822019999909
 30
0.0
 40
2.0
  0
CIRCLE
  5
125
100
AcDbEntity
  8
0
 62
0
370
-1
 48
1.0
  6
BYLAYER
100
AcDbCircle
 10
649.8275756839999531
 20
205.0198822019999909
 30
0.0
 40
2.0
  0
LWPOLYLINE
  5
126
100
AcDbEntity
  8
0
 62
256
370
-1
 48
1.0
  6
BYLAYER
100
AcDbPolyline
 90
4
 70
1
 10
748.8275756839999531
 20
208.719882202000008
 10
748.8275756839999531
 20
215.219882202000008
 10
638.8275756839999531
 20
215.219882202000008
 10
638.8275756839999531
 20
208.719882202000008
  0
CIRCLE
  5
127
100
AcDbEntity
  8
0
 62
0
370
-1
 48
1.0
  6
BYLAYER
100
AcDbCircle
 10
713.8275756839999531
 20
212.0198822019999909
 30
0.0
 40
2.0
  0
CIRCLE
  5
128
100
AcDbEntity
  8
0
 62
0
370
-1
 48
1.0
  6
BYLAYER
100
AcDbCircle
 10
673.8275756839999531
 20
212.0198822019999909
 30
0.0
 40
2.0
  0
LWPOLYLINE
  5
129
100
AcDbEntity
  8
0
 62
256
370
-1
 48
1.0
  6
BYLAYER
100
AcDbPolyline
 90
4
 70
1
 10
748.8275756839999531
 20
215.719882202000008
 10
748.8275756839999531
 20
222.219882202000008
 10
638.8275756839999531
 20
222.219882202000008
 10
638.8275756839999531
 20
215.719882202000008
  0
CIRCLE
  5
12A
100
AcDbEntity
  8
0
 62
0
370
-1
 48
1.0
  6
BYLAYER
100
AcDbCircle
 10
737.8275756839999531
 20
219.0198822019999909
 30
0.0
 40
2.0
  0
CIRCLE
  5
12B
100
AcDbEntity
  8
0
 62
0
370
-1
 48
1.0
  6
BYLAYER
100
AcDbCircle
 10
649.8275756839999531
 20
219.0198822019999909
 30
0.0
 40
2.0
  0
LWPOLYLINE
  5
12C
100
AcDbEntity
  8
0
 62
256
370
-1
 48
1.0
  6
BYLAYER
100
AcDbPolyline
 90
4
 70
1
 10
748.8275756839999531
 20
222.719882202000008
 10
748.8275756839999531
 20
229.219882202000008
 10
638.8275756839999531
 20
229.219882202000008
 10
638.8275756839999531
 20
222.719882202000008
  0
CIRCLE
  5
12D
100
AcDbEntity
  8
0
 62
0
370
-1
 48
1.0
  6
BYLAYER
100
AcDbCircle
 10
713.8275756839999531
 20
226.0198822019999909
 30
0.0
 40
2.0
  0
CIRCLE
  5
12E
100
AcDbEntity
  8
0
 62
0
370
-1
 48
1.0
  6
BYLAYER
100
AcDbCircle
 10
673.8275756839999531
 20
226.0198822019999909
 30
0.0
 40
2.0
  0
LWPOLYLINE
  5
12F
100
AcDbEntity
  8
0
 62
256
370
-1
 48
1.0
  6
BYLAYER
100
AcDbPolyline
 90
4
 70
1
 10
748.8275756839999531
 20
229.719882202000008
 10
748.8275756839999531
 20
236.219882202000008
 10
638.8275756839999531
 20
236.219882202000008
 10
638.8275756839999531
 20
229.719882202000008
  0
CIRCLE
  5
130
100
AcDbEntity
  8
0
 62
0
370
-1
 48
1.0
  6
BYLAYER
100
AcDbCircle
 10
649.8275756839999531
 20
233.0198822019999909
 30
0.0
 40
2.0
  0
CIRCLE
  5
131
100
AcDbEntity
  8
0
 62
0
370
-1
 48
1.0
  6
BYLAYER
100
AcDbCircle
 10
737.8275756839999531
 20
233.0198822019999909
 30
0.0
 40
2.0
  0
LWPOLYLINE
  5
132
100
AcDbEntity
  8
0
 62
256
370
-1
 48
1.0
  6
BYLAYER
100
AcDbPolyline
 90
4
 70
1
 10
748.8275756839999531
 20
236.719882202000008
 10
748.8275756839999531
 20
243.219882202000008
 10
638.8275756839999531
 20
243.219882202000008
 10
638.8275756839999531
 20
236.719882202000008
  0
CIRCLE
  5
133
100
AcDbEntity
  8
0
 62
0
370
-1
 48
1.0
  6
BYLAYER
100
AcDbCircle
 10
673.8275756839999531
 20
240.0198822019999909
 30
0.0
 40
2.0
  0
CIRCLE
  5
134
100
AcDbEntity
  8
0
 62
0
370
-1
 48
1.0
  6
BYLAYER
100
AcDbCircle
 10
713.8275756839999531
 20
240.0198822019999909
 30
0.0
 40
2.0
  0
LWPOLYLINE
  5
135
100
AcDbEntity
  8
0
 62
256
370
-1
 48
1.0
  6
BYLAYER
100
AcDbPolyline
 90
4
 70
1
 10
748.8275756839999531
 20
243.719882202000008
 10
748.8275756839999531
 20
250.219882202000008
 10
638.8275756839999531
 20
250.219882202000008
 10
638.8275756839999531
 20
243.719882202000008
  0
CIRCLE
  5
136
100
AcDbEntity
  8
0
 62
0
370
-1
 48
1.0
  6
BYLAYER
100
AcDbCircle
 10
649.8275756839999531
 20
247.0198822019999909
 30
0.0
 40
2.0
  0
CIRCLE
  5
137
100
AcDbEntity
  8
0
 62
0
370
-1
 48
1.0
  6
BYLAYER
100
AcDbCircle
 10
737.8275756839999531
 20
247.0198822019999909
 30
0.0
 40
2.0
  0
LWPOLYLINE
  5
138
100
AcDbEntity
  8
0
 62
256
370
-1
 48
1.0
  6
BYLAYER
100
AcDbPolyline
 90
4
 70
1
 10
748.8275756839999531
 20
250.719882202000008
 10
748.8275756839999531
 20
257.219882202000008
 10
638.8275756839999531
 20
257.219882202000008
 10
638.8275756839999531
 20
250.719882202000008
  0
CIRCLE
  5
139
100
AcDbEntity
  8
0
 62
0
370
-1
 48
1.0
  6
BYLAYER
100
AcDbCircle
 10
673.8275756839999531
 20
254.0198822019999909
 30
0.0
 40
2.0
  0
CIRCLE
  5
13A
100
AcDbEntity
  8
0
 62
0
370
-1
 48
1.0
  6
BYLAYER
100
AcDbCircle
 10
713.8275756839999531
 20
254.0198822019999909
 30
0.0
 40
2.0
  0
LWPOLYLINE
  5
13B
100
AcDbEntity
  8
0
 62
256
370
-1
 48
1.0
  6
BYLAYER
100
AcDbPolyline
 90
4
 70
1
 10
748.8275756839999531
 20
257.719882202000008
 10
748.8275756839999531
 20
264.219882202000008
 10
638.8275756839999531
 20
264.219882202000008
 10
638.8275756839999531
 20
257.719882202000008
  0
CIRCLE
  5
13C
100
AcDbEntity
  8
0
 62
0
370
-1
 48
1.0
  6
BYLAYER
100
AcDbCircle
 10
649.8275756839999531
 20
261.0198822020000193
 30
0.0
 40
2.0
  0
CIRCLE
  5
13D
100
AcDbEntity
  8
0
 62
0
370
-1
 48
1.0
  6
BYLAYER
100
AcDbCircle
 10
737.8275756839999531
 20
261.0198822020000193
 30
0.0
 40
2.0
  0
LWPOLYLINE
  5
13E
100
AcDbEntity
  8
0
 62
256
370
-1
 48
1.0
  6
BYLAYER
100
AcDbPolyline
 90
4
 70
1
 10
748.8275756839999531
 20
264.719882202000008
 10
748.8275756839999531
 20
271.219882202000008
 10
638.8275756839999531
 20
271.219882202000008
 10
638.8275756839999531
 20
264.719882202000008
  0
CIRCLE
  5
13F
100
AcDbEntity
  8
0
 62
0
370
-1
 48
1.0
  6
BYLAYER
100
AcDbCircle
 10
673.8275756839999531
 20
268.0198822020000193
 30
0.0
 40
2.0
  0
CIRCLE
  5
140
100
AcDbEntity
  8
0
 62
0
370
-1
 48
1.0
  6
BYLAYER
100
AcDbCircle
 10
713.8275756839999531
 20
268.0198822020000193
 30
0.0
 40
2.0
  0
LWPOLYLINE
  5
141
100
AcDbEntity
  8
0
 62
256
370
-1
 48
1.0
  6
BYLAYER
100
AcDbPolyline
 90
4
 70
1
 10
748.8275756839999531
 20
271.719882202000008
 10
748.8275756839999531
 20
278.219882202000008
 10
638.8275756839999531
 20
278.219882202000008
 10
638.8275756839999531
 20
271.719882202000008
  0
CIRCLE
  5
142
100
AcDbEntity
  8
0
 62
0
370
-1
 48
1.0
  6
BYLAYER
100
AcDbCircle
 10
649.8275756839999531
 20
275.0198822020000193
 30
0.0
 40
2.0
  0
CIRCLE
  5
143
100
AcDbEntity
  8
0
 62
0
370
-1
 48
1.0
  6
BYLAYER
100
AcDbCircle
 10
737.8275756839999531
 20
275.0198822020000193
 30
0.0
 40
2.0
  0
LWPOLYLINE
  5
144
100
AcDbEntity
  8
0
 62
256
370
-1
 48
1.0
  6
BYLAYER
100
AcDbPolyline
 90
4
 70
1
 10
748.8275756839999531
 20
278.719882202000008
 10
748.8275756839999531
 20
285.219882202000008
 10
638.8275756839999531
 20
285.219882202000008
 10
638.8275756839999531
 20
278.719882202000008
  0
CIRCLE
  5
145
100
AcDbEntity
  8
0
 62
0
370
-1
 48
1.0
  6
BYLAYER
100
AcDbCircle
 10
673.8275756839999531
 20
282.0198822020000193
 30
0.0
 40
2.0
  0
CIRCLE
  5
146
100
AcDbEntity
  8
0
 62
0
370
-1
 48
1.0
  6
BYLAYER
100
AcDbCircle
 10
713.8275756839999531
 20
282.0198822020000193
 30
0.0
 40
2.0
  0
LWPOLYLINE
  5
147
100
AcDbEntity
  8
0
 62
256
370
-1
 48
1.0
  6
BYLAYER
100
AcDbPolyline
 90
4
 70
1
 10
748.8275756839999531
 20
285.719882202000008
 10
748.8275756839999531
 20
292.219882202000008
 10
638.8275756839999531
 20
292.219882202000008
 10
638.8275756839999531
 20
285.719882202000008
  0
CIRCLE
  5
148
100
AcDbEntity
  8
0
 62
0
370
-1
 48
1.0
  6
BYLAYER
100
AcDbCircle
 10
649.8275756839999531
 20
289.0198822020000193
 30
0.0
 40
2.0
  0
CIRCLE
  5
149
100
AcDbEntity
  8
0
 62
0
370
-1
 48
1.0
  6
BYLAYER
100
AcDbCircle
 10
737.8275756839999531
 20
289.0198822020000193
 30
0.0
 40
2.0
  0
LWPOLYLINE
  5
14A
100
AcDbEntity
  8
0
 62
256
370
-1
 48
1.0
  6
BYLAYER
100
AcDbPolyline
 90
6
 70
1
 10
748.8275756839999531
 20
292.719882202000008
 10
748.8275756839999531
 20
301.719882202000008
 42
0.414213562373
 10
748.5275756839999985
 20
302.0198822020000193
 10
639.1275756840000213
 20
302.0198822020000193
 42
0.414213562373
 10
638.8275756839999531
 20
301.719882202000008
 10
638.8275756839999531
 20
292.719882202000008
  0
CIRCLE
  5
14B
100
AcDbEntity
  8
0
 62
0
370
-1
 48
1.0
  6
BYLAYER
100
AcDbCircle
 10
673.8275756839999531
 20
296.0198822020000193
 30
0.0
 40
2.0
  0
CIRCLE
  5
14C
100
AcDbEntity
  8
0
 62
0
370
-1
 48
1.0
  6
BYLAYER
100
AcDbCircle
 10
713.8275756839999531
 20
296.0198822020000193
 30
0.0
 40
2.0
  0
LWPOLYLINE
  5
14D
100
AcDbEntity
  8
0
 62
256
370
-1
 48
1.0
  6
BYLAYER
100
AcDbPolyline
 90
6
 70
1
 10
863.5275756839999985
 20
184.0198822019999909
 42
0.414213562373
 10
863.8275756839999531
 20
184.3198822020000023
 10
863.8275756839999531
 20
194.219882202000008
 10
753.8275756839999531
 20
194.219882202000008
 10
753.8275756839999531
 20
184.3198822020000023
 42
0.414213562373
 10
754.1275756840000213
 20
184.0198822019999909
  0
CIRCLE
  5
14E
100
AcDbEntity
  8
0
 62
0
370
-1
 48
1.0
  6
BYLAYER
100
AcDbCircle
 10
852.8275756839999531
 20
191.0198822019999909
 30
0.0
 40
2.0
  0
CIRCLE
  5
14F
100
AcDbEntity
  8
0
 62
0
370
-1
 48
1.0
  6
BYLAYER
100
AcDbCircle
 10
764.8275756839999531
 20
191.0198822019999909
 30
0.0
 40
2.0
  0
LWPOLYLINE
  5
150
100
AcDbEntity
  8
0
 62
256
370
-1
 48
1.0
  6
BYLAYER
100
AcDbPolyline
 90
4
 70
1
 10
863.8275756839999531
 20
194.719882202000008
 10
863.8275756839999531
 20
201.219882202000008
 10
753.8275756839999531
 20
201.219882202000008
 10
753.8275756839999531
 20
194.719882202000008
  0
CIRCLE
  5
151
100
AcDbEntity
  8
0
 62
0
370
-1
 48
1.0
  6
BYLAYER
100
AcDbCircle
 10
828.8275756839999531
 20
198.0198822019999909
 30
0.0
 40
2.0
  0
CIRCLE
  5
152
100
AcDbEntity
  8
0
 62
0
370
-1
 48
1.0
  6
BYLAYER
100
AcDbCircle
 10
788.8275756839999531
 20
198.0198822019999909
 30
0.0
 40
2.0
  0
LWPOLYLINE
  5
153
100
AcDbEntity
  8
0
 62
256
370
-1
 48
1.0
  6
BYLAYER
100
AcDbPolyline
 90
4
 70
1
 10
863.8275756839999531
 20
201.719882202000008
 10
863.8275756839999531
 20
208.219882202000008
 10
753.8275756839999531
 20
208.219882202000008
 10
753.8275756839999531
 20
201.719882202000008
  0
CIRCLE
  5
154
100
AcDbEntity
  8
0
 62
0
370
-1
 48
1.0
  6
BYLAYER
100
AcDbCircle
 10
852.8275756839999531
 20
205.0198822019999909
 30
0.0
 40
2.0
  0
CIRCLE
  5
155
100
AcDbEntity
  8
0
 62
0
370
-1
 48
1.0
  6
BYLAYER
100
AcDbCircle
 10
764.8275756839999531
 20
205.0198822019999909
 30
0.0
 40
2.0
  0
LWPOLYLINE
  5
156
100
AcDbEntity
  8
0
 62
256
370
-1
 48
1.0
  6
BYLAYER
100
AcDbPolyline
 90
4
 70
1
 10
863.8275756839999531
 20
208.719882202000008
 10
863.8275756839999531
 20
215.219882202000008
 10
753.8275756839999531
 20
215.219882202000008
 10
753.8275756839999531
 20
208.719882202000008
  0
CIRCLE
  5
157
100
AcDbEntity
  8
0
 62
0
370
-1
 48
1.0
  6
BYLAYER
100
AcDbCircle
 10
828.8275756839999531
 20
212.0198822019999909
 30
0.0
 40
2.0
  0
CIRCLE
  5
158
100
AcDbEntity
  8
0
 62
0
370
-1
 48
1.0
  6
BYLAYER
100
AcDbCircle
 10
788.8275756839999531
 20
212.0198822019999909
 30
0.0
 40
2.0
  0
LWPOLYLINE
  5
159
100
AcDbEntity
  8
0
 62
256
370
-1
 48
1.0
  6
BYLAYER
100
AcDbPolyline
 90
4
 70
1
 10
863.8275756839999531
 20
215.719882202000008
 10
863.8275756839999531
 20
222.219882202000008
 10
753.8275756839999531
 20
222.219882202000008
 10
753.8275756839999531
 20
215.719882202000008
  0
CIRCLE
  5
15A
100
AcDbEntity
  8
0
 62
0
370
-1
 48
1.0
  6
BYLAYER
100
AcDbCircle
 10
852.8275756839999531
 20
219.0198822019999909
 30
0.0
 40
2.0
  0
CIRCLE
  5
15B
100
AcDbEntity
  8
0
 62
0
370
-1
 48
1.0
  6
BYLAYER
100
AcDbCircle
 10
764.8275756839999531
 20
219.0198822019999909
 30
0.0
 40
2.0
  0
LWPOLYLINE
  5
15C
100
AcDbEntity
  8
0
 62
256
370
-1
 48
1.0
  6
BYLAYER
100
AcDbPolyline
 90
4
 70
1
 10
863.8275756839999531
 20
222.719882202000008
 10
863.8275756839999531
 20
229.219882202000008
 10
753.8275756839999531
 20
229.219882202000008
 10
753.8275756839999531
 20
222.719882202000008
  0
CIRCLE
  5
15D
100
AcDbEntity
  8
0
 62
0
370
-1
 48
1.0
  6
BYLAYER
100
AcDbCircle
 10
828.8275756839999531
 20
226.0198822019999909
 30
0.0
 40
2.0
  0
CIRCLE
  5
15E
100
AcDbEntity
  8
0
 62
0
370
-1
 48
1.0
  6
BYLAYER
100
AcDbCircle
 10
788.8275756839999531
 20
226.0198822019999909
 30
0.0
 40
2.0
  0
LWPOLYLINE
  5
15F
100
AcDbEntity
  8
0
 62
256
370
-1
 48
1.0
  6
BYLAYER
100
AcDbPolyline
 90
4
 70
1
 10
863.8275756839999531
 20
229.719882202000008
 10
863.8275756839999531
 20
236.219882202000008
 10
753.8275756839999531
 20
236.219882202000008
 10
753.8275756839999531
 20
229.719882202000008
  0
CIRCLE
  5
160
100
AcDbEntity
  8
0
 62
0
370
-1
 48
1.0
  6
BYLAYER
100
AcDbCircle
 10
764.8275756839999531
 20
233.0198822019999909
 30
0.0
 40
2.0
  0
CIRCLE
  5
161
100
AcDbEntity
  8
0
 62
0
370
-1
 48
1.0
  6
BYLAYER
100
AcDbCircle
 10
852.8275756839999531
 20
233.0198822019999909
 30
0.0
 40
2.0
  0
LWPOLYLINE
  5
162
100
AcDbEntity
  8
0
 62
256
370
-1
 48
1.0
  6
BYLAYER
100
AcDbPolyline
 90
4
 70
1
 10
863.8275756839999531
 20
236.719882202000008
 10
863.8275756839999531
 20
243.219882202000008
 10
753.8275756839999531
 20
243.219882202000008
 10
753.8275756839999531
 20
236.719882202000008
  0
CIRCLE
  5
163
100
AcDbEntity
  8
0
 62
0
370
-1
 48
1.0
  6
BYLAYER
100
AcDbCircle
 10
788.8275756839999531
 20
240.0198822019999909
 30
0.0
 40
2.0
  0
CIRCLE
  5
164
100
AcDbEntity
  8
0
 62
0
370
-1
 48
1.0
  6
BYLAYER
100
AcDbCircle
 10
828.8275756839999531
 20
240.0198822019999909
 30
0.0
 40
2.0
  0
LWPOLYLINE
  5
165
100
AcDbEntity
  8
0
 62
256
370
-1
 48
1.0
  6
BYLAYER
100
AcDbPolyline
 90
4
 70
1
 10
863.8275756839999531
 20
243.719882202000008
 10
863.8275756839999531
 20
250.219882202000008
 10
753.8275756839999531
 20
250.219882202000008
 10
753.8275756839999531
 20
243.719882202000008
  0
CIRCLE
  5
166
100
AcDbEntity
  8
0
 62
0
370
-1
 48
1.0
  6
BYLAYER
100
AcDbCircle
 10
764.8275756839999531
 20
247.0198822019999909
 30
0.0
 40
2.0
  0
CIRCLE
  5
167
100
AcDbEntity
  8
0
 62
0
370
-1
 48
1.0
  6
BYLAYER
100
AcDbCircle
 10
852.8275756839999531
 20
247.0198822019999909
 30
0.0
 40
2.0
  0
LWPOLYLINE
  5
168
100
AcDbEntity
  8
0
 62
256
370
-1
 48
1.0
  6
BYLAYER
100
AcDbPolyline
 90
4
 70
1
 10
863.8275756839999531
 20
250.719882202000008
 10
863.8275756839999531
 20
257.219882202000008
 10
753.8275756839999531
 20
257.219882202000008
 10
753.8275756839999531
 20
250.719882202000008
  0
CIRCLE
  5
169
100
AcDbEntity
  8
0
 62
0
370
-1
 48
1.0
  6
BYLAYER
100
AcDbCircle
 10
788.8275756839999531
 20
254.0198822019999909
 30
0.0
 40
2.0
  0
CIRCLE
  5
16A
100
AcDbEntity
  8
0
 62
0
370
-1
 48
1.0
  6
BYLAYER
100
AcDbCircle
 10
828.8275756839999531
 20
254.0198822019999909
 30
0.0
 40
2.0
  0
LWPOLYLINE
  5
16B
100
AcDbEntity
  8
0
 62
256
370
-1
 48
1.0
  6
BYLAYER
100
AcDbPolyline
 90
4
 70
1
 10
863.8275756839999531
 20
257.719882202000008
 10
863.8275756839999531
 20
264.219882202000008
 10
753.8275756839999531
 20
264.219882202000008
 10
753.8275756839999531
 20
257.719882202000008
  0
CIRCLE
  5
16C
100
AcDbEntity
  8
0
 62
0
370
-1
 48
1.0
  6
BYLAYER
100
AcDbCircle
 10
764.8275756839999531
 20
261.0198822020000193
 30
0.0
 40
2.0
  0
CIRCLE
  5
16D
100
AcDbEntity
  8
0
 62
0
370
-1
 48
1.0
  6
BYLAYER
100
AcDbCircle
 10
852.8275756839999531
 20
261.0198822020000193
 30
0.0
 40
2.0
  0
LWPOLYLINE
  5
16E
100
AcDbEntity
  8
0
 62
256
370
-1
 48
1.0
  6
BYLAYER
100
AcDbPolyline
 90
4
 70
1
 10
863.8275756839999531
 20
264.719882202000008
 10
863.8275756839999531
 20
271.219882202000008
 10
753.8275756839999531
 20
271.219882202000008
 10
753.8275756839999531
 20
264.719882202000008
  0
CIRCLE
  5
16F
100
AcDbEntity
  8
0
 62
0
370
-1
 48
1.0
  6
BYLAYER
100
AcDbCircle
 10
788.8275756839999531
 20
268.0198822020000193
 30
0.0
 40
2.0
  0
CIRCLE
  5
170
100
AcDbEntity
  8
0
 62
0
370
-1
 48
1.0
  6
BYLAYER
100
AcDbCircle
 10
828.8275756839999531
 20
268.0198822020000193
 30
0.0
 40
2.0
  0
LWPOLYLINE
  5
171
100
AcDbEntity
  8
0
 62
256
370
-1
 48
1.0
  6
BYLAYER
100
AcDbPolyline
 90
4
 70
1
 10
863.8275756839999531
 20
271.719882202000008
 10
863.8275756839999531
 20
278.219882202000008
 10
753.8275756839999531
 20
278.219882202000008
 10
753.8275756839999531
 20
271.719882202000008
  0
CIRCLE
  5
172
100
AcDbEntity
  8
0
 62
0
370
-1
 48
1.0
  6
BYLAYER
100
AcDbCircle
 10
764.8275756839999531
 20
275.0198822020000193
 30
0.0
 40
2.0
  0
CIRCLE
  5
173
100
AcDbEntity
  8
0
 62
0
370
-1
 48
1.0
  6
BYLAYER
100
AcDbCircle
 10
852.8275756839999531
 20
275.0198822020000193
 30
0.0
 40
2.0
  0
LWPOLYLINE
  5
174
100
AcDbEntity
  8
0
 62
256
370
-1
 48
1.0
  6
BYLAYER
100
AcDbPolyline
 90
4
 70
1
 10
863.8275756839999531
 20
278.719882202000008
 10
863.8275756839999531
 20
285.219882202000008
 10
753.8275756839999531
 20
285.219882202000008
 10
753.8275756839999531
 20
278.719882202000008
  0
CIRCLE
  5
175
100
AcDbEntity
  8
0
 62
0
370
-1
 48
1.0
  6
BYLAYER
100
AcDbCircle
 10
788.8275756839999531
 20
282.0198822020000193
 30
0.0
 40
2.0
  0
CIRCLE
  5
176
100
AcDbEntity
  8
0
 62
0
370
-1
 48
1.0
  6
BYLAYER
100
AcDbCircle
 10
828.8275756839999531
 20
282.0198822020000193
 30
0.0
 40
2.0
  0
LWPOLYLINE
  5
177
100
AcDbEntity
  8
0
 62
256
370
-1
 48
1.0
  6
BYLAYER
100
AcDbPolyline
 90
4
 70
1
 10
863.8275756839999531
 20
285.719882202000008
 10
863.8275756839999531
 20
292.219882202000008
 10
753.8275756839999531
 20
292.219882202000008
 10
753.8275756839999531
 20
285.719882202000008
  0
CIRCLE
  5
178
100
AcDbEntity
  8
0
 62
0
370
-1
 48
1.0
  6
BYLAYER
100
AcDbCircle
 10
764.8275756839999531
 20
289.0198822020000193
 30
0.0
 40
2.0
  0
CIRCLE
  5
179
100
AcDbEntity
  8
0
 62
0
370
-1
 48
1.0
  6
BYLAYER
100
AcDbCircle
 10
852.8275756839999531
 20
289.0198822020000193
 30
0.0
 40
2.0
  0
LWPOLYLINE
  5
17A
100
AcDbEntity
  8
0
 62
256
370
-1
 48
1.0
  6
BYLAYER
100
AcDbPolyline
 90
6
 70
1
 10
863.8275756839999531
 20
292.719882202000008
 10
863.8275756839999531
 20
301.719882202000008
 42
0.414213562373
 10
863.5275756839999985
 20
302.0198822020000193
 10
754.1275756840000213
 20
302.0198822020000193
 42
0.414213562373
 10
753.8275756839999531
 20
301.719882202000008
 10
753.8275756839999531
 20
292.719882202000008
  0
CIRCLE
  5
17B
100
AcDbEntity
  8
0
 62
0
370
-1
 48
1.0
  6
BYLAYER
100
AcDbCircle
 10
788.8275756839999531
 20
296.0198822020000193
 30
0.0
 40
2.0
  0
CIRCLE
  5
17C
100
AcDbEntity
  8
0
 62
0
370
-1
 48
1.0
  6
BYLAYER
100
AcDbCircle
 10
828.8275756839999531
 20
296.0198822020000193
 30
0.0
 40
2.0
  0
LWPOLYLINE
  5
17D
100
AcDbEntity
  8
0
 62
256
370
-1
 48
1.0
  6
BYLAYER
100
AcDbPolyline
 90
6
 70
1
 10
978.5275756839999985
 20
184.0198822019999909
 42
0.414213562373
 10
978.8275756839999531
 20
184.3198822020000023
 10
978.8275756839999531
 20
194.219882202000008
 10
868.8275756839999531
 20
194.219882202000008
 10
868.8275756839999531
 20
184.3198822020000023
 42
0.414213562373
 10
869.1275756840000213
 20
184.0198822019999909
  0
CIRCLE
  5
17E
100
AcDbEntity
  8
0
 62
0
370
-1
 48
1.0
  6
BYLAYER
100
AcDbCircle
 10
967.8275756839999531
 20
191.0198822019999909
 30
0.0
 40
2.0
  0
CIRCLE
  5
17F
100
AcDbEntity
  8
0
 62
0
370
-1
 48
1.0
  6
BYLAYER
100
AcDbCircle
 10
879.8275756839999531
 20
191.0198822019999909
 30
0.0
 40
2.0
  0
LWPOLYLINE
  5
180
100
AcDbEntity
  8
0
 62
256
370
-1
 48
1.0
  6
BYLAYER
100
AcDbPolyline
 90
4
 70
1
 10
978.8275756839999531
 20
194.719882202000008
 10
978.8275756839999531
 20
201.219882202000008
 10
868.8275756839999531
 20
201.219882202000008
 10
868.8275756839999531
 20
194.719882202000008
  0
CIRCLE
  5
181
100
AcDbEntity
  8
0
 62
0
370
-1
 48
1.0
  6
BYLAYER
100
AcDbCircle
 10
943.8275756839999531
 20
198.0198822019999909
 30
0.0
 40
2.0
  0
CIRCLE
  5
182
100
AcDbEntity
  8
0
 62
0
370
-1
 48
1.0
  6
BYLAYER
100
AcDbCircle
 10
903.8275756839999531
 20
198.0198822019999909
 30
0.0
 40
2.0
  0
LWPOLYLINE
  5
183
100
AcDbEntity
  8
0
 62
256
370
-1
 48
1.0
  6
BYLAYER
100
AcDbPolyline
 90
4
 70
1
 10
978.8275756839999531
 20
201.719882202000008
 10
978.8275756839999531
 20
208.219882202000008
 10
868.8275756839999531
 20
208.219882202000008
 10
868.8275756839999531
 20
201.719882202000008
  0
CIRCLE
  5
184
100
AcDbEntity
  8
0
 62
0
370
-1
 48
1.0
  6
BYLAYER
100
AcDbCircle
 10
967.8275756839999531
 20
205.0198822019999909
 30
0.0
 40
2.0
  0
CIRCLE
  5
185
100
AcDbEntity
  8
0
 62
0
370
-1
 48
1.0
  6
BYLAYER
100
AcDbCircle
 10
879.8275756839999531
 20
205.0198822019999909
 30
0.0
 40
2.0
  0
LWPOLYLINE
  5
186
100
AcDbEntity
  8
0
 62
256
370
-1
 48
1.0
  6
BYLAYER
100
AcDbPolyline
 90
4
 70
1
 10
978.8275756839999531
 20
208.719882202000008
 10
978.8275756839999531
 20
215.219882202000008
 10
868.8275756839999531
 20
215.219882202000008
 10
868.8275756839999531
 20
208.719882202000008
  0
CIRCLE
  5
187
100
AcDbEntity
  8
0
 62
0
370
-1
 48
1.0
  6
BYLAYER
100
AcDbCircle
 10
943.8275756839999531
 20
212.0198822019999909
 30
0.0
 40
2.0
  0
CIRCLE
  5
188
100
AcDbEntity
  8
0
 62
0
370
-1
 48
1.0
  6
BYLAYER
100
AcDbCircle
 10
903.8275756839999531
 20
212.0198822019999909
 30
0.0
 40
2.0
  0
LWPOLYLINE
  5
189
100
AcDbEntity
  8
0
 62
256
370
-1
 48
1.0
  6
BYLAYER
100
AcDbPolyline
 90
4
 70
1
 10
978.8275756839999531
 20
215.719882202000008
 10
978.8275756839999531
 20
222.219882202000008
 10
868.8275756839999531
 20
222.219882202000008
 10
868.8275756839999531
 20
215.719882202000008
  0
CIRCLE
  5
18A
100
AcDbEntity
  8
0
 62
0
370
-1
 48
1.0
  6
BYLAYER
100
AcDbCircle
 10
967.8275756839999531
 20
219.0198822019999909
 30
0.0
 40
2.0
  0
CIRCLE
  5
18B
100
AcDbEntity
  8
0
 62
0
370
-1
 48
1.0
  6
BYLAYER
100
AcDbCircle
 10
879.8275756839999531
 20
219.0198822019999909
 30
0.0
 40
2.0
  0
LWPOLYLINE
  5
18C
100
AcDbEntity
  8
0
 62
256
370
-1
 48
1.0
  6
BYLAYER
100
AcDbPolyline
 90
4
 70
1
 10
978.8275756839999531
 20
222.719882202000008
 10
978.8275756839999531
 20
229.219882202000008
 10
868.8275756839999531
 20
229.219882202000008
 10
868.8275756839999531
 20
222.719882202000008
  0
CIRCLE
  5
18D
100
AcDbEntity
  8
0
 62
0
370
-1
 48
1.0
  6
BYLAYER
100
AcDbCircle
 10
943.8275756839999531
 20
226.0198822019999909
 30
0.0
 40
2.0
  0
CIRCLE
  5
18E
100
AcDbEntity
  8
0
 62
0
370
-1
 48
1.0
  6
BYLAYER
100
AcDbCircle
 10
903.8275756839999531
 20
226.0198822019999909
 30
0.0
 40
2.0
  0
LWPOLYLINE
  5
18F
100
AcDbEntity
  8
0
 62
256
370
-1
 48
1.0
  6
BYLAYER
100
AcDbPolyline
 90
4
 70
1
 10
978.8275756839999531
 20
229.719882202000008
 10
978.8275756839999531
 20
236.219882202000008
 10
868.8275756839999531
 20
236.219882202000008
 10
868.8275756839999531
 20
229.719882202000008
  0
CIRCLE
  5
190
100
AcDbEntity
  8
0
 62
0
370
-1
 48
1.0
  6
BYLAYER
100
AcDbCircle
 10
879.8275756839999531
 20
233.0198822019999909
 30
0.0
 40
2.0
  0
CIRCLE
  5
191
100
AcDbEntity
  8
0
 62
0
370
-1
 48
1.0
  6
BYLAYER
100
AcDbCircle
 10
967.8275756839999531
 20
233.0198822019999909
 30
0.0
 40
2.0
  0
LWPOLYLINE
  5
192
100
AcDbEntity
  8
0
 62
256
370
-1
 48
1.0
  6
BYLAYER
100
AcDbPolyline
 90
4
 70
1
 10
978.8275756839999531
 20
236.719882202000008
 10
978.8275756839999531
 20
243.219882202000008
 10
868.8275756839999531
 20
243.219882202000008
 10
868.8275756839999531
 20
236.719882202000008
  0
CIRCLE
  5
193
100
AcDbEntity
  8
0
 62
0
370
-1
 48
1.0
  6
BYLAYER
100
AcDbCircle
 10
903.8275756839999531
 20
240.0198822019999909
 30
0.0
 40
2.0
  0
CIRCLE
  5
194
100
AcDbEntity
  8
0
 62
0
370
-1
 48
1.0
  6
BYLAYER
100
AcDbCircle
 10
943.8275756839999531
 20
240.0198822019999909
 30
0.0
 40
2.0
  0
LWPOLYLINE
  5
195
100
AcDbEntity
  8
0
 62
256
370
-1
 48
1.0
  6
BYLAYER
100
AcDbPolyline
 90
4
 70
1
 10
978.8275756839999531
 20
243.719882202000008
 10
978.8275756839999531
 20
250.219882202000008
 10
868.8275756839999531
 20
250.219882202000008
 10
868.8275756839999531
 20
243.719882202000008
  0
CIRCLE
  5
196
100
AcDbEntity
  8
0
 62
0
370
-1
 48
1.0
  6
BYLAYER
100
AcDbCircle
 10
879.8275756839999531
 20
247.0198822019999909
 30
0.0
 40
2.0
  0
CIRCLE
  5
197
100
AcDbEntity
  8
0
 62
0
370
-1
 48
1.0
  6
BYLAYER
100
AcDbCircle
 10
967.8275756839999531
 20
247.0198822019999909
 30
0.0
 40
2.0
  0
LWPOLYLINE
  5
198
100
AcDbEntity
  8
0
 62
256
370
-1
 48
1.0
  6
BYLAYER
100
AcDbPolyline
 90
4
 70
1
 10
978.8275756839999531
 20
250.719882202000008
 10
978.8275756839999531
 20
257.219882202000008
 10
868.8275756839999531
 20
257.219882202000008
 10
868.8275756839999531
 20
250.719882202000008
  0
CIRCLE
  5
199
100
AcDbEntity
  8
0
 62
0
370
-1
 48
1.0
  6
BYLAYER
100
AcDbCircle
 10
903.8275756839999531
 20
254.0198822019999909
 30
0.0
 40
2.0
  0
CIRCLE
  5
19A
100
AcDbEntity
  8
0
 62
0
370
-1
 48
1.0
  6
BYLAYER
100
AcDbCircle
 10
943.8275756839999531
 20
254.0198822019999909
 30
0.0
 40
2.0
  0
LWPOLYLINE
  5
19B
100
AcDbEntity
  8
0
 62
256
370
-1
 48
1.0
  6
BYLAYER
100
AcDbPolyline
 90
4
 70
1
 10
978.8275756839999531
 20
257.719882202000008
 10
978.8275756839999531
 20
264.219882202000008
 10
868.8275756839999531
 20
264.219882202000008
 10
868.8275756839999531
 20
257.719882202000008
  0
CIRCLE
  5
19C
100
AcDbEntity
  8
0
 62
0
370
-1
 48
1.0
  6
BYLAYER
100
AcDbCircle
 10
879.8275756839999531
 20
261.0198822020000193
 30
0.0
 40
2.0
  0
CIRCLE
  5
19D
100
AcDbEntity
  8
0
 62
0
370
-1
 48
1.0
  6
BYLAYER
100
AcDbCircle
 10
967.8275756839999531
 20
261.0198822020000193
 30
0.0
 40
2.0
  0
LWPOLYLINE
  5
19E
100
AcDbEntity
  8
0
 62
256
370
-1
 48
1.0
  6
BYLAYER
100
AcDbPolyline
 90
4
 70
1
 10
978.8275756839999531
 20
264.719882202000008
 10
978.8275756839999531
 20
271.219882202000008
 10
868.8275756839999531
 20
271.219882202000008
 10
868.8275756839999531
 20
264.719882202000008
  0
CIRCLE
  5
19F
100
AcDbEntity
  8
0
 62
0
370
-1
 48
1.0
  6
BYLAYER
100
AcDbCircle
 10
903.8275756839999531
 20
268.0198822020000193
 30
0.0
 40
2.0
  0
CIRCLE
  5
1A0
100
AcDbEntity
  8
0
 62
0
370
-1
 48
1.0
  6
BYLAYER
100
AcDbCircle
 10
943.8275756839999531
 20
268.0198822020000193
 30
0.0
 40
2.0
  0
LWPOLYLINE
  5
1A1
100
AcDbEntity
  8
0
 62
256
370
-1
 48
1.0
  6
BYLAYER
100
AcDbPolyline
 90
4
 70
1
 10
978.8275756839999531
 20
271.719882202000008
 10
978.8275756839999531
 20
278.219882202000008
 10
868.8275756839999531
 20
278.219882202000008
 10
868.8275756839999531
 20
271.719882202000008
  0
CIRCLE
  5
1A2
100
AcDbEntity
  8
0
 62
0
370
-1
 48
1.0
  6
BYLAYER
100
AcDbCircle
 10
879.8275756839999531
 20
275.0198822020000193
 30
0.0
 40
2.0
  0
CIRCLE
  5
1A3
100
AcDbEntity
  8
0
 62
0
370
-1
 48
1.0
  6
BYLAYER
100
AcDbCircle
 10
967.8275756839999531
 20
275.0198822020000193
 30
0.0
 40
2.0
  0
LWPOLYLINE
  5
1A4
100
AcDbEntity
  8
0
 62
256
370
-1
 48
1.0
  6
BYLAYER
100
AcDbPolyline
 90
4
 70
1
 10
978.8275756839999531
 20
278.719882202000008
 10
978.8275756839999531
 20
285.219882202000008
 10
868.8275756839999531
 20
285.219882202000008
 10
868.8275756839999531
 20
278.719882202000008
  0
CIRCLE
  5
1A5
100
AcDbEntity
  8
0
 62
0
370
-1
 48
1.0
  6
BYLAYER
100
AcDbCircle
 10
903.8275756839999531
 20
282.0198822020000193
 30
0.0
 40
2.0
  0
CIRCLE
  5
1A6
100
AcDbEntity
  8
0
 62
0
370
-1
 48
1.0
  6
BYLAYER
100
AcDbCircle
 10
943.8275756839999531
 20
282.0198822020000193
 30
0.0
 40
2.0
  0
LWPOLYLINE
  5
1A7
100
AcDbEntity
  8
0
 62
256
370
-1
 48
1.0
  6
BYLAYER
100
AcDbPolyline
 90
4
 70
1
 10
978.8275756839999531
 20
285.719882202000008
 10
978.8275756839999531
 20
292.219882202000008
 10
868.8275756839999531
 20
292.219882202000008
 10
868.8275756839999531
 20
285.719882202000008
  0
CIRCLE
  5
1A8
100
AcDbEntity
  8
0
 62
0
370
-1
 48
1.0
  6
BYLAYER
100
AcDbCircle
 10
879.8275756839999531
 20
289.0198822020000193
 30
0.0
 40
2.0
  0
CIRCLE
  5
1A9
100
AcDbEntity
  8
0
 62
0
370
-1
 48
1.0
  6
BYLAYER
100
AcDbCircle
 10
967.8275756839999531
 20
289.0198822020000193
 30
0.0
 40
2.0
  0
LWPOLYLINE
  5
1AA
100
AcDbEntity
  8
0
 62
256
370
-1
 48
1.0
  6
BYLAYER
100
AcDbPolyline
 90
6
 70
1
 10
978.8275756839999531
 20
292.719882202000008
 10
978.8275756839999531
 20
301.719882202000008
 42
0.414213562373
 10
978.5275756839999985
 20
302.0198822020000193
 10
869.1275756840000213
 20
302.0198822020000193
 42
0.414213562373
 10
868.8275756839999531
 20
301.719882202000008
 10
868.8275756839999531
 20
292.719882202000008
  0
CIRCLE
  5
1AB
100
AcDbEntity
  8
0
 62
0
370
-1
 48
1.0
  6
BYLAYER
100
AcDbCircle
 10
903.8275756839999531
 20
296.0198822020000193
 30
0.0
 40
2.0
  0
CIRCLE
  5
1AC
100
AcDbEntity
  8
0
 62
0
370
-1
 48
1.0
  6
BYLAYER
100
AcDbCircle
 10
943.8275756839999531
 20
296.0198822020000193
 30
0.0
 40
2.0
  0
ENDBLK
  5
1AD
100
AcDbEntity
  8
0
100
AcDbBlockEnd
  0
BLOCK
  5
1AE
100
AcDbEntity
  8
0
100
AcDbBlockBegin
  2
CUT005
 70
0
 10
0.0
 20
0.0
 30
0.0
  3
CUT005
  1

  0
LWPOLYLINE
  5
1AF
100
AcDbEntity
  8
0
 62
256
370
-1
 48
1.0
  6
BYLAYER
100
AcDbPolyline
 90
64
 70
1
 10
469.9821566539999935
 20
252.8019196879999981
 42
0.31596780184
 10
469.6999999999999886
 20
253.0
 10
460.3000000000000114
 20
253.0
 42
0.414213562373
 10
460.0
 20
252.6999999999999886
 10
460.0
 20
248.3000000000000114
 42
0.414213562373
 10
460.3000000000000114
 20
248.0
 10
469.6999999999999886
 20
248.0
 42
0.351807123054
 10
469.9929215629999817
 20
248.2352160659999925
 42
-0.193523008563
 10
407.5321311210000204
 20
96.4303817013999947
 42
0.315967801836
 10
407.4726801699999896
 20
96.7699605168999994
 10
400.8258764270000256
 20
103.4167642599999937
 42
0.414213562373
 10
400.4016123580000226
 20
103.4167642599999937
 10
397.2903425210000137
 20
100.305494422999999
 42
0.414213562373
 10
397.2903425210000137
 20
99.8812303540999977
 10
403.9371462639999777
 20
93.2344266109000017
 42
0.351807123041
 10
404.3105959630000257
 20
93.1936226627999957
 42
-0.193523008563
 10
252.8019196879999981
 20
30.0178433461999994
 42
0.31596780184
 10
253.0
 20
30.3000000000000007
 10
253.0
 20
39.7000000000000028
 42
0.414213562373
 10
252.6999999999999886
 20
40.0
 10
248.3000000000000114
 20
40.0
 42
0.414213562373
 10
248.0
 20
39.7000000000000028
 10
248.0
 20
30.3000000000000007
 42
0.351807123053
 10
248.2352160659999925
 20
30.0070784374000006
 42
-0.193523008563
 10
96.4303817013999947
 20
92.4678688786000009
 42
0.315967801836
 10
96.7699605168999994
 20
92.5273198298000068
 10
103.4167642599999937
 20
99.174123572900001
 42
0.414213562373
 10
103.4167642599999937
 20
99.5983876415999987
 10
100.305494422999999
 20
102.7096574790000005
 42
0.414213562373
 10
99.8812303540999977
 20
102.7096574790000005
 10
93.2344266109000017
 20
96.0628537357000027
 42
0.351807123042
 10
93.1936226627999957
 20
95.6894040372999939
 42
-0.193523008563
 10
30.0178433461999994
 20
247.1980803120000019
 42
0.31596780184
 10
30.3000000000000007
 20
247.0
 10
39.7000000000000028
 20
247.0
 42
0.414213562373
 10
40.0
 20
247.3000000000000114
 10
40.0
 20
251.6999999999999886
 42
0.414213562373
 10
39.7000000000000028
 20
252.0
 10
30.3000000000000007
 20
252.0
 42
0.351807123054
 10
30.0070784374000006
 20
251.7647839340000075
 42
-0.193523008563
 10
92.4678688786000009
 20
403.5696182990000125
 42
0.315967801836
 10
92.5273198298000068
 20
403.2300394829999846
 10
99.174123572900001
 20
396.5832357400000205
 42
0.414213562373
 10
99.5983876415999987
 20
396.5832357400000205
 10
102.7096574790000005
 20
399.6945055769999726
 42
0.414213562373
 10
102.7096574790000005
 20
400.1187696459999756
 10
96.0628537357000027
 20
406.7655733889999965
 42
0.351807123042
 10
95.6894040372999939
 20
406.8063773370000149
 42
-0.193523008563
 10
247.1980803120000019
 20
469.9821566539999935
 42
0.31596780184
 10
247.0
 20
469.6999999999999886
 10
247.0
 20
460.3000000000000114
 42
0.414213562373
 10
247.3000000000000114
 20
460.0
 10
251.6999999999999886
 20
460.0
 42
0.414213562373
 10
252.0
 20
460.3000000000000114
 10
252.0
 20
469.6999999999999886
 42
0.351807123054
 10
251.7647839340000075
 20
469.9929215629999817
 42
-0.193523008563
 10
403.5696182990000125
 20
407.5321311210000204
 42
0.315967801836
 10
403.2300394829999846
 20
407.4726801699999896
 10
396.5832357400000205
 20
400.8258764270000256
 42
0.414213562373
 10
396.5832357400000205
 20
400.4016123580000226
 10
399.6945055769999726
 20
397.2903425210000137
 42
0.414213562373
 10
400.1187696459999756
 20
397.2903425210000137
 10
406.7655733889999965
 20
403.9371462639999777
 42
0.351807123041
 10
406.8063773370000149
 20
404.3105959630000257
 42
-0.193523008563
  0
CIRCLE
  5
1B0
100
AcDbEntity
  8
0
 62
0
370
-1
 48
1.0
  6
BYLAYER
100
AcDbCircle
 10
250.0
 20
250.0
 30
0.0
 40
195.0
  0
ENDBLK
  5
1B1
100
AcDbEntity
  8
0
100
AcDbBlockEnd
  0
ENDSEC
  0
SECTION
  2
ENTITIES
  0
INSERT
  5
1B2
100
AcDbEntity
  8
0
 62
0
370
-1
 48
1.0
  6
BYLAYER
100
AcDbBlockReference
  2
ARRAY001
 10
0.0
 20
0.0
 30
0.0
  0
LWPOLYLINE
  5
1B3
100
AcDbEntity
  8
0
 62
256
370
-1
 48
1.0
  6
BYLAYER
100
AcDbPolyline
 90
4
 70
1
 10
542.004943848000039
 20
153.1466827389999992
 10
667.004943848000039
 20
153.1466827389999992
 10
667.004943848000039
 20
163.1466827389999992
 10
542.004943848000039
 20
163.1466827389999992
  0
INSERT
  5
1B4
100
AcDbEntity
  8
0
 62
0
370
-1
 48
1.0
  6
BYLAYER
100
AcDbBlockReference
  2
CUT005
 10
0.0
 20
0.0
 30
0.0
  0
INSERT
  5
1B5
100
AcDbEntity
  8
0
 62
0
370
-1
 48
1.0
  6
BYLAYER
100
AcDbBlockReference
  2
CUT003
 10
0.0
 20
0.0
 30
0.0
  0
INSERT
  5
1B6
100
AcDbEntity
  8
0
 62
0
370
-1
 48
1.0
  6
BYLAYER
100
AcDbBlockReference
  2
ARRAY008
 10
0.0
 20
0.0
 30
0.0
  0
INSERT
  5
1B7
100
AcDbEntity
  8
0
 62
0
370
-1
 48
1.0
  6
BYLAYER
100
AcDbBlockReference
  2
CUT004
 10
0.0
 20
0.0
 30
0.0
  0
ENDSEC
  0
SECTION
  2
OBJECTS
  0
DICTIONARY
  5
C
100
AcDbDictionary
280
0
281
1
  3
ACAD_GROUP
350
D
  3
ACAD_LAYOUT
350
1A
  3
ACAD_MLINESTYLE
350
17
  3
ACAD_PLOTSETTINGS
350
19
  3
ACAD_PLOTSTYLENAME
350
E
  3
AcDbVariableDictionary
350
1B8
  3
QCAD_OBJECTS
350
1B9
  0
DICTIONARY
  5
D
100
AcDbDictionary
280
0
281
1
  0
ACDBDICTIONARYWDFLT
  5
E
100
AcDbDictionary
281
1
  3
Normal
350
F
100
AcDbDictionaryWithDefault
340
F
  0
ACDBPLACEHOLDER
  5
F
  0
DICTIONARY
  5
17
100
AcDbDictionary
280
0
281
1
  3
Standard
350
18
  0
MLINESTYLE
  5
18
100
AcDbMlineStyle
  2
STANDARD
 70
0
  3

 62
256
 51
90.0
 52
90.0
 71
2
 49
0.5
 62
256
  6
BYLAYER
 49
-0.5
 62
256
  6
BYLAYER
  0
DICTIONARY
  5
19
100
AcDbDictionary
280
0
281
1
  0
DICTIONARY
  5
1A
100
AcDbDictionary
281
1
  3
Layout1
350
1E
  3
Layout2
350
26
  3
Model
350
22
  0
LAYOUT
  5
1E
100
AcDbPlotSettings
  1

  2
none_device
  4

  6

 40
0.0
 41
0.0
 42
0.0
 43
0.0
 44
0.0
 45
0.0
 46
0.0
 47
0.0
 48
0.0
 49
0.0
140
0.0
141
0.0
142
1.0
143
1.0
 70
688
 72
0
 73
0
 74
5
  7

 75
16
147
1.0
148
0.0
149
0.0
100
AcDbLayout
  1
Layout1
 70
1
 71
1
 10
0.0
 20
0.0
 11
420.0
 21
297.0
 12
0.0
 22
0.0
 32
0.0
 14
100000000000000000000.0
 24
100000000000000000000.0
 34
100000000000000000000.0
 15
-100000000000000000000.0
 25
-100000000000000000000.0
 35
-100000000000000000000.0
146
0.0
 13
0.0
 23
0.0
 33
0.0
 16
1.0
 26
0.0
 36
0.0
 17
0.0
 27
1.0
 37
0.0
 76
0
330
1B
  0
LAYOUT
  5
22
100
AcDbPlotSettings
  1

  2
none_device
  4

  6

 40
0.0
 41
0.0
 42
0.0
 43
0.0
 44
0.0
 45
0.0
 46
0.0
 47
0.0
 48
0.0
 49
0.0
140
0.0
141
0.0
142
1.0
143
1.0
 70
1712
 72
0
 73
0
 74
0
  7

 75
0
147
1.0
148
0.0
149
0.0
100
AcDbLayout
  1
Model
 70
1
 71
0
 10
0.0
 20
0.0
 11
12.0
 21
9.0
 12
0.0
 22
0.0
 32
0.0
 14
0.0
 24
0.0
 34
0.0
 15
0.0
 25
0.0
 35
0.0
146
0.0
 13
0.0
 23
0.0
 33
0.0
 16
1.0
 26
0.0
 36
0.0
 17
0.0
 27
1.0
 37
0.0
 76
0
330
1F
  0
LAYOUT
  5
26
100
AcDbPlotSettings
  1

  2
none_device
  4

  6

 40
0.0
 41
0.0
 42
0.0
 43
0.0
 44
0.0
 45
0.0
 46
0.0
 47
0.0
 48
0.0
 49
0.0
140
0.0
141
0.0
142
1.0
143
1.0
 70
688
 72
0
 73
0
 74
5
  7

 75
16
147
1.0
148
0.0
149
0.0
100
AcDbLayout
  1
Layout2
 70
1
 71
2
 10
0.0
 20
0.0
 11
12.0
 21
9.0
 12
0.0
 22
0.0
 32
0.0
 14
0.0
 24
0.0
 34
0.0
 15
0.0
 25
0.0
 35
0.0
146
0.0
 13
0.0
 23
0.0
 33
0.0
 16
1.0
 26
0.0
 36
0.0
 17
0.0
 27
1.0
 37
0.0
 76
0
330
23
  0
DICTIONARY
  5
1B8
100
AcDbDictionary
281
1
  3
DIMASSOC
350
1BB
  3
HIDETEXT
350
1BA
  0
DICTIONARYVAR
  5
1BA
100
DictionaryVariables
280
0
  1
2
  0
DICTIONARYVAR
  5
1BB
100
DictionaryVariables
280
0
  1
1
  0
DICTIONARY
  5
1B9
100
AcDbDictionary
281
1
  3
ColorSettings/BackgroundColor
350
1BC
  3
ColorSettings/ColorMode
350
1BD
  3
Grid/DisplayGrid00
350
1BE
  3
Grid/DisplayGrid01
350
1BF
  3
Grid/DisplayGrid02
350
1C0
  3
Grid/DisplayGrid03
350
1C1
  3
Grid/GridSpacingX00
350
1C2
  3
Grid/GridSpacingX01
350
1C3
  3
Grid/GridSpacingX02
350
1C4
  3
Grid/GridSpacingX03
350
1C5
  3
Grid/GridSpacingY00
350
1C6
  3
Grid/GridSpacingY01
350
1C7
  3
Grid/GridSpacingY02
350
1C8
  3
Grid/GridSpacingY03
350
1C9
  3
Grid/IsometricGrid00
350
1CA
  3
Grid/IsometricGrid01
350
1CB
  3
Grid/IsometricGrid02
350
1CC
  3
Grid/IsometricGrid03
350
1CD
  3
Grid/IsometricProjection00
350
1CE
  3
Grid/IsometricProjection01
350
1CF
  3
Grid/IsometricProjection02
350
1D0
  3
Grid/IsometricProjection03
350
1D1
  3
Grid/MetaGridSpacingX00
350
1D2
  3
Grid/MetaGridSpacingX01
350
1D3
  3
Grid/MetaGridSpacingX02
350
1D4
  3
Grid/MetaGridSpacingX03
350
1D5
  3
Grid/MetaGridSpacingY00
350
1D6
  3
Grid/MetaGridSpacingY01
350
1D7
  3
Grid/MetaGridSpacingY02
350
1D8
  3
Grid/MetaGridSpacingY03
350
1D9
  3
MultiPageSettings/Columns
350
1DA
  3
MultiPageSettings/GlueMarginsBottom
350
1DB
  3
MultiPageSettings/GlueMarginsLeft
350
1DC
  3
MultiPageSettings/GlueMarginsRight
350
1DD
  3
MultiPageSettings/GlueMarginsTop
350
1DE
  3
MultiPageSettings/PrintCropMarks
350
1DF
  3
MultiPageSettings/Rows
350
1E0
  3
PageSettings/OffsetX
350
1E1
  3
PageSettings/OffsetY
350
1E2
  3
PageSettings/PageOrientation
350
1E3
  3
PageSettings/PaperHeight
350
1E4
  3
PageSettings/PaperWidth
350
1E5
  3
PageSettings/Scale
350
1E6
  3
PageSettings/ShowPaperBorders
350
1E7
  3
QCADVersion
350
1E8
  3
UnitSettings/PaperUnit
350
1E9
  3
ViewportCenter
350
1EA
  3
ViewportHeight
350
1EB
  3
ViewportWidth
350
1EC
  0
XRECORD
  5
1BC
330
1B9
100
AcDbXrecord
280
1
1000
White
  0
XRECORD
  5
1BD
330
1B9
100
AcDbXrecord
280
1
1000
FullColor
  0
XRECORD
  5
1BE
330
1B9
100
AcDbXrecord
280
1
290
1
  0
XRECORD
  5
1BF
330
1B9
100
AcDbXrecord
280
1
290
1
  0
XRECORD
  5
1C0
330
1B9
100
AcDbXrecord
280
1
290
1
  0
XRECORD
  5
1C1
330
1B9
100
AcDbXrecord
280
1
290
1
  0
XRECORD
  5
1C2
330
1B9
100
AcDbXrecord
280
1
1000
auto
  0
XRECORD
  5
1C3
330
1B9
100
AcDbXrecord
280
1
1000
auto
  0
XRECORD
  5
1C4
330
1B9
100
AcDbXrecord
280
1
1000
auto
  0
XRECORD
  5
1C5
330
1B9
100
AcDbXrecord
280
1
1000
auto
  0
XRECORD
  5
1C6
330
1B9
100
AcDbXrecord
280
1
1000
auto
  0
XRECORD
  5
1C7
330
1B9
100
AcDbXrecord
280
1
1000
auto
  0
XRECORD
  5
1C8
330
1B9
100
AcDbXrecord
280
1
1000
auto
  0
XRECORD
  5
1C9
330
1B9
100
AcDbXrecord
280
1
1000
auto
  0
XRECORD
  5
1CA
330
1B9
100
AcDbXrecord
280
1
290
0
  0
XRECORD
  5
1CB
330
1B9
100
AcDbXrecord
280
1
290
0
  0
XRECORD
  5
1CC
330
1B9
100
AcDbXrecord
280
1
290
0
  0
XRECORD
  5
1CD
330
1B9
100
AcDbXrecord
280
1
290
0
  0
XRECORD
  5
1CE
330
1B9
100
AcDbXrecord
280
1
 90
65537
  0
XRECORD
  5
1CF
330
1B9
100
AcDbXrecord
280
1
 90
65537
  0
XRECORD
  5
1D0
330
1B9
100
AcDbXrecord
280
1
 90
65537
  0
XRECORD
  5
1D1
330
1B9
100
AcDbXrecord
280
1
 90
65537
  0
XRECORD
  5
1D2
330
1B9
100
AcDbXrecord
280
1
1000
auto
  0
XRECORD
  5
1D3
330
1B9
100
AcDbXrecord
280
1
1000
auto
  0
XRECORD
  5
1D4
330
1B9
100
AcDbXrecord
280
1
1000
auto
  0
XRECORD
  5
1D5
330
1B9
100
AcDbXrecord
280
1
1000
auto
  0
XRECORD
  5
1D6
330
1B9
100
AcDbXrecord
280
1
1000
auto
  0
XRECORD
  5
1D7
330
1B9
100
AcDbXrecord
280
1
1000
auto
  0
XRECORD
  5
1D8
330
1B9
100
AcDbXrecord
280
1
1000
auto
  0
XRECORD
  5
1D9
330
1B9
100
AcDbXrecord
280
1
1000
auto
  0
XRECORD
  5
1DA
330
1B9
100
AcDbXrecord
280
1
 90
1
  0
XRECORD
  5
1DB
330
1B9
100
AcDbXrecord
280
1
 40
10.0
  0
XRECORD
  5
1DC
330
1B9
100
AcDbXrecord
280
1
 40
10.0
  0
XRECORD
  5
1DD
330
1B9
100
AcDbXrecord
280
1
 40
10.0
  0
XRECORD
  5
1DE
330
1B9
100
AcDbXrecord
280
1
 40
10.0
  0
XRECORD
  5
1DF
330
1B9
100
AcDbXrecord
280
1
290
0
  0
XRECORD
  5
1E0
330
1B9
100
AcDbXrecord
280
1
 90
1
  0
XRECORD
  5
1E1
330
1B9
100
AcDbXrecord
280
1
 40
0.0
  0
XRECORD
  5
1E2
330
1B9
100
AcDbXrecord
280
1
 40
0.0
  0
XRECORD
  5
1E3
330
1B9
100
AcDbXrecord
280
1
1000
Portrait
  0
XRECORD
  5
1E4
330
1B9
100
AcDbXrecord
280
1
 40
297.0
  0
XRECORD
  5
1E5
330
1B9
100
AcDbXrecord
280
1
 40
210.0
  0
XRECORD
  5
1E6
330
1B9
100
AcDbXrecord
280
1
1000
1:1
  0
XRECORD
  5
1E7
330
1B9
100
AcDbXrecord
280
1
290
1
  0
XRECORD
  5
1E8
330
1B9
100
AcDbXrecord
280
1
1000
3.20.1
  0
XRECORD
  5
1E9
330
1B9
100
AcDbXrecord
280
1
 90
4
  0
XRECORD
  5
1EB
330
1B9
100
AcDbXrecord
280
1
 40
356.8866778866154732
  0
XRECORD
  5
1EC
330
1B9
100
AcDbXrecord
280
1
 40
499.1006116505243995
  0
ENDSEC
  0
EOF
