<?xml version="1.0" encoding="UTF-8" standalone="no"?>
<svg
   xmlns:dc="http://purl.org/dc/elements/1.1/"
   xmlns:cc="http://creativecommons.org/ns#"
   xmlns:rdf="http://www.w3.org/1999/02/22-rdf-syntax-ns#"
   xmlns:svg="http://www.w3.org/2000/svg"
   xmlns="http://www.w3.org/2000/svg"
   version="1.1"
   width="1000mm"
   height="610mm"
   id="svg2"
   viewBox="0 0 1000 610">
  <defs
     id="defs4">
    <symbol
       id="*PAPER_SPACE" />
    <symbol
       id="*MODEL_SPACE" />
    <pattern
       height="8"
       width="8"
       patternUnits="userSpaceOnUse"
       y="0"
       x="0"
       id="Hatch">
      <path
         linecap="square"
         stroke="#000000"
         stroke-width="0.25"
         d="M8 4 l-4,4"
         id="path617966" />
      <path
         linecap="square"
         stroke="#000000"
         stroke-width="0.25"
         d="M6 2 l-4,4"
         id="path617968" />
      <path
         linecap="square"
         stroke="#000000"
         stroke-width="0.25"
         d="M4 0 l-4,4"
         id="path617970" />
    </pattern>
    <marker
       refX="0"
       refY="0"
       orient="auto"
       id="DistanceX"
       style="overflow:visible">
      <path
         d="M 3,-3 -3,3 M 0,-5 0,5"
         id="path617963"
         style="stroke:#000000;stroke-width:0.5" />
    </marker>
    <symbol
       id="$PAPER_SPACE" />
    <symbol
       id="$MODEL_SPACE" />
    <pattern
       id="Hatch-0"
       x="0"
       y="0"
       patternUnits="userSpaceOnUse"
       width="8"
       height="8">
      <path
         id="path73478"
         d="M8 4 l-4,4"
         stroke-width="0.25"
         stroke="#000000"
         linecap="square" />
      <path
         id="path73480"
         d="M6 2 l-4,4"
         stroke-width="0.25"
         stroke="#000000"
         linecap="square" />
      <path
         id="path73482"
         d="M4 0 l-4,4"
         stroke-width="0.25"
         stroke="#000000"
         linecap="square" />
    </pattern>
    <marker
       refX="0"
       refY="0"
       orient="auto"
       id="DistanceX-5"
       style="overflow:visible">
      <path
         d="M 3,-3 -3,3 M 0,-5 0,5"
         id="path73475"
         style="stroke:#000000;stroke-width:0.5" />
    </marker>
    <symbol
       id="$PAPER_SPACE-1" />
    <symbol
       id="$MODEL_SPACE-0" />
    <pattern
       height="8"
       width="8"
       patternUnits="userSpaceOnUse"
       y="0"
       x="0"
       id="Hatch-1">
      <path
         linecap="square"
         stroke="#000000"
         stroke-width="0.25"
         d="M8 4 l-4,4"
         id="path44235" />
      <path
         linecap="square"
         stroke="#000000"
         stroke-width="0.25"
         d="M6 2 l-4,4"
         id="path44237" />
      <path
         linecap="square"
         stroke="#000000"
         stroke-width="0.25"
         d="M4 0 l-4,4"
         id="path44239" />
    </pattern>
    <marker
       refX="0"
       refY="0"
       orient="auto"
       id="DistanceX-1"
       style="overflow:visible">
      <path
         d="M 3,-3 -3,3 M 0,-5 0,5"
         id="path44232"
         style="stroke:#000000;stroke-width:0.5" />
    </marker>
    <symbol
       id="$PAPER_SPACE-5" />
    <symbol
       id="$MODEL_SPACE-4" />
    <pattern
       id="Hatch-04"
       x="0"
       y="0"
       patternUnits="userSpaceOnUse"
       width="8"
       height="8">
      <path
         id="path101669"
         d="M8 4 l-4,4"
         stroke-width="0.25"
         stroke="#000000"
         linecap="square" />
      <path
         id="path101671"
         d="M6 2 l-4,4"
         stroke-width="0.25"
         stroke="#000000"
         linecap="square" />
      <path
         id="path101673"
         d="M4 0 l-4,4"
         stroke-width="0.25"
         stroke="#000000"
         linecap="square" />
    </pattern>
    <marker
       orient="auto"
       id="DistanceX-2"
       style="overflow:visible"
       refX="0"
       refY="0">
      <path
         id="path101666"
         d="M 3,-3 -3,3 M 0,-5 0,5"
         style="stroke:#000000;stroke-width:0.5" />
    </marker>
    <symbol
       id="*PAPER_SPACE-9" />
    <symbol
       id="*MODEL_SPACE-2" />
    <pattern
       id="Hatch-9"
       x="0"
       y="0"
       patternUnits="userSpaceOnUse"
       width="8"
       height="8">
      <path
         id="path145873"
         d="M8 4 l-4,4"
         stroke-width="0.25"
         stroke="#000000"
         linecap="square" />
      <path
         id="path145875"
         d="M6 2 l-4,4"
         stroke-width="0.25"
         stroke="#000000"
         linecap="square" />
      <path
         id="path145877"
         d="M4 0 l-4,4"
         stroke-width="0.25"
         stroke="#000000"
         linecap="square" />
    </pattern>
    <marker
       orient="auto"
       id="DistanceX-24"
       style="overflow:visible"
       refX="0"
       refY="0">
      <path
         id="path145870"
         d="M 3,-3 -3,3 M 0,-5 0,5"
         style="stroke:#000000;stroke-width:0.5" />
    </marker>
    <symbol
       id="$PAPER_SPACE-4" />
    <symbol
       id="$MODEL_SPACE-1" />
    <pattern
       id="Hatch-8"
       x="0"
       y="0"
       patternUnits="userSpaceOnUse"
       width="8"
       height="8">
      <path
         id="path1947"
         d="M8 4 l-4,4"
         stroke-width="0.25"
         stroke="#000000"
         linecap="square" />
      <path
         id="path1949"
         d="M6 2 l-4,4"
         stroke-width="0.25"
         stroke="#000000"
         linecap="square" />
      <path
         id="path1951"
         d="M4 0 l-4,4"
         stroke-width="0.25"
         stroke="#000000"
         linecap="square" />
    </pattern>
    <marker
       orient="auto"
       id="DistanceX-55"
       style="overflow:visible"
       refX="0"
       refY="0">
      <path
         id="path1944"
         d="M 3,-3 -3,3 M 0,-5 0,5"
         style="stroke:#000000;stroke-width:0.5" />
    </marker>
    <symbol
       id="*PAPER_SPACE-7" />
    <symbol
       id="*MODEL_SPACE-0" />
    <pattern
       id="Hatch-82"
       x="0"
       y="0"
       patternUnits="userSpaceOnUse"
       width="8"
       height="8">
      <path
         id="path1175"
         d="M8 4 l-4,4"
         stroke-width="0.25"
         stroke="#000000"
         linecap="square" />
      <path
         id="path1177"
         d="M6 2 l-4,4"
         stroke-width="0.25"
         stroke="#000000"
         linecap="square" />
      <path
         id="path1179"
         d="M4 0 l-4,4"
         stroke-width="0.25"
         stroke="#000000"
         linecap="square" />
    </pattern>
    <marker
       orient="auto"
       id="DistanceX-29"
       style="overflow:visible"
       refX="0"
       refY="0">
      <path
         id="path1172"
         d="M 3,-3 -3,3 M 0,-5 0,5"
         style="stroke:#000000;stroke-width:0.5" />
    </marker>
    <symbol
       id="*PAPER_SPACE-76" />
    <symbol
       id="*MODEL_SPACE-5" />
    <pattern
       id="Hatch-3"
       x="0"
       y="0"
       patternUnits="userSpaceOnUse"
       width="8"
       height="8">
      <path
         id="path1809-9"
         d="M8 4 l-4,4"
         stroke-width="0.25"
         stroke="#000000"
         linecap="square" />
      <path
         id="path1811-8"
         d="M6 2 l-4,4"
         stroke-width="0.25"
         stroke="#000000"
         linecap="square" />
      <path
         id="path1813-6"
         d="M4 0 l-4,4"
         stroke-width="0.25"
         stroke="#000000"
         linecap="square" />
    </pattern>
    <marker
       orient="auto"
       id="DistanceX-0"
       style="overflow:visible"
       refX="0"
       refY="0">
      <path
         id="path1806"
         d="M 3,-3 -3,3 M 0,-5 0,5"
         style="stroke:#000000;stroke-width:0.5" />
    </marker>
    <symbol
       id="*PAPER_SPACE-6" />
    <symbol
       id="*MODEL_SPACE-7" />
    <pattern
       id="Hatch-5"
       x="0"
       y="0"
       patternUnits="userSpaceOnUse"
       width="8"
       height="8">
      <path
         id="path1851"
         d="M8 4 l-4,4"
         stroke-width="0.25"
         stroke="#000000"
         linecap="square" />
      <path
         id="path1853"
         d="M6 2 l-4,4"
         stroke-width="0.25"
         stroke="#000000"
         linecap="square" />
      <path
         id="path1855"
         d="M4 0 l-4,4"
         stroke-width="0.25"
         stroke="#000000"
         linecap="square" />
    </pattern>
    <marker
       orient="auto"
       id="DistanceX-6"
       style="overflow:visible"
       refX="0"
       refY="0">
      <path
         id="path1848"
         d="M 3,-3 -3,3 M 0,-5 0,5"
         style="stroke:#000000;stroke-width:0.5" />
    </marker>
    <symbol
       id="*PAPER_SPACE-0" />
    <symbol
       id="*MODEL_SPACE-27" />
    <pattern
       id="Hatch-6"
       x="0"
       y="0"
       patternUnits="userSpaceOnUse"
       width="8"
       height="8">
      <path
         id="path1858"
         d="M8 4 l-4,4"
         stroke-width="0.25"
         stroke="#000000"
         linecap="square" />
      <path
         id="path1860"
         d="M6 2 l-4,4"
         stroke-width="0.25"
         stroke="#000000"
         linecap="square" />
      <path
         id="path1862"
         d="M4 0 l-4,4"
         stroke-width="0.25"
         stroke="#000000"
         linecap="square" />
    </pattern>
    <marker
       orient="auto"
       id="DistanceX-65"
       style="overflow:visible"
       refX="0"
       refY="0">
      <path
         id="path1855-7"
         d="M 3,-3 -3,3 M 0,-5 0,5"
         style="stroke:#000000;stroke-width:0.5" />
    </marker>
    <marker
       style="overflow:visible"
       refY="0.0"
       refX="0.0"
       orient="auto"
       id="DistanceX-9">
      <path
         id="path10114"
         style="stroke:#000000; stroke-width:0.5"
         d="M 3,-3 L -3,3 M 0,-5 L  0,5" />
    </marker>
    <pattern
       y="0"
       x="0"
       width="8"
       patternUnits="userSpaceOnUse"
       id="Hatch-18"
       height="8">
      <path
         id="path10117"
         stroke-width="0.25"
         stroke="#000000"
         linecap="square"
         d="M8 4 l-4,4" />
      <path
         id="path10119"
         stroke-width="0.25"
         stroke="#000000"
         linecap="square"
         d="M6 2 l-4,4" />
      <path
         id="path10121"
         stroke-width="0.25"
         stroke="#000000"
         linecap="square"
         d="M4 0 l-4,4" />
    </pattern>
    <symbol
       id="*Model_Space" />
    <symbol
       id="*Paper_Space" />
    <symbol
       id="*Paper_Space0" />
    <symbol
       id="ARRAY">
      <path
         id="path10127"
         style="stroke:#000000;fill:none;stroke-linecap: round"
         d="M 54.512776,-286.578744 L 427.174193,-286.578744 A 2.645669,2.645669 0.0 0 0 429.819863,-289.224413 L 429.819863,-707.240161 A 2.645669,2.645669 0.0 0 0 427.174193,-709.885831 L 54.512776,-709.885831 A 2.645669,2.645669 0.0 0 0 51.867107,-707.240161 L 51.867107,-289.224413 A 2.645669,2.645669 0.0 0 0 54.512776,-286.578744 z" />
      <path
         id="path10129"
         style="stroke:#000000;fill:none;stroke-linecap: round"
         d="M 54.512776,166.964563 L 427.174193,166.964563 A 2.645669,2.645669 0.0 0 0 429.819863,164.318894 L 429.819863,-253.696854 A 2.645669,2.645669 0.0 0 0 427.174193,-256.342524 L 54.512776,-256.342524 A 2.645669,2.645669 0.0 0 0 51.867107,-253.696854 L 51.867107,164.318894 A 2.645669,2.645669 0.0 0 0 54.512776,166.964563 z" />
      <path
         id="path10131"
         style="stroke:#000000;fill:none;stroke-linecap: round"
         d="M 54.512776,620.507870 L 427.174193,620.507870 A 2.645669,2.645669 0.0 0 0 429.819863,617.862201 L 429.819863,199.846453 A 2.645669,2.645669 0.0 0 0 427.174193,197.200784 L 54.512776,197.200784 A 2.645669,2.645669 0.0 0 0 51.867107,199.846453 L 51.867107,617.862201 A 2.645669,2.645669 0.0 0 0 54.512776,620.507870 z" />
      <path
         id="path10133"
         style="stroke:#000000;fill:none;stroke-linecap: round"
         d="M 54.512776,1074.051177 L 427.174193,1074.051177 A 2.645669,2.645669 0.0 0 0 429.819863,1071.405508 L 429.819863,653.389760 A 2.645669,2.645669 0.0 0 0 427.174193,650.744091 L 54.512776,650.744091 A 2.645669,2.645669 0.0 0 0 51.867107,653.389760 L 51.867107,1071.405508 A 2.645669,2.645669 0.0 0 0 54.512776,1074.051177 z" />
      <path
         id="path10135"
         style="stroke:#000000;fill:none;stroke-linecap: round"
         d="M 523.174193,-286.578744 L 895.835611,-286.578744 A 2.645669,2.645669 0.0 0 0 898.481280,-289.224413 L 898.481280,-707.240161 A 2.645669,2.645669 0.0 0 0 895.835611,-709.885831 L 523.174193,-709.885831 A 2.645669,2.645669 0.0 0 0 520.528524,-707.240161 L 520.528524,-289.224413 A 2.645669,2.645669 0.0 0 0 523.174193,-286.578744 z" />
      <path
         id="path10137"
         style="stroke:#000000;fill:none;stroke-linecap: round"
         d="M 523.174193,166.964563 L 895.835611,166.964563 A 2.645669,2.645669 0.0 0 0 898.481280,164.318894 L 898.481280,-253.696854 A 2.645669,2.645669 0.0 0 0 895.835611,-256.342524 L 523.174193,-256.342524 A 2.645669,2.645669 0.0 0 0 520.528524,-253.696854 L 520.528524,164.318894 A 2.645669,2.645669 0.0 0 0 523.174193,166.964563 z" />
      <path
         id="path10139"
         style="stroke:#000000;fill:none;stroke-linecap: round"
         d="M 523.174193,620.507870 L 895.835611,620.507870 A 2.645669,2.645669 0.0 0 0 898.481280,617.862201 L 898.481280,199.846453 A 2.645669,2.645669 0.0 0 0 895.835611,197.200784 L 523.174193,197.200784 A 2.645669,2.645669 0.0 0 0 520.528524,199.846453 L 520.528524,617.862201 A 2.645669,2.645669 0.0 0 0 523.174193,620.507870 z" />
      <path
         id="path10141"
         style="stroke:#000000;fill:none;stroke-linecap: round"
         d="M 523.174193,1074.051177 L 895.835611,1074.051177 A 2.645669,2.645669 0.0 0 0 898.481280,1071.405508 L 898.481280,653.389760 A 2.645669,2.645669 0.0 0 0 895.835611,650.744091 L 523.174193,650.744091 A 2.645669,2.645669 0.0 0 0 520.528524,653.389760 L 520.528524,1071.405508 A 2.645669,2.645669 0.0 0 0 523.174193,1074.051177 z" />
      <path
         id="path10143"
         style="stroke:#000000;fill:none;stroke-linecap: round"
         d="M 991.835611,-286.578744 L 1364.497028,-286.578744 A 2.645669,2.645669 0.0 0 0 1367.142697,-289.224413 L 1367.142697,-707.240161 A 2.645669,2.645669 0.0 0 0 1364.497028,-709.885831 L 991.835611,-709.885831 A 2.645669,2.645669 0.0 0 0 989.189941,-707.240161 L 989.189941,-289.224413 A 2.645669,2.645669 0.0 0 0 991.835611,-286.578744 z" />
      <path
         id="path10145"
         style="stroke:#000000;fill:none;stroke-linecap: round"
         d="M 991.835611,166.964563 L 1364.497028,166.964563 A 2.645669,2.645669 0.0 0 0 1367.142697,164.318894 L 1367.142697,-253.696854 A 2.645669,2.645669 0.0 0 0 1364.497028,-256.342524 L 991.835611,-256.342524 A 2.645669,2.645669 0.0 0 0 989.189941,-253.696854 L 989.189941,164.318894 A 2.645669,2.645669 0.0 0 0 991.835611,166.964563 z" />
      <path
         id="path10147"
         style="stroke:#000000;fill:none;stroke-linecap: round"
         d="M 991.835611,620.507870 L 1364.497028,620.507870 A 2.645669,2.645669 0.0 0 0 1367.142697,617.862201 L 1367.142697,199.846453 A 2.645669,2.645669 0.0 0 0 1364.497028,197.200784 L 991.835611,197.200784 A 2.645669,2.645669 0.0 0 0 989.189941,199.846453 L 989.189941,617.862201 A 2.645669,2.645669 0.0 0 0 991.835611,620.507870 z" />
      <path
         id="path10149"
         style="stroke:#000000;fill:none;stroke-linecap: round"
         d="M 991.835611,1074.051177 L 1364.497028,1074.051177 A 2.645669,2.645669 0.0 0 0 1367.142697,1071.405508 L 1367.142697,653.389760 A 2.645669,2.645669 0.0 0 0 1364.497028,650.744091 L 991.835611,650.744091 A 2.645669,2.645669 0.0 0 0 989.189941,653.389760 L 989.189941,1071.405508 A 2.645669,2.645669 0.0 0 0 991.835611,1074.051177 z" />
      <path
         id="path10151"
         style="stroke:#000000;fill:none;stroke-linecap: round"
         d="M 1460.497028,-286.578744 L 1833.158445,-286.578744 A 2.645669,2.645669 0.0 0 0 1835.804115,-289.224413 L 1835.804115,-707.240161 A 2.645669,2.645669 0.0 0 0 1833.158445,-709.885831 L 1460.497028,-709.885831 A 2.645669,2.645669 0.0 0 0 1457.851359,-707.240161 L 1457.851359,-289.224413 A 2.645669,2.645669 0.0 0 0 1460.497028,-286.578744 z" />
      <path
         id="path10153"
         style="stroke:#000000;fill:none;stroke-linecap: round"
         d="M 1460.497028,166.964563 L 1833.158445,166.964563 A 2.645669,2.645669 0.0 0 0 1835.804115,164.318894 L 1835.804115,-253.696854 A 2.645669,2.645669 0.0 0 0 1833.158445,-256.342524 L 1460.497028,-256.342524 A 2.645669,2.645669 0.0 0 0 1457.851359,-253.696854 L 1457.851359,164.318894 A 2.645669,2.645669 0.0 0 0 1460.497028,166.964563 z" />
      <path
         id="path10155"
         style="stroke:#000000;fill:none;stroke-linecap: round"
         d="M 1460.497028,620.507870 L 1833.158445,620.507870 A 2.645669,2.645669 0.0 0 0 1835.804115,617.862201 L 1835.804115,199.846453 A 2.645669,2.645669 0.0 0 0 1833.158445,197.200784 L 1460.497028,197.200784 A 2.645669,2.645669 0.0 0 0 1457.851359,199.846453 L 1457.851359,617.862201 A 2.645669,2.645669 0.0 0 0 1460.497028,620.507870 z" />
      <path
         id="path10157"
         style="stroke:#000000;fill:none;stroke-linecap: round"
         d="M 1460.497028,1074.051177 L 1833.158445,1074.051177 A 2.645669,2.645669 0.0 0 0 1835.804115,1071.405508 L 1835.804115,653.389760 A 2.645669,2.645669 0.0 0 0 1833.158445,650.744091 L 1460.497028,650.744091 A 2.645669,2.645669 0.0 0 0 1457.851359,653.389760 L 1457.851359,1071.405508 A 2.645669,2.645669 0.0 0 0 1460.497028,1074.051177 z" />
      <path
         id="path10159"
         style="stroke:#000000;fill:none;stroke-linecap: round"
         d="M 1929.158445,-286.578744 L 2301.819863,-286.578744 A 2.645669,2.645669 0.0 0 0 2304.465532,-289.224413 L 2304.465532,-707.240161 A 2.645669,2.645669 0.0 0 0 2301.819863,-709.885831 L 1929.158445,-709.885831 A 2.645669,2.645669 0.0 0 0 1926.512776,-707.240161 L 1926.512776,-289.224413 A 2.645669,2.645669 0.0 0 0 1929.158445,-286.578744 z" />
      <path
         id="path10161"
         style="stroke:#000000;fill:none;stroke-linecap: round"
         d="M 1929.158445,166.964563 L 2301.819863,166.964563 A 2.645669,2.645669 0.0 0 0 2304.465532,164.318894 L 2304.465532,-253.696854 A 2.645669,2.645669 0.0 0 0 2301.819863,-256.342524 L 1929.158445,-256.342524 A 2.645669,2.645669 0.0 0 0 1926.512776,-253.696854 L 1926.512776,164.318894 A 2.645669,2.645669 0.0 0 0 1929.158445,166.964563 z" />
      <path
         id="path10163"
         style="stroke:#000000;fill:none;stroke-linecap: round"
         d="M 1929.158445,620.507870 L 2301.819863,620.507870 A 2.645669,2.645669 0.0 0 0 2304.465532,617.862201 L 2304.465532,199.846453 A 2.645669,2.645669 0.0 0 0 2301.819863,197.200784 L 1929.158445,197.200784 A 2.645669,2.645669 0.0 0 0 1926.512776,199.846453 L 1926.512776,617.862201 A 2.645669,2.645669 0.0 0 0 1929.158445,620.507870 z" />
      <path
         id="path10165"
         style="stroke:#000000;fill:none;stroke-linecap: round"
         d="M 1929.158445,1074.051177 L 2301.819863,1074.051177 A 2.645669,2.645669 0.0 0 0 2304.465532,1071.405508 L 2304.465532,653.389760 A 2.645669,2.645669 0.0 0 0 2301.819863,650.744091 L 1929.158445,650.744091 A 2.645669,2.645669 0.0 0 0 1926.512776,653.389760 L 1926.512776,1071.405508 A 2.645669,2.645669 0.0 0 0 1929.158445,1074.051177 z" />
      <path
         id="path10167"
         style="stroke:#000000;fill:none;stroke-linecap: round"
         d="M 2397.819863,-286.578744 L 2770.481280,-286.578744 A 2.645669,2.645669 0.0 0 0 2773.126949,-289.224413 L 2773.126949,-707.240161 A 2.645669,2.645669 0.0 0 0 2770.481280,-709.885831 L 2397.819863,-709.885831 A 2.645669,2.645669 0.0 0 0 2395.174193,-707.240161 L 2395.174193,-289.224413 A 2.645669,2.645669 0.0 0 0 2397.819863,-286.578744 z" />
      <path
         id="path10169"
         style="stroke:#000000;fill:none;stroke-linecap: round"
         d="M 2397.819863,166.964563 L 2770.481280,166.964563 A 2.645669,2.645669 0.0 0 0 2773.126949,164.318894 L 2773.126949,-253.696854 A 2.645669,2.645669 0.0 0 0 2770.481280,-256.342524 L 2397.819863,-256.342524 A 2.645669,2.645669 0.0 0 0 2395.174193,-253.696854 L 2395.174193,164.318894 A 2.645669,2.645669 0.0 0 0 2397.819863,166.964563 z" />
      <path
         id="path10171"
         style="stroke:#000000;fill:none;stroke-linecap: round"
         d="M 2397.819863,620.507870 L 2770.481280,620.507870 A 2.645669,2.645669 0.0 0 0 2773.126949,617.862201 L 2773.126949,199.846453 A 2.645669,2.645669 0.0 0 0 2770.481280,197.200784 L 2397.819863,197.200784 A 2.645669,2.645669 0.0 0 0 2395.174193,199.846453 L 2395.174193,617.862201 A 2.645669,2.645669 0.0 0 0 2397.819863,620.507870 z" />
      <path
         id="path10173"
         style="stroke:#000000;fill:none;stroke-linecap: round"
         d="M 2397.819863,1074.051177 L 2770.481280,1074.051177 A 2.645669,2.645669 0.0 0 0 2773.126949,1071.405508 L 2773.126949,653.389760 A 2.645669,2.645669 0.0 0 0 2770.481280,650.744091 L 2397.819863,650.744091 A 2.645669,2.645669 0.0 0 0 2395.174193,653.389760 L 2395.174193,1071.405508 A 2.645669,2.645669 0.0 0 0 2397.819863,1074.051177 z" />
      <path
         id="path10175"
         style="stroke:#000000;fill:none;stroke-linecap: round"
         d="M 2866.481280,-286.578744 L 3239.142697,-286.578744 A 2.645669,2.645669 0.0 0 0 3241.788367,-289.224413 L 3241.788367,-707.240161 A 2.645669,2.645669 0.0 0 0 3239.142697,-709.885831 L 2866.481280,-709.885831 A 2.645669,2.645669 0.0 0 0 2863.835611,-707.240161 L 2863.835611,-289.224413 A 2.645669,2.645669 0.0 0 0 2866.481280,-286.578744 z" />
      <path
         id="path10177"
         style="stroke:#000000;fill:none;stroke-linecap: round"
         d="M 2866.481280,166.964563 L 3239.142697,166.964563 A 2.645669,2.645669 0.0 0 0 3241.788367,164.318894 L 3241.788367,-253.696854 A 2.645669,2.645669 0.0 0 0 3239.142697,-256.342524 L 2866.481280,-256.342524 A 2.645669,2.645669 0.0 0 0 2863.835611,-253.696854 L 2863.835611,164.318894 A 2.645669,2.645669 0.0 0 0 2866.481280,166.964563 z" />
      <path
         id="path10179"
         style="stroke:#000000;fill:none;stroke-linecap: round"
         d="M 2866.481280,620.507870 L 3239.142697,620.507870 A 2.645669,2.645669 0.0 0 0 3241.788367,617.862201 L 3241.788367,199.846453 A 2.645669,2.645669 0.0 0 0 3239.142697,197.200784 L 2866.481280,197.200784 A 2.645669,2.645669 0.0 0 0 2863.835611,199.846453 L 2863.835611,617.862201 A 2.645669,2.645669 0.0 0 0 2866.481280,620.507870 z" />
      <path
         id="path10181"
         style="stroke:#000000;fill:none;stroke-linecap: round"
         d="M 2866.481280,1074.051177 L 3239.142697,1074.051177 A 2.645669,2.645669 0.0 0 0 3241.788367,1071.405508 L 3241.788367,653.389760 A 2.645669,2.645669 0.0 0 0 3239.142697,650.744091 L 2866.481280,650.744091 A 2.645669,2.645669 0.0 0 0 2863.835611,653.389760 L 2863.835611,1071.405508 A 2.645669,2.645669 0.0 0 0 2866.481280,1074.051177 z" />
      <path
         id="path10183"
         style="stroke:#000000;fill:none;stroke-linecap: round"
         d="M 3335.142697,-286.578744 L 3707.804115,-286.578744 A 2.645669,2.645669 0.0 0 0 3710.449784,-289.224413 L 3710.449784,-707.240161 A 2.645669,2.645669 0.0 0 0 3707.804115,-709.885831 L 3335.142697,-709.885831 A 2.645669,2.645669 0.0 0 0 3332.497028,-707.240161 L 3332.497028,-289.224413 A 2.645669,2.645669 0.0 0 0 3335.142697,-286.578744 z" />
      <path
         id="path10185"
         style="stroke:#000000;fill:none;stroke-linecap: round"
         d="M 3335.142697,166.964563 L 3707.804115,166.964563 A 2.645669,2.645669 0.0 0 0 3710.449784,164.318894 L 3710.449784,-253.696854 A 2.645669,2.645669 0.0 0 0 3707.804115,-256.342524 L 3335.142697,-256.342524 A 2.645669,2.645669 0.0 0 0 3332.497028,-253.696854 L 3332.497028,164.318894 A 2.645669,2.645669 0.0 0 0 3335.142697,166.964563 z" />
      <path
         id="path10187"
         style="stroke:#000000;fill:none;stroke-linecap: round"
         d="M 3335.142697,620.507870 L 3707.804115,620.507870 A 2.645669,2.645669 0.0 0 0 3710.449784,617.862201 L 3710.449784,199.846453 A 2.645669,2.645669 0.0 0 0 3707.804115,197.200784 L 3335.142697,197.200784 A 2.645669,2.645669 0.0 0 0 3332.497028,199.846453 L 3332.497028,617.862201 A 2.645669,2.645669 0.0 0 0 3335.142697,620.507870 z" />
      <path
         id="path10189"
         style="stroke:#000000;fill:none;stroke-linecap: round"
         d="M 3335.142697,1074.051177 L 3707.804115,1074.051177 A 2.645669,2.645669 0.0 0 0 3710.449784,1071.405508 L 3710.449784,653.389760 A 2.645669,2.645669 0.0 0 0 3707.804115,650.744091 L 3335.142697,650.744091 A 2.645669,2.645669 0.0 0 0 3332.497028,653.389760 L 3332.497028,1071.405508 A 2.645669,2.645669 0.0 0 0 3335.142697,1074.051177 z" />
    </symbol>
  </defs>
  <metadata
     id="metadata7">
    <rdf:RDF>
      <cc:Work
         rdf:about="">
        <dc:format>image/svg+xml</dc:format>
        <dc:type
           rdf:resource="http://purl.org/dc/dcmitype/StillImage" />
        <dc:title></dc:title>
      </cc:Work>
    </rdf:RDF>
  </metadata>
  <g
     transform="matrix(0.26458333,0,0,0.26458333,-0.78453154,193.17192)"
     style="stroke:#ff00ff"
     id="use10194">
    <path
       id="path10314"
       style="fill:none;stroke:#ff00ff;stroke-linecap:round"
       d="M 54.512776,-286.57874 H 427.17419 a 2.645669,2.645669 0 0 0 2.64567,-2.64567 v -418.01575 a 2.645669,2.645669 0 0 0 -2.64567,-2.64567 H 54.512776 a 2.645669,2.645669 0 0 0 -2.645669,2.64567 v 418.01575 a 2.645669,2.645669 0 0 0 2.645669,2.64567 z" />
    <path
       id="path10316"
       style="fill:none;stroke:#ff00ff;stroke-linecap:round"
       d="M 54.512776,166.96456 H 427.17419 a 2.645669,2.645669 0 0 0 2.64567,-2.64567 v -418.01574 a 2.645669,2.645669 0 0 0 -2.64567,-2.64567 H 54.512776 a 2.645669,2.645669 0 0 0 -2.645669,2.64567 v 418.01574 a 2.645669,2.645669 0 0 0 2.645669,2.64567 z" />
    <path
       id="path10318"
       style="fill:none;stroke:#ff00ff;stroke-linecap:round"
       d="M 54.512776,620.50787 H 427.17419 a 2.645669,2.645669 0 0 0 2.64567,-2.64567 V 199.84645 a 2.645669,2.645669 0 0 0 -2.64567,-2.64567 H 54.512776 a 2.645669,2.645669 0 0 0 -2.645669,2.64567 V 617.8622 a 2.645669,2.645669 0 0 0 2.645669,2.64567 z" />
    <path
       id="path10320"
       style="fill:none;stroke:#0000ff;stroke-linecap:round"
       d="M 54.512776,1074.0512 H 427.17419 a 2.645669,2.645669 0 0 0 2.64567,-2.6457 V 653.38976 a 2.645669,2.645669 0 0 0 -2.64567,-2.64567 H 54.512776 a 2.645669,2.645669 0 0 0 -2.645669,2.64567 v 418.01574 a 2.645669,2.645669 0 0 0 2.645669,2.6457 z" />
    <path
       id="path10322"
       style="fill:none;stroke:#ff00ff;stroke-linecap:round"
       d="m 523.17419,-286.57874 h 372.66142 a 2.645669,2.645669 0 0 0 2.64567,-2.64567 v -418.01575 a 2.645669,2.645669 0 0 0 -2.64567,-2.64567 H 523.17419 a 2.645669,2.645669 0 0 0 -2.64567,2.64567 v 418.01575 a 2.645669,2.645669 0 0 0 2.64567,2.64567 z" />
    <path
       id="path10324"
       style="fill:none;stroke:#ff00ff;stroke-linecap:round"
       d="m 523.17419,166.96456 h 372.66142 a 2.645669,2.645669 0 0 0 2.64567,-2.64567 v -418.01574 a 2.645669,2.645669 0 0 0 -2.64567,-2.64567 H 523.17419 a 2.645669,2.645669 0 0 0 -2.64567,2.64567 v 418.01574 a 2.645669,2.645669 0 0 0 2.64567,2.64567 z" />
    <path
       id="path10326"
       style="fill:none;stroke:#ff00ff;stroke-linecap:round"
       d="m 523.17419,620.50787 h 372.66142 a 2.645669,2.645669 0 0 0 2.64567,-2.64567 V 199.84645 a 2.645669,2.645669 0 0 0 -2.64567,-2.64567 H 523.17419 a 2.645669,2.645669 0 0 0 -2.64567,2.64567 V 617.8622 a 2.645669,2.645669 0 0 0 2.64567,2.64567 z" />
    <path
       id="path10328"
       style="fill:none;stroke:#0000ff;stroke-linecap:round"
       d="m 523.17419,1074.0512 h 372.66142 a 2.645669,2.645669 0 0 0 2.64567,-2.6457 V 653.38976 a 2.645669,2.645669 0 0 0 -2.64567,-2.64567 H 523.17419 a 2.645669,2.645669 0 0 0 -2.64567,2.64567 v 418.01574 a 2.645669,2.645669 0 0 0 2.64567,2.6457 z" />
    <path
       id="path10330"
       style="fill:none;stroke:#ff00ff;stroke-linecap:round"
       d="M 991.83561,-286.57874 H 1364.497 a 2.645669,2.645669 0 0 0 2.6457,-2.64567 v -418.01575 a 2.645669,2.645669 0 0 0 -2.6457,-2.64567 H 991.83561 a 2.645669,2.645669 0 0 0 -2.64567,2.64567 v 418.01575 a 2.645669,2.645669 0 0 0 2.64567,2.64567 z" />
    <path
       id="path10332"
       style="fill:none;stroke:#ff00ff;stroke-linecap:round"
       d="M 991.83561,166.96456 H 1364.497 a 2.645669,2.645669 0 0 0 2.6457,-2.64567 v -418.01574 a 2.645669,2.645669 0 0 0 -2.6457,-2.64567 H 991.83561 a 2.645669,2.645669 0 0 0 -2.64567,2.64567 v 418.01574 a 2.645669,2.645669 0 0 0 2.64567,2.64567 z" />
    <path
       id="path10334"
       style="fill:none;stroke:#ff00ff;stroke-linecap:round"
       d="M 991.83561,620.50787 H 1364.497 a 2.645669,2.645669 0 0 0 2.6457,-2.64567 V 199.84645 a 2.645669,2.645669 0 0 0 -2.6457,-2.64567 H 991.83561 a 2.645669,2.645669 0 0 0 -2.64567,2.64567 V 617.8622 a 2.645669,2.645669 0 0 0 2.64567,2.64567 z" />
    <path
       id="path10336"
       style="fill:none;stroke:#0000ff;stroke-linecap:round"
       d="M 991.83561,1074.0512 H 1364.497 a 2.645669,2.645669 0 0 0 2.6457,-2.6457 V 653.38976 a 2.645669,2.645669 0 0 0 -2.6457,-2.64567 H 991.83561 a 2.645669,2.645669 0 0 0 -2.64567,2.64567 v 418.01574 a 2.645669,2.645669 0 0 0 2.64567,2.6457 z" />
    <path
       id="path10338"
       style="fill:none;stroke:#ff00ff;stroke-linecap:round"
       d="m 1460.497,-286.57874 h 372.6614 a 2.645669,2.645669 0 0 0 2.6457,-2.64567 v -418.01575 a 2.645669,2.645669 0 0 0 -2.6457,-2.64567 H 1460.497 a 2.645669,2.645669 0 0 0 -2.6456,2.64567 v 418.01575 a 2.645669,2.645669 0 0 0 2.6456,2.64567 z" />
    <path
       id="path10340"
       style="fill:none;stroke:#ff00ff;stroke-linecap:round"
       d="m 1460.497,166.96456 h 372.6614 a 2.645669,2.645669 0 0 0 2.6457,-2.64567 v -418.01574 a 2.645669,2.645669 0 0 0 -2.6457,-2.64567 H 1460.497 a 2.645669,2.645669 0 0 0 -2.6456,2.64567 v 418.01574 a 2.645669,2.645669 0 0 0 2.6456,2.64567 z" />
    <path
       id="path10342"
       style="fill:none;stroke:#ff00ff;stroke-linecap:round"
       d="m 1460.497,620.50787 h 372.6614 a 2.645669,2.645669 0 0 0 2.6457,-2.64567 V 199.84645 a 2.645669,2.645669 0 0 0 -2.6457,-2.64567 H 1460.497 a 2.645669,2.645669 0 0 0 -2.6456,2.64567 V 617.8622 a 2.645669,2.645669 0 0 0 2.6456,2.64567 z" />
    <path
       id="path10344"
       style="fill:none;stroke:#0000ff;stroke-linecap:round"
       d="m 1460.497,1074.0512 h 372.6614 a 2.645669,2.645669 0 0 0 2.6457,-2.6457 V 653.38976 a 2.645669,2.645669 0 0 0 -2.6457,-2.64567 H 1460.497 a 2.645669,2.645669 0 0 0 -2.6456,2.64567 v 418.01574 a 2.645669,2.645669 0 0 0 2.6456,2.6457 z" />
    <path
       id="path10346"
       style="fill:none;stroke:#ff00ff;stroke-linecap:round"
       d="m 1929.1584,-286.57874 h 372.6615 a 2.645669,2.645669 0 0 0 2.6456,-2.64567 v -418.01575 a 2.645669,2.645669 0 0 0 -2.6456,-2.64567 h -372.6615 a 2.645669,2.645669 0 0 0 -2.6456,2.64567 v 418.01575 a 2.645669,2.645669 0 0 0 2.6456,2.64567 z" />
    <path
       id="path10348"
       style="fill:none;stroke:#ff00ff;stroke-linecap:round"
       d="m 1929.1584,166.96456 h 372.6615 a 2.645669,2.645669 0 0 0 2.6456,-2.64567 v -418.01574 a 2.645669,2.645669 0 0 0 -2.6456,-2.64567 h -372.6615 a 2.645669,2.645669 0 0 0 -2.6456,2.64567 v 418.01574 a 2.645669,2.645669 0 0 0 2.6456,2.64567 z" />
    <path
       id="path10350"
       style="fill:none;stroke:#ff00ff;stroke-linecap:round"
       d="m 1929.1584,620.50787 h 372.6615 a 2.645669,2.645669 0 0 0 2.6456,-2.64567 V 199.84645 a 2.645669,2.645669 0 0 0 -2.6456,-2.64567 h -372.6615 a 2.645669,2.645669 0 0 0 -2.6456,2.64567 V 617.8622 a 2.645669,2.645669 0 0 0 2.6456,2.64567 z" />
    <path
       id="path10352"
       style="fill:none;stroke:#0000ff;stroke-linecap:round"
       d="m 1929.1584,1074.0512 h 372.6615 a 2.645669,2.645669 0 0 0 2.6456,-2.6457 V 653.38976 a 2.645669,2.645669 0 0 0 -2.6456,-2.64567 h -372.6615 a 2.645669,2.645669 0 0 0 -2.6456,2.64567 v 418.01574 a 2.645669,2.645669 0 0 0 2.6456,2.6457 z" />
    <path
       id="path10354"
       style="fill:none;stroke:#0000ff;stroke-linecap:round"
       d="m 2397.8199,-286.57874 h 372.6614 a 2.645669,2.645669 0 0 0 2.6456,-2.64567 v -418.01575 a 2.645669,2.645669 0 0 0 -2.6456,-2.64567 h -372.6614 a 2.645669,2.645669 0 0 0 -2.6457,2.64567 v 418.01575 a 2.645669,2.645669 0 0 0 2.6457,2.64567 z" />
    <path
       id="path10356"
       style="fill:none;stroke:#0000ff;stroke-linecap:round"
       d="m 2397.8199,166.96456 h 372.6614 a 2.645669,2.645669 0 0 0 2.6456,-2.64567 v -418.01574 a 2.645669,2.645669 0 0 0 -2.6456,-2.64567 h -372.6614 a 2.645669,2.645669 0 0 0 -2.6457,2.64567 v 418.01574 a 2.645669,2.645669 0 0 0 2.6457,2.64567 z" />
    <path
       id="path10358"
       style="fill:none;stroke:#0000ff;stroke-linecap:round"
       d="m 2397.8199,620.50787 h 372.6614 a 2.645669,2.645669 0 0 0 2.6456,-2.64567 V 199.84645 a 2.645669,2.645669 0 0 0 -2.6456,-2.64567 h -372.6614 a 2.645669,2.645669 0 0 0 -2.6457,2.64567 V 617.8622 a 2.645669,2.645669 0 0 0 2.6457,2.64567 z" />
    <path
       id="path10360"
       style="fill:none;stroke:#0000ff;stroke-linecap:round"
       d="m 2397.8199,1074.0512 h 372.6614 a 2.645669,2.645669 0 0 0 2.6456,-2.6457 V 653.38976 a 2.645669,2.645669 0 0 0 -2.6456,-2.64567 h -372.6614 a 2.645669,2.645669 0 0 0 -2.6457,2.64567 v 418.01574 a 2.645669,2.645669 0 0 0 2.6457,2.6457 z" />
    <path
       id="path10362"
       style="fill:none;stroke:#0000ff;stroke-linecap:round"
       d="m 2866.4813,-286.57874 h 372.6614 a 2.645669,2.645669 0 0 0 2.6457,-2.64567 v -418.01575 a 2.645669,2.645669 0 0 0 -2.6457,-2.64567 h -372.6614 a 2.645669,2.645669 0 0 0 -2.6457,2.64567 v 418.01575 a 2.645669,2.645669 0 0 0 2.6457,2.64567 z" />
    <path
       id="path10364"
       style="fill:none;stroke:#0000ff;stroke-linecap:round"
       d="m 2866.4813,166.96456 h 372.6614 a 2.645669,2.645669 0 0 0 2.6457,-2.64567 v -418.01574 a 2.645669,2.645669 0 0 0 -2.6457,-2.64567 h -372.6614 a 2.645669,2.645669 0 0 0 -2.6457,2.64567 v 418.01574 a 2.645669,2.645669 0 0 0 2.6457,2.64567 z" />
    <path
       id="path10366"
       style="fill:none;stroke:#0000ff;stroke-linecap:round"
       d="m 2866.4813,620.50787 h 372.6614 a 2.645669,2.645669 0 0 0 2.6457,-2.64567 V 199.84645 a 2.645669,2.645669 0 0 0 -2.6457,-2.64567 h -372.6614 a 2.645669,2.645669 0 0 0 -2.6457,2.64567 V 617.8622 a 2.645669,2.645669 0 0 0 2.6457,2.64567 z" />
    <path
       id="path10368"
       style="fill:none;stroke:#0000ff;stroke-linecap:round"
       d="m 2866.4813,1074.0512 h 372.6614 a 2.645669,2.645669 0 0 0 2.6457,-2.6457 V 653.38976 a 2.645669,2.645669 0 0 0 -2.6457,-2.64567 h -372.6614 a 2.645669,2.645669 0 0 0 -2.6457,2.64567 v 418.01574 a 2.645669,2.645669 0 0 0 2.6457,2.6457 z" />
    <path
       id="path10370"
       style="fill:none;stroke:#0000ff;stroke-linecap:round"
       d="m 3335.1427,-286.57874 h 372.6614 a 2.645669,2.645669 0 0 0 2.6457,-2.64567 v -418.01575 a 2.645669,2.645669 0 0 0 -2.6457,-2.64567 h -372.6614 a 2.645669,2.645669 0 0 0 -2.6457,2.64567 v 418.01575 a 2.645669,2.645669 0 0 0 2.6457,2.64567 z" />
    <path
       id="path10372"
       style="fill:none;stroke:#0000ff;stroke-linecap:round"
       d="m 3335.1427,166.96456 h 372.6614 a 2.645669,2.645669 0 0 0 2.6457,-2.64567 v -418.01574 a 2.645669,2.645669 0 0 0 -2.6457,-2.64567 h -372.6614 a 2.645669,2.645669 0 0 0 -2.6457,2.64567 v 418.01574 a 2.645669,2.645669 0 0 0 2.6457,2.64567 z" />
    <path
       id="path10374"
       style="fill:none;stroke:#0000ff;stroke-linecap:round"
       d="m 3335.1427,620.50787 h 372.6614 a 2.645669,2.645669 0 0 0 2.6457,-2.64567 V 199.84645 a 2.645669,2.645669 0 0 0 -2.6457,-2.64567 h -372.6614 a 2.645669,2.645669 0 0 0 -2.6457,2.64567 V 617.8622 a 2.645669,2.645669 0 0 0 2.6457,2.64567 z" />
    <path
       id="path10376"
       style="fill:none;stroke:#0000ff;stroke-linecap:round"
       d="m 3335.1427,1074.0512 h 372.6614 a 2.645669,2.645669 0 0 0 2.6457,-2.6457 V 653.38976 a 2.645669,2.645669 0 0 0 -2.6457,-2.64567 h -372.6614 a 2.645669,2.645669 0 0 0 -2.6457,2.64567 v 418.01574 a 2.645669,2.645669 0 0 0 2.6457,2.6457 z" />
  </g>
</svg>
