<?xml version="1.0" encoding="UTF-8" standalone="no"?>
<svg
   xmlns:dc="http://purl.org/dc/elements/1.1/"
   xmlns:cc="http://creativecommons.org/ns#"
   xmlns:rdf="http://www.w3.org/1999/02/22-rdf-syntax-ns#"
   xmlns:svg="http://www.w3.org/2000/svg"
   xmlns="http://www.w3.org/2000/svg"
   viewBox="0 0 1000 610"
   id="svg2"
   height="610mm"
   width="1000mm"
   version="1.1">
  <defs
     id="defs4">
    <symbol
       id="*PAPER_SPACE" />
    <symbol
       id="*MODEL_SPACE" />
    <pattern
       id="Hatch"
       x="0"
       y="0"
       patternUnits="userSpaceOnUse"
       width="8"
       height="8">
      <path
         id="path617966"
         d="M8 4 l-4,4"
         stroke-width="0.25"
         stroke="#000000"
         linecap="square" />
      <path
         id="path617968"
         d="M6 2 l-4,4"
         stroke-width="0.25"
         stroke="#000000"
         linecap="square" />
      <path
         id="path617970"
         d="M4 0 l-4,4"
         stroke-width="0.25"
         stroke="#000000"
         linecap="square" />
    </pattern>
    <marker
       style="overflow:visible"
       id="DistanceX"
       orient="auto"
       refY="0"
       refX="0">
      <path
         style="stroke:#000000;stroke-width:0.5"
         id="path617963"
         d="M 3,-3 -3,3 M 0,-5 0,5" />
    </marker>
    <symbol
       id="$PAPER_SPACE" />
    <symbol
       id="$MODEL_SPACE" />
    <pattern
       height="8"
       width="8"
       patternUnits="userSpaceOnUse"
       y="0"
       x="0"
       id="Hatch-0">
      <path
         linecap="square"
         stroke="#000000"
         stroke-width="0.25"
         d="M8 4 l-4,4"
         id="path73478" />
      <path
         linecap="square"
         stroke="#000000"
         stroke-width="0.25"
         d="M6 2 l-4,4"
         id="path73480" />
      <path
         linecap="square"
         stroke="#000000"
         stroke-width="0.25"
         d="M4 0 l-4,4"
         id="path73482" />
    </pattern>
    <marker
       style="overflow:visible"
       id="DistanceX-5"
       orient="auto"
       refY="0"
       refX="0">
      <path
         style="stroke:#000000;stroke-width:0.5"
         id="path73475"
         d="M 3,-3 -3,3 M 0,-5 0,5" />
    </marker>
    <symbol
       id="$PAPER_SPACE-1" />
    <symbol
       id="$MODEL_SPACE-0" />
    <pattern
       id="Hatch-1"
       x="0"
       y="0"
       patternUnits="userSpaceOnUse"
       width="8"
       height="8">
      <path
         id="path44235"
         d="M8 4 l-4,4"
         stroke-width="0.25"
         stroke="#000000"
         linecap="square" />
      <path
         id="path44237"
         d="M6 2 l-4,4"
         stroke-width="0.25"
         stroke="#000000"
         linecap="square" />
      <path
         id="path44239"
         d="M4 0 l-4,4"
         stroke-width="0.25"
         stroke="#000000"
         linecap="square" />
    </pattern>
    <marker
       style="overflow:visible"
       id="DistanceX-1"
       orient="auto"
       refY="0"
       refX="0">
      <path
         style="stroke:#000000;stroke-width:0.5"
         id="path44232"
         d="M 3,-3 -3,3 M 0,-5 0,5" />
    </marker>
    <symbol
       id="$PAPER_SPACE-5" />
    <symbol
       id="$MODEL_SPACE-4" />
    <pattern
       height="8"
       width="8"
       patternUnits="userSpaceOnUse"
       y="0"
       x="0"
       id="Hatch-04">
      <path
         linecap="square"
         stroke="#000000"
         stroke-width="0.25"
         d="M8 4 l-4,4"
         id="path101669" />
      <path
         linecap="square"
         stroke="#000000"
         stroke-width="0.25"
         d="M6 2 l-4,4"
         id="path101671" />
      <path
         linecap="square"
         stroke="#000000"
         stroke-width="0.25"
         d="M4 0 l-4,4"
         id="path101673" />
    </pattern>
    <marker
       refY="0"
       refX="0"
       style="overflow:visible"
       id="DistanceX-2"
       orient="auto">
      <path
         style="stroke:#000000;stroke-width:0.5"
         d="M 3,-3 -3,3 M 0,-5 0,5"
         id="path101666" />
    </marker>
    <symbol
       id="*PAPER_SPACE-9" />
    <symbol
       id="*MODEL_SPACE-2" />
    <pattern
       height="8"
       width="8"
       patternUnits="userSpaceOnUse"
       y="0"
       x="0"
       id="Hatch-9">
      <path
         linecap="square"
         stroke="#000000"
         stroke-width="0.25"
         d="M8 4 l-4,4"
         id="path145873" />
      <path
         linecap="square"
         stroke="#000000"
         stroke-width="0.25"
         d="M6 2 l-4,4"
         id="path145875" />
      <path
         linecap="square"
         stroke="#000000"
         stroke-width="0.25"
         d="M4 0 l-4,4"
         id="path145877" />
    </pattern>
    <marker
       refY="0"
       refX="0"
       style="overflow:visible"
       id="DistanceX-24"
       orient="auto">
      <path
         style="stroke:#000000;stroke-width:0.5"
         d="M 3,-3 -3,3 M 0,-5 0,5"
         id="path145870" />
    </marker>
    <symbol
       id="$PAPER_SPACE-4" />
    <symbol
       id="$MODEL_SPACE-1" />
    <pattern
       height="8"
       width="8"
       patternUnits="userSpaceOnUse"
       y="0"
       x="0"
       id="Hatch-8">
      <path
         linecap="square"
         stroke="#000000"
         stroke-width="0.25"
         d="M8 4 l-4,4"
         id="path1947" />
      <path
         linecap="square"
         stroke="#000000"
         stroke-width="0.25"
         d="M6 2 l-4,4"
         id="path1949" />
      <path
         linecap="square"
         stroke="#000000"
         stroke-width="0.25"
         d="M4 0 l-4,4"
         id="path1951" />
    </pattern>
    <marker
       refY="0"
       refX="0"
       style="overflow:visible"
       id="DistanceX-55"
       orient="auto">
      <path
         style="stroke:#000000;stroke-width:0.5"
         d="M 3,-3 -3,3 M 0,-5 0,5"
         id="path1944" />
    </marker>
    <symbol
       id="*PAPER_SPACE-7" />
    <symbol
       id="*MODEL_SPACE-0" />
    <pattern
       height="8"
       width="8"
       patternUnits="userSpaceOnUse"
       y="0"
       x="0"
       id="Hatch-82">
      <path
         linecap="square"
         stroke="#000000"
         stroke-width="0.25"
         d="M8 4 l-4,4"
         id="path1175" />
      <path
         linecap="square"
         stroke="#000000"
         stroke-width="0.25"
         d="M6 2 l-4,4"
         id="path1177" />
      <path
         linecap="square"
         stroke="#000000"
         stroke-width="0.25"
         d="M4 0 l-4,4"
         id="path1179" />
    </pattern>
    <marker
       refY="0"
       refX="0"
       style="overflow:visible"
       id="DistanceX-29"
       orient="auto">
      <path
         style="stroke:#000000;stroke-width:0.5"
         d="M 3,-3 -3,3 M 0,-5 0,5"
         id="path1172" />
    </marker>
    <symbol
       id="*PAPER_SPACE-76" />
    <symbol
       id="*MODEL_SPACE-5" />
    <pattern
       height="8"
       width="8"
       patternUnits="userSpaceOnUse"
       y="0"
       x="0"
       id="Hatch-3">
      <path
         linecap="square"
         stroke="#000000"
         stroke-width="0.25"
         d="M8 4 l-4,4"
         id="path1809-9" />
      <path
         linecap="square"
         stroke="#000000"
         stroke-width="0.25"
         d="M6 2 l-4,4"
         id="path1811-8" />
      <path
         linecap="square"
         stroke="#000000"
         stroke-width="0.25"
         d="M4 0 l-4,4"
         id="path1813-6" />
    </pattern>
    <marker
       refY="0"
       refX="0"
       style="overflow:visible"
       id="DistanceX-0"
       orient="auto">
      <path
         style="stroke:#000000;stroke-width:0.5"
         d="M 3,-3 -3,3 M 0,-5 0,5"
         id="path1806" />
    </marker>
    <symbol
       id="*PAPER_SPACE-6" />
    <symbol
       id="*MODEL_SPACE-7" />
    <pattern
       height="8"
       width="8"
       patternUnits="userSpaceOnUse"
       y="0"
       x="0"
       id="Hatch-5">
      <path
         linecap="square"
         stroke="#000000"
         stroke-width="0.25"
         d="M8 4 l-4,4"
         id="path1851" />
      <path
         linecap="square"
         stroke="#000000"
         stroke-width="0.25"
         d="M6 2 l-4,4"
         id="path1853" />
      <path
         linecap="square"
         stroke="#000000"
         stroke-width="0.25"
         d="M4 0 l-4,4"
         id="path1855" />
    </pattern>
    <marker
       refY="0"
       refX="0"
       style="overflow:visible"
       id="DistanceX-6"
       orient="auto">
      <path
         style="stroke:#000000;stroke-width:0.5"
         d="M 3,-3 -3,3 M 0,-5 0,5"
         id="path1848" />
    </marker>
    <symbol
       id="*PAPER_SPACE-0" />
    <symbol
       id="*MODEL_SPACE-27" />
    <pattern
       height="8"
       width="8"
       patternUnits="userSpaceOnUse"
       y="0"
       x="0"
       id="Hatch-6">
      <path
         linecap="square"
         stroke="#000000"
         stroke-width="0.25"
         d="M8 4 l-4,4"
         id="path1858" />
      <path
         linecap="square"
         stroke="#000000"
         stroke-width="0.25"
         d="M6 2 l-4,4"
         id="path1860" />
      <path
         linecap="square"
         stroke="#000000"
         stroke-width="0.25"
         d="M4 0 l-4,4"
         id="path1862" />
    </pattern>
    <marker
       refY="0"
       refX="0"
       style="overflow:visible"
       id="DistanceX-65"
       orient="auto">
      <path
         style="stroke:#000000;stroke-width:0.5"
         d="M 3,-3 -3,3 M 0,-5 0,5"
         id="path1855-7" />
    </marker>
    <marker
       id="DistanceX-8"
       orient="auto"
       refX="0.0"
       refY="0.0"
       style="overflow:visible">
      <path
         d="M 3,-3 L -3,3 M 0,-5 L  0,5"
         style="stroke:#000000; stroke-width:0.5"
         id="path1543" />
    </marker>
    <pattern
       height="8"
       id="Hatch-2"
       patternUnits="userSpaceOnUse"
       width="8"
       x="0"
       y="0">
      <path
         d="M8 4 l-4,4"
         linecap="square"
         stroke="#000000"
         stroke-width="0.25"
         id="path1546" />
      <path
         d="M6 2 l-4,4"
         linecap="square"
         stroke="#000000"
         stroke-width="0.25"
         id="path1548" />
      <path
         d="M4 0 l-4,4"
         linecap="square"
         stroke="#000000"
         stroke-width="0.25"
         id="path1550" />
    </pattern>
    <symbol
       id="*Model_Space" />
    <symbol
       id="*Paper_Space" />
    <symbol
       id="*Paper_Space0" />
    <symbol
       id="ARRAY">
      <path
         d="M 2303.777990,474.038103 A 2.645669,2.645669 0.0 0 0 2306.423659,476.683773 L 2754.675627,476.683773 A 2.645669,2.645669 0.0 0 0 2757.321297,474.038103 L 2757.321297,399.959363 A 2.645669,2.645669 0.0 0 0 2754.675627,397.313694 L 2306.423659,397.313694 A 2.645669,2.645669 0.0 0 0 2303.777990,399.959363 L 2303.777990,474.038103 z"
         style="stroke:#000000;fill:none;stroke-linecap: round"
         id="path1556" />
      <path
         d="M 2335.903974,419.990859 A 1.889764,1.889764 0.0 0 1 2334.014210,418.101095 L 2334.014210,416.211332 L 2723.305549,416.211332 L 2723.305549,418.101095 A 1.889764,1.889764 0.0 0 1 2721.415785,419.990859 L 2335.903974,419.990859 z"
         style="stroke:#000000;fill:none;stroke-linecap: round"
         id="path1558" />
      <path
         d="M 2723.305549,457.786135 L 2723.305549,455.896371 A 1.889764,1.889764 0.0 0 0 2721.415785,454.006607 L 2335.903974,454.006607 A 1.889764,1.889764 0.0 0 0 2334.014210,455.896371 L 2334.014210,457.786135 L 2723.305549,457.786135 z"
         style="stroke:#000000;fill:none;stroke-linecap: round"
         id="path1560" />
      <path
         d="M 2303.777990,572.305820 A 2.645669,2.645669 0.0 0 0 2306.423659,574.951489 L 2754.675627,574.951489 A 2.645669,2.645669 0.0 0 0 2757.321297,572.305820 L 2757.321297,498.227080 A 2.645669,2.645669 0.0 0 0 2754.675627,495.581410 L 2306.423659,495.581410 A 2.645669,2.645669 0.0 0 0 2303.777990,498.227080 L 2303.777990,572.305820 z"
         style="stroke:#000000;fill:none;stroke-linecap: round"
         id="path1562" />
      <path
         d="M 2335.903974,518.258576 A 1.889764,1.889764 0.0 0 1 2334.014210,516.368812 L 2334.014210,514.479048 L 2723.305549,514.479048 L 2723.305549,516.368812 A 1.889764,1.889764 0.0 0 1 2721.415785,518.258576 L 2335.903974,518.258576 z"
         style="stroke:#000000;fill:none;stroke-linecap: round"
         id="path1564" />
      <path
         d="M 2723.305549,556.053851 L 2723.305549,554.164087 A 1.889764,1.889764 0.0 0 0 2721.415785,552.274324 L 2335.903974,552.274324 A 1.889764,1.889764 0.0 0 0 2334.014210,554.164087 L 2334.014210,556.053851 L 2723.305549,556.053851 z"
         style="stroke:#000000;fill:none;stroke-linecap: round"
         id="path1566" />
      <path
         d="M 2303.777990,670.573536 A 2.645669,2.645669 0.0 0 0 2306.423659,673.219206 L 2754.675627,673.219206 A 2.645669,2.645669 0.0 0 0 2757.321297,670.573536 L 2757.321297,596.494796 A 2.645669,2.645669 0.0 0 0 2754.675627,593.849127 L 2306.423659,593.849127 A 2.645669,2.645669 0.0 0 0 2303.777990,596.494796 L 2303.777990,670.573536 z"
         style="stroke:#000000;fill:none;stroke-linecap: round"
         id="path1568" />
      <path
         d="M 2335.903974,616.526292 A 1.889764,1.889764 0.0 0 1 2334.014210,614.636528 L 2334.014210,612.746765 L 2723.305549,612.746765 L 2723.305549,614.636528 A 1.889764,1.889764 0.0 0 1 2721.415785,616.526292 L 2335.903974,616.526292 z"
         style="stroke:#000000;fill:none;stroke-linecap: round"
         id="path1570" />
      <path
         d="M 2723.305549,654.321568 L 2723.305549,652.431804 A 1.889764,1.889764 0.0 0 0 2721.415785,650.542040 L 2335.903974,650.542040 A 1.889764,1.889764 0.0 0 0 2334.014210,652.431804 L 2334.014210,654.321568 L 2723.305549,654.321568 z"
         style="stroke:#000000;fill:none;stroke-linecap: round"
         id="path1572" />
      <path
         d="M 2303.777990,768.841253 A 2.645669,2.645669 0.0 0 0 2306.423659,771.486922 L 2754.675627,771.486922 A 2.645669,2.645669 0.0 0 0 2757.321297,768.841253 L 2757.321297,694.762513 A 2.645669,2.645669 0.0 0 0 2754.675627,692.116843 L 2306.423659,692.116843 A 2.645669,2.645669 0.0 0 0 2303.777990,694.762513 L 2303.777990,768.841253 z"
         style="stroke:#000000;fill:none;stroke-linecap: round"
         id="path1574" />
      <path
         d="M 2335.903974,714.794009 A 1.889764,1.889764 0.0 0 1 2334.014210,712.904245 L 2334.014210,711.014481 L 2723.305549,711.014481 L 2723.305549,712.904245 A 1.889764,1.889764 0.0 0 1 2721.415785,714.794009 L 2335.903974,714.794009 z"
         style="stroke:#000000;fill:none;stroke-linecap: round"
         id="path1576" />
      <path
         d="M 2723.305549,752.589284 L 2723.305549,750.699521 A 1.889764,1.889764 0.0 0 0 2721.415785,748.809757 L 2335.903974,748.809757 A 1.889764,1.889764 0.0 0 0 2334.014210,750.699521 L 2334.014210,752.589284 L 2723.305549,752.589284 z"
         style="stroke:#000000;fill:none;stroke-linecap: round"
         id="path1578" />
      <path
         d="M 2303.777990,867.108969 A 2.645669,2.645669 0.0 0 0 2306.423659,869.754639 L 2754.675627,869.754639 A 2.645669,2.645669 0.0 0 0 2757.321297,867.108969 L 2757.321297,793.030229 A 2.645669,2.645669 0.0 0 0 2754.675627,790.384560 L 2306.423659,790.384560 A 2.645669,2.645669 0.0 0 0 2303.777990,793.030229 L 2303.777990,867.108969 z"
         style="stroke:#000000;fill:none;stroke-linecap: round"
         id="path1580" />
      <path
         d="M 2335.903974,813.061725 A 1.889764,1.889764 0.0 0 1 2334.014210,811.171962 L 2334.014210,809.282198 L 2723.305549,809.282198 L 2723.305549,811.171962 A 1.889764,1.889764 0.0 0 1 2721.415785,813.061725 L 2335.903974,813.061725 z"
         style="stroke:#000000;fill:none;stroke-linecap: round"
         id="path1582" />
      <path
         d="M 2723.305549,850.857001 L 2723.305549,848.967237 A 1.889764,1.889764 0.0 0 0 2721.415785,847.077473 L 2335.903974,847.077473 A 1.889764,1.889764 0.0 0 0 2334.014210,848.967237 L 2334.014210,850.857001 L 2723.305549,850.857001 z"
         style="stroke:#000000;fill:none;stroke-linecap: round"
         id="path1584" />
      <path
         d="M 2303.777990,965.376686 A 2.645669,2.645669 0.0 0 0 2306.423659,968.022355 L 2754.675627,968.022355 A 2.645669,2.645669 0.0 0 0 2757.321297,965.376686 L 2757.321297,891.297946 A 2.645669,2.645669 0.0 0 0 2754.675627,888.652276 L 2306.423659,888.652276 A 2.645669,2.645669 0.0 0 0 2303.777990,891.297946 L 2303.777990,965.376686 z"
         style="stroke:#000000;fill:none;stroke-linecap: round"
         id="path1586" />
      <path
         d="M 2335.903974,911.329442 A 1.889764,1.889764 0.0 0 1 2334.014210,909.439678 L 2334.014210,907.549914 L 2723.305549,907.549914 L 2723.305549,909.439678 A 1.889764,1.889764 0.0 0 1 2721.415785,911.329442 L 2335.903974,911.329442 z"
         style="stroke:#000000;fill:none;stroke-linecap: round"
         id="path1588" />
      <path
         d="M 2723.305549,949.124717 L 2723.305549,947.234954 A 1.889764,1.889764 0.0 0 0 2721.415785,945.345190 L 2335.903974,945.345190 A 1.889764,1.889764 0.0 0 0 2334.014210,947.234954 L 2334.014210,949.124717 L 2723.305549,949.124717 z"
         style="stroke:#000000;fill:none;stroke-linecap: round"
         id="path1590" />
      <path
         d="M 2795.116572,474.038103 A 2.645669,2.645669 0.0 0 0 2797.762242,476.683773 L 3246.014210,476.683773 A 2.645669,2.645669 0.0 0 0 3248.659879,474.038103 L 3248.659879,399.959363 A 2.645669,2.645669 0.0 0 0 3246.014210,397.313694 L 2797.762242,397.313694 A 2.645669,2.645669 0.0 0 0 2795.116572,399.959363 L 2795.116572,474.038103 z"
         style="stroke:#000000;fill:none;stroke-linecap: round"
         id="path1592" />
      <path
         d="M 2827.242557,419.990859 A 1.889764,1.889764 0.0 0 1 2825.352793,418.101095 L 2825.352793,416.211332 L 3214.644131,416.211332 L 3214.644131,418.101095 A 1.889764,1.889764 0.0 0 1 3212.754368,419.990859 L 2827.242557,419.990859 z"
         style="stroke:#000000;fill:none;stroke-linecap: round"
         id="path1594" />
      <path
         d="M 3214.644131,457.786135 L 3214.644131,455.896371 A 1.889764,1.889764 0.0 0 0 3212.754368,454.006607 L 2827.242557,454.006607 A 1.889764,1.889764 0.0 0 0 2825.352793,455.896371 L 2825.352793,457.786135 L 3214.644131,457.786135 z"
         style="stroke:#000000;fill:none;stroke-linecap: round"
         id="path1596" />
      <path
         d="M 2795.116572,572.305820 A 2.645669,2.645669 0.0 0 0 2797.762242,574.951489 L 3246.014210,574.951489 A 2.645669,2.645669 0.0 0 0 3248.659879,572.305820 L 3248.659879,498.227080 A 2.645669,2.645669 0.0 0 0 3246.014210,495.581410 L 2797.762242,495.581410 A 2.645669,2.645669 0.0 0 0 2795.116572,498.227080 L 2795.116572,572.305820 z"
         style="stroke:#000000;fill:none;stroke-linecap: round"
         id="path1598" />
      <path
         d="M 2827.242557,518.258576 A 1.889764,1.889764 0.0 0 1 2825.352793,516.368812 L 2825.352793,514.479048 L 3214.644131,514.479048 L 3214.644131,516.368812 A 1.889764,1.889764 0.0 0 1 3212.754368,518.258576 L 2827.242557,518.258576 z"
         style="stroke:#000000;fill:none;stroke-linecap: round"
         id="path1600" />
      <path
         d="M 3214.644131,556.053851 L 3214.644131,554.164087 A 1.889764,1.889764 0.0 0 0 3212.754368,552.274324 L 2827.242557,552.274324 A 1.889764,1.889764 0.0 0 0 2825.352793,554.164087 L 2825.352793,556.053851 L 3214.644131,556.053851 z"
         style="stroke:#000000;fill:none;stroke-linecap: round"
         id="path1602" />
      <path
         d="M 2795.116572,670.573536 A 2.645669,2.645669 0.0 0 0 2797.762242,673.219206 L 3246.014210,673.219206 A 2.645669,2.645669 0.0 0 0 3248.659879,670.573536 L 3248.659879,596.494796 A 2.645669,2.645669 0.0 0 0 3246.014210,593.849127 L 2797.762242,593.849127 A 2.645669,2.645669 0.0 0 0 2795.116572,596.494796 L 2795.116572,670.573536 z"
         style="stroke:#000000;fill:none;stroke-linecap: round"
         id="path1604" />
      <path
         d="M 2827.242557,616.526292 A 1.889764,1.889764 0.0 0 1 2825.352793,614.636528 L 2825.352793,612.746765 L 3214.644131,612.746765 L 3214.644131,614.636528 A 1.889764,1.889764 0.0 0 1 3212.754368,616.526292 L 2827.242557,616.526292 z"
         style="stroke:#000000;fill:none;stroke-linecap: round"
         id="path1606" />
      <path
         d="M 3214.644131,654.321568 L 3214.644131,652.431804 A 1.889764,1.889764 0.0 0 0 3212.754368,650.542040 L 2827.242557,650.542040 A 1.889764,1.889764 0.0 0 0 2825.352793,652.431804 L 2825.352793,654.321568 L 3214.644131,654.321568 z"
         style="stroke:#000000;fill:none;stroke-linecap: round"
         id="path1608" />
      <path
         d="M 2795.116572,768.841253 A 2.645669,2.645669 0.0 0 0 2797.762242,771.486922 L 3246.014210,771.486922 A 2.645669,2.645669 0.0 0 0 3248.659879,768.841253 L 3248.659879,694.762513 A 2.645669,2.645669 0.0 0 0 3246.014210,692.116843 L 2797.762242,692.116843 A 2.645669,2.645669 0.0 0 0 2795.116572,694.762513 L 2795.116572,768.841253 z"
         style="stroke:#000000;fill:none;stroke-linecap: round"
         id="path1610" />
      <path
         d="M 2827.242557,714.794009 A 1.889764,1.889764 0.0 0 1 2825.352793,712.904245 L 2825.352793,711.014481 L 3214.644131,711.014481 L 3214.644131,712.904245 A 1.889764,1.889764 0.0 0 1 3212.754368,714.794009 L 2827.242557,714.794009 z"
         style="stroke:#000000;fill:none;stroke-linecap: round"
         id="path1612" />
      <path
         d="M 3214.644131,752.589284 L 3214.644131,750.699521 A 1.889764,1.889764 0.0 0 0 3212.754368,748.809757 L 2827.242557,748.809757 A 1.889764,1.889764 0.0 0 0 2825.352793,750.699521 L 2825.352793,752.589284 L 3214.644131,752.589284 z"
         style="stroke:#000000;fill:none;stroke-linecap: round"
         id="path1614" />
      <path
         d="M 2795.116572,867.108969 A 2.645669,2.645669 0.0 0 0 2797.762242,869.754639 L 3246.014210,869.754639 A 2.645669,2.645669 0.0 0 0 3248.659879,867.108969 L 3248.659879,793.030229 A 2.645669,2.645669 0.0 0 0 3246.014210,790.384560 L 2797.762242,790.384560 A 2.645669,2.645669 0.0 0 0 2795.116572,793.030229 L 2795.116572,867.108969 z"
         style="stroke:#000000;fill:none;stroke-linecap: round"
         id="path1616" />
      <path
         d="M 2827.242557,813.061725 A 1.889764,1.889764 0.0 0 1 2825.352793,811.171962 L 2825.352793,809.282198 L 3214.644131,809.282198 L 3214.644131,811.171962 A 1.889764,1.889764 0.0 0 1 3212.754368,813.061725 L 2827.242557,813.061725 z"
         style="stroke:#000000;fill:none;stroke-linecap: round"
         id="path1618" />
      <path
         d="M 3214.644131,850.857001 L 3214.644131,848.967237 A 1.889764,1.889764 0.0 0 0 3212.754368,847.077473 L 2827.242557,847.077473 A 1.889764,1.889764 0.0 0 0 2825.352793,848.967237 L 2825.352793,850.857001 L 3214.644131,850.857001 z"
         style="stroke:#000000;fill:none;stroke-linecap: round"
         id="path1620" />
      <path
         d="M 2795.116572,965.376686 A 2.645669,2.645669 0.0 0 0 2797.762242,968.022355 L 3246.014210,968.022355 A 2.645669,2.645669 0.0 0 0 3248.659879,965.376686 L 3248.659879,891.297946 A 2.645669,2.645669 0.0 0 0 3246.014210,888.652276 L 2797.762242,888.652276 A 2.645669,2.645669 0.0 0 0 2795.116572,891.297946 L 2795.116572,965.376686 z"
         style="stroke:#000000;fill:none;stroke-linecap: round"
         id="path1622" />
      <path
         d="M 2827.242557,911.329442 A 1.889764,1.889764 0.0 0 1 2825.352793,909.439678 L 2825.352793,907.549914 L 3214.644131,907.549914 L 3214.644131,909.439678 A 1.889764,1.889764 0.0 0 1 3212.754368,911.329442 L 2827.242557,911.329442 z"
         style="stroke:#000000;fill:none;stroke-linecap: round"
         id="path1624" />
      <path
         d="M 3214.644131,949.124717 L 3214.644131,947.234954 A 1.889764,1.889764 0.0 0 0 3212.754368,945.345190 L 2827.242557,945.345190 A 1.889764,1.889764 0.0 0 0 2825.352793,947.234954 L 2825.352793,949.124717 L 3214.644131,949.124717 z"
         style="stroke:#000000;fill:none;stroke-linecap: round"
         id="path1626" />
      <path
         d="M 3286.455155,474.038103 A 2.645669,2.645669 0.0 0 0 3289.100824,476.683773 L 3737.352793,476.683773 A 2.645669,2.645669 0.0 0 0 3739.998462,474.038103 L 3739.998462,399.959363 A 2.645669,2.645669 0.0 0 0 3737.352793,397.313694 L 3289.100824,397.313694 A 2.645669,2.645669 0.0 0 0 3286.455155,399.959363 L 3286.455155,474.038103 z"
         style="stroke:#000000;fill:none;stroke-linecap: round"
         id="path1628" />
      <path
         d="M 3318.581139,419.990859 A 1.889764,1.889764 0.0 0 1 3316.691375,418.101095 L 3316.691375,416.211332 L 3705.982714,416.211332 L 3705.982714,418.101095 A 1.889764,1.889764 0.0 0 1 3704.092950,419.990859 L 3318.581139,419.990859 z"
         style="stroke:#000000;fill:none;stroke-linecap: round"
         id="path1630" />
      <path
         d="M 3705.982714,457.786135 L 3705.982714,455.896371 A 1.889764,1.889764 0.0 0 0 3704.092950,454.006607 L 3318.581139,454.006607 A 1.889764,1.889764 0.0 0 0 3316.691375,455.896371 L 3316.691375,457.786135 L 3705.982714,457.786135 z"
         style="stroke:#000000;fill:none;stroke-linecap: round"
         id="path1632" />
      <path
         d="M 3286.455155,572.305820 A 2.645669,2.645669 0.0 0 0 3289.100824,574.951489 L 3737.352793,574.951489 A 2.645669,2.645669 0.0 0 0 3739.998462,572.305820 L 3739.998462,498.227080 A 2.645669,2.645669 0.0 0 0 3737.352793,495.581410 L 3289.100824,495.581410 A 2.645669,2.645669 0.0 0 0 3286.455155,498.227080 L 3286.455155,572.305820 z"
         style="stroke:#000000;fill:none;stroke-linecap: round"
         id="path1634" />
      <path
         d="M 3318.581139,518.258576 A 1.889764,1.889764 0.0 0 1 3316.691375,516.368812 L 3316.691375,514.479048 L 3705.982714,514.479048 L 3705.982714,516.368812 A 1.889764,1.889764 0.0 0 1 3704.092950,518.258576 L 3318.581139,518.258576 z"
         style="stroke:#000000;fill:none;stroke-linecap: round"
         id="path1636" />
      <path
         d="M 3705.982714,556.053851 L 3705.982714,554.164087 A 1.889764,1.889764 0.0 0 0 3704.092950,552.274324 L 3318.581139,552.274324 A 1.889764,1.889764 0.0 0 0 3316.691375,554.164087 L 3316.691375,556.053851 L 3705.982714,556.053851 z"
         style="stroke:#000000;fill:none;stroke-linecap: round"
         id="path1638" />
      <path
         d="M 3286.455155,670.573536 A 2.645669,2.645669 0.0 0 0 3289.100824,673.219206 L 3737.352793,673.219206 A 2.645669,2.645669 0.0 0 0 3739.998462,670.573536 L 3739.998462,596.494796 A 2.645669,2.645669 0.0 0 0 3737.352793,593.849127 L 3289.100824,593.849127 A 2.645669,2.645669 0.0 0 0 3286.455155,596.494796 L 3286.455155,670.573536 z"
         style="stroke:#000000;fill:none;stroke-linecap: round"
         id="path1640" />
      <path
         d="M 3318.581139,616.526292 A 1.889764,1.889764 0.0 0 1 3316.691375,614.636528 L 3316.691375,612.746765 L 3705.982714,612.746765 L 3705.982714,614.636528 A 1.889764,1.889764 0.0 0 1 3704.092950,616.526292 L 3318.581139,616.526292 z"
         style="stroke:#000000;fill:none;stroke-linecap: round"
         id="path1642" />
      <path
         d="M 3705.982714,654.321568 L 3705.982714,652.431804 A 1.889764,1.889764 0.0 0 0 3704.092950,650.542040 L 3318.581139,650.542040 A 1.889764,1.889764 0.0 0 0 3316.691375,652.431804 L 3316.691375,654.321568 L 3705.982714,654.321568 z"
         style="stroke:#000000;fill:none;stroke-linecap: round"
         id="path1644" />
      <path
         d="M 3286.455155,768.841253 A 2.645669,2.645669 0.0 0 0 3289.100824,771.486922 L 3737.352793,771.486922 A 2.645669,2.645669 0.0 0 0 3739.998462,768.841253 L 3739.998462,694.762513 A 2.645669,2.645669 0.0 0 0 3737.352793,692.116843 L 3289.100824,692.116843 A 2.645669,2.645669 0.0 0 0 3286.455155,694.762513 L 3286.455155,768.841253 z"
         style="stroke:#000000;fill:none;stroke-linecap: round"
         id="path1646" />
      <path
         d="M 3318.581139,714.794009 A 1.889764,1.889764 0.0 0 1 3316.691375,712.904245 L 3316.691375,711.014481 L 3705.982714,711.014481 L 3705.982714,712.904245 A 1.889764,1.889764 0.0 0 1 3704.092950,714.794009 L 3318.581139,714.794009 z"
         style="stroke:#000000;fill:none;stroke-linecap: round"
         id="path1648" />
      <path
         d="M 3705.982714,752.589284 L 3705.982714,750.699521 A 1.889764,1.889764 0.0 0 0 3704.092950,748.809757 L 3318.581139,748.809757 A 1.889764,1.889764 0.0 0 0 3316.691375,750.699521 L 3316.691375,752.589284 L 3705.982714,752.589284 z"
         style="stroke:#000000;fill:none;stroke-linecap: round"
         id="path1650" />
      <path
         d="M 3286.455155,867.108969 A 2.645669,2.645669 0.0 0 0 3289.100824,869.754639 L 3737.352793,869.754639 A 2.645669,2.645669 0.0 0 0 3739.998462,867.108969 L 3739.998462,793.030229 A 2.645669,2.645669 0.0 0 0 3737.352793,790.384560 L 3289.100824,790.384560 A 2.645669,2.645669 0.0 0 0 3286.455155,793.030229 L 3286.455155,867.108969 z"
         style="stroke:#000000;fill:none;stroke-linecap: round"
         id="path1652" />
      <path
         d="M 3318.581139,813.061725 A 1.889764,1.889764 0.0 0 1 3316.691375,811.171962 L 3316.691375,809.282198 L 3705.982714,809.282198 L 3705.982714,811.171962 A 1.889764,1.889764 0.0 0 1 3704.092950,813.061725 L 3318.581139,813.061725 z"
         style="stroke:#000000;fill:none;stroke-linecap: round"
         id="path1654" />
      <path
         d="M 3705.982714,850.857001 L 3705.982714,848.967237 A 1.889764,1.889764 0.0 0 0 3704.092950,847.077473 L 3318.581139,847.077473 A 1.889764,1.889764 0.0 0 0 3316.691375,848.967237 L 3316.691375,850.857001 L 3705.982714,850.857001 z"
         style="stroke:#000000;fill:none;stroke-linecap: round"
         id="path1656" />
      <path
         d="M 3286.455155,965.376686 A 2.645669,2.645669 0.0 0 0 3289.100824,968.022355 L 3737.352793,968.022355 A 2.645669,2.645669 0.0 0 0 3739.998462,965.376686 L 3739.998462,891.297946 A 2.645669,2.645669 0.0 0 0 3737.352793,888.652276 L 3289.100824,888.652276 A 2.645669,2.645669 0.0 0 0 3286.455155,891.297946 L 3286.455155,965.376686 z"
         style="stroke:#000000;fill:none;stroke-linecap: round"
         id="path1658" />
      <path
         d="M 3318.581139,911.329442 A 1.889764,1.889764 0.0 0 1 3316.691375,909.439678 L 3316.691375,907.549914 L 3705.982714,907.549914 L 3705.982714,909.439678 A 1.889764,1.889764 0.0 0 1 3704.092950,911.329442 L 3318.581139,911.329442 z"
         style="stroke:#000000;fill:none;stroke-linecap: round"
         id="path1660" />
      <path
         d="M 3705.982714,949.124717 L 3705.982714,947.234954 A 1.889764,1.889764 0.0 0 0 3704.092950,945.345190 L 3318.581139,945.345190 A 1.889764,1.889764 0.0 0 0 3316.691375,947.234954 L 3316.691375,949.124717 L 3705.982714,949.124717 z"
         style="stroke:#000000;fill:none;stroke-linecap: round"
         id="path1662" />
    </symbol>
    <symbol
       id="SUBTRACTION">
      <path
         d="M 1882.778431,292.319367 A 944.881890,944.881890 0.0 0 0 1889.763780,177.637795 A 944.881890,944.881890 0.0 1 0 1676.126218,776.038596 L 2042.173745,954.571904 L 2272.473925,482.386559 L 1882.778431,292.319367 z"
         style="stroke:#000000;fill:none;stroke-linecap: round"
         id="path1665" />
      <path
         d="M 1600.651959,592.103285 A 2.645669,2.645669 0.0 0 0 1599.495759,588.544868 L 1587.372458,582.367737 A 2.645669,2.645669 0.0 0 1 1586.216258,578.809320 L 1542.461583,664.682705 A 2.645669,2.645669 0.0 0 0 1543.617783,668.241122 L 1646.329086,720.575145 A 2.645669,2.645669 0.0 0 1 1645.172886,717.016728 L 1651.350017,704.893426 A 2.645669,2.645669 0.0 0 0 1650.193817,701.335009 L 1569.035049,659.982551 A 2.645669,2.645669 0.0 0 1 1567.878849,656.424134 L 1600.651959,592.103285 z"
         style="stroke:#000000;fill:none;stroke-linecap: round"
         id="path1667" />
      <path
         d="M 1512.259917,732.722186 L 1502.638810,742.343293 A 2.645669,2.645669 0.0 0 1 1498.897269,742.343293 L 1342.287036,585.733060 A 2.645669,2.645669 0.0 0 1 1342.287036,581.991519 L 1351.908143,572.370412 A 2.645669,2.645669 0.0 0 1 1355.649684,572.370412 L 1512.259917,728.980645 A 2.645669,2.645669 0.0 0 1 1512.259917,732.722186 z"
         style="stroke:#000000;fill:none;stroke-linecap: round"
         id="path1669" />
      <path
         d="M 389.797499,745.015822 L 380.176392,735.394716 A 2.645669,2.645669 0.0 0 1 380.176392,731.653174 L 536.786625,575.042942 A 2.645669,2.645669 0.0 0 1 540.528166,575.042942 L 550.149273,584.664048 A 2.645669,2.645669 0.0 0 1 550.149273,588.405590 L 393.539040,745.015822 A 2.645669,2.645669 0.0 0 1 389.797499,745.015822 z"
         style="stroke:#000000;fill:none;stroke-linecap: round"
         id="path1671" />
      <path
         d="M 953.574803,971.338583 L 939.968504,971.338583 A 2.645669,2.645669 0.0 0 1 937.322835,968.692913 L 937.322835,747.212598 A 2.645669,2.645669 0.0 0 1 939.968504,744.566929 L 953.574803,744.566929 A 2.645669,2.645669 0.0 0 1 956.220472,747.212598 L 956.220472,968.692913 A 2.645669,2.645669 0.0 0 1 953.574803,971.338583 z"
         style="stroke:#000000;fill:none;stroke-linecap: round"
         id="path1673" />
      <path
         d="M 1738.582677,168.944882 L 1738.582677,182.551181 A 2.645669,2.645669 0.0 0 1 1735.937008,185.196850 L 1514.456693,185.196850 A 2.645669,2.645669 0.0 0 1 1511.811024,182.551181 L 1511.811024,168.944882 A 2.645669,2.645669 0.0 0 1 1514.456693,166.299213 L 1735.937008,166.299213 A 2.645669,2.645669 0.0 0 1 1738.582677,168.944882 z"
         style="stroke:#000000;fill:none;stroke-linecap: round"
         id="path1675" />
      <path
         d="M 1678.724026,438.878226 A 2.645669,2.645669 0.0 0 0 1677.567826,435.319809 L 1665.444525,429.142678 A 2.645669,2.645669 0.0 0 1 1664.288325,425.584261 L 1627.568715,497.650552 A 2.645669,2.645669 0.0 0 1 1631.127133,496.494353 L 1643.250434,502.671483 A 2.645669,2.645669 0.0 0 0 1646.808851,501.515283 L 1678.724026,438.878226 z"
         style="stroke:#000000;fill:none;stroke-linecap: round"
         id="path1677" />
      <path
         d="M 936.188976,-616.062992 L 949.795276,-616.062992 A 2.645669,2.645669 0.0 0 1 952.440945,-613.417323 L 952.440945,-391.937008 A 2.645669,2.645669 0.0 0 1 949.795276,-389.291339 L 936.188976,-389.291339 A 2.645669,2.645669 0.0 0 1 933.543307,-391.937008 L 933.543307,-613.417323 A 2.645669,2.645669 0.0 0 1 936.188976,-616.062992 z"
         style="stroke:#000000;fill:none;stroke-linecap: round"
         id="path1679" />
      <path
         d="M 377.503863,-377.446596 L 387.124969,-387.067702 A 2.645669,2.645669 0.0 0 1 390.866511,-387.067702 L 547.476743,-230.457470 A 2.645669,2.645669 0.0 0 1 547.476743,-226.715928 L 537.855637,-217.094822 A 2.645669,2.645669 0.0 0 1 534.114095,-217.094822 L 377.503863,-373.705054 A 2.645669,2.645669 0.0 0 1 377.503863,-377.446596 z"
         style="stroke:#000000;fill:none;stroke-linecap: round"
         id="path1681" />
      <path
         d="M 151.181102,186.330709 L 151.181102,172.724409 A 2.645669,2.645669 0.0 0 1 153.826772,170.078740 L 375.307087,170.078740 A 2.645669,2.645669 0.0 0 1 377.952756,172.724409 L 377.952756,186.330709 A 2.645669,2.645669 0.0 0 1 375.307087,188.976378 L 153.826772,188.976378 A 2.645669,2.645669 0.0 0 1 151.181102,186.330709 z"
         style="stroke:#000000;fill:none;stroke-linecap: round"
         id="path1683" />
      <path
         d="M 1322.834646,177.637795 A 377.952756,377.952756 -0.000000 1 0 566.929134,177.637795 377.952756,377.952756 -0.000000 1 0 1322.834646,177.637795 z"
         style="stroke:#000000;fill:none;stroke-linecap: round"
         id="path1685" />
      <path
         d="M 1499.966281,-389.740232 L 1509.587387,-380.119125 A 2.645669,2.645669 0.0 0 1 1509.587387,-376.377584 L 1352.977155,-219.767351 A 2.645669,2.645669 0.0 0 1 1349.235613,-219.767351 L 1339.614507,-229.388458 A 2.645669,2.645669 0.0 0 1 1339.614507,-233.129999 L 1496.224739,-389.740232 A 2.645669,2.645669 0.0 0 1 1499.966281,-389.740232 z"
         style="stroke:#000000;fill:none;stroke-linecap: round"
         id="path1687" />
      <path
         d="M 2123.245076,665.373014 L 2091.329901,728.010071 A 2.645669,2.645669 0.0 0 0 2092.486101,731.568488 L 2104.609403,737.745619 A 2.645669,2.645669 0.0 0 1 2105.765603,741.304036 L 2142.485212,669.237745 A 2.645669,2.645669 0.0 0 1 2138.926795,670.393945 L 2126.803493,664.216814 A 2.645669,2.645669 0.0 0 0 2123.245076,665.373014 z"
         style="stroke:#000000;fill:none;stroke-linecap: round"
         id="path1689" />
      <path
         d="M 2119.860111,465.553288 L 2201.018878,506.905746 A 2.645669,2.645669 0.0 0 1 2202.175078,510.464163 L 2169.401969,574.785012 A 2.645669,2.645669 0.0 0 0 2170.558168,578.343430 L 2182.681470,584.520560 A 2.645669,2.645669 0.0 0 1 2183.837670,588.078977 L 2227.592345,502.205593 A 2.645669,2.645669 0.0 0 0 2226.436145,498.647175 L 2123.724841,446.313152 A 2.645669,2.645669 0.0 0 1 2124.881041,449.871570 L 2118.703911,461.994871 A 2.645669,2.645669 0.0 0 0 2119.860111,465.553288 z"
         style="stroke:#000000;fill:none;stroke-linecap: round"
         id="path1691" />
      <path
         d="M 1757.619737,756.071249 A 2.645669,2.645669 0.0 0 0 1754.061320,757.227449 L 1747.884189,769.350751 A 2.645669,2.645669 0.0 0 1 1744.325772,770.506950 L 1816.392064,807.226560 A 2.645669,2.645669 0.0 0 1 1815.235864,803.668143 L 1821.412994,791.544841 A 2.645669,2.645669 0.0 0 0 1820.256794,787.986424 L 1757.619737,756.071249 z"
         style="stroke:#000000;fill:none;stroke-linecap: round"
         id="path1693" />
      <path
         d="M 2008.841482,884.075122 L 1927.682715,842.722664 A 2.645669,2.645669 0.0 0 0 1924.124297,843.878864 L 1917.947167,856.002166 A 2.645669,2.645669 0.0 0 1 1914.388750,857.158365 L 2017.100053,909.492388 A 2.645669,2.645669 0.0 0 0 2020.658470,908.336189 L 2064.413145,822.462804 A 2.645669,2.645669 0.0 0 1 2060.854728,823.619004 L 2048.731426,817.441873 A 2.645669,2.645669 0.0 0 0 2045.173009,818.598073 L 2012.399900,882.918922 A 2.645669,2.645669 0.0 0 1 2008.841482,884.075122 z"
         style="stroke:#000000;fill:none;stroke-linecap: round"
         id="path1695" />
      <path
         d="M 1852.106761,310.886132 A 2.645669,2.645669 0.0 0 1 1855.665178,309.729932 L 1752.953875,257.395909 A 2.645669,2.645669 0.0 0 0 1749.395457,258.552109 L 1705.640782,344.425493 A 2.645669,2.645669 0.0 0 1 1709.199200,343.269294 L 1721.322501,349.446424 A 2.645669,2.645669 0.0 0 0 1724.880918,348.290224 L 1757.654028,283.969375 A 2.645669,2.645669 0.0 0 1 1761.212445,282.813175 L 1842.371213,324.165633 A 2.645669,2.645669 0.0 0 0 1845.929630,323.009433 L 1852.106761,310.886132 z"
         style="stroke:#000000;fill:none;stroke-linecap: round"
         id="path1697" />
      <path
         d="M 1949.797133,378.901873 L 2012.434190,410.817048 A 2.645669,2.645669 0.0 0 0 2015.992607,409.660848 L 2022.169738,397.537547 A 2.645669,2.645669 0.0 0 1 2025.728155,396.381347 L 1953.661864,359.661737 A 2.645669,2.645669 0.0 0 1 1954.818064,363.220155 L 1948.640933,375.343456 A 2.645669,2.645669 0.0 0 0 1949.797133,378.901873 z"
         style="stroke:#000000;fill:none;stroke-linecap: round"
         id="path1699" />
    </symbol>
    <symbol
       id="CUT002">
      <path
         d="M 2448.127430,-101.027459 A 2.645669,2.645669 0.0 0 0 2450.773099,-98.381790 L 2464.379398,-98.381790 A 2.645669,2.645669 0.0 0 1 2467.025068,-95.736121 L 2467.025068,14.248131 A 2.645669,2.645669 0.0 0 1 2464.379398,16.893801 L 2450.773099,16.893801 A 2.645669,2.645669 0.0 0 0 2448.127430,19.539470 L 2448.127430,89.838683 A 2.645669,2.645669 0.0 0 0 2450.773099,92.484352 L 2464.379398,92.484352 A 2.645669,2.645669 0.0 0 1 2467.025068,95.130021 L 2467.025068,205.114273 A 2.645669,2.645669 0.0 0 1 2464.379398,207.759942 L 2450.773099,207.759942 A 2.645669,2.645669 0.0 0 0 2448.127430,210.405612 L 2448.127430,301.492226 A 2.645669,2.645669 0.0 0 1 2445.481761,304.137895 L 2373.292784,304.137895 A 2.645669,2.645669 0.0 0 0 2370.647115,306.783565 L 2370.647115,320.389864 A 2.645669,2.645669 0.0 0 1 2368.001446,323.035533 L 2276.914831,323.035533 A 2.645669,2.645669 0.0 0 1 2274.269162,320.389864 L 2274.269162,306.783565 A 2.645669,2.645669 0.0 0 0 2271.623493,304.137895 L 2201.324280,304.137895 A 2.645669,2.645669 0.0 0 0 2198.678611,306.783565 L 2198.678611,320.389864 A 2.645669,2.645669 0.0 0 1 2196.032942,323.035533 L 2104.946328,323.035533 A 2.645669,2.645669 0.0 0 1 2102.300658,320.389864 L 2102.300658,306.783565 A 2.645669,2.645669 0.0 0 0 2099.654989,304.137895 L 2027.466013,304.137895 A 2.645669,2.645669 0.0 0 1 2024.820343,301.492226 L 2024.820343,210.405612 A 2.645669,2.645669 0.0 0 0 2022.174674,207.759942 L 2008.568375,207.759942 A 2.645669,2.645669 0.0 0 1 2005.922705,205.114273 L 2005.922705,95.130021 A 2.645669,2.645669 0.0 0 1 2008.568375,92.484352 L 2022.174674,92.484352 A 2.645669,2.645669 0.0 0 0 2024.820343,89.838683 L 2024.820343,19.539470 A 2.645669,2.645669 0.0 0 0 2022.174674,16.893801 L 2008.568375,16.893801 A 2.645669,2.645669 0.0 0 1 2005.922705,14.248131 L 2005.922705,-95.736121 A 2.645669,2.645669 0.0 0 1 2008.568375,-98.381790 L 2022.174674,-98.381790 A 2.645669,2.645669 0.0 0 0 2024.820343,-101.027459 L 2024.820343,-192.114073 A 2.645669,2.645669 0.0 0 1 2027.466013,-194.759743 L 2099.654989,-194.759743 A 2.645669,2.645669 0.0 0 0 2102.300658,-197.405412 L 2102.300658,-211.011711 A 2.645669,2.645669 0.0 0 1 2104.946328,-213.657380 L 2196.032942,-213.657380 A 2.645669,2.645669 0.0 0 1 2198.678611,-211.011711 L 2198.678611,-197.405412 A 2.645669,2.645669 0.0 0 0 2201.324280,-194.759743 L 2271.623493,-194.759743 A 2.645669,2.645669 0.0 0 0 2274.269162,-197.405412 L 2274.269162,-211.011711 A 2.645669,2.645669 0.0 0 1 2276.914831,-213.657380 L 2368.001446,-213.657380 A 2.645669,2.645669 0.0 0 1 2370.647115,-211.011711 L 2370.647115,-197.405412 A 2.645669,2.645669 0.0 0 0 2373.292784,-194.759743 L 2445.481761,-194.759743 A 2.645669,2.645669 0.0 0 1 2448.127430,-192.114073 L 2448.127430,-101.027459 z"
         style="stroke:#000000;fill:none;stroke-linecap: round"
         id="path1702" />
      <path
         d="M 2054.489635,-43.389664 A 2.645669,2.645669 0.0 0 1 2051.843965,-46.035333 L 2051.843965,-47.169191 L 2434.710107,-47.169191 A 2.645669,2.645669 0.0 0 1 2437.355776,-44.523522 L 2437.355776,-43.389664 L 2054.489635,-43.389664 z"
         style="stroke:#000000;fill:none;stroke-linecap: round"
         id="path1704" />
      <path
         d="M 2437.355776,-2.948719 A 2.645669,2.645669 0.0 0 0 2434.710107,-5.594388 L 2054.489635,-5.594388 A 2.645669,2.645669 0.0 0 0 2051.843965,-2.948719 L 2051.843965,-1.814861 L 2437.355776,-1.814861 L 2437.355776,-2.948719 z"
         style="stroke:#000000;fill:none;stroke-linecap: round"
         id="path1706" />
    </symbol>
  </defs>
  <metadata
     id="metadata7">
    <rdf:RDF>
      <cc:Work
         rdf:about="">
        <dc:format>image/svg+xml</dc:format>
        <dc:type
           rdf:resource="http://purl.org/dc/dcmitype/StillImage" />
        <dc:title></dc:title>
      </cc:Work>
    </rdf:RDF>
  </metadata>
  <g
     transform="matrix(0.26458333,0,0,0.26458333,5.3934687,203.32316)"
     id="g1725">
    <g
       style="stroke:#ff00ff"
       id="use1711">
      <path
         id="path1940"
         style="fill:none;stroke:#ff00ff;stroke-linecap:round"
         d="m 2303.778,474.0381 a 2.645669,2.645669 0 0 0 2.6457,2.64567 h 448.2519 a 2.645669,2.645669 0 0 0 2.6457,-2.64567 v -74.07874 a 2.645669,2.645669 0 0 0 -2.6457,-2.64567 h -448.2519 a 2.645669,2.645669 0 0 0 -2.6457,2.64567 z" />
      <path
         id="path1942"
         style="fill:none;stroke:#ff00ff;stroke-linecap:round"
         d="m 2335.904,419.99086 a 1.889764,1.889764 0 0 1 -1.8898,-1.88977 v -1.88976 h 389.2913 v 1.88976 a 1.889764,1.889764 0 0 1 -1.8897,1.88977 z" />
      <path
         id="path1945"
         style="fill:none;stroke:#ff00ff;stroke-linecap:round"
         d="m 2723.3055,457.78613 v -1.88976 a 1.889764,1.889764 0 0 0 -1.8897,-1.88976 H 2335.904 a 1.889764,1.889764 0 0 0 -1.8898,1.88976 v 1.88976 z" />
      <path
         id="path1948"
         style="fill:none;stroke:#ff00ff;stroke-linecap:round"
         d="m 2303.778,572.30582 a 2.645669,2.645669 0 0 0 2.6457,2.64567 h 448.2519 a 2.645669,2.645669 0 0 0 2.6457,-2.64567 v -74.07874 a 2.645669,2.645669 0 0 0 -2.6457,-2.64567 h -448.2519 a 2.645669,2.645669 0 0 0 -2.6457,2.64567 z" />
      <path
         id="path1950"
         style="fill:none;stroke:#ff00ff;stroke-linecap:round"
         d="m 2335.904,518.25858 a 1.889764,1.889764 0 0 1 -1.8898,-1.88977 v -1.88976 h 389.2913 v 1.88976 a 1.889764,1.889764 0 0 1 -1.8897,1.88977 z" />
      <path
         id="path1952"
         style="fill:none;stroke:#ff00ff;stroke-linecap:round"
         d="m 2723.3055,556.05385 v -1.88976 a 1.889764,1.889764 0 0 0 -1.8897,-1.88977 H 2335.904 a 1.889764,1.889764 0 0 0 -1.8898,1.88977 v 1.88976 z" />
      <path
         id="path1954"
         style="fill:none;stroke:#ff00ff;stroke-linecap:round"
         d="m 2303.778,670.57354 a 2.645669,2.645669 0 0 0 2.6457,2.64567 h 448.2519 a 2.645669,2.645669 0 0 0 2.6457,-2.64567 V 596.4948 a 2.645669,2.645669 0 0 0 -2.6457,-2.64567 h -448.2519 a 2.645669,2.645669 0 0 0 -2.6457,2.64567 z" />
      <path
         id="path1956"
         style="fill:none;stroke:#ff00ff;stroke-linecap:round"
         d="m 2335.904,616.52629 a 1.889764,1.889764 0 0 1 -1.8898,-1.88976 v -1.88977 h 389.2913 v 1.88977 a 1.889764,1.889764 0 0 1 -1.8897,1.88976 z" />
      <path
         id="path1958"
         style="fill:none;stroke:#ff00ff;stroke-linecap:round"
         d="m 2723.3055,654.32157 v -1.88977 a 1.889764,1.889764 0 0 0 -1.8897,-1.88976 H 2335.904 a 1.889764,1.889764 0 0 0 -1.8898,1.88976 v 1.88977 z" />
      <path
         id="path1960"
         style="fill:none;stroke:#ff00ff;stroke-linecap:round"
         d="m 2303.778,768.84125 a 2.645669,2.645669 0 0 0 2.6457,2.64567 h 448.2519 a 2.645669,2.645669 0 0 0 2.6457,-2.64567 v -74.07874 a 2.645669,2.645669 0 0 0 -2.6457,-2.64567 h -448.2519 a 2.645669,2.645669 0 0 0 -2.6457,2.64567 z" />
      <path
         id="path1962"
         style="fill:none;stroke:#ff00ff;stroke-linecap:round"
         d="m 2335.904,714.79401 a 1.889764,1.889764 0 0 1 -1.8898,-1.88977 v -1.88976 h 389.2913 v 1.88976 a 1.889764,1.889764 0 0 1 -1.8897,1.88977 z" />
      <path
         id="path1964"
         style="fill:none;stroke:#ff00ff;stroke-linecap:round"
         d="m 2723.3055,752.58928 v -1.88976 a 1.889764,1.889764 0 0 0 -1.8897,-1.88976 H 2335.904 a 1.889764,1.889764 0 0 0 -1.8898,1.88976 v 1.88976 z" />
      <path
         id="path1966"
         style="fill:none;stroke:#ff00ff;stroke-linecap:round"
         d="m 2303.778,867.10897 a 2.645669,2.645669 0 0 0 2.6457,2.64567 h 448.2519 a 2.645669,2.645669 0 0 0 2.6457,-2.64567 v -74.07874 a 2.645669,2.645669 0 0 0 -2.6457,-2.64567 h -448.2519 a 2.645669,2.645669 0 0 0 -2.6457,2.64567 z" />
      <path
         id="path1968"
         style="fill:none;stroke:#ff00ff;stroke-linecap:round"
         d="m 2335.904,813.06173 a 1.889764,1.889764 0 0 1 -1.8898,-1.88977 v -1.88976 h 389.2913 v 1.88976 a 1.889764,1.889764 0 0 1 -1.8897,1.88977 z" />
      <path
         id="path1970"
         style="fill:none;stroke:#ff00ff;stroke-linecap:round"
         d="m 2723.3055,850.857 v -1.88976 a 1.889764,1.889764 0 0 0 -1.8897,-1.88977 H 2335.904 a 1.889764,1.889764 0 0 0 -1.8898,1.88977 v 1.88976 z" />
      <path
         id="path1972"
         style="fill:none;stroke:#ff00ff;stroke-linecap:round"
         d="m 2303.778,965.37669 a 2.645669,2.645669 0 0 0 2.6457,2.64566 h 448.2519 a 2.645669,2.645669 0 0 0 2.6457,-2.64566 v -74.07874 a 2.645669,2.645669 0 0 0 -2.6457,-2.64567 h -448.2519 a 2.645669,2.645669 0 0 0 -2.6457,2.64567 z" />
      <path
         id="path1974"
         style="fill:none;stroke:#ff00ff;stroke-linecap:round"
         d="m 2335.904,911.32944 a 1.889764,1.889764 0 0 1 -1.8898,-1.88976 v -1.88977 h 389.2913 v 1.88977 a 1.889764,1.889764 0 0 1 -1.8897,1.88976 z" />
      <path
         id="path1976"
         style="fill:none;stroke:#ff00ff;stroke-linecap:round"
         d="m 2723.3055,949.12472 v -1.88977 a 1.889764,1.889764 0 0 0 -1.8897,-1.88976 H 2335.904 a 1.889764,1.889764 0 0 0 -1.8898,1.88976 v 1.88977 z" />
      <path
         id="path1978"
         style="fill:none;stroke:#ff00ff;stroke-linecap:round"
         d="m 2795.1166,474.0381 a 2.645669,2.645669 0 0 0 2.6456,2.64567 h 448.252 a 2.645669,2.645669 0 0 0 2.6457,-2.64567 v -74.07874 a 2.645669,2.645669 0 0 0 -2.6457,-2.64567 h -448.252 a 2.645669,2.645669 0 0 0 -2.6456,2.64567 z" />
      <path
         id="path1980"
         style="fill:none;stroke:#ff00ff;stroke-linecap:round"
         d="m 2827.2426,419.99086 a 1.889764,1.889764 0 0 1 -1.8898,-1.88977 v -1.88976 h 389.2913 v 1.88976 a 1.889764,1.889764 0 0 1 -1.8897,1.88977 z" />
      <path
         id="path1982"
         style="fill:none;stroke:#ff00ff;stroke-linecap:round"
         d="m 3214.6441,457.78613 v -1.88976 a 1.889764,1.889764 0 0 0 -1.8897,-1.88976 h -385.5118 a 1.889764,1.889764 0 0 0 -1.8898,1.88976 v 1.88976 z" />
      <path
         id="path1984"
         style="fill:none;stroke:#ff00ff;stroke-linecap:round"
         d="m 2795.1166,572.30582 a 2.645669,2.645669 0 0 0 2.6456,2.64567 h 448.252 a 2.645669,2.645669 0 0 0 2.6457,-2.64567 v -74.07874 a 2.645669,2.645669 0 0 0 -2.6457,-2.64567 h -448.252 a 2.645669,2.645669 0 0 0 -2.6456,2.64567 z" />
      <path
         id="path1986"
         style="fill:none;stroke:#ff00ff;stroke-linecap:round"
         d="m 2827.2426,518.25858 a 1.889764,1.889764 0 0 1 -1.8898,-1.88977 v -1.88976 h 389.2913 v 1.88976 a 1.889764,1.889764 0 0 1 -1.8897,1.88977 z" />
      <path
         id="path1988"
         style="fill:none;stroke:#ff00ff;stroke-linecap:round"
         d="m 3214.6441,556.05385 v -1.88976 a 1.889764,1.889764 0 0 0 -1.8897,-1.88977 h -385.5118 a 1.889764,1.889764 0 0 0 -1.8898,1.88977 v 1.88976 z" />
      <path
         id="path1990"
         style="fill:none;stroke:#ff00ff;stroke-linecap:round"
         d="m 2795.1166,670.57354 a 2.645669,2.645669 0 0 0 2.6456,2.64567 h 448.252 a 2.645669,2.645669 0 0 0 2.6457,-2.64567 V 596.4948 a 2.645669,2.645669 0 0 0 -2.6457,-2.64567 h -448.252 a 2.645669,2.645669 0 0 0 -2.6456,2.64567 z" />
      <path
         id="path1992"
         style="fill:none;stroke:#ff00ff;stroke-linecap:round"
         d="m 2827.2426,616.52629 a 1.889764,1.889764 0 0 1 -1.8898,-1.88976 v -1.88977 h 389.2913 v 1.88977 a 1.889764,1.889764 0 0 1 -1.8897,1.88976 z" />
      <path
         id="path1994"
         style="fill:none;stroke:#ff00ff;stroke-linecap:round"
         d="m 3214.6441,654.32157 v -1.88977 a 1.889764,1.889764 0 0 0 -1.8897,-1.88976 h -385.5118 a 1.889764,1.889764 0 0 0 -1.8898,1.88976 v 1.88977 z" />
      <path
         id="path1996"
         style="fill:none;stroke:#ff00ff;stroke-linecap:round"
         d="m 2795.1166,768.84125 a 2.645669,2.645669 0 0 0 2.6456,2.64567 h 448.252 a 2.645669,2.645669 0 0 0 2.6457,-2.64567 v -74.07874 a 2.645669,2.645669 0 0 0 -2.6457,-2.64567 h -448.252 a 2.645669,2.645669 0 0 0 -2.6456,2.64567 z" />
      <path
         id="path1998"
         style="fill:none;stroke:#ff00ff;stroke-linecap:round"
         d="m 2827.2426,714.79401 a 1.889764,1.889764 0 0 1 -1.8898,-1.88977 v -1.88976 h 389.2913 v 1.88976 a 1.889764,1.889764 0 0 1 -1.8897,1.88977 z" />
      <path
         id="path2000"
         style="fill:none;stroke:#ff00ff;stroke-linecap:round"
         d="m 3214.6441,752.58928 v -1.88976 a 1.889764,1.889764 0 0 0 -1.8897,-1.88976 h -385.5118 a 1.889764,1.889764 0 0 0 -1.8898,1.88976 v 1.88976 z" />
      <path
         id="path2002"
         style="fill:none;stroke:#ff00ff;stroke-linecap:round"
         d="m 2795.1166,867.10897 a 2.645669,2.645669 0 0 0 2.6456,2.64567 h 448.252 a 2.645669,2.645669 0 0 0 2.6457,-2.64567 v -74.07874 a 2.645669,2.645669 0 0 0 -2.6457,-2.64567 h -448.252 a 2.645669,2.645669 0 0 0 -2.6456,2.64567 z" />
      <path
         id="path2004"
         style="fill:none;stroke:#ff00ff;stroke-linecap:round"
         d="m 2827.2426,813.06173 a 1.889764,1.889764 0 0 1 -1.8898,-1.88977 v -1.88976 h 389.2913 v 1.88976 a 1.889764,1.889764 0 0 1 -1.8897,1.88977 z" />
      <path
         id="path2006"
         style="fill:none;stroke:#ff00ff;stroke-linecap:round"
         d="m 3214.6441,850.857 v -1.88976 a 1.889764,1.889764 0 0 0 -1.8897,-1.88977 h -385.5118 a 1.889764,1.889764 0 0 0 -1.8898,1.88977 v 1.88976 z" />
      <path
         id="path2008"
         style="fill:none;stroke:#ff00ff;stroke-linecap:round"
         d="m 2795.1166,965.37669 a 2.645669,2.645669 0 0 0 2.6456,2.64566 h 448.252 a 2.645669,2.645669 0 0 0 2.6457,-2.64566 v -74.07874 a 2.645669,2.645669 0 0 0 -2.6457,-2.64567 h -448.252 a 2.645669,2.645669 0 0 0 -2.6456,2.64567 z" />
      <path
         id="path2010"
         style="fill:none;stroke:#ff00ff;stroke-linecap:round"
         d="m 2827.2426,911.32944 a 1.889764,1.889764 0 0 1 -1.8898,-1.88976 v -1.88977 h 389.2913 v 1.88977 a 1.889764,1.889764 0 0 1 -1.8897,1.88976 z" />
      <path
         id="path2012"
         style="fill:none;stroke:#ff00ff;stroke-linecap:round"
         d="m 3214.6441,949.12472 v -1.88977 a 1.889764,1.889764 0 0 0 -1.8897,-1.88976 h -385.5118 a 1.889764,1.889764 0 0 0 -1.8898,1.88976 v 1.88977 z" />
      <path
         id="path2014"
         style="fill:none;stroke:#ff00ff;stroke-linecap:round"
         d="m 3286.4552,474.0381 a 2.645669,2.645669 0 0 0 2.6456,2.64567 h 448.252 a 2.645669,2.645669 0 0 0 2.6457,-2.64567 v -74.07874 a 2.645669,2.645669 0 0 0 -2.6457,-2.64567 h -448.252 a 2.645669,2.645669 0 0 0 -2.6456,2.64567 z" />
      <path
         id="path2016"
         style="fill:none;stroke:#ff00ff;stroke-linecap:round"
         d="m 3318.5811,419.99086 a 1.889764,1.889764 0 0 1 -1.8897,-1.88977 v -1.88976 h 389.2913 v 1.88976 a 1.889764,1.889764 0 0 1 -1.8897,1.88977 z" />
      <path
         id="path2018"
         style="fill:none;stroke:#ff00ff;stroke-linecap:round"
         d="m 3705.9827,457.78613 v -1.88976 a 1.889764,1.889764 0 0 0 -1.8897,-1.88976 h -385.5119 a 1.889764,1.889764 0 0 0 -1.8897,1.88976 v 1.88976 z" />
      <path
         id="path2020"
         style="fill:none;stroke:#ff00ff;stroke-linecap:round"
         d="m 3286.4552,572.30582 a 2.645669,2.645669 0 0 0 2.6456,2.64567 h 448.252 a 2.645669,2.645669 0 0 0 2.6457,-2.64567 v -74.07874 a 2.645669,2.645669 0 0 0 -2.6457,-2.64567 h -448.252 a 2.645669,2.645669 0 0 0 -2.6456,2.64567 z" />
      <path
         id="path2022"
         style="fill:none;stroke:#ff00ff;stroke-linecap:round"
         d="m 3318.5811,518.25858 a 1.889764,1.889764 0 0 1 -1.8897,-1.88977 v -1.88976 h 389.2913 v 1.88976 a 1.889764,1.889764 0 0 1 -1.8897,1.88977 z" />
      <path
         id="path2024"
         style="fill:none;stroke:#ff00ff;stroke-linecap:round"
         d="m 3705.9827,556.05385 v -1.88976 a 1.889764,1.889764 0 0 0 -1.8897,-1.88977 h -385.5119 a 1.889764,1.889764 0 0 0 -1.8897,1.88977 v 1.88976 z" />
      <path
         id="path2026"
         style="fill:none;stroke:#ff00ff;stroke-linecap:round"
         d="m 3286.4552,670.57354 a 2.645669,2.645669 0 0 0 2.6456,2.64567 h 448.252 a 2.645669,2.645669 0 0 0 2.6457,-2.64567 V 596.4948 a 2.645669,2.645669 0 0 0 -2.6457,-2.64567 h -448.252 a 2.645669,2.645669 0 0 0 -2.6456,2.64567 z" />
      <path
         id="path2028"
         style="fill:none;stroke:#ff00ff;stroke-linecap:round"
         d="m 3318.5811,616.52629 a 1.889764,1.889764 0 0 1 -1.8897,-1.88976 v -1.88977 h 389.2913 v 1.88977 a 1.889764,1.889764 0 0 1 -1.8897,1.88976 z" />
      <path
         id="path2030"
         style="fill:none;stroke:#ff00ff;stroke-linecap:round"
         d="m 3705.9827,654.32157 v -1.88977 a 1.889764,1.889764 0 0 0 -1.8897,-1.88976 h -385.5119 a 1.889764,1.889764 0 0 0 -1.8897,1.88976 v 1.88977 z" />
      <path
         id="path2032"
         style="fill:none;stroke:#ff00ff;stroke-linecap:round"
         d="m 3286.4552,768.84125 a 2.645669,2.645669 0 0 0 2.6456,2.64567 h 448.252 a 2.645669,2.645669 0 0 0 2.6457,-2.64567 v -74.07874 a 2.645669,2.645669 0 0 0 -2.6457,-2.64567 h -448.252 a 2.645669,2.645669 0 0 0 -2.6456,2.64567 z" />
      <path
         id="path2034"
         style="fill:none;stroke:#ff00ff;stroke-linecap:round"
         d="m 3318.5811,714.79401 a 1.889764,1.889764 0 0 1 -1.8897,-1.88977 v -1.88976 h 389.2913 v 1.88976 a 1.889764,1.889764 0 0 1 -1.8897,1.88977 z" />
      <path
         id="path2036"
         style="fill:none;stroke:#ff00ff;stroke-linecap:round"
         d="m 3705.9827,752.58928 v -1.88976 a 1.889764,1.889764 0 0 0 -1.8897,-1.88976 h -385.5119 a 1.889764,1.889764 0 0 0 -1.8897,1.88976 v 1.88976 z" />
      <path
         id="path2038"
         style="fill:none;stroke:#ff00ff;stroke-linecap:round"
         d="m 3286.4552,867.10897 a 2.645669,2.645669 0 0 0 2.6456,2.64567 h 448.252 a 2.645669,2.645669 0 0 0 2.6457,-2.64567 v -74.07874 a 2.645669,2.645669 0 0 0 -2.6457,-2.64567 h -448.252 a 2.645669,2.645669 0 0 0 -2.6456,2.64567 z" />
      <path
         id="path2040"
         style="fill:none;stroke:#ff00ff;stroke-linecap:round"
         d="m 3318.5811,813.06173 a 1.889764,1.889764 0 0 1 -1.8897,-1.88977 v -1.88976 h 389.2913 v 1.88976 a 1.889764,1.889764 0 0 1 -1.8897,1.88977 z" />
      <path
         id="path2042"
         style="fill:none;stroke:#ff00ff;stroke-linecap:round"
         d="m 3705.9827,850.857 v -1.88976 a 1.889764,1.889764 0 0 0 -1.8897,-1.88977 h -385.5119 a 1.889764,1.889764 0 0 0 -1.8897,1.88977 v 1.88976 z" />
      <path
         id="path2044"
         style="fill:none;stroke:#ff00ff;stroke-linecap:round"
         d="m 3286.4552,965.37669 a 2.645669,2.645669 0 0 0 2.6456,2.64566 h 448.252 a 2.645669,2.645669 0 0 0 2.6457,-2.64566 v -74.07874 a 2.645669,2.645669 0 0 0 -2.6457,-2.64567 h -448.252 a 2.645669,2.645669 0 0 0 -2.6456,2.64567 z" />
      <path
         id="path2046"
         style="fill:none;stroke:#ff00ff;stroke-linecap:round"
         d="m 3318.5811,911.32944 a 1.889764,1.889764 0 0 1 -1.8897,-1.88976 v -1.88977 h 389.2913 v 1.88977 a 1.889764,1.889764 0 0 1 -1.8897,1.88976 z" />
      <path
         id="path2048"
         style="fill:none;stroke:#ff00ff;stroke-linecap:round"
         d="m 3705.9827,949.12472 v -1.88977 a 1.889764,1.889764 0 0 0 -1.8897,-1.88976 h -385.5119 a 1.889764,1.889764 0 0 0 -1.8897,1.88976 v 1.88977 z" />
    </g>
    <g
       style="stroke:#ff00ff"
       id="use1713">
      <path
         id="path1932"
         style="fill:none;stroke:#ff00ff;stroke-linecap:round"
         d="m 2448.1274,-101.02746 a 2.645669,2.645669 0 0 0 2.6457,2.64567 h 13.6063 a 2.645669,2.645669 0 0 1 2.6457,2.645669 V 14.248131 a 2.645669,2.645669 0 0 1 -2.6457,2.64567 h -13.6063 a 2.645669,2.645669 0 0 0 -2.6457,2.645669 v 70.299213 a 2.645669,2.645669 0 0 0 2.6457,2.645669 h 13.6063 a 2.645669,2.645669 0 0 1 2.6457,2.645669 V 205.11427 a 2.645669,2.645669 0 0 1 -2.6457,2.64567 h -13.6063 a 2.645669,2.645669 0 0 0 -2.6457,2.64567 v 91.08662 a 2.645669,2.645669 0 0 1 -2.6456,2.64567 h -72.189 a 2.645669,2.645669 0 0 0 -2.6457,2.64566 v 13.6063 a 2.645669,2.645669 0 0 1 -2.6457,2.64567 h -91.0866 a 2.645669,2.645669 0 0 1 -2.6456,-2.64567 v -13.6063 a 2.645669,2.645669 0 0 0 -2.6457,-2.64566 h -70.2992 a 2.645669,2.645669 0 0 0 -2.6457,2.64566 v 13.6063 a 2.645669,2.645669 0 0 1 -2.6457,2.64567 h -91.0866 a 2.645669,2.645669 0 0 1 -2.6456,-2.64567 v -13.6063 a 2.645669,2.645669 0 0 0 -2.6457,-2.64566 h -72.189 a 2.645669,2.645669 0 0 1 -2.6457,-2.64567 v -91.08662 a 2.645669,2.645669 0 0 0 -2.6456,-2.64567 h -13.6063 a 2.645669,2.645669 0 0 1 -2.6457,-2.64567 V 95.130021 a 2.645669,2.645669 0 0 1 2.6457,-2.645669 h 13.6063 a 2.645669,2.645669 0 0 0 2.6456,-2.645669 V 19.53947 a 2.645669,2.645669 0 0 0 -2.6456,-2.645669 h -13.6063 a 2.645669,2.645669 0 0 1 -2.6457,-2.64567 V -95.736121 a 2.645669,2.645669 0 0 1 2.6457,-2.645669 h 13.6063 a 2.645669,2.645669 0 0 0 2.6456,-2.64567 v -91.08661 a 2.645669,2.645669 0 0 1 2.6457,-2.64567 h 72.189 a 2.645669,2.645669 0 0 0 2.6457,-2.64567 v -13.6063 a 2.645669,2.645669 0 0 1 2.6456,-2.64567 h 91.0866 a 2.645669,2.645669 0 0 1 2.6457,2.64567 v 13.6063 a 2.645669,2.645669 0 0 0 2.6457,2.64567 h 70.2992 a 2.645669,2.645669 0 0 0 2.6457,-2.64567 v -13.6063 a 2.645669,2.645669 0 0 1 2.6456,-2.64567 h 91.0866 a 2.645669,2.645669 0 0 1 2.6457,2.64567 v 13.6063 a 2.645669,2.645669 0 0 0 2.6457,2.64567 h 72.189 a 2.645669,2.645669 0 0 1 2.6456,2.64567 z" />
      <path
         id="path1934"
         style="fill:none;stroke:#ff00ff;stroke-linecap:round"
         d="m 2054.4896,-43.389664 a 2.645669,2.645669 0 0 1 -2.6456,-2.645669 v -1.133858 h 382.8661 a 2.645669,2.645669 0 0 1 2.6457,2.645669 v 1.133858 z" />
      <path
         id="path1936"
         style="fill:none;stroke:#ff00ff;stroke-linecap:round"
         d="m 2437.3558,-2.948719 a 2.645669,2.645669 0 0 0 -2.6457,-2.645669 h -380.2205 a 2.645669,2.645669 0 0 0 -2.6456,2.645669 v 1.133858 h 385.5118 z" />
    </g>
    <g
       style="stroke:#ff00ff"
       id="use1715">
      <path
         id="path1894"
         style="fill:none;stroke:#ff00ff;stroke-linecap:round"
         d="m 1882.7784,292.31937 a 944.88189,944.88189 0 0 0 6.9854,-114.68158 944.88189,944.88189 0 1 0 -213.6376,598.40081 l 366.0475,178.5333 230.3002,-472.18534 z" />
      <path
         id="path1896"
         style="fill:none;stroke:#ff00ff;stroke-linecap:round"
         d="m 1600.652,592.10329 a 2.645669,2.645669 0 0 0 -1.1562,-3.55842 l -12.1233,-6.17713 a 2.645669,2.645669 0 0 1 -1.1562,-3.55842 l -43.7547,85.87339 a 2.645669,2.645669 0 0 0 1.1562,3.55841 l 102.7113,52.33403 a 2.645669,2.645669 0 0 1 -1.1562,-3.55842 l 6.1771,-12.1233 a 2.645669,2.645669 0 0 0 -1.1562,-3.55842 l -81.1588,-41.35246 a 2.645669,2.645669 0 0 1 -1.1562,-3.55842 z" />
      <path
         id="path1898"
         style="fill:none;stroke:#ff00ff;stroke-linecap:round"
         d="m 1512.2599,732.72219 -9.6211,9.6211 a 2.645669,2.645669 0 0 1 -3.7415,0 L 1342.287,585.73306 a 2.645669,2.645669 0 0 1 0,-3.74154 l 9.6211,-9.62111 a 2.645669,2.645669 0 0 1 3.7416,0 l 156.6102,156.61023 a 2.645669,2.645669 0 0 1 0,3.74155 z" />
      <path
         id="path1900"
         style="fill:none;stroke:#ff00ff;stroke-linecap:round"
         d="m 389.7975,745.01582 -9.62111,-9.6211 a 2.645669,2.645669 0 0 1 0,-3.74155 L 536.78662,575.04294 a 2.645669,2.645669 0 0 1 3.74155,0 l 9.6211,9.62111 a 2.645669,2.645669 0 0 1 0,3.74154 L 393.53904,745.01582 a 2.645669,2.645669 0 0 1 -3.74154,0 z" />
      <path
         id="path1902"
         style="fill:none;stroke:#ff00ff;stroke-linecap:round"
         d="m 953.5748,971.33858 h -13.6063 a 2.645669,2.645669 0 0 1 -2.64566,-2.64567 V 747.2126 a 2.645669,2.645669 0 0 1 2.64566,-2.64567 h 13.6063 a 2.645669,2.645669 0 0 1 2.64567,2.64567 v 221.48031 a 2.645669,2.645669 0 0 1 -2.64567,2.64567 z" />
      <path
         id="path1904"
         style="fill:none;stroke:#ff00ff;stroke-linecap:round"
         d="m 1738.5827,168.94488 v 13.6063 a 2.645669,2.645669 0 0 1 -2.6457,2.64567 h -221.4803 a 2.645669,2.645669 0 0 1 -2.6457,-2.64567 v -13.6063 a 2.645669,2.645669 0 0 1 2.6457,-2.64567 h 221.4803 a 2.645669,2.645669 0 0 1 2.6457,2.64567 z" />
      <path
         id="path1906"
         style="fill:none;stroke:#ff00ff;stroke-linecap:round"
         d="m 1678.724,438.87823 a 2.645669,2.645669 0 0 0 -1.1562,-3.55842 l -12.1233,-6.17713 a 2.645669,2.645669 0 0 1 -1.1562,-3.55842 l -36.7196,72.06629 a 2.645669,2.645669 0 0 1 3.5584,-1.1562 l 12.1233,6.17713 a 2.645669,2.645669 0 0 0 3.5585,-1.1562 z" />
      <path
         id="path1908"
         style="fill:none;stroke:#ff00ff;stroke-linecap:round"
         d="m 936.18898,-616.06299 h 13.6063 a 2.645669,2.645669 0 0 1 2.64567,2.64567 v 221.48031 a 2.645669,2.645669 0 0 1 -2.64567,2.64567 h -13.6063 a 2.645669,2.645669 0 0 1 -2.64567,-2.64567 v -221.48031 a 2.645669,2.645669 0 0 1 2.64567,-2.64567 z" />
      <path
         id="path1910"
         style="fill:none;stroke:#ff00ff;stroke-linecap:round"
         d="m 377.50386,-377.4466 9.62111,-9.6211 a 2.645669,2.645669 0 0 1 3.74154,0 l 156.61023,156.61023 a 2.645669,2.645669 0 0 1 0,3.74154 l -9.6211,9.62111 a 2.645669,2.645669 0 0 1 -3.74154,0 L 377.50386,-373.70505 a 2.645669,2.645669 0 0 1 0,-3.74155 z" />
      <path
         id="path1912"
         style="fill:none;stroke:#ff00ff;stroke-linecap:round"
         d="m 151.1811,186.33071 v -13.6063 a 2.645669,2.645669 0 0 1 2.64567,-2.64567 h 221.48032 a 2.645669,2.645669 0 0 1 2.64567,2.64567 v 13.6063 a 2.645669,2.645669 0 0 1 -2.64567,2.64567 H 153.82677 a 2.645669,2.645669 0 0 1 -2.64567,-2.64567 z" />
      <path
         id="path1914"
         style="fill:none;stroke:#ff00ff;stroke-linecap:round"
         d="m 1322.8346,177.63779 a 377.95276,377.95276 0 1 0 -755.90547,0 377.95276,377.95276 0 1 0 755.90547,0 z" />
      <path
         id="path1916"
         style="fill:none;stroke:#ff00ff;stroke-linecap:round"
         d="m 1499.9663,-389.74023 9.6211,9.62111 a 2.645669,2.645669 0 0 1 0,3.74154 l -156.6102,156.61023 a 2.645669,2.645669 0 0 1 -3.7416,0 l -9.6211,-9.62111 a 2.645669,2.645669 0 0 1 0,-3.74154 l 156.6102,-156.61023 a 2.645669,2.645669 0 0 1 3.7416,0 z" />
      <path
         id="path1918"
         style="fill:none;stroke:#ff00ff;stroke-linecap:round"
         d="m 2123.2451,665.37301 -31.9152,62.63706 a 2.645669,2.645669 0 0 0 1.1562,3.55842 l 12.1233,6.17713 a 2.645669,2.645669 0 0 1 1.1562,3.55842 l 36.7196,-72.06629 a 2.645669,2.645669 0 0 1 -3.5584,1.1562 l -12.1233,-6.17714 a 2.645669,2.645669 0 0 0 -3.5584,1.1562 z" />
      <path
         id="path1920"
         style="fill:none;stroke:#ff00ff;stroke-linecap:round"
         d="m 2119.8601,465.55329 81.1588,41.35246 a 2.645669,2.645669 0 0 1 1.1562,3.55841 l -32.7731,64.32085 a 2.645669,2.645669 0 0 0 1.1562,3.55842 l 12.1233,6.17713 a 2.645669,2.645669 0 0 1 1.1562,3.55842 l 43.7546,-85.87339 a 2.645669,2.645669 0 0 0 -1.1562,-3.55842 l -102.7113,-52.33402 a 2.645669,2.645669 0 0 1 1.1562,3.55842 l -6.1771,12.1233 a 2.645669,2.645669 0 0 0 1.1562,3.55842 z" />
      <path
         id="path1922"
         style="fill:none;stroke:#ff00ff;stroke-linecap:round"
         d="m 1757.6197,756.07125 a 2.645669,2.645669 0 0 0 -3.5584,1.1562 l -6.1771,12.1233 a 2.645669,2.645669 0 0 1 -3.5584,1.1562 l 72.0663,36.71961 a 2.645669,2.645669 0 0 1 -1.1562,-3.55842 l 6.1771,-12.1233 a 2.645669,2.645669 0 0 0 -1.1562,-3.55842 z" />
      <path
         id="path1924"
         style="fill:none;stroke:#ff00ff;stroke-linecap:round"
         d="m 2008.8415,884.07512 -81.1588,-41.35246 a 2.645669,2.645669 0 0 0 -3.5584,1.1562 l -6.1771,12.12331 a 2.645669,2.645669 0 0 1 -3.5584,1.15619 l 102.7113,52.33403 a 2.645669,2.645669 0 0 0 3.5584,-1.1562 l 43.7546,-85.87339 a 2.645669,2.645669 0 0 1 -3.5584,1.1562 l -12.1233,-6.17713 a 2.645669,2.645669 0 0 0 -3.5584,1.1562 l -32.7731,64.32085 a 2.645669,2.645669 0 0 1 -3.5584,1.1562 z" />
      <path
         id="path1926"
         style="fill:none;stroke:#ff00ff;stroke-linecap:round"
         d="m 1852.1068,310.88613 a 2.645669,2.645669 0 0 1 3.5584,-1.1562 l -102.7113,-52.33402 a 2.645669,2.645669 0 0 0 -3.5584,1.1562 l -43.7547,85.87338 a 2.645669,2.645669 0 0 1 3.5584,-1.1562 l 12.1233,6.17713 a 2.645669,2.645669 0 0 0 3.5584,-1.1562 l 32.7731,-64.32084 a 2.645669,2.645669 0 0 1 3.5584,-1.15621 l 81.1588,41.35246 a 2.645669,2.645669 0 0 0 3.5584,-1.1562 z" />
      <path
         id="path1928"
         style="fill:none;stroke:#ff00ff;stroke-linecap:round"
         d="m 1949.7971,378.90187 62.6371,31.91518 a 2.645669,2.645669 0 0 0 3.5584,-1.1562 l 6.1771,-12.1233 a 2.645669,2.645669 0 0 1 3.5585,-1.1562 l -72.0663,-36.71961 a 2.645669,2.645669 0 0 1 1.1562,3.55841 l -6.1772,12.12331 a 2.645669,2.645669 0 0 0 1.1562,3.55841 z" />
    </g>
    <path
       d="m 2467.0251,-216.30305 v -96.75591 a 2.645669,2.645669 0 0 1 2.6456,-2.64566 h 13.6063 a 2.645669,2.645669 0 0 0 2.6457,-2.64567 v -96.75591 a 2.645669,2.645669 0 0 0 -2.6457,-2.64567 h -13.6063 a 2.645669,2.645669 0 0 1 -2.6456,-2.64567 v -70.29921 a 2.645669,2.645669 0 0 1 2.6456,-2.64567 h 13.6063 a 2.645669,2.645669 0 0 0 2.6457,-2.64567 V -592.744 a 2.645669,2.645669 0 0 0 -2.6457,-2.64566 h -13.6063 a 2.645669,2.645669 0 0 1 -2.6456,-2.64567 v -96.75591 a 2.645669,2.645669 0 0 1 2.6456,-2.64567 h 91.0867 a 2.645669,2.645669 0 0 1 2.6456,2.64567 v 13.6063 a 2.645669,2.645669 0 0 0 2.6457,2.64567 h 91.0866 a 2.645669,2.645669 0 0 0 2.6457,-2.64567 v -13.6063 a 2.645669,2.645669 0 0 1 2.6456,-2.64567 h 70.2993 a 2.645669,2.645669 0 0 1 2.6456,2.64567 v 13.6063 a 2.645669,2.645669 0 0 0 2.6457,2.64567 h 91.0866 a 2.645669,2.645669 0 0 0 2.6457,-2.64567 v -13.6063 a 2.645669,2.645669 0 0 1 2.6456,-2.64567 h 91.0867 a 2.645669,2.645669 0 0 1 2.6456,2.64567 v 96.75591 a 2.645669,2.645669 0 0 1 -2.6456,2.64567 h -13.6063 a 2.645669,2.645669 0 0 0 -2.6457,2.64566 v 96.75591 a 2.645669,2.645669 0 0 0 2.6457,2.64567 h 13.6063 a 2.645669,2.645669 0 0 1 2.6456,2.64567 v 70.29921 a 2.645669,2.645669 0 0 1 -2.6456,2.64567 h -13.6063 a 2.645669,2.645669 0 0 0 -2.6457,2.64567 v 96.75591 a 2.645669,2.645669 0 0 0 2.6457,2.64567 h 13.6063 a 2.645669,2.645669 0 0 1 2.6456,2.64566 v 96.75591 a 2.645669,2.645669 0 0 1 -2.6456,2.64567 h -91.0867 a 2.645669,2.645669 0 0 1 -2.6456,-2.64567 v -13.6063 a 2.645669,2.645669 0 0 0 -2.6457,-2.64567 h -91.0866 a 2.645669,2.645669 0 0 0 -2.6457,2.64567 v 13.6063 a 2.645669,2.645669 0 0 1 -2.6456,2.64567 h -70.2993 a 2.645669,2.645669 0 0 1 -2.6456,-2.64567 v -13.6063 a 2.645669,2.645669 0 0 0 -2.6457,-2.64567 h -91.0866 a 2.645669,2.645669 0 0 0 -2.6457,2.64567 v 13.6063 a 2.645669,2.645669 0 0 1 -2.6456,2.64567 h -91.0867 a 2.645669,2.645669 0 0 1 -2.6456,-2.64567 z"
       style="fill:none;stroke:#ff00ff;stroke-linecap:round"
       id="path1717" />
    <path
       d="m 2005.9227,-216.30305 v -96.75591 a 2.645669,2.645669 0 0 1 2.6457,-2.64566 h 13.6063 a 2.645669,2.645669 0 0 0 2.6456,-2.64567 v -96.75591 a 2.645669,2.645669 0 0 0 -2.6456,-2.64567 h -13.6063 a 2.645669,2.645669 0 0 1 -2.6457,-2.64567 v -70.29921 a 2.645669,2.645669 0 0 1 2.6457,-2.64567 h 13.6063 a 2.645669,2.645669 0 0 0 2.6456,-2.64567 V -592.744 a 2.645669,2.645669 0 0 0 -2.6456,-2.64566 h -13.6063 a 2.645669,2.645669 0 0 1 -2.6457,-2.64567 v -96.75591 a 2.645669,2.645669 0 0 1 2.6457,-2.64567 h 91.0866 a 2.645669,2.645669 0 0 1 2.6457,2.64567 v 13.6063 a 2.645669,2.645669 0 0 0 2.6456,2.64567 h 91.0866 a 2.645669,2.645669 0 0 0 2.6457,-2.64567 v -13.6063 a 2.645669,2.645669 0 0 1 2.6457,-2.64567 h 70.2992 a 2.645669,2.645669 0 0 1 2.6457,2.64567 v 13.6063 a 2.645669,2.645669 0 0 0 2.6456,2.64567 h 91.0866 a 2.645669,2.645669 0 0 0 2.6457,-2.64567 v -13.6063 a 2.645669,2.645669 0 0 1 2.6457,-2.64567 h 91.0866 a 2.645669,2.645669 0 0 1 2.6457,2.64567 v 96.75591 a 2.645669,2.645669 0 0 1 -2.6457,2.64567 h -13.6063 a 2.645669,2.645669 0 0 0 -2.6457,2.64566 v 96.75591 a 2.645669,2.645669 0 0 0 2.6457,2.64567 h 13.6063 a 2.645669,2.645669 0 0 1 2.6457,2.64567 v 70.29921 a 2.645669,2.645669 0 0 1 -2.6457,2.64567 h -13.6063 a 2.645669,2.645669 0 0 0 -2.6457,2.64567 v 96.75591 a 2.645669,2.645669 0 0 0 2.6457,2.64567 h 13.6063 a 2.645669,2.645669 0 0 1 2.6457,2.64566 v 96.75591 a 2.645669,2.645669 0 0 1 -2.6457,2.64567 h -91.0866 a 2.645669,2.645669 0 0 1 -2.6457,-2.64567 v -13.6063 a 2.645669,2.645669 0 0 0 -2.6457,-2.64567 h -91.0866 a 2.645669,2.645669 0 0 0 -2.6456,2.64567 v 13.6063 a 2.645669,2.645669 0 0 1 -2.6457,2.64567 h -70.2992 a 2.645669,2.645669 0 0 1 -2.6457,-2.64567 v -13.6063 a 2.645669,2.645669 0 0 0 -2.6457,-2.64567 h -91.0866 a 2.645669,2.645669 0 0 0 -2.6456,2.64567 v 13.6063 a 2.645669,2.645669 0 0 1 -2.6457,2.64567 h -91.0866 a 2.645669,2.645669 0 0 1 -2.6457,-2.64567 z"
       style="fill:none;stroke:#ff00ff;stroke-linecap:round"
       id="path1719" />
    <path
       d="m 2947.0251,-216.30305 v -96.75591 a 2.645669,2.645669 0 0 0 -2.6457,-2.64566 h -13.6063 a 2.645669,2.645669 0 0 1 -2.6457,-2.64567 v -96.75591 a 2.645669,2.645669 0 0 1 2.6457,-2.64567 h 13.6063 a 2.645669,2.645669 0 0 0 2.6457,-2.64567 v -70.29921 a 2.645669,2.645669 0 0 0 -2.6457,-2.64567 h -13.6063 a 2.645669,2.645669 0 0 1 -2.6457,-2.64567 V -592.744 a 2.645669,2.645669 0 0 1 2.6457,-2.64566 h 13.6063 a 2.645669,2.645669 0 0 0 2.6457,-2.64567 v -96.75591 a 2.645669,2.645669 0 0 1 2.6456,-2.64567 h 91.0867 a 2.645669,2.645669 0 0 1 2.6456,2.64567 v 13.6063 a 2.645669,2.645669 0 0 0 2.6457,2.64567 h 109.9842 a 2.645669,2.645669 0 0 0 2.6457,-2.64567 v -13.6063 a 2.645669,2.645669 0 0 1 2.6457,-2.64567 h 70.2992 a 2.645669,2.645669 0 0 1 2.6457,2.64567 v 13.6063 a 2.645669,2.645669 0 0 0 2.6456,2.64567 h 109.9843 a 2.645669,2.645669 0 0 0 2.6457,-2.64567 v -13.6063 a 2.645669,2.645669 0 0 1 2.6456,-2.64567 h 91.0866 a 2.645669,2.645669 0 0 1 2.6457,2.64567 v 96.75591 a 2.645669,2.645669 0 0 0 2.6457,2.64567 h 13.6063 a 2.645669,2.645669 0 0 1 2.6456,2.64566 v 96.75591 a 2.645669,2.645669 0 0 1 -2.6456,2.64567 h -13.6063 a 2.645669,2.645669 0 0 0 -2.6457,2.64567 v 70.29921 a 2.645669,2.645669 0 0 0 2.6457,2.64567 h 13.6063 a 2.645669,2.645669 0 0 1 2.6456,2.64567 v 96.75591 a 2.645669,2.645669 0 0 1 -2.6456,2.64567 h -13.6063 a 2.645669,2.645669 0 0 0 -2.6457,2.64566 v 96.75591 a 2.645669,2.645669 0 0 1 -2.6457,2.64567 h -91.0866 a 2.645669,2.645669 0 0 1 -2.6456,-2.64567 v -13.6063 a 2.645669,2.645669 0 0 0 -2.6457,-2.64567 h -109.9843 a 2.645669,2.645669 0 0 0 -2.6456,2.64567 v 13.6063 a 2.645669,2.645669 0 0 1 -2.6457,2.64567 h -70.2992 a 2.645669,2.645669 0 0 1 -2.6457,-2.64567 v -13.6063 a 2.645669,2.645669 0 0 0 -2.6457,-2.64567 h -109.9842 a 2.645669,2.645669 0 0 0 -2.6457,2.64567 v 13.6063 a 2.645669,2.645669 0 0 1 -2.6456,2.64567 h -91.0867 a 2.645669,2.645669 0 0 1 -2.6456,-2.64567 z"
       style="fill:none;stroke:#ff00ff;stroke-linecap:round"
       id="path1721" />
    <path
       d="m 2947.0251,267.47648 v -96.75591 a 2.645669,2.645669 0 0 0 -2.6457,-2.64567 h -13.6063 a 2.645669,2.645669 0 0 1 -2.6457,-2.64567 V 68.673328 a 2.645669,2.645669 0 0 1 2.6457,-2.645669 h 13.6063 a 2.645669,2.645669 0 0 0 2.6457,-2.645669 V -6.917223 a 2.645669,2.645669 0 0 0 -2.6457,-2.645669 h -13.6063 a 2.645669,2.645669 0 0 1 -2.6457,-2.645669 v -96.755909 a 2.645669,2.645669 0 0 1 2.6457,-2.64567 h 13.6063 a 2.645669,2.645669 0 0 0 2.6457,-2.64567 v -96.7559 a 2.645669,2.645669 0 0 1 2.6456,-2.64567 h 91.0867 a 2.645669,2.645669 0 0 1 2.6456,2.64567 v 13.6063 a 2.645669,2.645669 0 0 0 2.6457,2.64567 h 109.9842 a 2.645669,2.645669 0 0 0 2.6457,-2.64567 v -13.6063 a 2.645669,2.645669 0 0 1 2.6457,-2.64567 h 70.2992 a 2.645669,2.645669 0 0 1 2.6457,2.64567 v 13.6063 a 2.645669,2.645669 0 0 0 2.6456,2.64567 h 109.9843 a 2.645669,2.645669 0 0 0 2.6457,-2.64567 v -13.6063 a 2.645669,2.645669 0 0 1 2.6456,-2.64567 h 91.0866 a 2.645669,2.645669 0 0 1 2.6457,2.64567 v 96.7559 a 2.645669,2.645669 0 0 0 2.6457,2.64567 h 13.6063 a 2.645669,2.645669 0 0 1 2.6456,2.64567 v 96.755909 a 2.645669,2.645669 0 0 1 -2.6456,2.645669 h -13.6063 a 2.645669,2.645669 0 0 0 -2.6457,2.645669 V 63.38199 a 2.645669,2.645669 0 0 0 2.6457,2.645669 h 13.6063 a 2.645669,2.645669 0 0 1 2.6456,2.645669 v 96.755902 a 2.645669,2.645669 0 0 1 -2.6456,2.64567 h -13.6063 a 2.645669,2.645669 0 0 0 -2.6457,2.64567 v 96.75591 a 2.645669,2.645669 0 0 1 -2.6457,2.64567 h -91.0866 a 2.645669,2.645669 0 0 1 -2.6456,-2.64567 v -13.6063 a 2.645669,2.645669 0 0 0 -2.6457,-2.64567 h -109.9843 a 2.645669,2.645669 0 0 0 -2.6456,2.64567 v 13.6063 a 2.645669,2.645669 0 0 1 -2.6457,2.64567 h -70.2992 a 2.645669,2.645669 0 0 1 -2.6457,-2.64567 v -13.6063 a 2.645669,2.645669 0 0 0 -2.6457,-2.64567 h -109.9842 a 2.645669,2.645669 0 0 0 -2.6457,2.64567 v 13.6063 a 2.645669,2.645669 0 0 1 -2.6456,2.64567 h -91.0867 a 2.645669,2.645669 0 0 1 -2.6456,-2.64567 z"
       style="fill:none;stroke:#ff00ff;stroke-linecap:round"
       id="path1723" />
  </g>
</svg>
